<?xml version="1.0" encoding="UTF-8" standalone="no"?>
<svg
   xmlns:dc="http://purl.org/dc/elements/1.1/"
   xmlns:cc="http://creativecommons.org/ns#"
   xmlns:rdf="http://www.w3.org/1999/02/22-rdf-syntax-ns#"
   xmlns:svg="http://www.w3.org/2000/svg"
   xmlns="http://www.w3.org/2000/svg"
   xmlns:sodipodi="http://sodipodi.sourceforge.net/DTD/sodipodi-0.dtd"
   xmlns:inkscape="http://www.inkscape.org/namespaces/inkscape"
   width="41"
   height="35"
   viewBox="0 0 41 35"
   version="1.1"
   id="svg2"
   inkscape:version="0.91 r13725"
   sodipodi:docname="icon_chat_orange.svg">
  <metadata
     id="metadata16">
    <rdf:RDF>
      <cc:Work
         rdf:about="">
        <dc:format>image/svg+xml</dc:format>
        <dc:type
           rdf:resource="http://purl.org/dc/dcmitype/StillImage" />
        <dc:title>Artboard</dc:title>
      </cc:Work>
    </rdf:RDF>
  </metadata>
  <sodipodi:namedview
     pagecolor="#ffffff"
     bordercolor="#666666"
     borderopacity="1"
     objecttolerance="10"
     gridtolerance="10"
     guidetolerance="10"
     inkscape:pageopacity="0"
     inkscape:pageshadow="2"
     inkscape:window-width="1297"
     inkscape:window-height="724"
     id="namedview14"
     showgrid="false"
     inkscape:zoom="8.34386"
     inkscape:cx="6.767313"
     inkscape:cy="23.475004"
     inkscape:window-x="48"
     inkscape:window-y="8"
     inkscape:window-maximized="0"
     inkscape:current-layer="svg2" />
  <!-- Generator: Sketch 40 (33762) - http://www.bohemiancoding.com/sketch -->
  <title
     id="title4">Artboard</title>
  <desc
     id="desc6">Created with Sketch.</desc>
  <defs
     id="defs8" />
  <g
     id="Symbols-Copy"
     transform="matrix(0.97650131,0,0,0.97185519,-5.3772847,-2.4224912)"
     style="fill:none;fill-rule:evenodd;stroke:none;stroke-width:1">
    <g
       id="Artboard"
       style="stroke:#f66429">
      <g
         id="Message-Alert"
         transform="translate(6,3)">
        <path
           d="M 30.796055,1.9479154 C 27.654219,0.64930513 24.222014,0 20.500281,0 17.724075,0 15.070027,0.38337525 12.538137,1.1504054 10.006247,1.9174355 7.8251027,2.9540307 5.9947055,4.2601911 4.1640274,5.5663514 2.7076849,7.1194266 1.6245548,8.9191371 0.54142466,10.718848 0,12.606083 0,14.580563 c 0,2.278161 0.68997945,4.41287 2.0705,6.402451 1.3805206,1.98958 3.2679247,3.660381 5.662774,5.012121 -0.1679315,0.60736 -0.3661918,1.18452 -0.5950617,1.731201 -0.2288698,0.54668 -0.4347123,0.995209 -0.6178082,1.344469 -0.1830959,0.349261 -0.4307808,0.736551 -0.7436164,1.161871 -0.3125548,0.42532 -0.5490069,0.725365 -0.7090754,0.899855 -0.1600685,0.17477 -0.4231986,0.46363 -0.7893904,0.86574 -0.3659109,0.40267 -0.602363,0.664685 -0.7090753,0.786325 -0.015445,0.0073 -0.076384,0.07578 -0.1830959,0.20497 -0.1067123,0.12891 -0.1600685,0.193226 -0.1600685,0.193226 l -0.1373219,0.20469 c -0.076384,0.11409 -0.1106439,0.186235 -0.1030617,0.216156 0.00758,0.02992 -0.00758,0.10626 -0.045774,0.22762 -0.038192,0.12164 -0.03426,0.2128 0.011514,0.27376 0.061219,0.29613 0.1946095,0.5162 0.400452,0.68314 0.2058425,0.16694 0.4386439,0.23545 0.6978425,0.20469 0.9915822,-0.121639 1.8610068,-0.28802 2.6082739,-0.50082 3.996377,-1.01814 7.504685,-2.855321 10.524644,-5.513781 1.143787,0.12164 2.249664,0.18232 3.317349,0.18232 3.721733,0 7.153938,-0.649305 10.295774,-1.948474 3.141836,-1.298331 5.628233,-3.067841 7.45863,-5.307692 C 40.084801,19.665109 41,17.223364 41,14.580563 41,11.937763 40.084801,9.4960176 38.254966,7.2561666 36.424288,5.0160359 33.93789,3.2465256 30.796055,1.9479154 Z"
           id="Shape"
           inkscape:connector-curvature="0" />
      </g>
    </g>
  </g>
</svg>
