<?xml version="1.0" encoding="UTF-8" standalone="no"?>
<svg
   xmlns:dc="http://purl.org/dc/elements/1.1/"
   xmlns:cc="http://creativecommons.org/ns#"
   xmlns:rdf="http://www.w3.org/1999/02/22-rdf-syntax-ns#"
   xmlns:svg="http://www.w3.org/2000/svg"
   xmlns="http://www.w3.org/2000/svg"
   xmlns:sodipodi="http://sodipodi.sourceforge.net/DTD/sodipodi-0.dtd"
   xmlns:inkscape="http://www.inkscape.org/namespaces/inkscape"
   width="10"
   height="10"
   viewBox="0 0 10 10"
   version="1.1"
   id="svg2"
   inkscape:version="0.91 r13725"
   sodipodi:docname="up arrow.svg">
  <metadata
     id="metadata15">
    <rdf:RDF>
      <cc:Work
         rdf:about="">
        <dc:format>image/svg+xml</dc:format>
        <dc:type
           rdf:resource="http://purl.org/dc/dcmitype/StillImage" />
        <dc:title>Down Arrow</dc:title>
      </cc:Work>
    </rdf:RDF>
  </metadata>
  <sodipodi:namedview
     pagecolor="#ffffff"
     bordercolor="#666666"
     borderopacity="1"
     objecttolerance="10"
     gridtolerance="10"
     guidetolerance="10"
     inkscape:pageopacity="0"
     inkscape:pageshadow="2"
     inkscape:window-width="1282"
     inkscape:window-height="658"
     id="namedview13"
     showgrid="false"
     inkscape:zoom="23.846154"
     inkscape:cx="1.2580645"
     inkscape:cy="3.5"
     inkscape:window-x="0"
     inkscape:window-y="23"
     inkscape:window-maximized="0"
     inkscape:current-layer="svg2" />
  <!-- Generator: Sketch 40 (33762) - http://www.bohemiancoding.com/sketch -->
  <title
     id="title4">Down Arrow</title>
  <desc
     id="desc6">Created with Sketch.</desc>
  <defs
     id="defs8" />
  <g
     id="Symbols"
     style="fill:none;fill-rule:evenodd;stroke:none;stroke-width:1"
     transform="matrix(0.82872926,0,0,0.82872926,0,2.1001968)">
    <g
       id="Artboard"
       transform="translate(-3,-7)"
       style="fill:#6e6a60">
      <path
         d="M 14.34156,7.1202819 C 14.260976,7.0399956 14.168223,7 14.0633,7 13.958675,7 13.865921,7.0399956 13.785337,7.1202819 L 9.0334075,11.84581 4.2816261,7.1204295 C 4.2010421,7.0401432 4.108289,7.0001476 4.003515,7.0001476 c -0.104774,0 -0.1975271,0.039996 -0.2781111,0.1202819 L 3.1209501,7.7215437 C 3.0402178,7.8016825 3,7.8939232 3,7.9981183 3,8.1023134 3.0403662,8.1945541 3.1209501,8.2746928 l 5.6343464,5.6033652 c 0.080584,0.08014 0.1733371,0.120134 0.278111,0.120134 0.104774,0 0.1973788,-0.03999 0.2779627,-0.120134 L 14.946013,8.2746928 c 0.08058,-0.080139 0.120654,-0.1723794 0.120654,-0.2765745 0,-0.1041951 -0.04007,-0.1964358 -0.120654,-0.2767221 L 14.34156,7.1202819 Z"
         id="Down-Arrow"
         transform="matrix(1,0,0,-1,0,20.998192)"
         inkscape:connector-curvature="0" />
    </g>
  </g>
</svg>
