<?xml version="1.0" encoding="utf-8"?>
<!-- Generator: Adobe Illustrator 15.1.0, SVG Export Plug-In . SVG Version: 6.00 Build 0)  -->
<!DOCTYPE svg PUBLIC "-//W3C//DTD SVG 1.1//EN" "http://www.w3.org/Graphics/SVG/1.1/DTD/svg11.dtd">
<svg version="1.1" id="Layer_1" xmlns="http://www.w3.org/2000/svg" xmlns:xlink="http://www.w3.org/1999/xlink" x="0px" y="0px"
	 width="16px" height="20px" viewBox="0 0 16 20" enable-background="new 0 0 16 20" xml:space="preserve">
<path fill="#FFFFFF" d="M14.846,13.333c-0.018-0.234-0.079-0.479-0.163-0.729C14.648,8.372,16,6.617,16,6.617
	s-2.033,0.047-4.38,1.306c-0.048-0.07-0.097-0.137-0.147-0.207c0.072-1.715,0.413-3.431,0.91-4.696
	c-0.293,0.157-1.535,0.664-2.789,1.581C8.95,3.102,8.749,1.553,9.516,0C3.552,4.161,0.001,8.804,0,12.538
	C-0.003,15.444,0.744,20,7.968,20c4.254,0,6.421-1.586,6.825-4.664l0.094,0.093c-0.019-0.141-0.027-0.267-0.044-0.4
	C14.889,14.502,14.897,13.942,14.846,13.333z M11.295,16.639c-0.463,0.789-0.699,1.021-3.693,1.105
	c-2.991,0.08-3.547-0.553-4.101-1.544c-1.575-2.828,0.414-4.613,0.299-4.405c-0.112,0.207-0.716,2.026,2.167,3.509
	c-1.416-1.717,1.159-3.772,2.113-4.723c0,2.438,1.017,4.723,1.017,4.723s1.642-0.938,2.826-4.322
	C12.549,13.612,12.655,14.335,11.295,16.639z"/>
</svg>
