<?xml version="1.0" encoding="UTF-8" ?>
<!DOCTYPE svg PUBLIC "-//W3C//DTD SVG 1.1//EN" "http://www.w3.org/Graphics/SVG/1.1/DTD/svg11.dtd">
<svg width="399pt" height="288pt" viewBox="0 0 399 288" version="1.1" xmlns="http://www.w3.org/2000/svg">
<path fill="#6f6f6f" d=" M 0.00 0.00 L 399.00 0.00 L 399.00 1.00 C 266.00 1.00 133.00 1.00 0.00 1.00 L 0.00 0.00 Z" />
<path fill="#f9f9fa" d=" M 0.00 1.00 C 133.00 1.00 266.00 1.00 399.00 1.00 L 399.00 288.00 L 0.00 288.00 L 0.00 1.00 Z" />
<path fill="#6fa7e8" d=" M 43.37 164.98 C 43.41 118.15 43.34 71.32 43.40 24.49 C 154.24 24.56 265.09 24.39 375.93 24.58 C 375.81 71.38 375.91 118.19 375.88 164.99 C 265.04 165.00 154.20 165.02 43.37 164.98 Z" />
<path fill="#d5e6f9" d=" M 45.20 26.35 C 154.78 26.38 264.37 26.39 373.95 26.35 C 374.06 71.93 373.98 117.52 373.99 163.11 C 264.39 163.14 154.79 163.13 45.20 163.12 C 45.18 117.53 45.18 71.94 45.20 26.35 Z" />
<path fill="#6fa7e8" d=" M 46.73 33.52 C 58.20 33.47 69.68 33.52 81.15 33.49 C 81.97 34.54 82.80 35.59 83.63 36.63 C 95.70 37.21 107.79 36.92 119.87 37.02 C 119.87 66.09 119.88 95.16 119.87 124.24 C 96.93 124.32 74.00 124.21 51.06 123.87 C 50.17 97.91 50.63 71.93 50.46 45.96 C 50.83 43.61 48.59 42.35 47.15 40.95 C 46.98 38.48 46.86 36.00 46.73 33.52 Z" />
<path fill="#6fa7e8" d=" M 132.30 37.04 C 155.99 36.96 179.67 37.01 203.36 37.01 C 203.38 66.04 203.39 95.08 203.36 124.11 C 179.66 124.06 155.96 124.30 132.27 123.99 C 132.36 95.01 132.31 66.02 132.30 37.04 Z" />
<path fill="#6fa7e8" d=" M 214.13 37.02 C 237.81 36.99 261.49 36.99 285.17 37.01 C 285.19 66.05 285.20 95.08 285.17 124.11 C 261.49 124.14 237.82 124.14 214.14 124.11 C 214.11 95.08 214.14 66.05 214.13 37.02 Z" />
<path fill="#6fa7e8" d=" M 295.89 37.01 C 319.57 36.99 343.25 37.00 366.93 37.01 C 367.04 66.08 366.97 95.15 366.82 124.23 C 343.18 124.27 319.53 124.26 295.89 124.23 C 295.86 95.16 295.86 66.09 295.89 37.01 Z" />
<path fill="#f9f9fa" d=" M 74.02 42.46 C 79.87 42.36 85.15 39.06 91.04 39.25 C 100.02 39.23 109.01 38.96 118.00 39.00 C 118.00 66.79 118.00 94.57 117.99 122.36 C 96.04 122.38 74.08 122.37 52.12 122.36 C 52.16 95.69 52.16 69.02 52.19 42.35 C 59.47 42.25 66.74 42.66 74.02 42.46 Z" />
<path fill="#f9f9fa" d=" M 134.19 38.88 C 156.66 38.94 179.14 38.74 201.61 38.98 C 201.47 66.78 201.68 94.58 201.50 122.39 C 179.04 122.34 156.58 122.39 134.13 122.36 C 134.15 94.53 134.16 66.70 134.19 38.88 Z" />
<path fill="#f9f9fa" d=" M 215.91 39.13 C 238.38 39.12 260.85 39.13 283.32 39.12 C 283.31 66.87 283.38 94.61 283.36 122.36 C 260.87 122.38 238.38 122.38 215.89 122.36 C 215.86 94.61 215.96 66.87 215.91 39.13 Z" />
<path fill="#f9f9fa" d=" M 297.76 38.89 C 320.09 38.89 342.42 38.83 364.75 38.92 C 364.82 66.68 364.62 94.46 364.85 122.22 C 342.48 122.55 320.09 122.29 297.70 122.35 C 297.69 94.53 297.72 66.71 297.76 38.89 Z" />
<path fill="#6fa7e8" d=" M 21.95 75.16 C 27.14 79.90 32.22 84.83 36.20 90.67 C 31.62 95.09 26.93 99.38 22.08 103.50 C 21.79 100.64 21.51 97.77 21.26 94.90 C 17.85 94.88 14.44 94.86 11.03 94.89 C 9.37 91.29 9.07 87.32 9.30 83.41 C 13.32 83.35 17.34 83.25 21.36 83.27 C 21.60 80.57 21.78 77.86 21.95 75.16 Z" />
<path fill="#6fa7e8" d=" M 50.54 131.11 C 73.65 131.16 96.76 131.10 119.87 131.14 C 119.87 133.53 119.88 135.93 119.89 138.33 C 96.78 138.43 73.68 138.36 50.57 138.37 C 50.56 135.95 50.55 133.53 50.54 131.11 Z" />
<path fill="#6fa7e8" d=" M 132.28 131.13 C 155.96 131.10 179.64 131.16 203.32 131.10 C 203.36 133.52 203.38 135.94 203.38 138.36 C 179.75 138.47 156.13 138.21 132.51 138.49 C 132.32 136.04 132.24 133.59 132.28 131.13 Z" />
<path fill="#6fa7e8" d=" M 214.01 131.12 C 237.73 131.14 261.44 131.11 285.15 131.14 C 285.17 133.54 285.18 135.95 285.18 138.35 C 261.46 138.40 237.73 138.38 214.00 138.36 C 214.00 135.95 214.00 133.53 214.01 131.12 Z" />
<path fill="#6fa7e8" d=" M 296.02 131.35 C 319.64 131.41 343.26 131.36 366.89 131.37 C 366.91 133.66 366.94 135.94 366.95 138.23 C 343.23 138.26 319.51 138.26 295.80 138.23 C 295.84 135.93 295.92 133.64 296.02 131.35 Z" />
<path fill="#6fa7e8" d=" M 132.27 145.49 C 155.98 145.55 179.69 145.40 203.39 145.57 C 203.40 147.85 203.42 150.13 203.44 152.42 C 179.72 152.62 155.99 152.44 132.27 152.51 C 132.26 150.17 132.26 147.83 132.27 145.49 Z" />
<path fill="#6fa7e8" d=" M 50.55 145.51 C 73.69 145.52 96.83 145.45 119.97 145.54 C 119.94 147.90 119.83 150.27 119.63 152.63 C 96.59 152.33 73.55 152.60 50.51 152.49 C 50.52 150.16 50.54 147.83 50.55 145.51 Z" />
<path fill="#6fa7e8" d=" M 214.05 145.50 C 237.78 145.51 261.51 145.48 285.24 145.52 C 285.19 147.84 285.14 150.16 285.08 152.48 C 261.41 152.53 237.73 152.49 214.06 152.50 C 214.05 150.17 214.05 147.83 214.05 145.50 Z" />
<path fill="#6fa7e8" d=" M 295.88 145.52 C 319.57 145.50 343.26 145.46 366.95 145.54 C 366.94 147.85 366.94 150.16 366.94 152.47 C 343.25 152.53 319.57 152.51 295.88 152.48 C 295.87 150.16 295.87 147.84 295.88 145.52 Z" />
<path fill="#c4daf3" d=" M 43.32 170.21 C 78.21 169.84 113.11 170.15 148.01 170.05 C 220.68 170.04 293.35 170.06 366.01 170.04 C 369.37 170.00 372.77 169.83 376.08 170.56 C 375.92 183.41 376.05 196.27 376.01 209.12 L 375.11 209.10 C 375.11 196.40 375.15 183.69 375.09 170.99 C 264.73 171.00 154.37 170.94 44.02 171.02 L 44.06 171.98 L 44.08 172.47 C 43.72 184.71 44.36 196.97 43.72 209.20 C 42.81 205.18 43.29 201.05 43.21 196.97 C 43.30 188.05 43.03 179.13 43.32 170.21 Z" />
<path fill="#a5a3a3" d=" M 44.02 171.02 C 154.37 170.94 264.73 171.00 375.09 170.99 C 375.15 183.69 375.11 196.40 375.11 209.10 C 264.65 209.18 154.18 208.99 43.72 209.20 C 44.36 196.97 43.72 184.71 44.08 172.47 C 45.60 173.18 47.15 173.83 48.71 174.48 C 48.77 178.32 49.13 182.18 48.61 186.00 C 48.19 188.87 45.44 190.93 45.50 193.92 C 45.32 198.46 45.47 203.00 45.35 207.54 C 154.89 207.51 264.43 207.53 373.97 207.53 C 374.03 196.02 374.00 184.50 373.99 172.99 L 373.99 172.01 C 271.32 171.99 168.66 172.02 65.99 172.00 C 59.04 172.04 52.07 171.82 45.13 172.26 C 44.86 172.19 44.33 172.05 44.06 171.98 L 44.02 171.02 Z" />
<path fill="#f9f9fa" d=" M 44.06 171.98 C 44.33 172.05 44.86 172.19 45.13 172.26 C 46.90 172.79 48.65 173.36 50.45 173.80 C 50.42 184.50 50.43 195.19 50.38 205.88 C 65.83 205.90 81.29 205.92 96.74 205.87 C 96.74 195.11 96.82 184.34 96.69 173.58 C 102.76 172.49 108.93 173.11 115.05 172.99 C 201.37 172.98 287.68 172.99 373.99 172.99 C 374.00 184.50 374.03 196.02 373.97 207.53 C 264.43 207.53 154.89 207.51 45.35 207.54 C 45.47 203.00 45.32 198.46 45.50 193.92 C 45.44 190.93 48.19 188.87 48.61 186.00 C 49.13 182.18 48.77 178.32 48.71 174.48 C 47.15 173.83 45.60 173.18 44.08 172.47 L 44.06 171.98 Z" />
<path fill="#c9def6" d=" M 45.13 172.26 C 52.07 171.82 59.04 172.04 65.99 172.00 C 168.66 172.02 271.32 171.99 373.99 172.01 L 373.99 172.99 C 287.68 172.99 201.37 172.98 115.05 172.99 C 108.93 173.11 102.76 172.49 96.69 173.58 C 90.83 174.35 84.91 173.82 79.02 173.96 C 69.50 173.85 59.96 174.17 50.45 173.80 C 48.65 173.36 46.90 172.79 45.13 172.26 Z" />
<path fill="#a5a3a3" d=" M 50.45 173.80 C 59.96 174.17 69.50 173.85 79.02 173.96 C 84.91 173.82 90.83 174.35 96.69 173.58 C 96.82 184.34 96.74 195.11 96.74 205.87 C 81.29 205.92 65.83 205.90 50.38 205.88 C 50.43 195.19 50.42 184.50 50.45 173.80 Z" />
<path fill="#f9f9fa" d=" M 52.39 203.98 C 52.66 194.55 52.18 185.10 52.64 175.68 C 66.69 176.04 80.74 175.60 94.78 175.90 C 94.67 185.30 94.77 194.69 94.73 204.08 C 80.61 204.04 66.50 204.25 52.39 203.98 Z" />
<path fill="#a5a3a3" d=" M 100.13 177.37 C 149.38 177.41 198.63 177.40 247.89 177.38 C 247.89 179.21 247.90 181.05 247.90 182.89 C 198.67 182.90 149.44 182.90 100.21 182.89 C 100.18 181.05 100.16 179.21 100.13 177.37 Z" />
<path fill="#a5a3a3" d=" M 251.35 177.41 C 259.09 177.45 266.84 177.43 274.59 177.42 C 274.58 179.22 274.58 181.03 274.59 182.83 C 266.83 182.83 259.08 182.83 251.33 182.83 C 251.34 181.02 251.34 179.22 251.35 177.41 Z" />
<path fill="#a5a3a3" d=" M 361.49 179.08 C 364.54 179.09 367.59 179.10 370.65 179.13 C 370.67 182.20 370.65 185.28 370.60 188.36 C 367.56 188.32 364.52 188.31 361.48 188.33 C 361.48 185.25 361.48 182.17 361.49 179.08 Z" />
<path fill="#cddbeb" d=" M 365.09 187.11 C 364.15 184.74 364.12 181.96 366.61 180.57 C 367.29 181.73 367.97 182.89 368.64 184.05 C 367.46 185.07 366.28 186.09 365.09 187.11 Z" />
<path fill="#a5a3a3" d=" M 100.10 188.20 C 133.37 188.20 166.64 188.18 199.92 188.21 C 199.90 189.37 199.88 190.54 199.87 191.71 C 166.65 191.69 133.43 191.69 100.21 191.71 C 100.17 190.54 100.13 189.37 100.10 188.20 Z" />
<path fill="#a5a3a3" d=" M 341.98 190.04 C 351.69 189.62 361.45 189.40 371.10 190.84 C 361.50 192.41 351.71 191.58 342.03 191.81 C 342.01 191.37 341.99 190.49 341.98 190.04 Z" />
<path fill="#a5a3a3" d=" M 340.87 194.26 C 350.73 192.79 360.75 193.60 370.69 193.40 C 370.66 193.91 370.62 194.92 370.60 195.43 C 360.67 195.38 350.70 196.01 340.87 194.26 Z" />
<path fill="#a5a3a3" d=" M 100.19 197.05 C 122.26 196.95 144.34 197.01 166.42 197.01 C 166.27 198.23 166.12 199.45 165.98 200.67 C 144.02 200.54 122.07 200.63 100.11 200.63 C 100.14 199.43 100.16 198.24 100.19 197.05 Z" />
<path fill="#a9a8aa" d=" M 342.00 197.00 C 351.70 197.08 361.40 196.85 371.09 197.11 C 370.94 197.53 370.63 198.35 370.48 198.77 C 361.00 199.22 351.48 198.84 341.99 198.95 C 342.00 198.46 342.00 197.48 342.00 197.00 Z" />
<path fill="#a5a3a3" d=" M 43.32 215.02 C 73.20 214.69 103.11 214.97 133.00 214.88 C 213.95 214.89 294.91 214.85 375.87 214.89 C 375.88 227.88 375.88 240.88 375.87 253.87 C 265.05 253.88 154.23 253.88 43.41 253.87 C 43.42 240.92 43.46 227.97 43.32 215.02 Z" />
<path fill="#f9f9fa" d=" M 45.21 216.51 C 154.79 216.47 264.37 216.53 373.95 216.47 C 374.05 228.35 373.99 240.23 373.99 252.11 C 264.41 252.13 154.83 252.13 45.26 252.12 C 45.23 240.25 45.18 228.38 45.21 216.51 Z" />
<path fill="#a5a3a3" d=" M 50.48 218.43 C 65.88 218.33 81.27 218.39 96.67 218.40 C 96.63 229.08 96.84 239.76 96.56 250.44 C 81.21 250.30 65.86 250.43 50.51 250.37 C 50.47 239.72 50.53 229.08 50.48 218.43 Z" />
<path fill="#f9f9fa" d=" M 52.25 220.14 C 66.47 220.11 80.68 220.11 94.90 220.14 C 94.94 229.59 94.96 239.05 94.89 248.50 C 80.68 248.51 66.47 248.50 52.27 248.50 C 52.23 239.05 52.26 229.59 52.25 220.14 Z" />
<path fill="#a5a3a3" d=" M 100.27 221.88 C 149.47 221.88 198.67 221.86 247.87 221.89 C 247.87 223.63 247.87 225.37 247.87 227.11 C 198.65 227.14 149.42 227.13 100.20 227.11 C 100.22 225.36 100.24 223.62 100.27 221.88 Z" />
<path fill="#a5a3a3" d=" M 361.63 223.63 C 364.58 223.62 367.52 223.61 370.47 223.59 C 370.57 226.55 370.59 229.52 370.53 232.48 C 367.54 232.52 364.55 232.51 361.56 232.45 C 361.57 229.51 361.59 226.57 361.63 223.63 Z" />
<path fill="#e8e7e8" d=" M 363.63 227.81 C 364.68 226.08 367.37 225.71 367.97 228.02 C 368.82 229.95 366.14 229.91 365.07 230.33 C 364.71 229.70 363.99 228.44 363.63 227.81 Z" />
<path fill="#a5a3a3" d=" M 100.27 232.49 C 133.46 232.50 166.66 232.50 199.85 232.49 C 199.86 233.69 199.87 234.90 199.88 236.11 C 166.67 236.13 133.46 236.14 100.24 236.10 C 100.25 234.90 100.26 233.69 100.27 232.49 Z" />
<path fill="#a5a3a3" d=" M 342.31 234.46 C 347.88 234.21 353.47 234.48 359.05 234.37 C 362.78 234.48 366.63 234.04 370.25 235.20 C 360.87 237.34 351.21 235.84 341.70 236.08 C 341.85 235.67 342.16 234.86 342.31 234.46 Z" />
<path fill="#a5a3a3" d=" M 341.70 237.92 C 351.49 238.01 361.32 237.49 371.08 238.22 C 370.58 240.17 368.41 239.47 366.95 239.65 C 358.73 239.52 350.51 239.76 342.30 239.55 C 342.15 239.14 341.85 238.33 341.70 237.92 Z" />
<path fill="#a5a3a3" d=" M 100.08 241.51 C 122.05 241.50 144.02 241.49 165.99 241.51 C 166.00 242.38 166.03 244.12 166.05 244.99 C 144.13 244.98 122.21 245.05 100.29 244.96 C 100.23 244.10 100.13 242.37 100.08 241.51 Z" />
<path fill="#a5a3a3" d=" M 341.99 241.52 C 351.53 241.48 361.08 241.50 370.62 241.51 L 370.51 243.11 C 361.00 243.13 351.50 243.14 341.99 243.10 L 341.99 241.52 Z" />
</svg>
