<?xml version="1.0" encoding="UTF-8" ?>
<!DOCTYPE svg PUBLIC "-//W3C//DTD SVG 1.1//EN" "http://www.w3.org/Graphics/SVG/1.1/DTD/svg11.dtd">
<svg width="96px" height="66px" viewBox="0 0 223 149" version="1.1" xmlns="http://www.w3.org/2000/svg">
<path fill="#f9f9fa" d=" M 0.00 0.00 L 223.00 0.00 L 223.00 149.00 L 0.00 149.00 L 0.00 0.00 Z" />
<path fill="#6fa7e8" d=" M 26.00 9.01 C 88.33 8.99 150.66 9.00 213.00 9.00 C 213.00 35.34 213.01 61.67 212.99 88.00 C 150.66 88.00 88.33 88.00 26.00 88.00 C 25.99 61.67 26.00 35.34 26.00 9.01 Z" />
<path fill="#d5e6f9" d=" M 27.00 10.01 C 88.67 9.99 150.33 9.99 212.00 10.01 C 212.00 35.67 212.02 61.33 211.99 87.00 C 150.33 87.00 88.66 87.01 27.00 86.99 C 27.00 61.33 26.99 35.67 27.00 10.01 Z" />
<path fill="#6fa7e8" d=" M 27.93 14.00 C 34.47 14.13 41.03 13.74 47.55 14.15 C 47.78 14.60 48.24 15.51 48.47 15.97 C 55.31 16.05 62.15 15.96 68.99 16.01 C 69.01 32.33 69.00 48.66 69.00 64.99 C 55.98 65.01 42.97 65.00 29.96 65.00 L 30.37 63.81 L 30.90 63.82 C 43.25 64.13 55.61 63.87 67.97 63.97 C 67.93 48.38 68.00 32.80 67.93 17.22 C 61.59 17.32 55.25 17.14 48.91 17.33 C 48.41 17.71 47.41 18.47 46.91 18.85 C 41.64 19.41 36.32 18.87 31.04 19.03 C 30.96 33.79 31.21 48.56 30.92 63.32 L 30.37 63.30 C 29.49 48.72 30.29 34.06 29.97 19.45 C 27.07 19.10 28.21 16.00 27.93 14.00 Z" />
<path fill="#6fa7e8" d=" M 76.01 16.01 C 89.33 15.99 102.66 16.00 115.99 16.00 C 116.01 32.34 116.00 48.67 115.99 65.00 C 102.67 65.01 89.34 65.00 76.02 65.00 C 75.98 48.67 76.00 32.34 76.01 16.01 Z" />
<path fill="#6fa7e8" d=" M 122.00 16.01 C 135.33 15.98 148.66 16.00 161.99 16.00 C 162.01 32.33 162.01 48.66 161.99 65.00 C 148.66 65.00 135.33 65.01 122.01 64.99 C 121.99 48.67 122.00 32.34 122.00 16.01 Z" />
<path fill="#6fa7e8" d=" M 168.01 16.00 C 181.34 16.00 194.67 15.98 208.00 16.02 C 208.00 32.34 208.00 48.66 208.00 64.99 C 194.67 65.02 181.34 65.00 168.01 64.99 C 168.00 48.66 167.99 32.33 168.01 16.00 Z" />
<path fill="#f9f9fa" d=" M 48.91 17.33 C 55.25 17.14 61.59 17.32 67.93 17.22 C 68.00 32.80 67.93 48.38 67.97 63.97 C 55.61 63.87 43.25 64.13 30.90 63.82 L 30.92 63.32 C 31.21 48.56 30.96 33.79 31.04 19.03 C 36.32 18.87 41.64 19.41 46.91 18.85 C 47.41 18.47 48.41 17.71 48.91 17.33 Z" />
<path fill="#f9f9fa" d=" M 77.07 17.03 C 89.70 17.05 102.34 17.04 114.97 17.03 C 114.95 32.68 114.94 48.32 114.98 63.96 C 102.33 63.96 89.69 63.93 77.04 63.98 C 77.04 48.33 77.03 32.68 77.07 17.03 Z" />
<path fill="#f9f9fa" d=" M 123.08 17.20 C 135.69 17.28 148.31 17.28 160.92 17.21 C 160.98 32.80 160.91 48.38 160.96 63.97 C 148.32 63.94 135.67 63.97 123.02 63.96 C 123.09 48.38 122.98 32.79 123.08 17.20 Z" />
<path fill="#f9f9fa" d=" M 169.05 17.04 C 181.63 17.05 194.20 17.02 206.78 17.06 C 206.74 32.68 206.70 48.30 206.80 63.91 C 194.21 64.02 181.62 63.92 169.03 63.96 C 169.05 48.32 169.04 32.68 169.05 17.04 Z" />
<path fill="#6fa7e8" d=" M 13.95 37.39 C 16.76 40.12 20.04 42.55 21.81 46.15 C 19.29 48.66 16.95 51.39 13.94 53.33 C 13.79 51.72 13.67 50.10 13.55 48.49 C 11.62 48.51 9.70 48.54 7.78 48.58 C 6.76 46.54 6.70 44.26 6.79 42.04 C 9.08 41.96 11.38 42.01 13.68 41.93 C 13.76 40.42 13.85 38.90 13.95 37.39 Z" />
<path fill="#a4a2a2" d=" M 30.37 63.30 L 30.92 63.32 L 30.90 63.82 L 30.37 63.81 L 30.37 63.30 Z" />
<path fill="#6fa7e8" d=" M 30.01 69.00 C 43.01 69.00 56.01 68.99 69.00 69.01 C 69.01 70.34 69.00 71.67 68.98 73.00 C 55.99 72.99 42.99 73.02 30.00 72.99 C 29.99 71.66 29.99 70.33 30.01 69.00 Z" />
<path fill="#6fa7e8" d=" M 76.02 69.00 C 89.34 69.00 102.66 69.00 115.98 69.00 C 116.00 70.33 116.01 71.66 116.00 72.99 C 102.67 73.01 89.33 73.01 75.99 72.99 C 75.99 71.66 76.00 70.33 76.02 69.00 Z" />
<path fill="#6fa7e8" d=" M 122.00 69.01 C 135.33 68.99 148.67 68.99 162.00 69.01 C 162.01 70.34 162.01 71.66 162.00 72.99 C 148.67 73.01 135.34 73.00 122.01 72.99 C 121.99 71.67 121.99 70.34 122.00 69.01 Z" />
<path fill="#6fa7e8" d=" M 168.01 69.01 C 181.34 69.00 194.67 68.98 208.00 69.02 C 208.01 70.34 208.00 71.67 207.99 72.99 C 194.66 73.00 181.33 73.01 168.01 72.99 C 167.99 71.66 167.99 70.33 168.01 69.01 Z" />
<path fill="#6fa7e8" d=" M 30.01 77.00 C 43.01 77.01 56.01 76.98 69.00 77.01 C 69.01 78.34 69.00 79.67 68.98 81.00 C 55.99 81.00 43.00 81.00 30.01 81.00 C 29.99 79.67 29.99 78.33 30.01 77.00 Z" />
<path fill="#6fa7e8" d=" M 76.00 77.01 C 89.33 76.99 102.66 77.00 115.99 77.00 C 116.01 78.33 116.01 79.66 115.99 80.99 C 102.67 81.01 89.34 81.00 76.02 81.00 C 75.99 79.67 75.99 78.34 76.00 77.01 Z" />
<path fill="#6fa7e8" d=" M 122.00 77.01 C 135.33 76.99 148.67 76.99 162.00 77.01 C 162.01 78.34 162.01 79.66 161.99 80.99 C 148.66 81.01 135.34 81.01 122.01 80.99 C 121.99 79.66 121.99 78.34 122.00 77.01 Z" />
<path fill="#6fa7e8" d=" M 168.00 77.01 C 181.33 76.99 194.66 76.99 207.99 77.01 C 208.01 78.33 208.01 79.66 208.00 80.98 C 194.67 81.02 181.33 81.01 168.00 80.99 C 167.98 79.66 167.99 78.34 168.00 77.01 Z" />
<path fill="#a4a2a2" d=" M 26.00 91.00 C 88.33 90.99 150.66 90.99 213.00 91.00 C 213.01 98.33 213.01 105.67 213.00 113.00 C 150.66 113.01 88.33 113.01 26.00 113.00 C 25.99 105.66 25.99 98.33 26.00 91.00 Z" />
<path fill="#f9f9fa" d=" M 26.49 92.08 C 88.33 91.89 150.17 92.05 212.01 92.00 C 212.00 98.67 212.00 105.33 212.00 112.00 C 150.34 112.00 88.67 112.00 27.00 112.00 C 27.00 108.69 27.00 105.37 27.00 102.06 C 27.50 102.02 28.50 101.94 29.00 101.90 C 29.00 99.06 29.00 96.23 28.98 93.39 C 28.36 93.06 27.12 92.41 26.49 92.08 Z" />
<path fill="#a4a2a2" d=" M 30.00 93.01 C 38.67 93.00 47.33 93.00 55.99 93.01 C 56.00 99.00 56.00 105.00 55.99 110.99 C 47.33 111.00 38.67 111.00 30.00 110.99 C 30.00 105.00 30.00 99.00 30.00 93.01 Z" />
<path fill="#f9f9fa" d=" M 31.00 94.00 C 39.00 93.99 47.00 94.00 55.00 94.00 C 55.00 99.33 55.00 104.67 55.00 110.00 C 47.00 110.00 39.00 110.00 31.00 110.00 C 31.00 104.67 31.00 99.33 31.00 94.00 Z" />
<path fill="#a4a2a2" d=" M 58.00 95.01 C 85.67 95.00 113.33 94.99 141.00 95.01 C 141.00 95.76 140.99 97.25 140.99 97.99 C 113.33 98.00 85.67 98.00 58.01 97.99 C 58.01 97.25 58.00 95.76 58.00 95.01 Z" />
<path fill="#a4a2a2" d=" M 143.01 95.01 C 147.34 95.00 151.66 95.00 155.99 95.01 C 155.99 95.75 156.00 97.24 156.00 97.99 C 151.67 98.00 147.33 98.00 143.01 97.99 C 143.01 97.24 143.01 95.75 143.01 95.01 Z" />
<path fill="#a4a2a2" d=" M 205.01 96.00 C 206.67 96.00 208.33 96.00 209.99 96.01 C 209.99 97.67 209.99 99.33 209.99 101.00 C 208.33 100.99 206.67 100.99 205.01 100.99 C 205.00 99.33 205.00 97.67 205.01 96.00 Z" />
<path fill="#d5e6f9" d=" M 207.16 97.26 C 208.75 96.76 209.44 99.38 207.83 99.77 C 206.25 100.25 205.55 97.64 207.16 97.26 Z" />
<path fill="#a4a2a2" d=" M 58.00 101.01 C 76.67 100.99 95.33 101.00 114.00 101.01 C 114.00 101.51 114.00 102.49 114.00 102.99 C 95.33 103.00 76.67 103.01 58.00 102.98 C 58.00 102.49 58.00 101.51 58.00 101.01 Z" />
<path fill="#a4a2a2" d=" M 193.99 102.00 C 199.33 102.00 204.66 102.00 210.00 102.00 L 210.00 102.99 C 204.67 103.00 199.35 103.00 194.02 102.99 L 193.99 102.00 Z" />
<path fill="#a4a2a2" d=" M 194.00 104.01 C 199.33 104.00 204.67 104.00 210.01 104.01 L 209.99 104.99 C 204.66 105.00 199.33 105.00 194.00 104.99 L 194.00 104.01 Z" />
<path fill="#a4a2a2" d=" M 58.00 106.01 C 70.33 105.99 82.67 106.00 95.00 106.01 C 95.00 106.51 95.00 107.49 95.00 107.99 C 82.67 108.01 70.34 108.00 58.00 107.99 C 58.00 107.50 58.00 106.51 58.00 106.01 Z" />
<path fill="#a4a2a2" d=" M 194.00 106.01 C 199.33 106.00 204.67 106.00 210.00 106.00 L 210.00 106.99 C 204.67 107.00 199.33 107.00 194.00 106.99 L 194.00 106.01 Z" />
<path fill="#a4a2a2" d=" M 26.01 116.00 C 88.34 116.00 150.67 115.99 213.00 116.00 C 213.01 123.33 213.01 130.66 213.00 138.00 C 150.67 138.01 88.33 138.01 26.00 138.00 C 25.99 130.66 25.99 123.33 26.01 116.00 Z" />
<path fill="#f9f9fa" d=" M 27.00 117.00 C 88.67 117.00 150.33 117.00 212.00 117.00 C 212.00 123.67 212.00 130.33 212.00 137.00 C 150.33 137.00 88.66 137.00 26.99 137.00 C 26.99 130.33 27.00 123.67 27.00 117.00 Z" />
<path fill="#a4a2a2" d=" M 30.01 118.01 C 38.67 118.01 47.33 118.00 55.99 118.01 C 56.00 124.00 56.00 130.00 55.99 135.99 C 47.33 136.00 38.67 136.00 30.01 135.99 C 30.00 130.00 30.00 124.00 30.01 118.01 Z" />
<path fill="#f9f9fa" d=" M 31.00 119.00 C 39.00 119.00 47.00 119.00 55.00 119.00 C 55.01 124.33 55.00 129.67 55.00 135.00 C 47.00 135.00 39.00 135.00 31.00 135.00 C 31.00 129.67 31.00 124.33 31.00 119.00 Z" />
<path fill="#a4a2a2" d=" M 58.00 120.01 C 85.67 120.00 113.33 119.99 141.00 120.01 C 141.00 120.76 140.99 122.25 140.99 122.99 C 113.33 123.01 85.67 123.00 58.01 122.99 C 58.01 122.25 58.01 120.75 58.00 120.01 Z" />
<path fill="#a4a2a2" d=" M 205.01 121.00 C 206.67 121.00 208.33 121.01 209.99 121.01 C 209.99 122.67 209.99 124.33 209.99 125.99 C 208.33 125.99 206.67 125.99 205.01 126.00 C 205.01 124.33 205.00 122.67 205.01 121.00 Z" />
<path fill="#f9f9fa" d=" M 207.16 122.25 C 208.74 121.77 209.45 124.36 207.83 124.76 C 206.25 125.23 205.54 122.64 207.16 122.25 Z" />
<path fill="#a4a2a2" d=" M 58.00 126.01 C 76.67 126.00 95.33 125.99 114.00 126.01 C 114.00 126.51 114.00 127.49 114.00 127.99 C 95.33 128.01 76.67 128.00 58.01 127.99 C 58.00 127.50 58.00 126.51 58.00 126.01 Z" />
<path fill="#a4a2a2" d=" M 194.00 127.01 C 199.33 127.00 204.67 127.00 210.00 127.01 L 210.00 127.99 C 204.67 128.00 199.34 128.00 194.00 128.00 L 194.00 127.01 Z" />
<path fill="#a4a2a2" d=" M 194.00 129.01 C 199.33 129.00 204.67 129.00 210.00 129.01 L 210.00 129.99 C 204.67 130.00 199.33 130.00 194.00 129.99 L 194.00 129.01 Z" />
<path fill="#a4a2a2" d=" M 58.00 131.01 C 70.33 130.99 82.66 131.00 94.99 131.01 C 95.00 131.51 95.00 132.49 95.00 132.99 C 82.67 133.01 70.34 133.00 58.01 132.99 C 58.01 132.50 58.00 131.51 58.00 131.01 Z" />
<path fill="#a4a2a2" d=" M 194.01 131.00 C 199.34 131.00 204.68 131.00 210.01 131.00 L 209.96 132.00 C 204.64 132.00 199.32 132.00 194.00 131.99 L 194.01 131.00 Z" />
</svg>
