<?xml version="1.0" encoding="utf-8"?>
<!-- Generator: Adobe Illustrator 15.1.0, SVG Export Plug-In . SVG Version: 6.00 Build 0)  -->
<!DOCTYPE svg PUBLIC "-//W3C//DTD SVG 1.1//EN" "http://www.w3.org/Graphics/SVG/1.1/DTD/svg11.dtd">
<svg version="1.1" id="Layer_1" xmlns="http://www.w3.org/2000/svg" xmlns:xlink="http://www.w3.org/1999/xlink" x="0px" y="0px"
	 width="45.968px" height="32.372px" viewBox="0 0 45.968 32.372" enable-background="new 0 0 45.968 32.372" xml:space="preserve">
<g>
	<g>
		<path fill="#FFFFFF" d="M14.035,14.155c1.368-0.195,1.846,0.32,1.904,1.641c0.043,0.968,0.004,1.941,0.012,2.912
			c0.004,0.707,0.441,1.16,1.1,1.164c0.643,0.004,1.115-0.461,1.126-1.154c0.017-0.971,0.005-1.939,0.005-2.904
			c1.05-0.26,1.682,0.07,1.835,1.072c0.116,0.752,0.099,1.527,0.069,2.291c-0.166,4.367-0.848,8.65-2.355,12.787
			c-0.085,0.232-0.141,0.402-0.473,0.402c-3.391-0.012-6.78,0-10.17,0.004c-0.047,0-0.096-0.014-0.156-0.021
			c-0.271-0.895-0.52-1.797-0.818-2.686c-1.238-3.684-3.135-6.982-5.955-9.75c-0.123-0.121-0.191-0.396-0.142-0.562
			c0.396-1.271,0.803-1.412,1.834-0.562c0.61,0.5,1.146,1.092,1.685,1.67c0.455,0.488,0.875,0.664,1.389,0.48
			c0.492-0.176,0.736-0.549,0.738-1.193c0.002-3.995-0.006-7.986,0.012-11.98C5.677,7.34,5.779,6.887,5.957,6.5
			C6.06,6.282,6.408,6.048,6.646,6.045c0.239-0.002,0.603,0.227,0.697,0.442c0.184,0.419,0.295,0.901,0.3,1.356
			c0.027,2.553,0.008,5.106,0.018,7.659c0.002,0.875,0.816,1.415,1.573,1.056c0.472-0.224,0.654-0.621,0.656-1.113
			c0.005-0.844,0.01-1.689,0.015-2.536c0.002-0.015,0.02-0.024,0.027-0.037c1.246-0.197,1.838,0.3,1.867,1.593
			c0.019,0.75-0.002,1.502,0.007,2.253c0.008,0.742,0.438,1.219,1.095,1.229c0.674,0.012,1.131-0.484,1.137-1.24
			C14.041,15.867,14.035,15.024,14.035,14.155z"/>
		<g>
			<path fill="#FFFFFF" d="M10.959,6.256c0-2.329-1.944-4.223-4.334-4.223S2.293,3.928,2.293,6.256c0,1.714,1.057,3.187,2.563,3.847
				V9.002C3.918,8.427,3.289,7.415,3.289,6.256c0-1.793,1.498-3.251,3.336-3.251c1.84,0,3.336,1.459,3.336,3.251
				c0,1.073-0.543,2.021-1.367,2.612v1.127C9.99,9.295,10.959,7.892,10.959,6.256z"/>
			<path fill="#FFFFFF" d="M13.01,6.223C13.01,2.791,10.146,0,6.625,0S0.24,2.791,0.24,6.223c0,2.833,1.955,5.223,4.616,5.975v-1.02
				c-2.104-0.717-3.62-2.664-3.62-4.956c0-2.896,2.417-5.252,5.389-5.252c2.971,0,5.388,2.356,5.388,5.252
				c0,2.217-1.42,4.114-3.419,4.883v1.033C11.153,11.33,13.01,8.983,13.01,6.223z"/>
		</g>
	</g>
</g>
<rect x="44.967" fill="#FFFFFF" width="1" height="32.372"/>
</svg>
