<?xml version="1.0" encoding="UTF-8" standalone="no"?>
<svg width="20px" height="20px" viewBox="0 0 20 20" version="1.1" xmlns="http://www.w3.org/2000/svg" xmlns:xlink="http://www.w3.org/1999/xlink" xmlns:sketch="http://www.bohemiancoding.com/sketch/ns">
    <!-- Generator: Sketch 3.1.1 (8761) - http://www.bohemiancoding.com/sketch -->
    <title>Shape 3</title>
    <desc>Created with Sketch.</desc>
    <defs></defs>
    <g id="Page-1" stroke="none" stroke-width="1" fill="none" fill-rule="evenodd" sketch:type="MSPage">
        <g id="Artboard-3" sketch:type="MSArtboardGroup" transform="translate(-975.000000, -1329.000000)" fill="#4A4A4A">
            <path d="M988.418997,1341.13604 L987.018631,1342.53958 L987.372584,1342.89273 L987.615291,1342.45559 C987.481894,1342.38145 987.425893,1342.35021 987.341336,1342.30266 C985.890144,1341.4967 985.082164,1340.94708 984.08171,1339.94361 C983.078758,1338.93838 982.532324,1338.13153 981.723907,1336.67203 C981.647232,1336.53325 981.608761,1336.4639 981.570361,1336.39643 L981.135801,1336.64373 L981.489515,1336.99712 L982.429452,1336.05633 L982.891954,1335.59214 C983.657321,1334.82504 983.679417,1333.59045 982.929016,1332.83792 L980.149207,1330.05117 C979.398324,1329.29859 978.16388,1329.3217 977.397628,1330.08969 L977.751581,1330.44285 L977.479825,1330.02315 C977.252357,1330.17043 976.936301,1330.44564 976.624046,1330.85699 C976.593246,1330.8979 976.593246,1330.8979 976.562487,1330.94019 C976.325797,1331.26854 976.183359,1331.50422 976.066737,1331.75624 C976.037616,1331.81918 976.00978,1331.88366 975.979887,1331.95676 C975.953064,1332.02235 975.929792,1332.08152 975.878458,1332.21334 C975.711999,1332.65254 975.607787,1333.07268 975.559925,1333.49659 C975.171631,1336.72386 976.628455,1339.64493 980.500106,1343.52569 C982.845221,1345.87597 985.17508,1347.31417 987.390641,1348.0233 C988.772729,1348.46566 989.840395,1348.55501 990.509004,1348.48329 C990.953937,1348.43023 991.373278,1348.32483 991.795461,1348.16047 C992.254186,1347.98081 992.683202,1347.73718 993.057172,1347.44388 L993.902311,1346.65046 C994.677854,1345.8718 994.700059,1344.63791 993.950892,1343.88445 L991.170557,1341.0975 C990.417757,1340.34602 989.184174,1340.36913 988.418997,1341.13604 Z M993.242357,1344.59013 C993.59725,1344.94705 993.586385,1345.55077 993.2051,1345.93377 L992.405739,1346.68652 C992.143478,1346.88961 991.799614,1347.08488 991.431726,1347.22897 C991.088642,1347.36253 990.751349,1347.44731 990.396432,1347.48967 C990.25883,1347.50439 990.00757,1347.5087 989.654216,1347.47913 C989.075091,1347.43067 988.418513,1347.30232 987.695476,1347.0709 C985.633617,1346.41096 983.441491,1345.05778 981.208017,1342.81938 C977.531427,1339.13415 976.208094,1336.48074 976.553189,1333.61241 C976.591892,1333.26974 976.675995,1332.93066 976.811774,1332.57236 C976.861091,1332.44583 976.88165,1332.39356 976.905481,1332.33528 C976.930018,1332.27528 976.952013,1332.22432 976.974282,1332.1762 C977.061788,1331.98709 977.171947,1331.80482 977.37369,1331.52496 C977.397095,1331.49278 977.397095,1331.49278 977.420548,1331.46162 C977.655256,1331.15243 977.886163,1330.95137 978.023338,1330.86255 L978.105535,1330.796 C978.486882,1330.41379 979.087171,1330.40254 979.44126,1330.75744 L982.220967,1333.54408 C982.576325,1333.90045 982.565532,1334.50348 982.183804,1334.88608 L981.721542,1335.35002 L980.782087,1336.29033 L980.512789,1336.55988 L980.70124,1336.89103 C980.736506,1336.953 980.771911,1337.01681 980.84928,1337.15683 C981.698947,1338.6908 982.290251,1339.56391 983.373671,1340.64978 C984.454849,1341.73422 985.329582,1342.32925 986.853502,1343.1756 C986.937558,1343.22287 986.994902,1343.25486 987.129877,1343.32987 L987.459913,1343.51311 L987.726537,1343.24588 L989.126904,1341.84234 C989.507423,1341.46096 990.107936,1341.44972 990.463342,1341.80449 L993.242357,1344.59013 Z" id="Shape-3" sketch:type="MSShapeGroup"></path>
        </g>
    </g>
</svg>