<?xml version="1.0" encoding="utf-8"?>
<!-- Generator: Adobe Illustrator 16.0.0, SVG Export Plug-In . SVG Version: 6.00 Build 0)  -->
<!DOCTYPE svg PUBLIC "-//W3C//DTD SVG 1.1//EN" "http://www.w3.org/Graphics/SVG/1.1/DTD/svg11.dtd">
<svg version="1.1" id="Layer_1" xmlns="http://www.w3.org/2000/svg" xmlns:xlink="http://www.w3.org/1999/xlink" x="0px" y="0px"
	 width="32px" height="32px" viewBox="0 0 32 32" enable-background="new 0 0 32 32" xml:space="preserve">
<path fill="#1E98D5" d="M10,12h4v4h-4V12z M16,12h4v4h-4V12z M22,12h4v4h-4V12z M4,24h4v4H4V24z M10,24h4v4h-4V24z M16,24h4v4h-4V24
	z M10,18h4v4h-4V18z M16,18h4v4h-4V18z M22,18h4v4h-4V18z M4,18h4v4H4V18z M26,0v2h-4V0H8v2H4V0H0v32h30V0H26z M28,30H2V8h26V30z"/>
</svg>
