<?xml version="1.0" encoding="UTF-8" standalone="no"?>
<svg width="22px" height="23px" viewBox="0 0 22 23" version="1.1" xmlns="http://www.w3.org/2000/svg" xmlns:xlink="http://www.w3.org/1999/xlink" xmlns:sketch="http://www.bohemiancoding.com/sketch/ns">
    <!-- Generator: Sketch 3.1 (8751) - http://www.bohemiancoding.com/sketch -->
    <title>Star</title>
    <desc>Created with Sketch.</desc>
    <defs></defs>
    <g id="Page-1" stroke="none" stroke-width="1" fill="none" fill-rule="evenodd" sketch:type="MSPage">
        <g id="Artboard-5" sketch:type="MSArtboardGroup" transform="translate(-520.000000, -167.000000)" fill="#4A4A4A">
            <path d="M531,167.7 L528.416222,176.113308 L520,176.113308 L526.82,181.289231 L524.201185,189.7 L531,184.481769 L537.798815,189.7 L535.18,181.289231 L542,176.113308 L533.582963,176.113308 L531,167.7 Z M527.594889,181.549 L527.776593,180.966846 L527.300741,180.605538 L522.496593,176.959462 L528.416222,176.959462 L529.011037,176.959462 L529.192741,176.370538 L531,170.485538 L532.806444,176.370538 L532.988148,176.959462 L533.582963,176.959462 L539.503407,176.959462 L534.699259,180.605538 L534.223407,180.966846 L534.405111,181.549 L536.243333,187.454308 L531.484815,183.801462 L531,183.43 L530.515185,183.801462 L525.756667,187.454308 L527.594889,181.549 Z" id="Star" sketch:type="MSShapeGroup"></path>
        </g>
    </g>
</svg>