<?xml version="1.0" encoding="utf-8"?>
<!-- Generator: Adobe Illustrator 16.0.4, SVG Export Plug-In . SVG Version: 6.00 Build 0)  -->
<!DOCTYPE svg PUBLIC "-//W3C//DTD SVG 1.1//EN" "http://www.w3.org/Graphics/SVG/1.1/DTD/svg11.dtd">
<svg version="1.1" id="Capa_1" xmlns:sketch="http://www.bohemiancoding.com/sketch/ns"
	 xmlns="http://www.w3.org/2000/svg" xmlns:xlink="http://www.w3.org/1999/xlink" x="0px" y="0px" width="24px" height="24px"
	 viewBox="0 -0.3 24 24" enable-background="new 0 -0.3 24 24" xml:space="preserve">
<title>User</title>
<desc>Created with Sketch.</desc>
<g id="Page-1" sketch:type="MSPage">
	<g id="Artboard-5" transform="translate(-477.000000, -166.000000)" sketch:type="MSArtboardGroup">
		<path id="User" sketch:type="MSShapeGroup" fill="#989898" d="M481.324,185.564c1.126-0.459,3.367-1.26,4.842-1.695
			c0.857-0.27,0.857-0.993,0.857-1.573c0-0.479-0.032-1.188-0.314-1.789c-0.194-0.411-0.414-1.114-0.462-1.666
			c-0.012-0.129-0.072-0.247-0.17-0.334c-0.141-0.122-0.43-0.577-0.613-1.494c-0.145-0.724-0.084-0.883-0.024-1.037
			c0.026-0.064,0.049-0.129,0.069-0.202c0.121-0.439-0.014-1.881-0.16-2.681c-0.063-0.347,0.017-1.336,0.667-2.168
			c0.584-0.745,1.467-1.16,2.592-1.232l0.949-0.001c1.157,0.073,2.039,0.488,2.623,1.233c0.65,0.832,0.729,1.821,0.666,2.168
			c-0.145,0.8-0.279,2.242-0.16,2.68c0.021,0.074,0.045,0.139,0.071,0.203c0.058,0.154,0.121,0.313-0.024,1.037
			c-0.184,0.917-0.471,1.372-0.613,1.494c-0.098,0.087-0.157,0.205-0.168,0.334c-0.051,0.552-0.271,1.255-0.465,1.666
			c-0.221,0.472-0.475,1.099-0.475,1.769c0,0.58,0,1.304,0.866,1.576c1.411,0.416,3.665,1.191,4.856,1.66
			c-1.989,1.969-4.723,3.188-7.734,3.188C486.015,188.7,483.308,187.501,481.324,185.564 M489,166.7c6.064,0,11,4.934,11,11
			c0,2.669-0.957,5.118-2.545,7.026c-1.087-0.457-3.676-1.355-5.286-1.832c-0.138-0.043-0.157-0.049-0.157-0.619
			c0-0.469,0.192-0.941,0.381-1.342c0.203-0.437,0.446-1.168,0.533-1.824c0.243-0.281,0.575-0.838,0.787-1.899
			c0.186-0.935,0.1-1.275-0.025-1.595c-0.012-0.033-0.024-0.067-0.035-0.1c-0.047-0.219,0.019-1.358,0.179-2.242
			c0.108-0.606-0.026-1.897-0.862-2.963c-0.527-0.674-1.537-1.502-3.38-1.617l-1.011,0.001c-1.812,0.114-2.82,0.942-3.348,1.616
			c-0.836,1.066-0.974,2.357-0.863,2.963c0.16,0.884,0.225,2.023,0.178,2.238c-0.01,0.037-0.024,0.071-0.037,0.104
			c-0.123,0.32-0.211,0.66-0.024,1.595c0.213,1.062,0.543,1.618,0.787,1.899c0.086,0.656,0.328,1.389,0.533,1.824
			c0.151,0.316,0.22,0.75,0.22,1.361c0,0.568-0.02,0.577-0.149,0.617c-1.658,0.488-4.293,1.441-5.276,1.872
			c-1.618-1.916-2.598-4.388-2.598-7.085C478,171.634,482.934,166.7,489,166.7 M489,165.7c-6.628,0-12,5.372-12,12
			c0,6.628,5.372,12,12,12s12-5.372,12-12C501,171.072,495.628,165.7,489,165.7"/>
	</g>
</g>
</svg>
