<?xml version="1.0" encoding="utf-8"?>
<!-- Generator: Adobe Illustrator 15.1.0, SVG Export Plug-In . SVG Version: 6.00 Build 0)  -->
<!DOCTYPE svg PUBLIC "-//W3C//DTD SVG 1.1//EN" "http://www.w3.org/Graphics/SVG/1.1/DTD/svg11.dtd">
<svg version="1.1" id="Layer_1" xmlns="http://www.w3.org/2000/svg" xmlns:xlink="http://www.w3.org/1999/xlink" x="0px" y="0px"
	 width="16.055px" height="19px" viewBox="0 0 16.055 19" enable-background="new 0 0 16.055 19" xml:space="preserve">
<path fill="#EBA921" d="M12.885,10.319l-4.77,8.256c-0.222,0.396-0.713,0.543-1.081,0.32l-6.61-3.832
	c-0.395-0.223-0.541-0.715-0.32-1.106l4.768-8.258l3.885-2.433l1.865,1.058c0.125-0.344,0.102-0.369,0.174-0.715
	c0.172-0.761,0.344-2.11,1.866-3.268c0.517-0.442,1.305-0.442,2.018-0.073c0.393,0.171,0.737,0.466,0.982,0.786
	c0.246,0.369,0.369,0.761,0.395,1.13c-0.025,0.467-0.248,1.106-1.279,1.596c-0.812,0.369-1.5,0.468-2.138,0.541
	c-0.565,0.074-1.009,0.123-1.376,0.369l1.815,1.058L12.885,10.319z M10.968,7.887c0.393-0.664,0.271-1.474-0.196-2.016L9.936,5.355
	C9.198,5.109,8.362,5.428,7.944,6.141C7.477,6.978,7.748,8.035,8.583,8.525C9.419,8.994,10.502,8.723,10.968,7.887z M11.19,3.66
	c0,0.123-0.024,0.195-0.05,0.295c-0.024,0.121,0,0.195-0.049,0.343C11.533,4.002,12,3.978,12.59,3.928
	c0.59-0.073,1.277-0.172,2.015-0.516c0.691-0.296,1.033-0.737,1.058-1.229c0-0.565-0.418-1.155-1.031-1.499L14.508,0.61
	c-0.589-0.295-1.181-0.295-1.621,0.049C11.509,1.718,11.313,2.922,11.19,3.66L11.19,3.66z"/>
</svg>
