<?xml version="1.0" encoding="utf-8"?>
<!-- Generator: Adobe Illustrator 15.1.0, SVG Export Plug-In . SVG Version: 6.00 Build 0)  -->
<!DOCTYPE svg PUBLIC "-//W3C//DTD SVG 1.1//EN" "http://www.w3.org/Graphics/SVG/1.1/DTD/svg11.dtd">
<svg version="1.1" id="Layer_1" xmlns="http://www.w3.org/2000/svg" xmlns:xlink="http://www.w3.org/1999/xlink" x="0px" y="0px"
	 width="12.675px" height="15px" viewBox="0 0 12.675 15" enable-background="new 0 0 12.675 15" xml:space="preserve">
<path fill="#1867C3" d="M10.17,8.146l-3.765,6.519c-0.174,0.312-0.562,0.429-0.853,0.253l-5.219-3.025
	c-0.312-0.176-0.427-0.562-0.252-0.873L3.846,4.5L6.912,2.58l1.473,0.834c0.101-0.271,0.08-0.292,0.138-0.563
	C8.657,2.25,8.792,1.184,9.997,0.27c0.406-0.35,1.029-0.35,1.593-0.058c0.31,0.136,0.581,0.368,0.774,0.621
	c0.195,0.291,0.293,0.601,0.312,0.894c-0.021,0.368-0.194,0.872-1.01,1.26c-0.642,0.293-1.185,0.369-1.688,0.428
	C9.532,3.472,9.18,3.511,8.891,3.707l1.436,0.834L10.17,8.146z M8.657,6.225c0.312-0.523,0.215-1.164-0.153-1.591l-0.66-0.407
	c-0.582-0.195-1.241,0.058-1.571,0.62c-0.369,0.66-0.156,1.494,0.504,1.882C7.434,7.099,8.291,6.885,8.657,6.225z M8.833,2.888
	c0,0.097-0.02,0.155-0.039,0.233c-0.02,0.096,0,0.154-0.038,0.271C9.106,3.16,9.473,3.14,9.94,3.1
	c0.465-0.058,1.008-0.136,1.59-0.408c0.545-0.231,0.815-0.582,0.836-0.97c0-0.446-0.332-0.911-0.815-1.184l-0.097-0.058
	c-0.467-0.233-0.932-0.233-1.281,0.039C9.085,1.356,8.929,2.306,8.833,2.888L8.833,2.888z"/>
</svg>
