<?xml version="1.0" encoding="utf-8"?>
<!-- Generator: Adobe Illustrator 15.1.0, SVG Export Plug-In . SVG Version: 6.00 Build 0)  -->
<!DOCTYPE svg PUBLIC "-//W3C//DTD SVG 1.1//EN" "http://www.w3.org/Graphics/SVG/1.1/DTD/svg11.dtd">
<svg version="1.1" id="Layer_1" xmlns="http://www.w3.org/2000/svg" xmlns:xlink="http://www.w3.org/1999/xlink" x="0px" y="0px"
	 width="32px" height="32px" viewBox="0 0 32 32" enable-background="new 0 0 32 32" xml:space="preserve">
<path fill="#FFFFFF" d="M6.404,0.531c0,0-10.979,3.667-4.187,16.066c0,0,5.025,7.684,11.817,8.556c0,0,6.885-2.882,5.861-15.28
	C19.896,9.873,18.778-2.699,6.404,0.531z"/>
<path fill="#FFFFFF" d="M17.012,1.36c0,0,3.722,2.576,4.233,9.386c0.512,6.81-2.745,11.438-2.745,11.438s8.118-2.907,9.374-13.009
	c0.227-1.818-0.209-4.649-3.07-6.766C23.34,1.326,20.407,0.378,17.012,1.36z"/>
<path fill="#FFFFFF" d="M14.069,25.437c0,0-1.187,0.884-1.884,2.979c0,0,1.081,0.753,3.245,0.164c2.163-0.59,2.441-1.67,2.441-1.67
	S17.104,25.665,14.069,25.437z"/>
<g>
	<path fill="#FFFFFF" d="M21.387,32c-2.707,0-4.695-2.224-4.789-2.332l1.29-1c0.021,0.022,1.998,2.215,4.241,1.672
		c1.534-0.371,1.614-1.136,1.642-2.691c0.025-1.409,0.058-3.339,2.477-4.251c2.956-1.115,5.64,1.344,5.753,1.449l-1.181,1.114
		c-0.019-0.017-2.02-1.832-3.947-1.105c-1.322,0.499-1.402,1.353-1.427,2.819c-0.026,1.477-0.062,3.5-2.898,4.186
		C22.148,31.957,21.761,32,21.387,32z"/>
</g>
</svg>
