<?xml version="1.0" encoding="utf-8"?>
<!-- Generator: Adobe Illustrator 15.1.0, SVG Export Plug-In . SVG Version: 6.00 Build 0)  -->
<!DOCTYPE svg PUBLIC "-//W3C//DTD SVG 1.1//EN" "http://www.w3.org/Graphics/SVG/1.1/DTD/svg11.dtd">
<svg version="1.1" id="Layer_1" xmlns="http://www.w3.org/2000/svg" xmlns:xlink="http://www.w3.org/1999/xlink" x="0px" y="0px"
	 width="19.488px" height="15px" viewBox="0 0 19.488 15" enable-background="new 0 0 19.488 15" xml:space="preserve">
<path fill="#1867C3" d="M17.975,0.91c-0.282-0.112-5.053-3.164-6.771,2.577c0,0-0.245,1.162-1.31,1.791l-9.007,6.404
	c0,0-1.628,1.286-0.476,2.713c0,0,0.894,1.317,2.585,0.065l9.087-6.345c0,0,0.534-0.339,2.332,0.279c0,0,3.115,0.978,4.941-2.532
	c0,0,0.542-1.237-0.597-0.921l-2.479,0.939c0,0-0.349,0.262-0.702-0.188c0,0-1.447-1.133-1.263-2.562c0,0-0.041-0.633,0.815-0.824
	l2.599-0.876C17.733,1.43,18.423,1.092,17.975,0.91L17.975,0.91z M2.894,13.302c-0.094,0.525-0.593,0.873-1.119,0.779
	c-0.522-0.092-0.877-0.589-0.785-1.11c0.092-0.523,0.591-0.871,1.117-0.779C2.632,12.284,2.983,12.782,2.894,13.302z M8.375,9.239
	l-3.777,2.799C4.305,12.243,3.899,12.18,3.69,11.89c-0.211-0.29-0.146-0.696,0.147-0.905l3.774-2.8
	c0.294-0.208,0.701-0.141,0.91,0.148C8.732,8.626,8.665,9.03,8.375,9.239z"/>
</svg>
