<?xml version="1.0" encoding="utf-8"?>
<!-- Generator: Adobe Illustrator 15.1.0, SVG Export Plug-In . SVG Version: 6.00 Build 0)  -->
<!DOCTYPE svg PUBLIC "-//W3C//DTD SVG 1.1//EN" "http://www.w3.org/Graphics/SVG/1.1/DTD/svg11.dtd">
<svg version="1.1" id="Layer_1" xmlns="http://www.w3.org/2000/svg" xmlns:xlink="http://www.w3.org/1999/xlink" x="0px" y="0px"
	 width="24.686px" height="19px" viewBox="0 0 24.686 19" enable-background="new 0 0 24.686 19" xml:space="preserve">
<path fill="#EBA921" d="M22.767,1.153c-0.357-0.143-6.399-4.008-8.575,3.264c0,0-0.312,1.472-1.658,2.269l-11.41,8.11
	c0,0-2.062,1.631-0.603,3.438c0,0,1.132,1.67,3.274,0.084l11.511-8.037c0,0,0.677-0.428,2.954,0.354c0,0,3.946,1.238,6.261-3.205
	c0,0,0.686-1.568-0.756-1.166l-3.143,1.189c0,0-0.44,0.332-0.891-0.238c0,0-1.833-1.435-1.599-3.247c0,0-0.052-0.802,1.033-1.043
	l3.291-1.11C22.461,1.811,23.333,1.384,22.767,1.153L22.767,1.153z M3.663,16.85c-0.119,0.666-0.751,1.105-1.418,0.986
	c-0.663-0.115-1.111-0.744-0.994-1.408c0.116-0.662,0.748-1.102,1.415-0.986C3.332,15.559,3.777,16.189,3.663,16.85z M10.606,11.701
	l-4.785,3.545c-0.371,0.262-0.885,0.18-1.151-0.188c-0.268-0.367-0.184-0.884,0.188-1.146l4.782-3.547
	c0.372-0.262,0.887-0.18,1.152,0.189C11.06,10.926,10.974,11.438,10.606,11.701z"/>
</svg>
