<?xml version="1.0" encoding="utf-8"?>
<!-- Generator: Adobe Illustrator 15.1.0, SVG Export Plug-In . SVG Version: 6.00 Build 0)  -->
<!DOCTYPE svg PUBLIC "-//W3C//DTD SVG 1.1//EN" "http://www.w3.org/Graphics/SVG/1.1/DTD/svg11.dtd">
<svg version="1.1" id="Layer_1" xmlns="http://www.w3.org/2000/svg" xmlns:xlink="http://www.w3.org/1999/xlink" x="0px" y="0px"
	 width="25.125px" height="19px" viewBox="0 0 25.125 19" enable-background="new 0 0 25.125 19" xml:space="preserve">
<path fill="#EBA921" d="M24.805,10.248c-0.586-0.878-1.83-0.793-2.496-0.542l-6.664,2.58L6.32,7.574L5.779,9.712l3.591,4.863
	c-2.315,0.903-6.555,2.569-7.325,2.858c-0.662,0.25,4.871,1.76,6.003,1.547c0,0,8.708-3.203,12.558-4.646l2.972-1.113
	C24.24,12.971,25.793,11.703,24.805,10.248L24.805,10.248z M0.673,13.973L0,14.674l1.784,2.348l2.585-1.027L0.673,13.973z
	 M17.24,6.298c-1.736,0-3.15-1.413-3.15-3.149C14.09,1.412,15.504,0,17.24,0c1.734,0,3.148,1.413,3.148,3.149
	C20.389,4.886,18.975,6.298,17.24,6.298z M17.24,1.633c-0.838,0-1.518,0.68-1.518,1.517c0,0.836,0.682,1.516,1.518,1.516
	c0.834,0,1.516-0.68,1.516-1.516C18.756,2.313,18.076,1.633,17.24,1.633z"/>
</svg>
