<svg xmlns="http://www.w3.org/2000/svg" width="30" height="30"><path fill="#737373" d="M29.938 5.764c0-3.185-6.702-5.764-14.967-5.764-8.269 0-14.971 2.579-14.971 5.764 0 .708.333 1.388.943 2.015h-.009l10.101 10.28v10.275s.578 1.626 3.876 1.665v.003h.118v-.002c3.296-.039 3.875-1.665 3.875-1.665v-10.276l10.098-10.28h-.007c.61-.627.943-1.306.943-2.015zm-14.967-4.271c6.125 0 11.091 1.717 11.091 3.835 0 2.12-4.969 3.84-11.091 3.84-6.128 0-11.097-1.721-11.097-3.84.001-2.118 4.969-3.835 11.097-3.835z"/></svg>