<?xml version="1.0" encoding="utf-8"?>
<!-- Generator: Adobe Illustrator 15.1.0, SVG Export Plug-In . SVG Version: 6.00 Build 0)  -->
<!DOCTYPE svg PUBLIC "-//W3C//DTD SVG 1.1//EN" "http://www.w3.org/Graphics/SVG/1.1/DTD/svg11.dtd">
<svg version="1.1" id="Layer_1" xmlns="http://www.w3.org/2000/svg" xmlns:xlink="http://www.w3.org/1999/xlink" x="0px" y="0px"
	 width="16px" height="16px" viewBox="0 0 16 16" enable-background="new 0 0 16 16" xml:space="preserve">
<path fill="#1867C3" d="M11.077,6.771c0-1.187-0.421-2.201-1.265-3.044C8.97,2.884,7.955,2.462,6.769,2.462s-2.2,0.422-3.043,1.265
	C2.883,4.57,2.461,5.584,2.461,6.771c0,1.186,0.421,2.199,1.265,3.043c0.843,0.842,1.857,1.264,3.043,1.264s2.201-0.42,3.043-1.264
	C10.656,8.97,11.077,7.956,11.077,6.771z M15.999,14.771c0,0.332-0.121,0.62-0.365,0.863C15.39,15.878,15.102,16,14.769,16
	c-0.347,0-0.634-0.122-0.866-0.366l-3.298-3.288c-1.146,0.794-2.425,1.192-3.836,1.192c-0.917,0-1.793-0.178-2.629-0.533
	s-1.558-0.837-2.164-1.443C1.37,10.957,0.89,10.235,0.534,9.399C0.178,8.563,0,7.686,0,6.769S0.178,4.976,0.534,4.14
	C0.89,3.303,1.37,2.582,1.976,1.976C2.582,1.37,3.303,0.889,4.14,0.533C4.976,0.178,5.853,0,6.769,0c0.917,0,1.794,0.178,2.63,0.533
	c0.836,0.356,1.559,0.837,2.163,1.443c0.606,0.605,1.087,1.327,1.442,2.164c0.355,0.836,0.533,1.713,0.533,2.629
	c0,1.411-0.396,2.689-1.19,3.836l3.298,3.299C15.881,14.141,16,14.429,15.999,14.771L15.999,14.771z"/>
</svg>
