<svg xmlns="http://www.w3.org/2000/svg" width="25" height="25"><g fill="#fff"><path d="M19.1 15.5c-.9-.8-1.6-1.7-2.2-2.7-.4-.7-.8-1.4-1.4-1.9-1-1-2.2-1.3-3.5-1.1-.8.1-1.4.6-1.9 1.2s-1 1.2-1.4 1.9c-.6.9-1.3 1.8-2.1 2.5-.7.6-1.2 1.3-1.6 2.1-.4.9-.6 1.8-.3 2.8.3 1.2 1 2.1 2.2 2.5.7.3 1.4.2 2.2 0 .8-.2 1.5-.4 2.2-.6.7-.2 1.5-.3 2.3-.1.7.1 1.4.3 2 .5.7.2 1.3.4 2 .4 1.8.1 3.7-1.4 3.7-3.5l-.1-.9c-.5-1.2-1.2-2.2-2.1-3.1z"/><ellipse transform="matrix(.898 -.44 .44 .898 -4.293 2.571)" cx="3.4" cy="10.5" rx="2.8" ry="3.3"/><ellipse transform="matrix(.462 -.887 .887 .462 2.265 24.814)" cx="21.6" cy="10.5" rx="3.3" ry="2.8"/><ellipse transform="matrix(.216 .976 -.976 .216 12.06 -4.687)" cx="8.9" cy="5.2" rx="3.8" ry="2.8"/><ellipse transform="matrix(-.199 .98 -.98 -.199 25.116 -10.204)" cx="16.7" cy="5.2" rx="3.8" ry="2.8"/></g></svg>