<svg xmlns="http://www.w3.org/2000/svg" width="25" height="25"><path fill="#468100" d="M7.06-15.003z"/><path fill="#468100" d="M12.5 1.1c-6.333 0-11.469 5.085-11.469 11.356s5.135 11.356 11.469 11.356c6.335 0 11.469-5.085 11.469-11.356s-5.134-11.356-11.469-11.356zm9 9.6l-1.6 3.9-3.5.1-2.4-3.7 1.5-3.8 3.8-.2 2.2 3.7zm-9.2-8.408s.282-.127.438-.146c-.046.02 2.212.042 3.462.354 1.062.236 2.057 1.153 2.8 1.9v1.8l-3.7.1-3.3-2.1s.33-1.291.3-1.908zm-7.847 3.146s2.089-2.938 6.147-3.438h.1l.7.3-.3 1.8-3.7 2.2-3 .1.053-.962zm-1.594 11.937c-.781-1.535-1.202-3.438-1.059-5.175.233.36 1.418 4.268 1.6 5.899-.172-.24-.495-.631-.541-.724zm.741-2.975l-1.3-3.6 2-3.5 2.9-.1 1.3 3.6v.1c-.704 1.231-2.1 3.7-2.1 3.7l-2.8-.2zm5.4-3l4.2.1 2.399 3.7-2.099 3.4h-4.5l-2-3.5 2-3.7zm1.4 11.5c-1.791-.494-2.6-1.9-2.6-1.9l1.325-1.5h4.275l2.3 1.9-1.6 1.6s-2.5.1-3.7-.1zm5.3-.4c.3-.3 4.7-3.6 4.7-3.6h.5s-1.478 2.538-5.2 3.6zm5.7-4.2l-.6-.2-.3-2.9 1.7-4 .8-.2s.1 1.4.1 2c-.1 1.5-1 4-1 4l-.7 1.3z"/></svg>