<svg xmlns="http://www.w3.org/2000/svg" width="25" height="25"><path fill="#468100" d="M19.8 1c0-.6-.7-1-1.3-1h-12c-.5 0-1.3.2-1.3.7v22c.3 1.3 1.7 2.3 3 2.3h8.9c1.3-.2 2.6-1.2 2.6-2.5v-10.7c.1-3.6.1-7.2.1-10.8zm-12.2 12.5h2.9v1.6h-2.9v-1.6zm0 4.8h2.9v1.6h-2.9v-1.6zm2.9 4.1h-1.3c-.2 0-.5-.1-.7-.2-.7-.3-.9-.8-1-1.6h2.9c.1.6.1 1.2.1 1.8zm0-4.9h-2.9v-1.6h2.9v1.6zm3.4 4.9h-2.8v-1.7h2.8v1.7zm-2.8-2.5v-1.6h2.8v1.6h-2.8zm2.8-2.4h-2.8v-1.6h2.8v1.6zm0-2.4h-2.8v-1.6h2.8v1.6zm3.6.8v1.6h-2.9v-1.6h2.9zm-2.9-.8v-1.6h2.9v1.6h-2.9zm1.9 7.2c-.1.1-.3.1-.5.1h-1.4v-1.7h2.9c0 .6-.4 1.3-1 1.6zm1-2.4h-2.9v-1.6h2.9v1.6zm0-8.2h-9.9v-7.7h9.9v7.7z"/></svg>