<svg xmlns="http://www.w3.org/2000/svg" width="25" height="22.5"><path fill="#fff" d="M25 13.9c0 .9-.1 1.8-.3 2.6-.3 1-1 1.7-2 1.9-.1 0-.1 0-.2.1v2.5c0 .9-.8 1.7-1.7 1.7h-1.7c-.9 0-1.7-.8-1.7-1.7v-2c-1.7.1-3.4.2-5 .2s-3.3-.1-5-.2v1.9c0 .9-.8 1.7-1.7 1.7h-1.5c-.9 0-1.7-.8-1.7-1.7v-2.5c-.1 0-.1 0-.2-.1-1-.2-1.7-.9-1.9-1.9-.3-.8-.4-1.6-.4-2.5 0-1.3.2-2.6.7-3.9.3-.8.9-1.4 1.8-1.6l1.4-5c.4-1.5 1.9-2.8 3.5-3.1 0 0 2-.3 5.1-.3 3.1 0 5 .3 5.1.3 1.6.2 3.1 1.5 3.5 3.1l1.4 5c.9.1 1.6.8 1.9 1.6.4 1.2.6 2.6.6 3.9zm-18.2-.1c0-1.3-1-2.2-2.3-2.2s-2.2 1-2.2 2.2 1 2.2 2.2 2.2 2.3-1 2.3-2.2zm.3-9.7l-1.2 4.2h13l-1.1-4.2c-.1-.2-.5-.6-.7-.7 0 0-1.8-.3-4.6-.3l-4.7.3c-.3.1-.7.5-.7.7zm15.6 9.7c0-1.3-1-2.2-2.2-2.2-1.3 0-2.3 1-2.3 2.2s1 2.2 2.3 2.2c1.2 0 2.2-1 2.2-2.2z"/></svg>