<?xml version="1.0" encoding="utf-8"?>
<!-- Generator: Adobe Illustrator 16.0.0, SVG Export Plug-In . SVG Version: 6.00 Build 0)  -->
<!DOCTYPE svg PUBLIC "-//W3C//DTD SVG 1.1//EN" "http://www.w3.org/Graphics/SVG/1.1/DTD/svg11.dtd">
<svg version="1.1" id="Layer_1" xmlns="http://www.w3.org/2000/svg" xmlns:xlink="http://www.w3.org/1999/xlink" x="0px" y="0px"
	 width="15px" height="14.998px" viewBox="0 0 15 14.998" enable-background="new 0 0 15 14.998" xml:space="preserve">
<g>
	<path fill="#2F68B2" d="M7.488,0c-4.142,0-7.5,3.358-7.5,7.499c0,4.142,3.358,7.501,7.5,7.501c4.143,0,7.5-3.359,7.5-7.501
		C14.988,3.358,11.631,0,7.488,0z M6.398,4.218c0-0.079,0.025-0.143,0.078-0.195c0.052-0.055,0.116-0.081,0.188-0.081h1.603
		c0.07,0,0.134,0.027,0.187,0.081C8.507,4.076,8.532,4.14,8.532,4.218v1.584c0,0.079-0.025,0.143-0.079,0.195
		C8.4,6.052,8.34,6.08,8.267,6.08H6.664c-0.07,0-0.136-0.027-0.188-0.082C6.423,5.946,6.398,5.882,6.398,5.803V4.218z M8.584,11.322
		c-0.073,0.062-0.139,0.092-0.199,0.092H6.547c-0.06,0-0.128-0.03-0.2-0.092c-0.058-0.036-0.085-0.089-0.085-0.157l0.153-3.827
		c0.004-0.056,0.033-0.103,0.087-0.14c0.05-0.035,0.118-0.052,0.194-0.052h1.543c0.078,0,0.146,0.016,0.202,0.052
		c0.054,0.038,0.083,0.083,0.083,0.139l0.144,3.812C8.668,11.227,8.641,11.284,8.584,11.322z"/>
</g>
</svg>
