<?xml version="1.0" encoding="utf-8"?>
<!-- Generator: Adobe Illustrator 17.1.0, SVG Export Plug-In . SVG Version: 6.00 Build 0)  -->
<!DOCTYPE svg PUBLIC "-//W3C//DTD SVG 1.1//EN" "http://www.w3.org/Graphics/SVG/1.1/DTD/svg11.dtd">
<svg version="1.1" id="Layer_1" xmlns="http://www.w3.org/2000/svg" xmlns:xlink="http://www.w3.org/1999/xlink" x="0px" y="0px" width="35" height="35"
	 viewBox="0 0 96 96" style="enable-background:new 0 0 96 96;" xml:space="preserve">
<path style="fill:#FFFDEF;stroke:#7F6A9E;stroke-width:2;stroke-miterlimit:10;" d="M95,89.973C95,92.749,92.749,95,89.973,95H6.027
	C3.251,95,1,92.749,1,89.973V6.027C1,3.251,3.251,1,6.027,1h83.946C92.749,1,95,3.251,95,6.027V89.973z"/>
<g>
	<path style="fill:#D7D7D7;" d="M33.178,80.064h56.625v2.223H33.178V80.064z"/>
	<path style="fill:#D7D7D7;" d="M33.178,76.73h56.625v2.223H33.178V76.73z"/>
	<path style="fill:#D7D7D7;" d="M33.178,73.395h56.625v2.223H33.178V73.395z"/>
	<path style="fill:#D7D7D7;" d="M33.178,70.061h56.625v2.223H33.178V70.061z"/>
	<path style="fill:#D7D7D7;" d="M33.178,62.28H60.38v6.113H33.178V62.28z"/>
	<path style="fill:#D7D7D7;" d="M8.196,62.28h22.206v22.23H8.196V62.28z"/>
	<path style="fill:#D7D7D7;" d="M33.178,53.944h56.625v2.223H33.178V53.944z"/>
	<path style="fill:#D7D7D7;" d="M33.178,50.609h56.625v2.223H33.178V50.609z"/>
	<path style="fill:#D7D7D7;" d="M33.178,47.275h56.625v2.223H33.178V47.275z"/>
	<path style="fill:#D7D7D7;" d="M33.178,43.94h56.625v2.223H33.178V43.94z"/>
	<path style="fill:#D7D7D7;" d="M33.178,36.16H60.38v6.113H33.178V36.16z"/>
	<path style="fill:#D7D7D7;" d="M8.196,36.16h22.206v22.23H8.196V36.16z"/>
	<path style="fill:#7F6A9E;" d="M33.178,28.379h56.625v2.223H33.178V28.379z"/>
	<path style="fill:#7F6A9E;" d="M33.178,25.045h56.625v2.223H33.178V25.045z"/>
	<path style="fill:#7F6A9E;" d="M33.178,21.71h56.625v2.223H33.178V21.71z"/>
	<path style="fill:#7F6A9E;" d="M33.178,18.376h56.625v2.223H33.178V18.376z"/>
	<path style="fill:#7F6A9E;" d="M33.178,10.595H60.38v6.113H33.178V10.595z"/>
	<path style="fill:#7F6A9E;" d="M8.196,10.595h22.206v22.23H8.196V10.595z"/>
</g>
</svg>
