<?xml version="1.0" encoding="utf-8"?>
<!-- Generator: Adobe Illustrator 14.0.0, SVG Export Plug-In . SVG Version: 6.00 Build 43363)  -->
<!DOCTYPE svg PUBLIC "-//W3C//DTD SVG 1.1//EN" "http://www.w3.org/Graphics/SVG/1.1/DTD/svg11.dtd">
<svg version="1.1" id="Layer_1" xmlns="http://www.w3.org/2000/svg" xmlns:xlink="http://www.w3.org/1999/xlink" x="0px" y="0px"
	 width="90px" height="63px" viewBox="0 0 90 63" enable-background="new 0 0 90 63" xml:space="preserve">
<path fill="#010101" d="M10.548,45.41H0.601V17.343h9.947V45.41z"/>
<path fill="#010101" d="M43.661,45.41h-9.654v-3.118h-0.106c-1.697,2.79-5.039,4.049-8.221,4.049
	c-8.062,0-13.738-6.948-13.738-14.991c0-8.044,5.569-14.937,13.633-14.937c3.129,0,6.417,1.204,8.433,3.665v-2.735h9.654V45.41z
	 M21.914,31.405c0,3.556,2.281,6.292,6.206,6.292s6.206-2.735,6.206-6.292c0-3.446-2.28-6.347-6.206-6.347
	S21.914,27.958,21.914,31.405z"/>
<path fill="#010101" d="M45.698,0h9.947v20.079c2.132-2.461,5.465-3.665,8.69-3.665c8.307,0,14.045,6.893,14.045,14.937
	c0,8.097-5.793,14.991-14.155,14.991c-3.278,0-6.667-1.259-8.471-4.049h-0.109v3.118h-9.947V0z M55.316,31.405
	c0,3.556,2.351,6.292,6.395,6.292c4.045,0,6.394-2.735,6.394-6.292c0-3.446-2.349-6.347-6.394-6.347
	C57.667,25.058,55.316,27.958,55.316,31.405z"/>
<g>
	<path fill="#ED2224" d="M90,40.383c0,3.056-2.48,5.586-5.581,5.586c-3.099,0-5.58-2.53-5.58-5.586c0-3.103,2.481-5.586,5.58-5.586
		C87.52,34.797,90,37.28,90,40.383z"/>
</g>
<g>
	<path fill="#ED2224" d="M4.953,56.565c-0.208-0.431-0.662-0.826-1.21-0.826c-0.529,0-1.097,0.379-1.097,0.895
		c0,0.739,1.021,1.016,2.061,1.411s2.061,0.964,2.061,2.322C6.767,61.898,5.406,63,3.761,63c-1.495,0-2.666-0.774-3.139-2.048
		l1.342-0.516c0.378,0.757,0.813,1.29,1.816,1.29c0.813,0,1.436-0.499,1.436-1.239c0-1.807-4.008-1.187-4.008-3.732
		c0-1.359,1.21-2.289,2.647-2.289c1.021,0,1.966,0.654,2.363,1.497L4.953,56.565z"/>
	<path fill="#ED2224" d="M7.732,58.75c0-2.374,2.062-4.284,4.671-4.284c2.609,0,4.67,1.91,4.67,4.284S14.994,63,12.404,63
		C9.812,63,7.732,61.124,7.732,58.75z M9.246,58.733c0,1.651,1.286,2.993,3.158,2.993c1.872,0,3.158-1.342,3.158-2.993
		c0-1.635-1.287-2.994-3.158-2.994C10.531,55.739,9.246,57.099,9.246,58.733z"/>
	<path fill="#ED2224" d="M20.177,59.198c0,1.358,0.17,2.528,2.004,2.528c1.833,0,2.005-1.17,2.005-2.528V54.69h1.512v4.662
		c0,2.15-0.89,3.647-3.517,3.647c-2.628,0-3.518-1.497-3.518-3.647V54.69h1.513V59.198z"/>
	<path fill="#ED2224" d="M29.671,62.776h-1.513v-6.813h-0.926V54.69h0.926v-2.908h1.513v2.908h1.588v1.272h-1.588V62.776z"/>
	<path fill="#ED2224" d="M33.755,48.582v7.055l0.039,0.034c0.624-0.774,1.437-1.205,2.534-1.205c2.458,0,3.025,1.617,3.025,3.51
		v4.801H37.84v-4.56c0-1.308-0.113-2.478-1.873-2.478c-2.08,0-2.212,1.755-2.212,3.2v3.837h-1.513V48.582H33.755z"/>
	<path fill="#ED2224" d="M55.409,62.776h-1.514v-1.119h-0.036C53.085,62.552,52.042,63,50.795,63c-2.609,0-4.254-2.013-4.254-4.25
		c0-2.306,1.606-4.284,4.272-4.284c1.211,0,2.308,0.517,3.046,1.377h0.036V54.69h1.514V62.776z M48.09,58.646
		c0,1.583,1.021,3.08,2.914,3.08c1.947,0,2.97-1.428,2.97-3.062c0-1.617-1.118-2.925-2.989-2.925
		C49.226,55.739,48.09,57.134,48.09,58.646z"/>
	<path fill="#ED2224" d="M59.477,62.776h-1.515v-6.813h-0.831V54.69h0.831v-3.217c0-0.672,0-1.515,0.398-2.1
		c0.491-0.723,1.381-1.015,2.286-1.015c0.36,0,0.72,0.068,1.08,0.172v1.394c-0.341-0.104-0.644-0.189-1.021-0.189
		c-1.229,0-1.229,0.792-1.229,2.22v2.735h2.25v1.272h-2.25V62.776z"/>
	<path fill="#ED2224" d="M64.073,55.567h0.033c0.532-0.637,0.985-1.102,1.968-1.102c0.512,0,0.928,0.155,1.363,0.379l-0.72,1.256
		c-0.3-0.189-0.512-0.361-0.906-0.361c-1.666,0-1.738,1.944-1.738,2.994v4.043h-1.516V54.69h1.516V55.567z"/>
	<path fill="#ED2224" d="M70.71,51.646c0,0.551-0.491,0.979-1.077,0.979c-0.589,0-1.078-0.429-1.078-0.979
		c0-0.533,0.489-0.981,1.078-0.981C70.219,50.664,70.71,51.112,70.71,51.646z M70.389,62.776h-1.514V54.69h1.514V62.776z"/>
	<path fill="#ED2224" d="M79.768,57.099h-0.039c-0.699-0.809-1.568-1.359-2.76-1.359c-1.835,0-3.139,1.377-3.139,2.994
		c0,1.6,1.21,2.993,3.064,2.993c1.266,0,2.155-0.516,2.891-1.394h0.039v1.841C78.954,62.707,78.065,63,77.008,63
		c-2.688,0-4.73-1.824-4.73-4.267c0-2.409,2.139-4.268,4.748-4.268c0.965,0,1.947,0.293,2.742,0.81V57.099z"/>
	<path fill="#ED2224" d="M89.905,62.776h-1.514v-1.119h-0.037C87.579,62.552,86.539,63,85.289,63c-2.608,0-4.254-2.013-4.254-4.25
		c0-2.306,1.609-4.284,4.275-4.284c1.21,0,2.307,0.517,3.044,1.377h0.037V54.69h1.514V62.776z M82.586,58.646
		c0,1.583,1.021,3.08,2.912,3.08c1.948,0,2.97-1.428,2.97-3.062c0-1.617-1.115-2.925-2.988-2.925
		C83.722,55.739,82.586,57.134,82.586,58.646z"/>
</g>
<path fill="#ED2224" d="M11.149,7.645c0,3.064-2.515,5.58-5.574,5.58C2.513,13.225,0,10.709,0,7.645
	c0-3.063,2.513-5.581,5.575-5.581C8.634,2.063,11.149,4.581,11.149,7.645z"/>
</svg>
