<svg xmlns="http://www.w3.org/2000/svg" width="23" height="20"><path fill="#468100" d="M13.745 18.188h-3.064l-5.624-6.289h-2.694v6.289h-2.363v-15.821h4.577c1.017 0 1.871.047 2.559.151.686.098 1.338.33 1.959.692.616.355 1.111.812 1.474 1.367.36.562.539 1.255.539 2.083 0 1.161-.33 2.135-.992 2.911-.655.777-1.557 1.356-2.687 1.73l6.316 6.887zm-5.105-11.371c0-.457-.088-.867-.267-1.225-.192-.357-.47-.648-.851-.876-.338-.195-.726-.339-1.169-.419-.446-.082-.996-.124-1.66-.124h-2.33v5.974h2.068c.674 0 1.287-.052 1.828-.162.537-.106.999-.325 1.385-.658.332-.295.592-.647.753-1.063.162-.411.243-.889.243-1.447z"/><polygon fill="#468100" points="21.782,10.342 20.357,10.342 20.064,10.342 20.064,2.599 14.703,2.599 14.703,10.342 13.814,10.342 12.083,10.342 11.772,10.342 17.361,17.958 23,10.342"/></svg>