<svg xmlns="http://www.w3.org/2000/svg" width="18.398" height="16"><path fill="#468100" d="M10.993 14.72h-2.452l-4.501-5.366h-2.156v5.366h-1.891v-13.5h3.663c.812 0 1.497.04 2.048.127.549.083 1.071.282 1.567.591.494.305.889.693 1.179 1.167.288.48.432 1.072.432 1.778 0 .991-.264 1.821-.793 2.484-.524.663-1.247 1.156-2.15 1.477l5.054 5.876zm-4.085-9.702c0-.39-.071-.739-.214-1.046-.153-.305-.377-.553-.682-.748-.271-.166-.58-.288-.938-.356-.353-.072-.794-.106-1.325-.106h-1.865v5.097h1.655c.54 0 1.03-.045 1.464-.138.43-.092.798-.278 1.107-.562.266-.252.473-.552.604-.906.128-.352.194-.76.194-1.235z"/><polygon fill="#468100" points="17.426,7.916 16.286,7.916 16.051,7.916 16.051,14.523 11.761,14.523 11.761,7.916 11.049,7.916 9.662,7.916 9.414,7.916 13.887,1.418 18.398,7.916"/></svg>