<?xml version="1.0" encoding="utf-8"?>
<!-- Generator: Adobe Illustrator 16.0.0, SVG Export Plug-In . SVG Version: 6.00 Build 0)  -->
<!DOCTYPE svg PUBLIC "-//W3C//DTD SVG 1.1//EN" "http://www.w3.org/Graphics/SVG/1.1/DTD/svg11.dtd">
<svg version="1.1" id="Layer_1" xmlns="http://www.w3.org/2000/svg" xmlns:xlink="http://www.w3.org/1999/xlink" x="0px" y="0px"
	 width="16px" height="15.962px" viewBox="0 0 16 15.962" enable-background="new 0 0 16 15.962" xml:space="preserve">
<g id="guy_head">
</g>
<path fill="#8FC100" d="M12.577,9.876l-1.351-1.352c0.338-0.759,0.591-1.688,0.591-2.616C11.817,2.617,9.201,0,5.909,0
	C2.617,0,0,2.617,0,5.908c0,3.292,2.617,5.908,5.908,5.908c0.929,0,1.857-0.253,2.617-0.675l1.351,1.351l2.869,2.87
	c1.267,1.35,2.617,0,2.617,0s1.436-1.183,0-2.617L12.577,9.876z M2.11,5.908c0-2.11,1.688-3.798,3.798-3.798
	c2.11,0,3.798,1.688,3.798,3.798c0,2.11-1.688,3.799-3.798,3.799C3.799,9.707,2.11,8.019,2.11,5.908z"/>
<g id="guy_head_new">
</g>
<g id="help">
</g>
</svg>
