<svg xmlns="http://www.w3.org/2000/svg" width="20" height="20"><path fill="#46823D" d="M17.332 2.501v-2.501h-3.998v2.5h-6.667v-2.5h-4v2.5h-2.667v17.5h20.001v-17.499h-2.669zm1.338 3.749v3.047h-2.836v-3.047h2.836zm-12.837 4.688h3.336v3.279h-3.336v-3.279zm-1.666 3.279h-2.835v-3.279h2.835v3.279zm5.001 1.642v2.889h-3.335v-2.889h3.335zm1.664 0h3.334v2.889h-3.334v-2.889zm0-1.642v-3.279h3.334v3.279h-3.334zm5.002-3.279h2.836v3.279h-2.836v-3.279zm-1.166-9.688h1.331v2.5h-1.331v-2.5zm-.502 5v3.047h-3.334v-3.047h3.334zm-4.998 0v3.047h-3.335v-3.047h3.335zm-5.171-5h1.337v2.5h-1.337v-2.5zm.17 5v3.047h-2.835v-3.047h2.835zm-2.835 9.609h2.835v2.889h-2.835v-2.889zm14.502 2.889v-2.889h2.836v2.889h-2.836z"/></svg>