<?xml version="1.0" encoding="utf-8"?>
<!-- Generator: Adobe Illustrator 16.0.0, SVG Export Plug-In . SVG Version: 6.00 Build 0)  -->
<!DOCTYPE svg PUBLIC "-//W3C//DTD SVG 1.1//EN" "http://www.w3.org/Graphics/SVG/1.1/DTD/svg11.dtd">
<svg version="1.1" id="Layer_1" xmlns="http://www.w3.org/2000/svg" xmlns:xlink="http://www.w3.org/1999/xlink" x="0px" y="0px"
	 width="62px" height="62px" viewBox="0 0 62 62" enable-background="new 0 0 62 62" xml:space="preserve">
<g>
	<polygon fill="#EF4823" points="62,0 62,62 0,0 	"/>
	<g>
		<path fill="#FFFFFF" d="M16.385,6.421l5.27-5.273l1.628,1.629L18,8.062c-0.953,0.953-1.001,1.967-0.145,2.823
			c0.844,0.845,1.857,0.796,2.81-0.157l5.282-5.284l1.628,1.629l-5.27,5.272c-1.857,1.858-4.064,1.773-5.873-0.036
			C14.611,10.487,14.527,8.279,16.385,6.421z"/>
		<path fill="#FFFFFF" d="M24.67,20.262l1.676-4.138l-0.868-0.869l-2.906,2.907l-1.616-1.616L29,8.499l3.002,3.004
			c1.472,1.473,1.388,3.512-0.096,4.995c-1.387,1.389-2.823,1.352-3.703,0.905l-1.736,4.657L24.67,20.262z M30.23,14.869
			c0.699-0.699,0.735-1.557,0.108-2.184l-1.146-1.146l-2.291,2.293l1.146,1.146C28.674,15.605,29.53,15.569,30.23,14.869z"/>
		<path fill="#FFFFFF" d="M31.293,18.853c2.508-2.51,5.523-2.799,7.561-0.76c1.399,1.399,1.387,3.1,0.832,4.523l-1.93-0.699
			c0.313-0.82,0.326-1.725-0.337-2.389c-1.025-1.025-2.737-0.736-4.462,0.99c-1.725,1.725-2.015,3.438-0.989,4.463
			c0.531,0.531,1.193,0.761,1.701,0.736l1.218-1.219l-1.508-1.508l1.423-1.424l3.039,3.041L34.56,27.89
			c-1.471,0.121-2.845-0.289-4.027-1.472C28.496,24.379,28.797,21.351,31.293,18.853z"/>
		<path fill="#FFFFFF" d="M34.672,30.27l8.044-8.048l4.605,4.609L45.9,28.254l-2.992-2.993l-1.82,1.822l2.906,2.908l-1.424,1.424
			l-2.906-2.908l-1.953,1.955l2.992,2.992l-1.424,1.424L34.672,30.27z"/>
		<path fill="#FFFFFF" d="M44.827,40.431l2.013-7.494l-4.75,4.754l-1.615-1.616l8.043-8.048l1.64,1.641l-1.953,7.216l4.583-4.585
			l1.627,1.629l-8.043,8.048L44.827,40.431z"/>
		<path fill="#FFFFFF" d="M49.123,44.728l6.62-6.624l-1.785-1.786l1.423-1.424l5.186,5.189l-1.423,1.423l-1.784-1.786l-6.621,6.625
			L49.123,44.728z"/>
	</g>
</g>
</svg>
