<?xml version="1.0" encoding="utf-8"?>
<!-- Generator: Adobe Illustrator 16.0.4, SVG Export Plug-In . SVG Version: 6.00 Build 0)  -->
<!DOCTYPE svg PUBLIC "-//W3C//DTD SVG 1.1//EN" "http://www.w3.org/Graphics/SVG/1.1/DTD/svg11.dtd">
<svg version="1.1" id="Capa_1" xmlns="http://www.w3.org/2000/svg" xmlns:xlink="http://www.w3.org/1999/xlink" x="0px" y="0px"
	 width="18px" height="18px" viewBox="0 0 18 18" enable-background="new 0 0 18 18" xml:space="preserve">
<path fill="#619630" d="M15.084,1C16.141,1,17,1.859,17,2.916v12.169C17,16.141,16.141,17,15.084,17H2.916
	C1.859,17,1,16.141,1,15.084V2.916C1,1.859,1.859,1,2.916,1H15.084 M15.084,0H2.916C1.306,0,0,1.305,0,2.916v12.169
	C0,16.695,1.306,18,2.916,18h12.168C16.693,18,18,16.695,18,15.084V2.916C18,1.305,16.693,0,15.084,0L15.084,0z"/>
<path fill="#AACD38" d="M17,2.916C17,1.859,16.141,1,15.084,1H2.916C1.859,1,1,1.859,1,2.916v12.169C1,16.141,1.859,17,2.916,17
	h12.168C16.141,17,17,16.141,17,15.084V2.916z"/>
<polygon fill="#FFFFFF" points="15.125,6.048 13.229,4.153 7.326,10.056 4.771,7.498 2.875,9.394 7.327,13.847 "/>
</svg>
