<?xml version="1.0" encoding="UTF-8" standalone="no"?>
<!-- Generator: Adobe Illustrator 15.1.0, SVG Export Plug-In . SVG Version: 6.00 Build 0)  -->

<svg
   xmlns:dc="http://purl.org/dc/elements/1.1/"
   xmlns:cc="http://creativecommons.org/ns#"
   xmlns:rdf="http://www.w3.org/1999/02/22-rdf-syntax-ns#"
   xmlns:svg="http://www.w3.org/2000/svg"
   xmlns="http://www.w3.org/2000/svg"
   xmlns:sodipodi="http://sodipodi.sourceforge.net/DTD/sodipodi-0.dtd"
   xmlns:inkscape="http://www.inkscape.org/namespaces/inkscape"
   version="1.1"
   id="Layer_1"
   x="0px"
   y="0px"
   width="4.4124999"
   height="7"
   viewBox="0 0 4.4124997 7"
   enable-background="new 0 0 8.824 14"
   xml:space="preserve"
   inkscape:version="0.48.5 r10040"
   sodipodi:docname="chevron-right-white.svg"><metadata
     id="metadata9"><rdf:RDF><cc:Work
         rdf:about=""><dc:format>image/svg+xml</dc:format><dc:type
           rdf:resource="http://purl.org/dc/dcmitype/StillImage" /></cc:Work></rdf:RDF></metadata><defs
     id="defs7" /><sodipodi:namedview
     pagecolor="#ffffff"
     bordercolor="#666666"
     borderopacity="1"
     objecttolerance="10"
     gridtolerance="10"
     guidetolerance="10"
     inkscape:pageopacity="0"
     inkscape:pageshadow="2"
     inkscape:window-width="1059"
     inkscape:window-height="594"
     id="namedview5"
     showgrid="false"
     inkscape:zoom="16.857143"
     inkscape:cx="-7.7603517"
     inkscape:cy="3.5"
     inkscape:window-x="348"
     inkscape:window-y="215"
     inkscape:window-maximized="0"
     inkscape:current-layer="Layer_1"
     fit-margin-top="0"
     fit-margin-left="0"
     fit-margin-right="0"
     fit-margin-bottom="0" /><path
     d="m 4.4124998,3.5 c 0,0.156 -0.0555,0.292 -0.1665,0.4095 l -2.9295,2.925 C 1.2059998,6.9445 1.0709998,7 0.91249982,7 c -0.1585,0 -0.2935,-0.0545 -0.4045,-0.166 l -0.3415,-0.337 C 0.05549982,6.381 -1.7929077e-7,6.244 -1.7929077e-7,6.088 -1.7929077e-7,5.93 0.05549982,5.795 0.16649982,5.6845 L 2.3504998,3.5 0.16649982,1.3205 C 0.05599982,1.204 4.9982071e-4,1.068 4.9982071e-4,0.912 c 0,-0.1585 0.0554999993,-0.2935 0.16649999929,-0.4045 l 0.3415,-0.337 C 0.61599982,0.057 0.75099982,0 0.91249982,0 1.0739998,0 1.2089998,0.057 1.3169998,0.171 l 2.9295,2.925 c 0.1105,0.1105 0.166,0.2455 0.166,0.404 z"
     id="path3"
     inkscape:connector-curvature="0"
     style="fill:#ffffff" /></svg>