<?xml version="1.0" encoding="UTF-8" standalone="no"?>
<svg width="14px" height="14px" viewBox="0 0 14 14" version="1.1" xmlns="http://www.w3.org/2000/svg" xmlns:xlink="http://www.w3.org/1999/xlink" xmlns:sketch="http://www.bohemiancoding.com/sketch/ns">
    <!-- Generator: Sketch 3.1.1 (8761) - http://www.bohemiancoding.com/sketch -->
    <title>info-5-icon 8</title>
    <desc>Created with Sketch.</desc>
    <defs></defs>
    <g id="Page-1" stroke="none" stroke-width="1" fill="none" fill-rule="evenodd" sketch:type="MSPage">
        <g id="Artboard-3" sketch:type="MSArtboardGroup" transform="translate(-207.000000, -1313.000000)" fill="#4990E2">
            <path d="M214,1313 C210.133995,1313 207,1316.13392 207,1320 C207,1323.86597 210.133995,1327 214,1327 C217.865971,1327 221,1323.86597 221,1320 C221,1316.13392 217.865971,1313 214,1313 L214,1313 Z M213.863704,1324.10931 C212.854684,1324.46394 212.022806,1324.05729 212.189684,1323.08822 C212.356631,1322.11898 213.314102,1320.0439 213.450704,1319.65156 C213.587204,1319.25918 213.325417,1319.15163 213.044874,1319.31124 C212.883024,1319.40465 212.642544,1319.59172 212.436078,1319.77359 C212.37882,1319.65829 212.298286,1319.52654 212.237869,1319.40037 C212.574786,1319.06274 213.137947,1318.61011 213.804646,1318.44609 C214.601184,1318.24944 215.932646,1318.56376 215.360379,1320.08638 C214.951796,1321.17163 214.662791,1321.92053 214.480689,1322.47823 C214.298689,1323.03613 214.514874,1323.15312 214.833476,1322.93575 C215.082383,1322.76581 215.347568,1322.53464 215.541937,1322.35539 C215.63185,1322.50154 215.660665,1322.54813 215.749558,1322.71606 C215.412199,1323.06185 214.529553,1323.87124 213.863704,1324.10931 L213.863704,1324.10931 Z M215.954427,1317.39611 C215.496743,1317.78563 214.818354,1317.77724 214.438859,1317.37705 C214.059432,1316.97709 214.122772,1316.33703 214.58032,1315.9474 C215.037971,1315.55788 215.716461,1315.56631 216.095854,1315.96619 C216.475248,1316.36629 216.411942,1317.00635 215.954427,1317.39611 L215.954427,1317.39611 Z" id="info-5-icon-8" sketch:type="MSShapeGroup"></path>
        </g>
    </g>
</svg>