<?xml version="1.0" encoding="utf-8"?>
<!-- Generator: Adobe Illustrator 16.0.0, SVG Export Plug-In . SVG Version: 6.00 Build 0)  -->
<!DOCTYPE svg PUBLIC "-//W3C//DTD SVG 1.1//EN" "http://www.w3.org/Graphics/SVG/1.1/DTD/svg11.dtd">
<svg version="1.1" id="Layer_1" xmlns="http://www.w3.org/2000/svg" xmlns:xlink="http://www.w3.org/1999/xlink" x="0px" y="0px"
	 width="45px" height="45px" viewBox="0 0 45 45" enable-background="new 0 0 45 45" xml:space="preserve">
<g>
	<circle fill="#2697D4" cx="22.5" cy="22.5" r="22.5"/>
	<g>
		<g>
			<path fill="#FFFFFF" d="M22.115,24.091l12.084-10.673c-0.081-0.014-0.152-0.05-0.237-0.05H10.258
				c-0.052,0-0.097,0.027-0.146,0.03L22.115,24.091z"/>
		</g>
		<g>
			<path fill="#FFFFFF" d="M35.654,15.061c0-0.201-0.049-0.387-0.114-0.566l-8.535,7.535l8.426,7.376
				c0.131-0.241,0.224-0.502,0.224-0.797V15.061z"/>
		</g>
		<g>
			<path fill="#FFFFFF" d="M8.697,14.406c-0.085,0.202-0.133,0.424-0.133,0.654v13.548c0,0.249,0.06,0.479,0.154,0.692l8.51-7.296
				L8.697,14.406z"/>
		</g>
		<g>
			<path fill="#FFFFFF" d="M25.726,23.16l-3.616,3.195l-3.605-3.214l-8.335,7.145c0.029,0,0.058,0.015,0.089,0.015h23.627
				L25.726,23.16z"/>
		</g>
	</g>
</g>
</svg>
