<?xml version="1.0" encoding="UTF-8" standalone="no"?>
<svg width="24px" height="24px" viewBox="0 0 18 23" version="1.1" xmlns="http://www.w3.org/2000/svg" xmlns:xlink="http://www.w3.org/1999/xlink" xmlns:sketch="http://www.bohemiancoding.com/sketch/ns">
    <!-- Generator: Sketch 3.1.1 (8761) - http://www.bohemiancoding.com/sketch -->
    <title>Rectangle 108</title>
    <desc>Created with Sketch.</desc>
    <defs></defs>
    <g id="Page-1" stroke="none" stroke-width="1" fill="none" fill-rule="evenodd" sketch:type="MSPage">
        <g id="Artboard-3" sketch:type="MSArtboardGroup" transform="translate(-827.000000, -1330.000000)" fill="#1E98D5">
            <g id="Group" sketch:type="MSLayerGroup" transform="translate(365.000000, 1319.000000)">
                <path d="M467.666667,12 L473.333333,12 L473.333333,12 L474,14 L475,14 L474,11 L473.5,11 L467.5,11 L467,11 L466,14 L467,14 L467.666667,12 Z M476.5,33 L464.5,33 L464.5,33 L464,33 L463,15 L464,15 L464.944444,32 L476.055556,32 L477,15 L478,15 L477,33 L476.5,33 L476.5,33 Z M474,16 L473,30 L474,30 L475,16 L474,16 Z M470,16 L470,30 L471,30 L471,16 L470,16 Z M466,16 L467,30 L468,30 L467,16 L466,16 Z M462,14 L462,15 L479,15 L479,14 L462,14 Z" id="Rectangle-108" sketch:type="MSShapeGroup"></path>
            </g>
        </g>
    </g>
</svg>
