<?xml version="1.0" encoding="UTF-8" standalone="no"?>
<svg width="26px" height="17px" viewBox="0 0 26 17" version="1.1" xmlns="http://www.w3.org/2000/svg" xmlns:xlink="http://www.w3.org/1999/xlink" xmlns:sketch="http://www.bohemiancoding.com/sketch/ns">
    <!-- Generator: Sketch 3.1 (8751) - http://www.bohemiancoding.com/sketch -->
    <title>Email</title>
    <desc>Created with Sketch.</desc>
    <defs></defs>
    <g id="Page-1" stroke="none" stroke-width="1" fill="none" fill-rule="evenodd" sketch:type="MSPage">
        <g id="Artboard-5" sketch:type="MSArtboardGroup" transform="translate(-410.000000, -170.000000)" fill="#4A4A4A">
            <path d="M434.079991,185.084835 L427.564347,178.590909 L434.079991,172.096984 L434.079991,185.084835 Z M411.802989,185.699827 L418.228333,179.297901 L421.005559,182.064869 C421.414919,182.474865 421.961735,182.699862 422.541662,182.699862 C423.121588,182.699862 423.668405,182.474865 424.077765,182.064869 L426.85499,179.297901 L433.278328,185.699827 L411.802989,185.699827 Z M411.003333,172.098984 L417.517974,178.589909 L411.003333,185.082835 L411.003333,172.098984 Z M433.058598,171.699989 L423.368408,181.357877 C422.927945,181.798872 422.155379,181.798872 421.714915,181.357877 L412.022719,171.699989 L433.058598,171.699989 Z M434.061931,170.7 L411.019386,170.7 L410.81872,170.7 L410.21672,170.7 L410,170.7 L410,186.699816 L435.083324,186.699816 L435.083324,170.7 L434.215441,170.7 L434.061931,170.7 Z" id="Email" sketch:type="MSShapeGroup"></path>
        </g>
    </g>
</svg>