<?xml version="1.0" encoding="utf-8"?>
<!-- Generator: Adobe Illustrator 16.0.0, SVG Export Plug-In . SVG Version: 6.00 Build 0)  -->
<!DOCTYPE svg PUBLIC "-//W3C//DTD SVG 1.1//EN" "http://www.w3.org/Graphics/SVG/1.1/DTD/svg11.dtd">
<svg version="1.1" id="Layer_1" xmlns="http://www.w3.org/2000/svg" xmlns:xlink="http://www.w3.org/1999/xlink" x="0px" y="0px"
	 width="45px" height="45px" viewBox="0 0 45 45" enable-background="new 0 0 45 45" xml:space="preserve">
<g>
	<circle fill="#2697D4" cx="22.552" cy="22.5" r="22.5"/>
	<path fill="#FFFFFF" d="M36.187,32.279l-5.281-5.282c0.986-1.743,1.555-3.753,1.555-5.896c0-6.629-5.391-12.022-12.021-12.022
		c-6.629,0-12.024,5.394-12.024,12.022c0,6.63,5.396,12.026,12.024,12.026c2.48,0,4.786-0.756,6.701-2.046l5.121,5.123
		c0.543,0.54,1.252,0.81,1.961,0.81c0.711,0,1.422-0.27,1.964-0.81C37.27,35.119,37.27,33.365,36.187,32.279z M12.116,21.101
		c0-4.588,3.733-8.321,8.323-8.321c4.592,0,8.322,3.733,8.322,8.321c0,4.593-3.73,8.327-8.322,8.327
		C15.85,29.428,12.116,25.693,12.116,21.101z"/>
</g>
</svg>
