<?xml version="1.0" encoding="utf-8"?>
<!-- Generator: Adobe Illustrator 16.0.0, SVG Export Plug-In . SVG Version: 6.00 Build 0)  -->
<!DOCTYPE svg PUBLIC "-//W3C//DTD SVG 1.1//EN" "http://www.w3.org/Graphics/SVG/1.1/DTD/svg11.dtd">
<svg version="1.1" id="Layer_1" xmlns="http://www.w3.org/2000/svg" xmlns:xlink="http://www.w3.org/1999/xlink" x="0px" y="0px"
	 width="32px" height="32px" viewBox="0 0 32 32" enable-background="new 0 0 32 32" xml:space="preserve">
<g>
	<path fill="#ED9E00" d="M16,0C7.163,0,0,7.162,0,16c0,8.836,7.163,16,16,16s16-7.164,16-16C32,7.162,24.837,0,16,0z M22.688,21.694
		H9.311c0,0-2.259,0.365-1.16-1.527l6.656-11.053c0,0,0.371-0.621,1.103-0.764V8.32c0.032,0.002,0.059,0.011,0.09,0.015
		c0.031-0.004,0.057-0.013,0.09-0.015v0.03c0.732,0.143,1.103,0.764,1.103,0.764l6.656,11.053
		C24.948,22.06,22.688,21.694,22.688,21.694z"/>
	<polygon fill="#ED9E00" points="15.086,17.442 16.901,17.442 17.121,12.411 14.881,12.411 	"/>
	<rect x="15.075" y="18.272" fill="#ED9E00" width="1.851" height="2.078"/>
</g>
</svg>
