<svg xmlns="http://www.w3.org/2000/svg" width="62" height="20"><path fill="#939492" d="M62 18c0 1.104-.896 2-2 2h-58c-1.104 0-2-.896-2-2v-16c0-1.104.896-2 2-2h58c1.104 0 2 .896 2 2v16z"/><g fill="#fff"><path d="M13.638 3.912h-3.222c-.843 0-1.906.125-2.797.857-.674.581-1.002 1.377-1.002 2.095 0 1.219.939 2.452 2.596 2.452l.501-.031c-.077.188-.157.343-.157.61 0 .484.25.782.469 1.062-.702.045-2.016.125-2.986.716-.923.548-1.206 1.345-1.206 1.908 0 1.155 1.094 2.233 3.363 2.233 2.69 0 4.113-1.483 4.113-2.952 0-1.078-.626-1.61-1.314-2.188l-.562-.438c-.172-.142-.407-.329-.407-.672s.235-.563.438-.766c.657-.515 1.313-1.062 1.313-2.217 0-1.189-.75-1.815-1.11-2.11h.97l1-.559zm-1.375 9.559c0 .971-.798 1.688-2.299 1.688-1.673 0-2.752-.797-2.752-1.904 0-1.11 1-1.485 1.345-1.61.657-.219 1.5-.25 1.641-.25l.361.017c1.188.841 1.704 1.264 1.704 2.059zm-1.251-5.029c-.25.249-.673.437-1.063.437-1.346 0-1.955-1.734-1.955-2.781 0-.406.078-.827.344-1.155.25-.312.687-.516 1.094-.516 1.298 0 1.971 1.75 1.971 2.874-.001.282-.032.782-.391 1.141z"/><polygon points="18.147,5.737 16.42,5.737 16.42,4.009 15.709,4.009 15.709,5.737 13.981,5.737 13.981,6.447 15.709,6.447 15.709,8.176 16.42,8.176 16.42,6.447 18.147,6.447"/></g></svg>