<?xml version="1.0" encoding="utf-8"?>
<!-- Generator: Adobe Illustrator 16.0.4, SVG Export Plug-In . SVG Version: 6.00 Build 0)  -->
<!DOCTYPE svg PUBLIC "-//W3C//DTD SVG 1.1//EN" "http://www.w3.org/Graphics/SVG/1.1/DTD/svg11.dtd">
<svg version="1.1" id="Capa_1" xmlns:sketch="http://www.bohemiancoding.com/sketch/ns"
	 xmlns="http://www.w3.org/2000/svg" xmlns:xlink="http://www.w3.org/1999/xlink" x="0px" y="0px" width="14px" height="21px"
	 viewBox="0 0 14 21" enable-background="new 0 0 14 21" xml:space="preserve">
<title>Pin</title>
<desc>Created with Sketch.</desc>
<path fill="#FF9720" d="M7,4.537c-1.343,0-2.45,1.104-2.45,2.483c0,1.38,1.107,2.484,2.45,2.484s2.45-1.104,2.45-2.484
	C9.45,5.641,8.343,4.537,7,4.537z M7,7.776c-0.45,0-0.8-0.349-0.8-0.756S6.55,6.265,7,6.265s0.8,0.349,0.8,0.755S7.45,7.776,7,7.776
	z"/>
<path fill="#FF9720" d="M7,0C3.143,0,0,3.134,0,7.021c0,1.257,0.331,2.464,0.95,3.528l5.626,9.719L7,21l0.424-0.732l5.627-9.721
	C13.669,9.484,14,8.277,14,7.021C14,3.134,10.857,0,7,0z M11.641,9.649L7,17.667L2.36,9.649C1.895,8.851,1.65,7.942,1.65,7.021
	c0-2.908,2.392-5.293,5.35-5.293c2.959,0,5.35,2.385,5.35,5.293C12.35,7.942,12.105,8.851,11.641,9.649z"/>
</svg>
