<?xml version="1.0" encoding="UTF-8" standalone="no"?>
<svg width="18px" height="18px" viewBox="0 0 18 18" version="1.1" xmlns="http://www.w3.org/2000/svg" xmlns:xlink="http://www.w3.org/1999/xlink" xmlns:sketch="http://www.bohemiancoding.com/sketch/ns">
    <!-- Generator: Sketch 3.1.1 (8761) - http://www.bohemiancoding.com/sketch -->
    <title>Fill 3</title>
    <desc>Created with Sketch.</desc>
    <defs></defs>
    <g id="Page-1" stroke="none" stroke-width="1" fill="none" fill-rule="evenodd" sketch:type="MSPage">
        <g id="Artboard-3" sketch:type="MSArtboardGroup" transform="translate(-528.000000, -1380.000000)" fill="#1E98D5">
            <path d="M538.10368,1391.20129 L538.10368,1391.4314 L535.995757,1391.4314 L535.995757,1391.20129 C535.995757,1390.5504 536.090738,1389.71533 536.846432,1388.98938 C537.602214,1388.26331 538.546646,1387.66359 538.546646,1386.7566 C538.546646,1385.75393 537.850762,1385.22354 536.973393,1385.22354 C535.511461,1385.22354 535.415869,1386.73978 535.379825,1387.07365 L533.329573,1387.07365 C533.384184,1385.49258 534.052413,1383.28107 536.98567,1383.28107 C539.527602,1383.28107 540.670427,1384.98351 540.670427,1386.57996 C540.670427,1389.12102 538.10368,1389.56241 538.10368,1391.20129 M537.098301,1394.98111 C536.392194,1394.98111 535.819515,1394.40843 535.819515,1393.70206 C535.819515,1392.99604 536.39215,1392.42363 537.098301,1392.42363 C537.804583,1392.42363 538.377087,1392.99604 538.377087,1393.70206 C538.377087,1394.40843 537.804583,1394.98111 537.098301,1394.98111 M537,1380 C532.029422,1380 528,1384.02942 528,1389 C528,1393.97062 532.029422,1398 537,1398 C541.970621,1398 546,1393.97062 546,1389 C546,1384.02942 541.970621,1380 537,1380" id="Fill-3" sketch:type="MSShapeGroup"></path>
        </g>
    </g>
</svg>
