<svg xmlns="http://www.w3.org/2000/svg" xmlns:xlink="http://www.w3.org/1999/xlink" width="20.6" height="20.6"><symbol id="a" viewBox="-10.3 -10.3 20.6 20.6"><path stroke="#989898" stroke-width=".61" stroke-miterlimit="10" d="M-10 0c0 5.5 4.5 10 10 10s10-4.5 10-10-4.5-10-10-10-10 4.5-10 10z" fill="none"/><path fill="#676767" d="M-1.6 4.5c0 .8.6 1.4 1.4 1.4.8 0 1.4-.6 1.4-1.4 0-.8-.6-1.4-1.4-1.4-.8 0-1.4.6-1.4 1.4zm.1-9.6v6.9h2.6v-6.9h-2.6z"/></symbol><use xlink:href="#a" width="20.6" height="20.6" x="-10.3" y="-10.3" transform="matrix(1 0 0 -1 10.305 10.305)" overflow="visible"/></svg>