<?xml version="1.0" encoding="UTF-8" standalone="no"?>
<svg width="14px" height="14px" viewBox="0 0 14 14" version="1.1" xmlns="http://www.w3.org/2000/svg" xmlns:xlink="http://www.w3.org/1999/xlink" xmlns:sketch="http://www.bohemiancoding.com/sketch/ns">
    <!-- Generator: Sketch 3.1 (8751) - http://www.bohemiancoding.com/sketch -->
    <title>List</title>
    <desc>Created with Sketch.</desc>
    <defs></defs>
    <g id="Page-1" stroke="none" stroke-width="1" fill="none" fill-rule="evenodd" sketch:type="MSPage">
        <g id="Artboard-5" sketch:type="MSArtboardGroup" transform="translate(-382.000000, -171.000000)" fill="#4A4A4A">
            <path d="M382,171.7 L382,174.7 L385,174.7 L385,171.7 L382,171.7 Z M387,171.7 L387,174.7 L396,174.7 L396,171.7 L387,171.7 Z M382,176.7 L382,179.7 L385,179.7 L385,176.7 L382,176.7 Z M387,176.7 L387,179.7 L396,179.7 L396,176.7 L387,176.7 Z M382,181.7 L382,184.7 L385,184.7 L385,181.7 L382,181.7 Z M387,181.7 L387,184.7 L396,184.7 L396,181.7 L387,181.7 Z" id="List" sketch:type="MSShapeGroup"></path>
        </g>
    </g>
</svg>