<svg xmlns="http://www.w3.org/2000/svg" width="62" height="20"><path fill="#939492" d="M62 18c0 1.104-.896 2-2 2h-58c-1.104 0-2-.896-2-2v-16c0-1.104.896-2 2-2h58c1.104 0 2 .896 2 2v16z"/><path fill="#fff" d="M15.015 10.027c-.279.756-.699 1.417-1.358 1.901-.225.165-.466.297-.729.403-.297.117-.601.187-.914.221-.247.025-.491.015-.74-.036-.244-.052-.462-.146-.677-.261-.225-.119-.402-.297-.553-.524l-.282 1.109c-.127.492-.229.991-.461 1.451l-.131.247-.008.014-.019.036-.14.264c-.448.779-.672.512-.672.512-.173-.118-.239-.479-.265-.78v-.079c-.001-.433.021-.866.119-1.291l.849-3.616c.022-.095.016-.175-.017-.265-.215-.611-.245-1.225.003-1.833.149-.369.387-.665.77-.814.634-.249 1.226.122 1.291.797.031.337-.042.658-.131.975-.148.532-.318 1.058-.456 1.591-.161.625.206 1.197.86 1.314.394.072.759-.042 1.079-.274.365-.266.616-.626.804-1.03.377-.807.52-1.662.46-2.543-.067-1.019-.576-1.749-1.532-2.135-.602-.244-1.233-.287-1.869-.181-1.25.208-2.14.892-2.564 2.096-.307.871-.342 1.741.311 2.51.067.08.075.174.05.273l-.132.522c-.065.25-.189.311-.424.205-.478-.215-.81-.577-1.025-1.047-.324-.71-.393-1.459-.239-2.217.264-1.305 1.007-2.272 2.16-2.92.994-.557 2.071-.719 3.195-.608.91.09 1.726.42 2.42 1.022.74.642 1.2 1.446 1.308 2.423.096.88-.033 1.741-.341 2.568z"/></svg>