<svg width="12.5" height="12.5" xmlns="http://www.w3.org/2000/svg">
 <!-- Created with SVG-edit - http://svg-edit.googlecode.com/ -->

 <g>
  <title>Layer 1</title>
  <path id="svg_5" d="m11.98999,9.648799c0,0.267545 -0.095175,0.497617 -0.28253,0.684969l-1.372941,1.374439c-0.189604,0.187356 -0.418176,0.281034 -0.686469,0.281034c-0.266796,0 -0.497615,-0.093678 -0.686469,-0.281034l-2.966961,-2.968456l-2.966959,2.969207c-0.188106,0.187355 -0.417426,0.281033 -0.68647,0.281033s-0.497614,-0.093678 -0.68572,-0.281033l-1.372939,-1.374438c-0.188105,-0.187355 -0.282532,-0.418176 -0.282532,-0.68572c0,-0.269042 0.094427,-0.497615 0.282532,-0.68647l2.966958,-2.968457l-2.966958,-2.966211c-0.188105,-0.187355 -0.282532,-0.417427 -0.282532,-0.686469s0.094427,-0.497616 0.282532,-0.68647l1.372939,-1.372191c0.187356,-0.188105 0.41593,-0.282532 0.684972,-0.282532s0.498364,0.093678 0.68647,0.282532l2.966959,2.966959l2.966958,-2.966959c0.188854,-0.188854 0.418927,-0.282532 0.686469,-0.282532s0.496867,0.093678 0.686469,0.282532l1.372945,1.372191c0.187355,0.188854 0.282528,0.417427 0.282528,0.68647s-0.095173,0.497616 -0.282528,0.686469l-2.96771,2.96696l2.96771,2.968459c0.188103,0.188104 0.283278,0.416677 0.283278,0.685719z" fill="#808080"/>
 </g>
</svg>