<?xml version="1.0" encoding="utf-8"?>
<!-- Generator: Adobe Illustrator 16.0.0, SVG Export Plug-In . SVG Version: 6.00 Build 0)  -->
<!DOCTYPE svg PUBLIC "-//W3C//DTD SVG 1.1//EN" "http://www.w3.org/Graphics/SVG/1.1/DTD/svg11.dtd">
<svg version="1.1" id="Capa_1" xmlns="http://www.w3.org/2000/svg" xmlns:xlink="http://www.w3.org/1999/xlink" x="0px" y="0px"
	 width="11.07px" height="12.338px" viewBox="0 0 11.07 12.338" enable-background="new 0 0 11.07 12.338" xml:space="preserve">
<path fill="#1E98D5" d="M10.035,0.361c-0.01,0.002-0.963,0.32-2.449,0.32c-0.756,0-1.502-0.158-2.229-0.313
	c-0.781-0.166-1.588-0.34-2.469-0.34c-1.709,0-2.385,0.369-2.553,0.484L0,0.838v11.5h1.559V7.863
	c0.268-0.059,0.693-0.117,1.33-0.117c0.713,0,1.404,0.148,2.145,0.305c0.76,0.162,1.621,0.348,2.553,0.348
	c1.793,0,2.916-0.393,2.963-0.408l0.521-0.184V0L10.035,0.361z"/>
</svg>
