<?xml version="1.0" encoding="utf-8"?>
<!-- Generator: Adobe Illustrator 16.0.0, SVG Export Plug-In . SVG Version: 6.00 Build 0)  -->
<!DOCTYPE svg PUBLIC "-//W3C//DTD SVG 1.1//EN" "http://www.w3.org/Graphics/SVG/1.1/DTD/svg11.dtd">
<svg version="1.1" id="Layer_1" xmlns="http://www.w3.org/2000/svg" xmlns:xlink="http://www.w3.org/1999/xlink" x="0px" y="0px"
	 width="30px" height="30px" viewBox="0 0 30 30" enable-background="new 0 0 30 30" xml:space="preserve">
<g>
	<linearGradient id="SVGID_1_" gradientUnits="userSpaceOnUse" x1="14.9995" y1="0" x2="14.9995" y2="30.0005">
		<stop  offset="0" style="stop-color:#008BCD"/>
		<stop  offset="1" style="stop-color:#037BB6"/>
	</linearGradient>
	<path fill="url(#SVGID_1_)" d="M30,26.998C30,28.654,28.659,30,27.003,30H3.002C1.342,30,0,28.654,0,26.998V3.001
		C0,1.345,1.342,0,3.002,0h24.001C28.659,0,30,1.345,30,3.001V26.998z"/>
	<g>
		<path fill="#FFFFFF" d="M5.977,11.091h3.859v12.39H5.977V11.091z M7.904,4.935c1.23,0,2.237,1,2.237,2.23
			c0,1.231-1.007,2.235-2.237,2.235c-1.232,0-2.229-1.004-2.229-2.235C5.675,5.935,6.672,4.935,7.904,4.935"/>
		<path fill="#FFFFFF" d="M12.253,11.091h3.692v1.696h0.051c0.512-0.978,1.771-2.003,3.646-2.003c3.896,0,4.62,2.564,4.62,5.902
			v6.795h-3.85v-6.023c0-1.436-0.029-3.288-2.001-3.288c-2.012,0-2.314,1.566-2.314,3.181v6.131h-3.845V11.091z"/>
	</g>
</g>
</svg>
