<?xml version="1.0" encoding="UTF-8" standalone="no"?>
<svg width="24px" height="24px" viewBox="0 0 16 24" version="1.1" xmlns="http://www.w3.org/2000/svg" xmlns:xlink="http://www.w3.org/1999/xlink" xmlns:sketch="http://www.bohemiancoding.com/sketch/ns">
    <!-- Generator: Sketch 3.1.1 (8761) - http://www.bohemiancoding.com/sketch -->
    <title>Share</title>
    <desc>Created with Sketch.</desc>
    <defs></defs>
    <g id="Page-1" stroke="none" stroke-width="1" fill="none" fill-rule="evenodd" sketch:type="MSPage">
        <g id="Artboard-4" sketch:type="MSArtboardGroup" transform="translate(-378.000000, -1427.000000)" fill="#ffffff">
            <path d="M385.961538,1429.66865 L385.961538,1441.5 L385.038462,1441.5 C385.038462,1441.5 385.038462,1433.85071 385.038462,1430 C385.038462,1429.90608 385.038462,1429.7919 385.038462,1429.66891 L385.038462,1429.66865 L382.5,1432.20711 L381.792893,1431.5 L385.146447,1428.14645 L385.5,1427.79289 L389.207107,1431.5 L388.5,1432.20711 L385.961538,1429.66865 Z M378,1449 L378,1450 L393,1450 L393,1449 L378,1449 Z M393,1436 L392,1436 L392,1449 L393,1449 L393,1436 Z M379,1436 L378,1436 L378,1449 L379,1449 L379,1436 Z M379,1436 L379,1437 L384,1437 L384,1436 L379,1436 Z M387,1436 L387,1437 L392,1437 L392,1436 L387,1436 Z" id="Share" sketch:type="MSShapeGroup"></path>
        </g>
    </g>
</svg>
