<?xml version="1.0" encoding="UTF-8" standalone="no"?>
<!-- Generator: Adobe Illustrator 15.1.0, SVG Export Plug-In . SVG Version: 6.00 Build 0)  -->

<svg
   xmlns:dc="http://purl.org/dc/elements/1.1/"
   xmlns:cc="http://creativecommons.org/ns#"
   xmlns:rdf="http://www.w3.org/1999/02/22-rdf-syntax-ns#"
   xmlns:svg="http://www.w3.org/2000/svg"
   xmlns="http://www.w3.org/2000/svg"
   xmlns:sodipodi="http://sodipodi.sourceforge.net/DTD/sodipodi-0.dtd"
   xmlns:inkscape="http://www.inkscape.org/namespaces/inkscape"
   version="1.1"
   id="Layer_1"
   x="0px"
   y="0px"
   width="18px"
   height="20px"
   viewBox="0 0 18 20"
   enable-background="new 0 0 18 20"
   xml:space="preserve"
   inkscape:version="0.48.5 r10040"
   sodipodi:docname="ssp-delete.svg"><metadata
     id="metadata15"><rdf:RDF><cc:Work
         rdf:about=""><dc:format>image/svg+xml</dc:format><dc:type
           rdf:resource="http://purl.org/dc/dcmitype/StillImage" /></cc:Work></rdf:RDF></metadata><defs
     id="defs13" /><sodipodi:namedview
     pagecolor="#ffffff"
     bordercolor="#666666"
     borderopacity="1"
     objecttolerance="10"
     gridtolerance="10"
     guidetolerance="10"
     inkscape:pageopacity="0"
     inkscape:pageshadow="2"
     inkscape:window-width="1105"
     inkscape:window-height="818"
     id="namedview11"
     showgrid="false"
     inkscape:zoom="11.8"
     inkscape:cx="-6.1694915"
     inkscape:cy="10"
     inkscape:window-x="263"
     inkscape:window-y="107"
     inkscape:window-maximized="0"
     inkscape:current-layer="Layer_1" /><g
     id="g3"
     style="fill:#1e98d5;fill-opacity:1"><path
       fill="#1867c3"
       d="M4.154,2.5C4.154,3.75,4.154,2.5,4.154,2.5V5h2.769V2.5h4.154V5h2.769V2.5c0,0,0,1.25,0,0   c0-2.5-1.384-2.5-2.769-2.5S9.692,0,6.923,0C4.154,0,4.154,1.25,4.154,2.5z"
       id="path5"
       style="fill:#1e98d5;fill-opacity:1" /><g
       id="g7"
       style="fill:#1e98d5;fill-opacity:1"><path
         fill="#1867c3"
         d="M18,4.25c0-0.275-0.225-0.5-0.5-0.5h-17C0.225,3.75,0,3.975,0,4.25v1.5c0,0.275,0.225,0.5,0.5,0.5h0.385    c0.275,0,0.5,0.225,0.5,0.5V19.5c0,0.275,0.225,0.5,0.5,0.5h14.23c0.275,0,0.5-0.225,0.5-0.5V6.75c0-0.275,0.225-0.5,0.5-0.5H17.5    c0.275,0,0.5-0.225,0.5-0.5V4.25z M5.538,17c0,0.275-0.225,0.5-0.5,0.5H4.654c-0.275,0-0.5-0.225-0.5-0.5V7.482    c0-0.275,0.225-0.5,0.5-0.5h0.384c0.275,0,0.5,0.225,0.5,0.5V17z M9.692,17c0,0.275-0.225,0.5-0.5,0.5H8.808    c-0.275,0-0.5-0.225-0.5-0.5V7.482c0-0.275,0.225-0.5,0.5-0.5h0.385c0.275,0,0.5,0.225,0.5,0.5V17z M13.846,17    c0,0.275-0.225,0.5-0.5,0.5h-0.384c-0.275,0-0.5-0.225-0.5-0.5V7.482c0-0.275,0.225-0.5,0.5-0.5h0.384c0.275,0,0.5,0.225,0.5,0.5    V17z"
         id="path9"
         style="fill:#1e98d5;fill-opacity:1" /></g></g></svg>