<svg xmlns="http://www.w3.org/2000/svg" width="62" height="20"><path fill="#939492" d="M62 18c0 1.104-.896 2-2 2h-58c-1.104 0-2-.896-2-2v-16c0-1.104.896-2 2-2h58c1.104 0 2 .896 2 2v16z"/><path fill="#fff" d="M19.316 5.477c-.502.222-1.041.373-1.605.44.577-.347 1.02-.894 1.229-1.547-.541.32-1.14.553-1.776.679-.51-.544-1.235-.883-2.041-.883-1.543 0-2.795 1.251-2.795 2.795 0 .219.024.433.072.638-2.323-.117-4.383-1.229-5.762-2.921-.241.412-.378.892-.378 1.405 0 .97.494 1.825 1.244 2.327-.458-.015-.889-.14-1.266-.35l-.001.035c0 1.354.963 2.485 2.243 2.741-.235.062-.481.1-.737.1-.18 0-.354-.02-.525-.052.355 1.111 1.388 1.919 2.61 1.94-.956.751-2.162 1.197-3.472 1.197-.225 0-.448-.013-.666-.039 1.237.793 2.706 1.257 4.285 1.257 5.143 0 7.953-4.261 7.953-7.954l-.008-.361c.548-.395 1.021-.887 1.396-1.447z"/></svg>