<?xml version="1.0" encoding="UTF-8" standalone="no"?>
<!-- Created with Inkscape (http://www.inkscape.org/) -->

<svg
   xmlns:dc="http://purl.org/dc/elements/1.1/"
   xmlns:cc="http://creativecommons.org/ns#"
   xmlns:rdf="http://www.w3.org/1999/02/22-rdf-syntax-ns#"
   xmlns:svg="http://www.w3.org/2000/svg"
   xmlns="http://www.w3.org/2000/svg"
   xmlns:sodipodi="http://sodipodi.sourceforge.net/DTD/sodipodi-0.dtd"
   xmlns:inkscape="http://www.inkscape.org/namespaces/inkscape"
   width="64"
   height="64"
   viewBox="0 0 64.000001 64.000001"
   id="svg2"
   version="1.1"
   inkscape:version="0.91 r13725"
   sodipodi:docname="urgent_label_mobile_2.svg">
  <defs
     id="defs4" />
  <sodipodi:namedview
     id="base"
     pagecolor="#ffffff"
     bordercolor="#666666"
     borderopacity="1.0"
     inkscape:pageopacity="0.0"
     inkscape:pageshadow="2"
     inkscape:zoom="5.6"
     inkscape:cx="22.395874"
     inkscape:cy="19.464318"
     inkscape:document-units="px"
     inkscape:current-layer="layer1"
     showgrid="false"
     inkscape:window-width="1366"
     inkscape:window-height="716"
     inkscape:window-x="-8"
     inkscape:window-y="-8"
     inkscape:window-maximized="1"
     units="px" />
  <metadata
     id="metadata7">
    <rdf:RDF>
      <cc:Work
         rdf:about="">
        <dc:format>image/svg+xml</dc:format>
        <dc:type
           rdf:resource="http://purl.org/dc/dcmitype/StillImage" />
        <dc:title></dc:title>
      </cc:Work>
    </rdf:RDF>
  </metadata>
  <g
     inkscape:label="Layer 1"
     inkscape:groupmode="layer"
     id="layer1"
     transform="translate(0,-988.36216)">
    <g
       id="g3364"
       transform="matrix(0.10322581,0,0,0.10322581,18.887567,914.41628)">
      <path
         style="fill:#fefcfc"
         d="m -182.97331,1026.3507 0,-309.99999 310,0 310,0 c -330.65825,314.14279 -182.44336,165.98732 -620,619.99999 z"
         id="path3368"
         inkscape:connector-curvature="0"
         sodipodi:nodetypes="cccccc" />
      <path
         style="fill:#ee4823"
         d="m -182.97331,1026.1001 0,-309.74939 310.16667,0 c 170.59166,0 309.96055,0.1125 309.70863,0.25 -0.25191,0.1375 -139.82691,139.52473 -310.16666,309.74939 l -309.70864,309.4994 0,-309.7494 z m 101.75537,164.6719 c 7.02325,-3.4331 19.92097,-16.0158 23.03548,-22.4728 5.03445,-10.4375 4.5688,-19.7825 -1.44162,-28.9319 -1.99318,-3.0341 -13.90177,-15.8666 -26.463537,-28.5166 l -22.839573,-23 -6.73354,6.7198 -6.73354,6.7197 23.089326,23.2803 c 12.699131,12.8041 23.868274,24.816 24.820324,26.693 3.30804,6.522 0.25468,14.3675 -8.05972,20.7092 -4.576835,3.4909 -11.732059,4.2967 -16.513367,1.8597 -1.878583,-0.9575 -13.661843,-11.9072 -26.185023,-24.3326 l -22.76941,-22.5917 -6.69548,6.6954 -6.69548,6.6955 18.9649,19.1129 c 20.67098,20.8322 32.58836,31.0644 38.89973,33.3992 6.052612,2.239 15.296246,1.3946 22.32053,-2.0391 z m 53.52593,-53.2003 c 3.14529,-3.1784 5.7187,-6.2227 5.7187,-6.765 0,-0.5423 -5.625,-6.5975 -12.5,-13.456 -6.875,-6.8585 -12.5,-13.2292 -12.5,-14.1571 0,-2.0617 7.54565,-8.6907 10.83111,-9.5153 4.34837,-1.0914 17.48639,0.4355 31.5512,3.6668 l 13.88232,3.1894 6.86768,-6.8151 c 3.77723,-3.7483 6.86769,-7.381 6.86769,-8.0728 0,-0.6918 -1.0125,-1.4939 -2.25,-1.7825 -1.2375,-0.2887 -8.1,-1.9402 -15.25,-3.6701 -8.02241,-1.9411 -16.25458,-3.2497 -21.5,-3.4178 -4.675,-0.1499 -8.62165,-0.3069 -8.77032,-0.349 -0.14868,-0.042 0.66366,-1.9073 1.80521,-4.1449 8.0327,-15.7454 -2.96946,-35.0272 -20.91493,-36.6544 -10.26939,-0.9312 -14.37406,1.72 -36.2796,23.4335 -10.362199,10.2713 -18.84036,19.1482 -18.84036,19.7264 0,1.3652 63.16106,64.5629 64.52544,64.5629 0.57044,0 3.61058,-2.6005 6.75586,-5.779 z m -39.16772,-52.6815 c -3.91247,-3.7772 -7.11358,-7.5907 -7.11358,-8.4744 0,-1.629 15.43373,-17.4117 19.97251,-20.4241 4.0435,-2.6836 9.69123,-2.1311 13.10441,1.2821 2.39471,2.3947 2.92308,3.7657 2.92308,7.5847 0,4.5825 -0.18484,4.8505 -10.88642,15.7805 l -10.88642,11.1188 -7.11358,-6.8676 z M 44.1872,1064.0937 c 13.98449,-6.954 24.4102,-19.1009 29.87776,-34.8102 4.53686,-13.0353 4.73365,-12.4493 -8.78827,-26.1713 -6.4625,-6.55819 -12.57593,-12.37379 -13.58539,-12.9236 -1.55569,-0.84731 -3.87974,1.02466 -15.25,12.2835 -7.37804,7.3058 -13.41461,13.9966 -13.41461,14.8685 0,0.8719 2.25286,3.8043 5.00635,6.5164 l 5.00635,4.931 7.26717,-7.2186 c 3.99694,-3.9703 7.76672,-7.2187 8.37728,-7.2187 0.61057,0 2.74394,1.8085 4.74083,4.0188 4.10529,4.544 4.10098,5.608 -0.0606,14.9812 -4.94804,11.1446 -13.63444,17.3478 -24.33739,17.38 -5.46579,0.016 -7.48638,-0.5075 -12.69936,-3.2926 -7.87768,-4.2087 -17.54516,-14.1955 -20.95806,-21.6503 -5.16027,-11.2715 -1.21338,-24.274 9.55117,-31.4652 5.47855,-3.65989 10.28154,-4.60728 15.83181,-3.1228 2.36673,0.633 4.94538,1.15091 5.73034,1.15091 1.9878,0 10.75599,-11.64542 10.36445,-13.76546 -0.41248,-2.23341 -5.97152,-4.93569 -12.82878,-6.23614 -11.44631,-2.17075 -22.44514,2.23947 -33.74102,13.52919 -5.12721,5.12442 -8.20102,9.25473 -10.5,14.10895 -3.05442,6.44935 -3.25054,7.52715 -3.25054,17.86345 0,10.5632 0.14268,11.2988 3.59322,18.5237 6.3446,13.2846 19.2214,24.926 32.90678,29.7497 5.29928,1.8679 8.09983,2.229 15.16051,1.9551 7.58782,-0.2943 9.56959,-0.7879 16,-3.9855 z m 74.58199,-72.98534 c 13.34162,-13.33329 24.2575,-24.74671 24.2575,-25.36315 0,-0.61645 -2.29046,-3.26328 -5.08992,-5.88184 l -5.08992,-4.76103 -17.72314,17.62419 c -9.74772,9.6933 -18.3598,17.62418 -19.13795,17.62418 -1.61795,0 -16.95907,-14.91557 -16.95907,-16.48864 0,-0.56956 6.975,-7.99967 15.5,-16.51136 8.525,-8.51169 15.5,-16.13921 15.5,-16.95005 0,-1.65728 -7.86576,-10.04995 -9.419,-10.04995 -0.55143,0 -8.02699,6.975 -16.61236,15.5 -8.58537,8.525 -16.23997,15.5 -17.01021,15.5 -1.91443,0 -12.95843,-11.06243 -12.95843,-12.98006 0,-0.84847 7.425,-8.95744 16.5,-18.01994 9.075,-9.0625 16.5,-16.9833 16.5,-17.60179 0,-0.61849 -2.29701,-3.27311 -5.10447,-5.89916 l -5.10446,-4.77463 -23.89554,23.87998 c -13.14254,13.13398 -23.89553,24.33089 -23.89553,24.88202 0,1.30751 63.17968,64.51357 64.48664,64.51357 0.54909,0 11.91423,-10.9091 25.25586,-24.24234 z m 37.97605,-37.97349 c 2.9048,-2.86871 5.28145,-5.68565 5.28145,-6.25987 0,-0.57422 -8.55,-9.58515 -19,-20.02429 -17.74438,-17.72594 -21.5983,-22.43854 -17.25,-21.09342 4.66261,1.44235 60.63756,14.59342 62.11404,14.59342 0.93155,0 4.59878,-2.9311 8.14939,-6.51355 l 6.45565,-6.51355 -32.73049,-32.7305 -32.7305,-32.73049 -6.24436,6.24436 -6.24435,6.24435 19.74031,19.75884 c 16.87922,16.89506 21.51993,22.24054 19.30826,22.24054 -0.23763,0 -14.47298,-3.375 -31.63411,-7.5 -17.16112,-4.125 -31.94329,-7.5 -32.84925,-7.5 -2.03039,0 -13.08459,11.00228 -13.08459,13.02314 0,1.92071 62.04232,63.97686 63.9626,63.97686 0.81098,0 3.85116,-2.34713 6.75595,-5.21584 z m 75.50245,-75.50286 c 3.17845,-3.14528 5.779,-6.41103 5.779,-7.25721 0,-0.84618 -11.7,-13.23202 -26,-27.52409 -14.3,-14.29207 -26,-26.44876 -26,-27.01487 0,-0.5661 3.825,-4.83442 8.5,-9.48513 4.675,-4.65071 8.5,-8.9667 8.5,-9.59108 0,-0.62438 -2.29825,-3.28498 -5.10721,-5.91244 l -5.10722,-4.7772 -25.62264,25.62265 -25.62264,25.62264 4.94226,5.01771 c 2.71825,2.75975 5.41912,5.01772 6.00194,5.01772 0.58281,0 4.8648,-3.825 9.51551,-8.5 4.65071,-4.675 8.91896,-8.5 9.485,-8.5 0.56603,0 12.94778,11.925 27.515,26.5 14.56722,14.575 26.70098,26.5 26.96393,26.5 0.26294,0 3.07862,-2.57341 6.25707,-5.7187 z m 55.5215,-55.52365 c 13.34162,-13.33329 24.2575,-24.74671 24.2575,-25.36315 0,-0.61645 -2.29046,-3.26328 -5.08992,-5.88184 l -5.08992,-4.76103 -17.72314,17.62419 c -9.74772,9.6933 -18.3598,17.62418 -19.13795,17.62418 -1.61795,0 -16.95907,-14.91557 -16.95907,-16.48864 0,-0.56956 6.975,-7.99967 15.5,-16.51136 8.525,-8.51169 15.5,-16.13921 15.5,-16.95005 0,-1.65728 -7.86576,-10.04995 -9.419,-10.04995 -0.55143,0 -8.02699,6.975 -16.61236,15.5 -8.58537,8.525 -16.23997,15.5 -17.01021,15.5 -1.91443,0 -12.95843,-11.06243 -12.95843,-12.98006 0,-0.84847 7.425,-8.95744 16.5,-18.01994 9.075,-9.0625 16.5,-16.9833 16.5,-17.60179 0,-0.61849 -2.29701,-3.27311 -5.10447,-5.89916 l -5.10446,-4.77463 -23.89554,23.87998 c -13.14254,13.13398 -23.89553,24.33089 -23.89553,24.88202 0,1.30751 63.17968,64.51358 64.48664,64.51358 0.54909,0 11.91423,-10.90906 25.25586,-24.24235 z"
         id="path3366"
         inkscape:connector-curvature="0" />
    </g>
  </g>
</svg>
