<?xml version="1.0" encoding="UTF-8" standalone="no"?>
<!-- Created with Inkscape (http://www.inkscape.org/) -->

<svg
   xmlns:dc="http://purl.org/dc/elements/1.1/"
   xmlns:cc="http://creativecommons.org/ns#"
   xmlns:rdf="http://www.w3.org/1999/02/22-rdf-syntax-ns#"
   xmlns:svg="http://www.w3.org/2000/svg"
   xmlns="http://www.w3.org/2000/svg"
   xmlns:sodipodi="http://sodipodi.sourceforge.net/DTD/sodipodi-0.dtd"
   xmlns:inkscape="http://www.inkscape.org/namespaces/inkscape"
   width="64"
   height="64"
   viewBox="0 0 64.000001 64.000001"
   id="svg2"
   version="1.1"
   inkscape:version="0.91 r13725"
   sodipodi:docname="urgent_label_2.svg">
  <defs
     id="defs4" />
  <sodipodi:namedview
     id="base"
     pagecolor="#ffffff"
     bordercolor="#666666"
     borderopacity="1.0"
     inkscape:pageopacity="0.0"
     inkscape:pageshadow="2"
     inkscape:zoom="3.959798"
     inkscape:cx="58.369183"
     inkscape:cy="58.795617"
     inkscape:document-units="px"
     inkscape:current-layer="layer1"
     showgrid="false"
     inkscape:window-width="1366"
     inkscape:window-height="716"
     inkscape:window-x="-8"
     inkscape:window-y="-8"
     inkscape:window-maximized="1"
     units="px" />
  <metadata
     id="metadata7">
    <rdf:RDF>
      <cc:Work
         rdf:about="">
        <dc:format>image/svg+xml</dc:format>
        <dc:type
           rdf:resource="http://purl.org/dc/dcmitype/StillImage" />
        <dc:title></dc:title>
      </cc:Work>
    </rdf:RDF>
  </metadata>
  <g
     inkscape:label="Layer 1"
     inkscape:groupmode="layer"
     id="layer1"
     transform="translate(0,-988.36216)">
    <g
       id="g3347"
       transform="matrix(0.10322581,0,0,0.10322581,-5.4562213,977.50081)"
       inkscape:export-xdpi="9.2903223"
       inkscape:export-ydpi="9.2903223">
      <path
         style="fill:#fefcfc"
         d="m 52.857132,105.21933 309.999998,0 310,0 0,310 0,310 C 402.6737,470.96343 368.49478,383.78857 52.857132,105.21933 Z"
         id="path3351"
         inkscape:connector-curvature="0"
         sodipodi:nodetypes="cccccc" />
      <path
         style="fill:#ee4823"
         d="M 362.85371,414.71886 53.350291,105.21933 l 309.753419,0 309.75342,0 0,309.5 c 0,170.225 -0.1125,309.49979 -0.25,309.49953 -0.1375,-2.6e-4 -139.52654,-139.27526 -309.75342,-309.5 z m 229.49076,176.41055 4.76103,-5.08992 -17.62419,-17.72314 c -9.6933,-9.74772 -17.62418,-18.3598 -17.62418,-19.13795 0,-1.61795 14.91557,-16.95907 16.48864,-16.95907 0.56956,0 7.99967,6.975 16.51136,15.5 8.51169,8.525 16.13921,15.5 16.95005,15.5 1.65728,0 10.04995,-7.86576 10.04995,-9.419 0,-0.55143 -6.975,-8.02699 -15.5,-16.61236 -8.525,-8.58537 -15.5,-16.23997 -15.5,-17.01021 0,-1.91443 11.06243,-12.95843 12.98006,-12.95843 0.84847,0 8.95744,7.425 18.01994,16.5 9.0625,9.075 16.9833,16.5 17.60179,16.5 0.61849,0 3.27311,-2.29701 5.89916,-5.10447 l 4.77463,-5.10446 -23.87998,-23.89554 c -13.13398,-13.14254 -24.33089,-23.89553 -24.88202,-23.89553 -1.30751,0 -64.51358,63.17968 -64.51358,64.48664 0,1.38322 48.2197,49.51336 49.6055,49.51336 0.61645,0 3.26328,-2.29046 5.88184,-5.08992 z m -51.98734,-94.91008 c 14.29207,-14.3 26.44876,-26 27.01487,-26 0.56611,0 4.83442,3.825 9.48513,8.5 4.65071,4.675 8.9667,8.5 9.59108,8.5 0.62438,0 3.28498,-2.29825 5.91244,-5.10721 l 4.7772,-5.10722 -25.62265,-25.62264 -25.62264,-25.62264 -5.01771,4.94226 c -2.75975,2.71825 -5.01772,5.41912 -5.01772,6.00194 0,0.58281 3.825,4.8648 8.5,9.51551 4.675,4.65071 8.5,8.91271 8.5,9.4711 0,0.55839 -12.02887,13.05032 -26.73081,27.75983 l -26.73082,26.74458 5.94951,6.01224 c 3.27223,3.30674 6.64185,6.01225 7.48803,6.01225 0.84618,0 13.23202,-11.7 27.52409,-26 z m -31.50211,-42.49788 32.48634,-32.49789 -6.24243,-6.24243 -6.24242,-6.24242 -19.75884,19.74031 c -16.89506,16.87922 -22.24054,21.51993 -22.24054,19.30826 0,-0.23763 3.375,-14.47298 7.5,-31.63411 4.125,-17.16112 7.5,-31.94329 7.5,-32.84925 0,-2.03039 -11.00228,-13.08459 -13.02314,-13.08459 -1.92071,0 -63.97686,62.04232 -63.97686,63.9626 0,1.67479 9.87907,12.0374 11.47571,12.0374 0.57422,0 9.58515,-8.55 20.02429,-19 17.72594,-17.74438 22.43854,-21.5983 21.09342,-17.25 -1.4099,4.55772 -14.59342,60.62037 -14.59342,62.05824 0,1.45877 11.64299,14.19176 12.97688,14.19176 0.29406,0 15.15351,-14.62405 33.02101,-32.49788 z m -85.51055,-31.59204 4.76103,-5.08992 -17.62419,-17.72314 c -9.6933,-9.74772 -17.62418,-18.3598 -17.62418,-19.13795 0,-1.61795 14.91557,-16.95907 16.48864,-16.95907 0.56956,0 7.99967,6.975 16.51136,15.5 8.51169,8.525 16.13921,15.5 16.95005,15.5 1.65728,0 10.04995,-7.86576 10.04995,-9.419 0,-0.55143 -6.975,-8.02699 -15.5,-16.61236 -8.525,-8.58537 -15.5,-16.23997 -15.5,-17.01021 0,-1.91443 11.06243,-12.95843 12.98006,-12.95843 0.84847,0 8.95744,7.425 18.01994,16.5 9.0625,9.075 16.9833,16.5 17.60179,16.5 0.61849,0 3.27311,-2.29701 5.89916,-5.10447 l 4.77463,-5.10446 -23.87998,-23.89554 c -13.13398,-13.14254 -24.33089,-23.89553 -24.88202,-23.89553 -1.30751,0 -64.51358,63.17968 -64.51358,64.48664 0,1.38322 48.2197,49.51336 49.6055,49.51336 0.61645,0 3.26328,-2.29046 5.88184,-5.08992 z m -43.24878,-72.66008 c 6.55814,-6.4625 12.37374,-12.57593 12.92355,-13.58539 0.84731,-1.55569 -1.02466,-3.87974 -12.28352,-15.25 -7.30575,-7.37804 -13.99657,-13.41461 -14.86848,-13.41461 -0.87191,0 -3.80428,2.25286 -6.51637,5.00635 l -4.93107,5.00635 7.21867,7.26717 c 3.97026,3.99694 7.21866,7.76672 7.21866,8.37728 0,0.61057 -1.80844,2.74394 -4.01876,4.74083 -4.54406,4.10529 -5.60802,4.10098 -14.98124,-0.0606 -11.14461,-4.94803 -17.34779,-13.63443 -17.37997,-24.33738 -0.0164,-5.46579 0.50744,-7.48638 3.29255,-12.69936 4.20875,-7.87768 14.19556,-17.54516 21.65031,-20.95806 11.27151,-5.16027 24.27407,-1.21338 31.46522,9.55117 3.65989,5.47855 4.60728,10.28154 3.1228,15.83181 -0.633,2.36673 -1.15091,4.94538 -1.15091,5.73034 0,1.9878 11.64542,10.75599 13.76546,10.36445 2.23341,-0.41248 4.93569,-5.97152 6.23614,-12.82878 2.17075,-11.44631 -2.23947,-22.44514 -13.52919,-33.74102 -5.12442,-5.12721 -9.25473,-8.20102 -14.10895,-10.5 -6.44936,-3.05443 -7.52713,-3.25055 -17.86346,-3.25055 -10.56322,0 -11.29874,0.14268 -18.52366,3.59322 -13.74975,6.56674 -25.86985,20.34172 -30.12892,34.24274 -1.62914,5.31729 -1.99305,8.58735 -1.63807,14.71952 1.101,19.019 16.93974,37.35428 38.85791,44.98279 13.03528,4.53686 12.44926,4.73365 26.1713,-8.78827 z m -80.75191,-44.5 c 0.28862,-1.2375 1.94016,-8.1 3.6701,-15.25 1.94102,-8.02241 3.24967,-16.25458 3.4178,-21.5 0.14984,-4.675 0.30687,-8.62165 0.34895,-8.77032 0.0421,-0.14868 1.90728,0.66366 4.14489,1.80521 15.74539,8.0327 35.02721,-2.96946 36.65445,-20.91493 0.93119,-10.26939 -1.72007,-14.37406 -23.43348,-36.2796 -10.27132,-10.3622 -19.14823,-18.84036 -19.72647,-18.84036 -1.32638,0 -64.56289,63.14077 -64.56289,64.46514 0,1.32166 11.16743,12.53486 12.4837,12.53486 0.57547,0 6.65781,-5.625 13.5163,-12.5 6.85849,-6.875 13.22918,-12.5 14.15707,-12.5 2.06176,0 8.69079,7.54565 9.51539,10.83111 1.09137,4.34837 -0.43551,17.48639 -3.66683,31.5512 l -3.18939,13.88232 6.81506,6.86768 c 3.74828,3.77723 7.38106,6.86769 8.07283,6.86769 0.69177,0 1.49391,-1.0125 1.78252,-2.25 z m 3.22509,-69.63642 -11.11879,-10.88642 6.86759,-7.11358 c 3.77717,-3.91247 7.59064,-7.11358 8.47437,-7.11358 1.62904,0 17.41174,15.43373 20.4241,19.97251 2.68365,4.0435 2.1311,9.69123 -1.28209,13.10441 -2.3947,2.39471 -3.76571,2.92308 -7.58474,2.92308 -4.58251,0 -4.85044,-0.18484 -15.78044,-10.88642 z m -64.21174,-7.61005 c 5.81088,-2.37977 15.2116,-10.59221 35.99091,-31.44155 l 20.9909,-21.06165 -6.71064,-6.71065 -6.71065,-6.71064 -23.28026,23.08933 c -12.80414,12.69913 -24.816,23.86827 -26.69301,24.82032 -6.52199,3.30804 -14.36752,0.25468 -20.70922,-8.05972 -3.49093,-4.57684 -4.29675,-11.73206 -1.85975,-16.51337 0.9575,-1.87858 11.90719,-13.66184 24.33264,-26.18502 l 22.59173,-22.76942 -6.69548,-6.69547 -6.69548,-6.69548 -19.11284,18.9649 c -30.30685,30.07226 -35.87118,38.14253 -34.62483,50.21846 0.85341,8.26878 5.01904,15.69395 13.62937,24.29415 12.39544,12.38086 24.09428,16.15005 35.55661,11.45581 z"
         id="path3349"
         inkscape:connector-curvature="0" />
    </g>
  </g>
</svg>
