<?xml version="1.0" encoding="UTF-8" standalone="no"?>
<svg width="100px" height="101px" viewBox="0 0 100 101" version="1.1" xmlns="http://www.w3.org/2000/svg" xmlns:xlink="http://www.w3.org/1999/xlink" xmlns:sketch="http://www.bohemiancoding.com/sketch/ns">
    <!-- Generator: Sketch 3.1 (8751) - http://www.bohemiancoding.com/sketch -->
    <title>User 3</title>
    <desc>Created with Sketch.</desc>
    <defs></defs>
    <g id="Page-1" stroke="none" stroke-width="1" fill="none" fill-rule="evenodd" sketch:type="MSPage">
        <g id="Artboard-5" sketch:type="MSArtboardGroup" transform="translate(-580.000000, -155.000000)" fill="#4A4A4A">
            <path d="M598.016667,238.466667 C602.708333,236.554167 612.045833,233.220833 618.191667,231.404167 C621.7625,230.279167 621.7625,227.266667 621.7625,224.85 C621.7625,222.85 621.629167,219.895833 620.454167,217.395833 C619.645833,215.683333 618.729167,212.75 618.529167,210.454167 C618.479167,209.916667 618.229167,209.420833 617.820833,209.0625 C617.233333,208.55 616.029167,206.654167 615.266667,202.8375 C614.6625,199.820833 614.916667,199.158333 615.166667,198.516667 C615.275,198.25 615.370833,197.979167 615.454167,197.675 C615.958333,195.845833 615.395833,189.8375 614.7875,186.504167 C614.525,185.058333 614.858333,180.9375 617.566667,177.470833 C620,174.366667 623.679167,172.6375 628.366667,172.3375 L632.316667,172.333333 C637.141667,172.6375 640.816667,174.366667 643.245833,177.470833 C645.958333,180.9375 646.2875,185.058333 646.025,186.504167 C645.420833,189.8375 644.8625,195.845833 645.358333,197.670833 C645.445833,197.979167 645.545833,198.25 645.654167,198.516667 C645.895833,199.158333 646.158333,199.820833 645.55,202.8375 C644.7875,206.654167 643.5875,208.55 642.991667,209.0625 C642.5875,209.420833 642.3375,209.916667 642.291667,210.454167 C642.0875,212.75 641.166667,215.683333 640.3625,217.395833 C639.4375,219.358333 638.379167,221.970833 638.379167,224.766667 C638.379167,227.183333 638.379167,230.191667 641.991667,231.329167 C647.870833,233.066667 657.2625,236.295833 662.225,238.245833 C653.9375,246.45 642.55,251.533333 630,251.533333 C617.5625,251.533333 606.283333,246.5375 598.016667,238.466667 M630,159.866667 C655.270833,159.866667 675.833333,180.425 675.833333,205.7 C675.833333,216.820833 671.845833,227.025 665.229167,234.975 C660.7,233.075 649.9125,229.329167 643.204167,227.341667 C642.633333,227.1625 642.545833,227.1375 642.545833,224.766667 C642.545833,222.808333 643.35,220.841667 644.133333,219.170833 C644.983333,217.358333 645.995833,214.308333 646.358333,211.575 C647.370833,210.4 648.754167,208.079167 649.6375,203.658333 C650.4125,199.7625 650.05,198.345833 649.533333,197.0125 C649.483333,196.875 649.425,196.733333 649.3875,196.595833 C649.191667,195.683333 649.458333,190.9375 650.125,187.254167 C650.583333,184.729167 650.008333,179.35 646.533333,174.908333 C644.333333,172.1 640.125,168.65 632.45,168.170833 L628.2375,168.175 C620.6875,168.65 616.4875,172.1 614.2875,174.908333 C610.804167,179.35 610.229167,184.729167 610.691667,187.254167 C611.358333,190.9375 611.629167,195.683333 611.433333,196.579167 C611.391667,196.733333 611.333333,196.875 611.279167,197.0125 C610.766667,198.345833 610.4,199.7625 611.179167,203.658333 C612.066667,208.079167 613.441667,210.4 614.458333,211.575 C614.816667,214.308333 615.825,217.358333 616.679167,219.170833 C617.308333,220.495833 617.595833,222.3 617.595833,224.85 C617.595833,227.220833 617.5125,227.254167 616.975,227.420833 C610.066667,229.458333 599.0875,233.429167 594.991667,235.220833 C588.25,227.2375 584.166667,216.941667 584.166667,205.7 C584.166667,180.425 604.725,159.866667 630,159.866667 M630,155.7 C602.383333,155.7 580,178.083333 580,205.7 C580,233.316667 602.383333,255.7 630,255.7 C657.616667,255.7 680,233.316667 680,205.7 C680,178.083333 657.616667,155.7 630,155.7" id="User-3" sketch:type="MSShapeGroup"></path>
        </g>
    </g>
</svg>