<?xml version="1.0" encoding="utf-8"?>
<!-- Generator: Adobe Illustrator 15.1.0, SVG Export Plug-In . SVG Version: 6.00 Build 0)  -->
<!DOCTYPE svg PUBLIC "-//W3C//DTD SVG 1.1//EN" "http://www.w3.org/Graphics/SVG/1.1/DTD/svg11.dtd">
<svg version="1.1" id="Layer_1" xmlns="http://www.w3.org/2000/svg" xmlns:xlink="http://www.w3.org/1999/xlink" x="0px" y="0px"
	 width="18px" height="16.695px" viewBox="0 0 18 16.695" enable-background="new 0 0 18 16.695" xml:space="preserve">
<path fill="#BB3027" d="M10.283,13.796V11.89c0-0.095-0.031-0.174-0.095-0.236c-0.063-0.064-0.139-0.096-0.226-0.096H8.036
	c-0.087,0-0.162,0.031-0.226,0.096c-0.063,0.062-0.095,0.142-0.095,0.236v1.906c0,0.094,0.032,0.172,0.095,0.236
	c0.064,0.063,0.14,0.096,0.226,0.096h1.927c0.087,0,0.162-0.031,0.226-0.096S10.283,13.89,10.283,13.796z M10.264,10.043l0.18-4.604
	c0-0.081-0.033-0.145-0.1-0.191c-0.088-0.073-0.168-0.109-0.242-0.109H7.894c-0.074,0-0.154,0.036-0.241,0.109
	c-0.067,0.047-0.1,0.118-0.1,0.211l0.171,4.585c0,0.067,0.034,0.122,0.101,0.166s0.147,0.065,0.241,0.065h1.856
	c0.094,0,0.173-0.022,0.236-0.065S10.256,10.111,10.264,10.043L10.264,10.043z M10.123,0.672l7.705,14.127
	c0.233,0.421,0.228,0.844-0.021,1.265c-0.114,0.194-0.27,0.348-0.466,0.461s-0.409,0.17-0.638,0.171H1.294
	c-0.228,0-0.44-0.057-0.637-0.171c-0.197-0.114-0.353-0.269-0.466-0.461c-0.248-0.421-0.254-0.844-0.02-1.265L7.875,0.672
	C7.99,0.465,8.146,0.301,8.347,0.18C8.547,0.06,8.765,0,8.999,0S9.451,0.06,9.65,0.18C9.852,0.301,10.009,0.465,10.123,0.672
	L10.123,0.672z"/>
</svg>
