<?xml version="1.0" encoding="utf-8"?>
<!-- Generator: Adobe Illustrator 14.0.0, SVG Export Plug-In . SVG Version: 6.00 Build 43363)  -->
<!DOCTYPE svg PUBLIC "-//W3C//DTD SVG 1.1//EN" "http://www.w3.org/Graphics/SVG/1.1/DTD/svg11.dtd">
<svg version="1.1" id="Layer_1" xmlns="http://www.w3.org/2000/svg" xmlns:xlink="http://www.w3.org/1999/xlink" x="0px" y="0px"
	 width="24px" height="24px" viewBox="0 0 24 24" enable-background="new 0 0 24 24" xml:space="preserve">
<g>
	
		<linearGradient id="SVGID_1_" gradientUnits="userSpaceOnUse" x1="-77.02" y1="604.4785" x2="-77.02" y2="627.4785" gradientTransform="matrix(1 0 0 -1 89 628)">
		<stop  offset="0.0181" style="stop-color:#E3E2E2"/>
		<stop  offset="1" style="stop-color:#F7F3F7"/>
	</linearGradient>
	<path fill="url(#SVGID_1_)" stroke="#DCDBDB" stroke-miterlimit="10" d="M23.479,19.838c0,2.034-1.647,3.684-3.684,3.684H4.163
		c-2.034,0-3.684-1.648-3.684-3.684V4.205c0-2.034,1.649-3.684,3.684-3.684h15.633c2.035,0,3.685,1.65,3.685,3.684v15.633H23.479z"
		/>
	<polygon fill="#2561AE" points="19.09,6.699 17.348,4.975 12,10.274 6.652,4.975 4.91,6.699 10.258,12 4.91,17.301 6.652,19.025 
		12,13.725 17.348,19.025 19.09,17.301 13.742,12 	"/>
</g>
</svg>
