<?xml version="1.0" encoding="utf-8"?>
<!-- Generator: Adobe Illustrator 20.0.0, SVG Export Plug-In . SVG Version: 6.00 Build 0)  -->
<svg version="1.1" id="Layer_1" xmlns="http://www.w3.org/2000/svg" xmlns:xlink="http://www.w3.org/1999/xlink" x="0px" y="0px"
	 width="50px" height="50px" viewBox="0 0 50 50" style="enable-background:new 0 0 50 50;" xml:space="preserve">
<style type="text/css">
	.st0{fill:#DE2C28;}
	.st1{fill:#FFFFFF;}
</style>
<g>
	<circle class="st0" cx="25" cy="25" r="25"/>
	<path class="st1" d="M37.6,20.4c0-2-1.7-3.7-3.7-3.7c-2.8-0.1-5.6-0.2-8.5-0.2h-0.9c-2.9,0-5.7,0.1-8.5,0.2c-2.1,0-3.7,1.6-3.7,3.7
		c-0.1,1.6-0.2,3.2-0.2,4.8c0,1.6,0.1,3.2,0.2,4.8c0,2,1.7,3.7,3.7,3.7c2.9,0.1,5.9,0.2,9,0.2c3.1,0,6,0,9-0.2c2,0,3.7-1.6,3.7-3.7
		c0.1-1.6,0.2-3.2,0.2-4.8C37.8,23.7,37.7,22,37.6,20.4z M28.9,26l-7.1,4.1c-0.7,0.4-1.4,0.1-1.4-0.8l0-8.2c0-0.9,0.6-1.2,1.4-0.8
		l7.1,4.1C29.6,24.9,29.6,25.6,28.9,26z"/>
</g>
</svg>
