<?xml version="1.0" encoding="utf-8"?>
<!-- Generator: Adobe Illustrator 20.0.0, SVG Export Plug-In . SVG Version: 6.00 Build 0)  -->
<svg version="1.1" id="Layer_1" xmlns="http://www.w3.org/2000/svg" xmlns:xlink="http://www.w3.org/1999/xlink" x="0px" y="0px"
	 width="50px" height="50px" viewBox="0 0 50 50" style="enable-background:new 0 0 50 50;" xml:space="preserve">
<style type="text/css">
	.st0{fill:#B7020D;}
	.st1{fill:#FFFFFF;}
</style>
<g>
	<circle class="st0" cx="25" cy="25" r="25"/>
	<path class="st1" d="M25.5,12.8c-6.8,0-10.3,4.9-10.3,9c0,2.5,0.9,4.7,2.9,5.5c0.3,0.1,0.6,0,0.7-0.4c0.1-0.3,0.2-0.9,0.3-1.2
		c0.1-0.4,0.1-0.5-0.2-0.8c-0.6-0.7-0.9-1.6-0.9-2.8c0-3.6,2.7-6.9,7.1-6.9c3.9,0,6,2.4,6,5.5c0,4.1-1.8,7.6-4.6,7.6
		c-1.5,0-2.6-1.2-2.3-2.8c0.4-1.8,1.3-3.8,1.3-5.1c0-1.2-0.6-2.2-1.9-2.2c-1.5,0-2.8,1.6-2.8,3.7c0,1.4,0.5,2.3,0.5,2.3
		s-1.6,6.7-1.8,7.8c-0.5,2.3-0.1,5.2,0,5.5c0,0.2,0.2,0.2,0.3,0.1c0.1-0.2,2-2.4,2.6-4.7c0.2-0.6,1-3.9,1-3.9c0.5,1,2,1.8,3.5,1.8
		c4.6,0,7.7-4.2,7.7-9.8C34.5,16.7,30.9,12.8,25.5,12.8z"/>
</g>
</svg>
