<?xml version="1.0" encoding="utf-8"?>
<!-- Generator: Adobe Illustrator 20.0.0, SVG Export Plug-In . SVG Version: 6.00 Build 0)  -->
<svg version="1.1" id="Layer_1" xmlns="http://www.w3.org/2000/svg" xmlns:xlink="http://www.w3.org/1999/xlink" x="0px" y="0px"
	 width="50px" height="50px" viewBox="0 0 50 50" style="enable-background:new 0 0 50 50;" xml:space="preserve">
<style type="text/css">
	.st0{fill:#DC4E41;}
	.st1{fill:#FFFFFF;}
</style>
<g>
	<circle class="st0" cx="25" cy="25" r="25"/>
	<path class="st1" d="M19.9,23.6v3.5h4.9c-0.4,2.1-2.2,3.7-4.9,3.7c-3,0-5.4-2.5-5.4-5.5c0-3,2.4-5.5,5.4-5.5c1.3,0,2.5,0.5,3.5,1.4
		v0l2.5-2.5c-1.6-1.5-3.6-2.4-6-2.4c-5,0-9,4-9,9s4,9,9,9c5.2,0,8.7-3.7,8.7-8.8c0-0.7-0.1-1.3-0.2-1.9H19.9z M36.3,24.1v-2.8H34
		v2.8h-2.8v2.3H34v2.8h2.3v-2.8h2.8v-2.3H36.3z"/>
</g>
</svg>
