<?xml version="1.0" encoding="utf-8"?>
<!-- Generator: Adobe Illustrator 20.0.0, SVG Export Plug-In . SVG Version: 6.00 Build 0)  -->
<svg version="1.1" xmlns="http://www.w3.org/2000/svg" xmlns:xlink="http://www.w3.org/1999/xlink" x="0px" y="0px" width="50px"
	 height="50px" viewBox="0 0 50 50" style="enable-background:new 0 0 50 50;" xml:space="preserve">
<style type="text/css">
	.st0{fill-rule:evenodd;clip-rule:evenodd;fill:#ffffff;}
</style>
<g id="Layer_1">
</g>
<g id="ICONS">
	<path class="st0" d="M7.1,16.4c-0.9,0-1.6,0.3-2.2,0.9C4.3,17.9,4,18.6,4,19.4v12.7c0,0.8,0.3,1.6,0.9,2.2c0.6,0.6,1.3,0.9,2.2,0.9
		c0.9,0,1.6-0.3,2.2-0.9c0.6-0.6,0.9-1.3,0.9-2.2V19.4c0-0.8-0.3-1.5-0.9-2.1C8.6,16.7,7.9,16.4,7.1,16.4z M11.3,36.6
		c0,0.9,0.3,1.7,1,2.3c0.6,0.6,1.4,0.9,2.3,0.9h2.2l0,6.7c0,0.8,0.3,1.6,0.9,2.2c0.6,0.6,1.3,0.9,2.2,0.9c0.9,0,1.6-0.3,2.2-0.9
		s0.9-1.3,0.9-2.2v-6.7h4.1v6.7c0,0.8,0.3,1.6,0.9,2.2c0.6,0.6,1.3,0.9,2.2,0.9c0.9,0,1.6-0.3,2.2-0.9c0.6-0.6,0.9-1.3,0.9-2.2v-6.7
		h2.3c0.9,0,1.7-0.3,2.3-0.9c0.6-0.6,1-1.4,1-2.3V17H11.3V36.6z M31.9,5l2.1-3.9c0.1-0.3,0.1-0.5-0.1-0.6c-0.3-0.1-0.5-0.1-0.6,0.2
		l-2.2,3.9c-1.9-0.8-3.9-1.2-6-1.2c-2.1,0-4.1,0.4-6,1.2l-2.2-3.9c-0.1-0.2-0.3-0.3-0.6-0.2c-0.2,0.1-0.3,0.3-0.1,0.6L18.3,5
		c-2.2,1.1-3.9,2.6-5.2,4.5c-1.3,1.9-1.9,4.1-1.9,6.4H39c0-2.3-0.6-4.4-1.9-6.4C35.8,7.6,34.1,6.1,31.9,5z M19.6,10.6
		c-0.2,0.2-0.5,0.3-0.8,0.3s-0.6-0.1-0.8-0.3c-0.2-0.2-0.3-0.5-0.3-0.8S17.7,9.2,18,9c0.2-0.2,0.5-0.3,0.8-0.3
		c0.3,0,0.6,0.1,0.8,0.3c0.2,0.2,0.3,0.5,0.3,0.8S19.8,10.4,19.6,10.6z M32.3,10.6C32,10.9,31.8,11,31.4,11s-0.6-0.1-0.8-0.3
		c-0.2-0.2-0.3-0.5-0.3-0.8s0.1-0.6,0.3-0.8c0.2-0.2,0.5-0.3,0.8-0.3S32,8.8,32.3,9c0.2,0.2,0.3,0.5,0.3,0.8S32.5,10.4,32.3,10.6z
		 M45.3,17.3c-0.6-0.6-1.3-0.9-2.2-0.9c-0.8,0-1.6,0.3-2.2,0.9c-0.6,0.6-0.9,1.3-0.9,2.1v12.7c0,0.8,0.3,1.6,0.9,2.2
		c0.6,0.6,1.3,0.9,2.2,0.9c0.9,0,1.6-0.3,2.2-0.9c0.6-0.6,0.9-1.3,0.9-2.2V19.4C46.2,18.6,45.9,17.9,45.3,17.3z"/>
</g>
</svg>
