<?xml version="1.0" encoding="utf-8"?>
<!-- Generator: Adobe Illustrator 20.0.0, SVG Export Plug-In . SVG Version: 6.00 Build 0)  -->
<svg version="1.1" id="Layer_1" xmlns="http://www.w3.org/2000/svg" xmlns:xlink="http://www.w3.org/1999/xlink" x="0px" y="0px"
	 width="50px" height="50px" viewBox="0 0 50 50" style="enable-background:new 0 0 50 50;" xml:space="preserve">
<style type="text/css">
	.st0{fill:#B3B3B3;}
</style>
<path class="st0" d="M25,12.7c-6.8,0-12.3,5.5-12.3,12.3S18.2,37.3,25,37.3c6.8,0,12.3-5.5,12.3-12.3S31.8,12.7,25,12.7z M25,35.3
	c-5.7,0-10.3-4.6-10.3-10.3S19.3,14.7,25,14.7S35.3,19.3,35.3,25S30.7,35.3,25,35.3z M25,9.8c0.6,0,1-0.4,1-1V2.5c0-0.6-0.4-1-1-1
	s-1,0.4-1,1v6.3C24,9.3,24.4,9.8,25,9.8z M12.8,14.2c0.2,0.2,0.5,0.3,0.7,0.3s0.5-0.1,0.7-0.3c0.4-0.4,0.4-1,0-1.4L9.8,8.4
	C9.4,8,8.8,8,8.4,8.4s-0.4,1,0,1.4L12.8,14.2z M9.8,25c0-0.6-0.4-1-1-1H2.5c-0.6,0-1,0.4-1,1s0.4,1,1,1h6.3C9.3,26,9.8,25.6,9.8,25z
	 M12.8,35.8l-4.4,4.5c-0.4,0.4-0.4,1,0,1.4c0.2,0.2,0.5,0.3,0.7,0.3s0.5-0.1,0.7-0.3l4.4-4.5c0.4-0.4,0.4-1,0-1.4
	S13.2,35.4,12.8,35.8z M25,40.2c-0.6,0-1,0.4-1,1v6.3c0,0.6,0.4,1,1,1s1-0.4,1-1v-6.3C26,40.7,25.6,40.2,25,40.2z M37.2,35.8
	c-0.4-0.4-1-0.4-1.4,0s-0.4,1,0,1.4l4.4,4.4c0.2,0.2,0.5,0.3,0.7,0.3s0.5-0.1,0.7-0.3c0.4-0.4,0.4-1,0-1.4L37.2,35.8z M47.5,24h-6.3
	c-0.6,0-1,0.4-1,1s0.4,1,1,1h6.3c0.6,0,1-0.4,1-1S48.1,24,47.5,24z M36.5,14.5c0.3,0,0.5-0.1,0.7-0.3l4.4-4.5c0.4-0.4,0.4-1,0-1.4
	s-1-0.4-1.4,0l-4.4,4.5c-0.4,0.4-0.4,1,0,1.4C35.9,14.4,36.2,14.5,36.5,14.5z"/>
</svg>
