<?xml version="1.0" encoding="utf-8"?>
<!-- Generator: Adobe Illustrator 20.0.0, SVG Export Plug-In . SVG Version: 6.00 Build 0)  -->
<svg version="1.1" id="Layer_1" xmlns="http://www.w3.org/2000/svg" xmlns:xlink="http://www.w3.org/1999/xlink" x="0px" y="0px"
	 width="50px" height="50px" viewBox="0 0 50 50" style="enable-background:new 0 0 50 50;" xml:space="preserve">
<style type="text/css">
	.st0{fill:#B3B3B3;}
</style>
<g>
	<path class="st0" d="M35.7,34.3h3V12.8c0-0.8-0.7-1.5-1.5-1.5H5.5C4.7,11.3,4,12,4,12.8s0.7,1.5,1.5,1.5h30.2V34.3z M14.3,5.5
		c0-0.8-0.7-1.5-1.5-1.5s-1.5,0.7-1.5,1.5v4.4h3V5.5z M35.7,44.5c0,0.8,0.7,1.5,1.5,1.5s1.5-0.7,1.5-1.5v-4.4h-3V44.5z M44.5,35.7
		H14.3v-20h-3v21.5c0,0.8,0.7,1.5,1.5,1.5h31.7c0.8,0,1.5-0.7,1.5-1.5S45.3,35.7,44.5,35.7z"/>
</g>
</svg>
