<?xml version="1.0" encoding="utf-8"?>
<!-- Generator: Adobe Illustrator 20.0.0, SVG Export Plug-In . SVG Version: 6.00 Build 0)  -->
<svg version="1.1" id="Layer_1" xmlns="http://www.w3.org/2000/svg" xmlns:xlink="http://www.w3.org/1999/xlink" x="0px" y="0px"
	 width="50px" height="50px" viewBox="0 0 50 50" style="enable-background:new 0 0 50 50;" xml:space="preserve">
<style type="text/css">
	.st0{fill:#B3B3B3;}
</style>
<path class="st0" d="M47.5,13.5c-1.5-2.3-3.1-4.4-4.9-6c-1.7-1.7-3.8-3.4-6.4-5c-1.3-0.7-2.9-0.5-3.9,0.5L8.1,27.2
	c-0.4,0.3-0.7,0.8-0.9,1.3c-0.5,1.5-1,3-1.5,4.5C4.7,36.7,3.5,40.4,2.2,44C1.8,45.2,2,46.2,2.8,47C3.2,47.4,3.9,48,4.9,48
	c0.4,0,0.8-0.1,1.1-0.2c5.5-1.9,11.2-3.8,15.6-5.2c0.4-0.2,0.7-0.4,1.2-0.8L47,17.4C48.1,16.4,48.3,14.7,47.5,13.5z M5.3,45.9
	C5.2,46,5.1,46,4.9,46c-0.2,0-0.3,0-0.7-0.4c-0.3-0.3-0.3-0.4-0.1-1c0.5-1.5,1-3,1.5-4.6l4.2,4.2C8.4,44.8,6.8,45.4,5.3,45.9z
	 M45.6,16L21.5,40.3c-0.2,0.2-0.4,0.3-0.5,0.4c-2.6,0.8-5.7,1.8-8.9,2.9L6.3,38c0.5-1.4,0.9-2.9,1.4-4.3c0.5-1.5,1-3,1.5-4.6
	c0-0.2,0.1-0.3,0.3-0.4L33.7,4.3C34,4.1,34.3,4,34.5,4c0.2,0,0.5,0.1,0.6,0.2c2.4,1.5,4.4,3,6.1,4.7c1.7,1.6,3.2,3.5,4.6,5.7
	C46.1,15,46,15.6,45.6,16z"/>
</svg>
