<?xml version="1.0" encoding="utf-8"?>
<!-- Generator: Adobe Illustrator 16.0.0, SVG Export Plug-In . SVG Version: 6.00 Build 0)  -->
<!DOCTYPE svg PUBLIC "-//W3C//DTD SVG 1.1//EN" "http://www.w3.org/Graphics/SVG/1.1/DTD/svg11.dtd">
<svg version="1.1" id="Layer_1" xmlns="http://www.w3.org/2000/svg" xmlns:xlink="http://www.w3.org/1999/xlink" x="0px" y="0px"
	 width="15px" height="15px" viewBox="0 0 50 50" enable-background="new 0 0 50 50" xml:space="preserve">
<path fill="#FFFFFF" d="M37.5,20.3c-0.2-0.4-0.5-0.6-0.9-0.6H26.5l7.4-13.6c0.199-0.3,0.199-0.7,0-1c-0.2-0.3-0.5-0.5-0.9-0.5h-9.7
	c-0.4,0-0.8,0.3-0.9,0.6L14,26.8c-0.1,0.3-0.1,0.7,0.1,0.9c0.2,0.2,0.5,0.399,0.8,0.399h4.9L12.5,44c-0.2,0.4-0.1,1,0.3,1.2
	c0.2,0.1,0.4,0.2,0.6,0.2c0.3,0,0.5-0.101,0.7-0.301l23.2-23.7C37.6,21.1,37.7,20.7,37.5,20.3z M16.7,39.6l5.5-12
	c0.1-0.3,0.1-0.699-0.1-1c-0.2-0.3-0.5-0.5-0.8-0.5h-5L24,6.5h7.3L24,20.2c-0.2,0.3-0.2,0.7,0,1c0.2,0.3,0.5,0.5,0.9,0.5h9.4
	L16.7,39.6z"/>
</svg>
