<?xml version="1.0" encoding="utf-8"?>
<!-- Generator: Adobe Illustrator 20.0.0, SVG Export Plug-In . SVG Version: 6.00 Build 0)  -->
<svg version="1.1" id="Layer_1" xmlns="http://www.w3.org/2000/svg" xmlns:xlink="http://www.w3.org/1999/xlink" x="0px" y="0px"
	 width="50px" height="50px" viewBox="0 0 50 50" style="enable-background:new 0 0 50 50;" xml:space="preserve">
<style type="text/css">
	.st0{fill:#B3B3B3;}
</style>
<path class="st0" d="M47.9,16.8c-0.4,0.9-0.8,1.7-1.4,2.4c0.3,1.2,0.4,2.5,0.4,3.8c0,10.9-9.8,19.8-21.9,19.8
	c-2.2,0-4.4-0.3-6.5-0.9c-0.3-0.1-0.6,0-0.9,0.2c-1.5,1.1-5.4,3.5-11.1,4.6c0.7-1.8,1.7-4.9,2.2-9.8c0-0.3-0.1-0.6-0.3-0.8
	c-3.5-3.6-5.4-8.2-5.4-13C3.1,12.1,12.9,3.2,25,3.2c2,0,3.9,0.2,5.7,0.7c0.7-0.6,1.5-1,2.3-1.4c-2.5-0.8-5.2-1.3-8-1.3
	C11.8,1.2,1.1,11,1.1,22.9c0,5.2,2,10.2,5.7,14.1C6,44.2,4.1,47.2,4.1,47.3c-0.2,0.3-0.2,0.7,0,1.1c0.2,0.3,0.5,0.5,0.9,0.5
	c0,0,0.1,0,0.1,0c6.7-0.8,11.4-3.5,13.5-4.9c2.1,0.5,4.3,0.8,6.5,0.8c13.2,0,23.9-9.8,23.9-21.8C48.9,20.8,48.5,18.7,47.9,16.8z
	 M28.6,12.5c0,5,4.1,9.1,9.1,9.1s9.1-4.1,9.1-9.1s-4.1-9.1-9.1-9.1S28.6,7.5,28.6,12.5z"/>
</svg>
