<?xml version="1.0" encoding="utf-8"?>
<!-- Generator: Adobe Illustrator 20.0.0, SVG Export Plug-In . SVG Version: 6.00 Build 0)  -->
<svg version="1.1" id="Layer_1" xmlns="http://www.w3.org/2000/svg" xmlns:xlink="http://www.w3.org/1999/xlink" x="0px" y="0px"
	 width="50px" height="50px" viewBox="0 0 50 50" style="enable-background:new 0 0 50 50;" xml:space="preserve">
<style type="text/css">
	.st0{fill:#B3B3B3;}
</style>
<path class="st0" d="M45.5,23.5H8.1L23.5,8.1c0.6-0.6,0.6-1.5,0-2.1S22,5.4,21.4,6l-18,18c-0.1,0.1-0.3,0.3-0.3,0.5c0,0,0,0,0,0
	C3,24.6,3,24.8,3,25s0,0.4,0.1,0.5c0,0,0,0,0,0c0.1,0.2,0.2,0.4,0.3,0.5l18,18c0.3,0.3,0.7,0.4,1.1,0.4s0.8-0.1,1.1-0.4
	c0.6-0.6,0.6-1.5,0-2.1L8.1,26.5h37.4c0.8,0,1.5-0.7,1.5-1.5S46.3,23.5,45.5,23.5z"/>
</svg>
