<?xml version="1.0" encoding="utf-8"?>
<!-- Generator: Adobe Illustrator 20.0.0, SVG Export Plug-In . SVG Version: 6.00 Build 0)  -->
<svg version="1.1" id="Layer_1" xmlns="http://www.w3.org/2000/svg" xmlns:xlink="http://www.w3.org/1999/xlink" x="0px" y="0px"
	 width="50px" height="50px" viewBox="0 0 50 50" style="enable-background:new 0 0 50 50;" xml:space="preserve">
<style type="text/css">
	.st0{fill:#B3B3B3;}
</style>
<path class="st0" d="M46.5,22.2c0.7-0.6,0.9-1.5,0.6-2.4c-0.3-0.9-1-1.5-1.9-1.6l-12.6-1.4c-0.1,0-0.2-0.1-0.2-0.2L27.1,5.1
	c-0.4-0.8-1.2-1.4-2.1-1.4h0c-0.9,0-1.7,0.5-2.1,1.4l-5.2,11.6c0,0.1-0.1,0.2-0.2,0.2L4.8,18.3c-0.9,0.1-1.6,0.7-1.9,1.6
	c-0.3,0.9,0,1.8,0.6,2.4l9.4,8.5c0.1,0.1,0.1,0.2,0.1,0.3l-2.6,12.4c-0.2,0.9,0.2,1.8,0.9,2.3c0.4,0.3,0.9,0.4,1.3,0.4
	c0.4,0,0.8-0.1,1.1-0.3l11-6.3c0.1-0.1,0.2-0.1,0.3,0l11,6.3c0.8,0.5,1.7,0.4,2.5-0.1s1.1-1.4,0.9-2.3L36.9,31c0-0.1,0-0.2,0.1-0.3
	L46.5,22.2z M35,31.4l2.6,12.4c0,0.2,0,0.2-0.1,0.3c-0.1,0-0.2,0.1-0.3,0l-11-6.3c-0.7-0.4-1.6-0.4-2.3,0l-11,6.3
	c-0.1,0.1-0.2,0-0.3,0s-0.1-0.1-0.1-0.3L15,31.4c0.2-0.8-0.1-1.6-0.7-2.2l-9.4-8.5c-0.1-0.1-0.1-0.2-0.1-0.3s0.1-0.2,0.2-0.2
	l12.6-1.4c0.8-0.1,1.5-0.6,1.8-1.3l5.2-11.6c0.1-0.1,0.2-0.2,0.3-0.2s0.2,0,0.3,0.2l5.2,11.6c0.3,0.7,1,1.3,1.8,1.3l12.6,1.4
	c0.2,0,0.2,0.1,0.2,0.2s0,0.2-0.1,0.3l-9.4,8.5C35.1,29.8,34.8,30.6,35,31.4z"/>
</svg>
