<?xml version="1.0" encoding="utf-8"?>
<!-- Generator: Adobe Illustrator 20.0.0, SVG Export Plug-In . SVG Version: 6.00 Build 0)  -->
<svg version="1.1" id="Layer_1" xmlns="http://www.w3.org/2000/svg" xmlns:xlink="http://www.w3.org/1999/xlink" x="0px" y="0px"
	 width="50px" height="50px" viewBox="0 0 50 50" style="enable-background:new 0 0 50 50;" xml:space="preserve">
<style type="text/css">
	.st0{fill:#B3B3B3;}
</style>
<path class="st0" d="M47,32.3h-2.8c-0.7-3.4-3.6-5.9-7.2-5.9c-3.5,0-6.5,2.5-7.2,5.9H3c-0.8,0-1.4,0.6-1.4,1.4
	c0,0.8,0.6,1.4,1.4,1.4h27c0.7,3.4,3.6,5.9,7.2,5.9c3.5,0,6.5-2.5,7.2-5.9H47c0.8,0,1.4-0.6,1.4-1.4C48.5,32.9,47.8,32.3,47,32.3z
	 M37.1,38.2c-2.5,0-4.5-2-4.5-4.5c0-2.5,2-4.5,4.5-4.5c2.5,0,4.5,2,4.5,4.5C41.6,36.2,39.6,38.2,37.1,38.2z M3,17.7h7
	c0.7,3.4,3.6,5.9,7.2,5.9c3.5,0,6.5-2.5,7.2-5.9H47c0.8,0,1.4-0.6,1.4-1.4s-0.6-1.4-1.4-1.4H24.3C23.6,11.5,20.6,9,17.1,9
	c-3.5,0-6.5,2.5-7.2,5.9H3c-0.8,0-1.4,0.6-1.4,1.4S2.2,17.7,3,17.7z M17.1,11.8c2.5,0,4.5,2,4.5,4.5s-2,4.5-4.5,4.5
	c-2.5,0-4.5-2-4.5-4.5S14.6,11.8,17.1,11.8z"/>
</svg>
