<?xml version="1.0" encoding="utf-8"?>
<!-- Generator: Adobe Illustrator 20.0.0, SVG Export Plug-In . SVG Version: 6.00 Build 0)  -->
<svg version="1.1" id="Layer_1" xmlns="http://www.w3.org/2000/svg" xmlns:xlink="http://www.w3.org/1999/xlink" x="0px" y="0px"
	 width="50px" height="50px" viewBox="0 0 50 50" style="enable-background:new 0 0 50 50;" xml:space="preserve">
<style type="text/css">
	.st0{fill:#B3B3B3;}
</style>
<path class="st0" d="M48.3,19.6c-0.4-0.4-1-0.4-1.4,0.1l-4.6,4.9c-0.1-3.9-1.5-7.7-4-10.7c-3-3.6-7.2-5.7-11.8-6.1
	c-4.7-0.4-9.3,1.1-12.9,4.2c-0.4,0.4-0.5,1-0.1,1.4s1,0.5,1.4,0.1c3.2-2.7,7.2-4.1,11.4-3.7c4.1,0.4,7.8,2.3,10.4,5.4
	c2.4,2.8,3.6,6.3,3.6,9.9l-5.3-5c-0.4-0.4-1-0.4-1.4,0.1c-0.4,0.4-0.4,1,0.1,1.4l6.9,6.4c0.2,0.2,0.4,0.3,0.7,0.3
	c0.3,0,0.5-0.1,0.7-0.3l6.4-6.9C48.7,20.6,48.7,20,48.3,19.6z M35.1,36.6c-3.2,2.7-7.2,4.1-11.4,3.7c-4.1-0.4-7.8-2.3-10.4-5.4
	c-2.4-2.8-3.6-6.3-3.6-9.9l5.3,5c0.4,0.4,1,0.4,1.4-0.1c0.4-0.4,0.4-1-0.1-1.4L9.5,22c-0.4-0.4-1-0.4-1.4,0.1L1.6,29
	c-0.4,0.4-0.4,1,0.1,1.4c0.2,0.2,0.4,0.3,0.7,0.3c0.3,0,0.5-0.1,0.7-0.3l4.6-4.9c0.1,3.9,1.5,7.7,4,10.7c3,3.6,7.2,5.7,11.8,6.1
	c0.5,0,1,0.1,1.5,0.1c4.2,0,8.1-1.5,11.3-4.2c0.4-0.4,0.5-1,0.1-1.4S35.5,36.2,35.1,36.6z"/>
</svg>
