<?xml version="1.0" encoding="utf-8"?>
<!-- Generator: Adobe Illustrator 20.0.0, SVG Export Plug-In . SVG Version: 6.00 Build 0)  -->
<svg version="1.1" xmlns="http://www.w3.org/2000/svg" xmlns:xlink="http://www.w3.org/1999/xlink" x="0px" y="0px" width="30px"
	 height="30px" viewBox="0 0 50 50" style="enable-background:new 0 0 50 50;" xml:space="preserve">
<style type="text/css">
	.st0{fill:#B3B3B3;}
</style>
<g id="Layer_1">
</g>
<g id="ICONS">
</g>
<g id="icons_FLATTENED">
	<path class="st0" d="M46.4,11.3v-0.1c0-2.1-1.4-3.6-3.3-3.8l-1.3-0.1c-5.2-0.3-11-0.7-16.2-5.2c-0.4-0.3-0.9-0.3-1.3,0
		c-5.2,4.4-11,4.8-16.2,5.2L6.9,7.4C5,7.5,3.6,9.1,3.6,11.2v0.1c0,10.7,0,30.5,21.1,36.8c0.1,0,0.2,0,0.3,0s0.2,0,0.3,0
		C46.4,41.8,46.4,21.9,46.4,11.3z M25,46.1c-19.4-6-19.4-24-19.4-34.8v-0.1c0-0.8,0.5-1.7,1.4-1.8l1.2-0.1c5-0.3,11.2-0.8,16.7-5.1
		c5.5,4.3,11.7,4.8,16.7,5.1l1.2,0.1c1,0.1,1.4,1,1.4,1.8v0.1C44.4,22.1,44.4,40.1,25,46.1z M32.8,15.6l-10,15l-5.8-5.4
		c-0.4-0.4-1-0.4-1.4,0c-0.4,0.4-0.4,1,0,1.4l6.6,6.3c0.2,0.2,0.4,0.3,0.7,0.3c0,0,0.1,0,0.1,0c0.3,0,0.6-0.2,0.7-0.4l10.6-16
		c0.3-0.5,0.2-1.1-0.3-1.4C33.7,15,33.1,15.1,32.8,15.6z"/>
</g>
</svg>
