<?xml version="1.0" encoding="utf-8"?>
<!-- Generator: Adobe Illustrator 20.0.0, SVG Export Plug-In . SVG Version: 6.00 Build 0)  -->
<svg version="1.1" id="Layer_1" xmlns="http://www.w3.org/2000/svg" xmlns:xlink="http://www.w3.org/1999/xlink" x="0px" y="0px"
	 width="50px" height="50px" viewBox="0 0 50 50" style="enable-background:new 0 0 50 50;" xml:space="preserve">
<style type="text/css">
	.st0{fill:#B3B3B3;}
</style>
<path class="st0" d="M43.6,7.2c-0.3-3.8-3.6-6.8-7.4-6.8H13.8c-3.8,0-7.1,3.1-7.4,6.8C5.5,20.6,5.6,34.1,6.8,47.5
	c0.1,0.9,0.7,1.7,1.6,2c0.2,0.1,0.5,0.1,0.7,0.1c0.6,0,1.1-0.2,1.5-0.7c4.7-5.1,9.8-10.1,14.4-14.4c4.5,4.3,9.7,9.3,14.4,14.4
	c0.6,0.6,1.4,0.8,2.3,0.6c0.9-0.3,1.5-1.1,1.6-2l0,0C44.4,34.1,44.5,20.6,43.6,7.2z M41.2,47.3c0,0.2-0.2,0.2-0.2,0.3
	c-0.1,0-0.1,0-0.1,0c-5-5.4-10.4-10.7-15.2-15.1L25,31.8l-0.7,0.7c-4.7,4.5-10.2,9.8-15.2,15.1c0,0-0.1,0-0.1,0c0,0-0.2-0.1-0.2-0.3
	c-1.2-13.2-1.3-26.7-0.4-40c0.2-2.7,2.7-5,5.4-5h22.4c2.7,0,5.2,2.3,5.4,5C42.5,20.6,42.4,34.1,41.2,47.3z"/>
</svg>
