<?xml version="1.0" encoding="utf-8"?>
<!-- Generator: Adobe Illustrator 20.0.0, SVG Export Plug-In . SVG Version: 6.00 Build 0)  -->
<svg version="1.1" id="Layer_1" xmlns="http://www.w3.org/2000/svg" xmlns:xlink="http://www.w3.org/1999/xlink" x="0px" y="0px"
	 width="50px" height="50px" viewBox="0 0 50 50" style="enable-background:new 0 0 50 50;" xml:space="preserve">
<style type="text/css">
	.st0{fill:#B3B3B3;}
</style>
<path class="st0" d="M38.1,35.3c-1.6,0-3,0.6-4,1.6L17.5,26.7c0.2-0.5,0.2-1.1,0.2-1.7c0-0.6-0.1-1.2-0.2-1.7l16.6-10.3
	c1,1,2.5,1.6,4,1.6c3.2,0,5.8-2.6,5.8-5.8S41.3,3,38.1,3s-5.8,2.6-5.8,5.8c0,0.6,0.1,1.2,0.2,1.7L15.9,20.8c-1-1-2.5-1.6-4-1.6
	c-3.2,0-5.8,2.6-5.8,5.8s2.6,5.8,5.8,5.8c1.6,0,3-0.6,4-1.6l16.6,10.3c-0.2,0.5-0.2,1.1-0.2,1.7c0,3.2,2.6,5.8,5.8,5.8
	s5.8-2.6,5.8-5.8C43.9,37.9,41.3,35.3,38.1,35.3z"/>
</svg>
