<?xml version="1.0" encoding="utf-8"?>
<!-- Generator: Adobe Illustrator 20.0.0, SVG Export Plug-In . SVG Version: 6.00 Build 0)  -->
<svg version="1.1" id="Layer_1" xmlns="http://www.w3.org/2000/svg" xmlns:xlink="http://www.w3.org/1999/xlink" x="0px" y="0px"
	 width="14px" height="14px" viewBox="0 0 50 50" style="enable-background:new 0 0 50 50;" xml:space="preserve">
<style type="text/css">
	.st0{fill:#f66429;}
</style>
<path class="st0" d="M45.8,21.5c0.8-0.7,0.4-2.1-0.7-2.2l-12.6-1.4c-0.5,0-0.8-0.3-1-0.8L26.2,5.5c-0.5-1-1.9-1-2.4,0l-5.2,11.6
	c-0.2,0.4-0.6,0.7-1,0.8L4.9,19.2c-1.1,0.1-1.6,1.5-0.7,2.2l9.4,8.5c0.3,0.3,0.5,0.8,0.4,1.2l-2.6,12.4c-0.2,1.1,0.9,1.9,1.9,1.4
	l11-6.3c0.4-0.2,0.9-0.2,1.3,0l11,6.3c1,0.6,2.1-0.3,1.9-1.4L36,31.2c-0.1-0.4,0.1-0.9,0.4-1.2L45.8,21.5z"/>
</svg>
