<svg xmlns="http://www.w3.org/2000/svg" width="16" height="14.1"><path d="M11.8 2.3c-.1 0-.3-.1-.4-.2l-1.2-1.9c0-.1-.1-.2-.2-.2h-3.9c-.2 0-.3.1-.4.2l-1.2 1.9c0 .1-.2.2-.3.2h-4c-.1 0-.2.1-.2.2v11.3c0 .1.1.2.2.2h15.5c.1 0 .2-.1.2-.2v-11.3c0-.1-.1-.2-.2-.2h-3.9z" opacity=".2"/><path fill="#fff" d="M11.5 2.9l-.3-.1-1.1-1.9c0-.1-.2-.1-.3-.1h-3.6c-.1-.1-.2 0-.3.1l-1.1 1.9c0 .1-.2.1-.3.1h-3.6c-.1 0-.2.1-.2.2v10.2c0 .1.1.2.2.2h14.3c.1 0 .2-.1.2-.2v-10.2c0-.1-.1-.2-.2-.2h-3.7zm-3.5 7.1c-1.2 0-2.2-1-2.2-2.1 0-1.2.9-2.1 2.1-2.1 1.2 0 2.1.9 2.1 2.1.1 1.1-.9 2.1-2 2.1zm5.3-4.8c-.3 0-.6-.3-.6-.6s.3-.6.6-.6.6.3.6.6-.2.6-.6.6zm-2.1 2.7c0 1.8-1.4 3.2-3.2 3.2-1.8 0-3.2-1.4-3.2-3.2 0-1.8 1.4-3.2 3.2-3.2 1.7 0 3.2 1.4 3.2 3.2zm-7.7-5.5c0 .1-.1.2-.2.2h-1.2c-.1-.1-.2-.1-.2-.2v-.2c0-.1.1-.2.2-.2h1.3c.1 0 .2.1.2.2v.2z"/></svg>