<svg xmlns="http://www.w3.org/2000/svg">
 <g>
  <path id="svg_5" d="m0,11.5c0,-2.900009 0,-5.800003 0,-8.800003c0,-1.899994 0.799988,-2.699997 2.699982,-2.699997c5.399994,0 10.800018,0 16.200012,0c1.899994,0 2.699982,0.800003 2.699982,2.699997c0,5.800003 0,11.699997 0,17.5c0,2 -0.799988,2.699997 -2.799988,2.699997c-5.299988,0 -10.700012,0 -16,0c-2.100006,0 -2.799988,-0.699997 -2.799988,-2.800003c0,-2.899994 0,-5.799988 0,-8.599991zm2.899994,8.599991c5.399994,0 10.600006,0 15.799988,0c0,-5.799988 0,-11.5 0,-17.199997c-5.299988,0 -10.600006,0 -15.799988,0c0,5.699997 0,11.400009 0,17.199997z" fill="#ffffff"/>
  <path id="svg_6" d="m10.199982,8.5c1.5,-1.199997 1.700012,-2.5 0.700012,-3.5c-0.800018,-0.900009 -2.200012,-0.900009 -3,0c-1,1.099991 -0.800018,2.300003 0.699982,3.5c-2.699982,0.5 -3,0.800003 -2.599976,2.800003c2.299988,0 4.599976,0 6.899994,0c0.100006,-2.100006 -0.100006,-2.300003 -2.700012,-2.800003zm-4.299988,5.699997c3.299988,0 6.600006,0 9.899994,0c0,-0.399994 0,-0.800003 0,-1.199997c-3.299988,0 -6.600006,0 -9.899994,0c0,0.399994 0,0.800003 0,1.199997zm-0.100006,1.699997c0,0.5 0.100006,0.900009 0.100006,1.199997c3.399994,0 6.600006,0 10,0c0,-0.5 -0.100006,-0.799988 -0.100006,-1.199997c-3.399994,0 -6.600006,0 -10,0z" fill="#ffffff"/>
 </g>
</svg>