<svg xmlns="http://www.w3.org/2000/svg" width="25" height="25"><g fill="#fff"><path d="M14.5 8.3v7.5c0 .2 0 .2-.2.2h-12.5c0-.1 0-.1.1-.2.6-.7 1.2-1.4 1.7-2.2 2.3-2.9 4.7-5.8 7-8.6 1.2-1.5 2.4-3 3.6-4.4 0 0 .1-.1.2-.1l.1.2v7.6zm8.5 7.6h-7.4v-15.4"/><path d="M4.3 17.1h17.7l-.6.8c-.4.5-.9 1.1-1.4 1.7-.5.6-1.3.9-2.1 1-.6.1-1.1-.1-1.7-.3-.9-.4-1.8-.4-2.6 0-1 .4-1.9.4-2.9 0-.9-.4-1.7-.4-2.6 0-.9.4-1.9.4-2.8 0l-.3-.1c-.1 0-.1-.1-.1-.2 0-.8.2-1.8-.6-2.5v-.4zm-1.6 5l1-.2c.6-.1 1.1 0 1.6.3 1 .4 1.9.4 2.9 0 .9-.4 1.7-.4 2.6 0 .9.4 1.9.4 2.8 0 .9-.4 1.8-.4 2.7 0 .9.4 1.9.4 2.8 0 .9-.4 1.8-.4 2.7 0 .4.2.9.3 1.4.3v2c-.5 0-.9-.1-1.3-.3-.5-.3-1.1-.4-1.7-.3-.3 0-.7.1-1 .3-1 .4-1.9.4-2.9 0-.9-.4-1.8-.4-2.6 0-1 .4-1.9.4-2.8 0-.9-.4-1.8-.4-2.6 0-.9.4-1.9.4-2.8 0-.9-.4-1.8-.4-2.6 0"/></g></svg>