<?xml version="1.0" encoding="utf-8"?>
<!-- Generator: Adobe Illustrator 16.0.4, SVG Export Plug-In . SVG Version: 6.00 Build 0)  -->
<!DOCTYPE svg PUBLIC "-//W3C//DTD SVG 1.1//EN" "http://www.w3.org/Graphics/SVG/1.1/DTD/svg11.dtd">
<svg version="1.1" id="Capa_1" xmlns:sketch="http://www.bohemiancoding.com/sketch/ns"
	 xmlns="http://www.w3.org/2000/svg" xmlns:xlink="http://www.w3.org/1999/xlink" x="0px" y="0px" width="14px" height="14px"
	 viewBox="0 0 14 14" enable-background="new 0 0 14 14" xml:space="preserve">
<title>warning-3-icon 3</title>
<desc>Created with Sketch.</desc>
<g id="Page-1" sketch:type="MSPage">
	<g id="Artboard-3" transform="translate(-378.000000, -1332.000000)" sketch:type="MSArtboardGroup">
		<path id="warning-3-icon-3" sketch:type="MSShapeGroup" fill="#EA5A68" d="M385,1332c-3.866,0-7,3.134-7,7c0,3.865,3.134,7,7,7
			c3.866,0,7-3.135,7-7C392,1335.134,388.866,1332,385,1332L385,1332z M385.016,1343.843c-0.551,0-0.997-0.446-0.997-0.997
			s0.446-0.997,0.997-0.997s0.997,0.446,0.997,0.997S385.566,1343.843,385.016,1343.843L385.016,1343.843z M386.333,1335.678
			c-0.084,0.672-0.703,3.945-0.908,5.019c-0.038,0.199-0.212,0.344-0.414,0.344h-0.008c-0.209,0-0.389-0.148-0.428-0.355
			c-0.208-1.091-0.826-4.366-0.909-5.027c-0.1-0.796,0.522-1.501,1.325-1.501C385.805,1334.157,386.435,1334.871,386.333,1335.678
			L386.333,1335.678z"/>
	</g>
</g>
</svg>
