<?xml version="1.0" encoding="utf-8"?>
<!-- Generator: Adobe Illustrator 17.1.0, SVG Export Plug-In . SVG Version: 6.00 Build 0)  -->
<!DOCTYPE svg PUBLIC "-//W3C//DTD SVG 1.1//EN" "http://www.w3.org/Graphics/SVG/1.1/DTD/svg11.dtd">
<svg version="1.1" id="Layer_1" xmlns="http://www.w3.org/2000/svg" xmlns:xlink="http://www.w3.org/1999/xlink" x="0px" y="0px" width="96" height="96"
	 viewBox="0 0 96 96" style="enable-background:new 0 0 96 96;" xml:space="preserve">
<path style="fill:#FFFDEF;stroke:#7F6A9E;stroke-width:2;stroke-miterlimit:10;" d="M95,89.973C95,92.749,92.749,95,89.973,95H6.027
	C3.251,95,1,92.749,1,89.973V6.027C1,3.251,3.251,1,6.027,1h83.946C92.749,1,95,3.251,95,6.027V89.973z"/>
<g>
	<path style="fill:#7F6A9E;" d="M4.256,33.939h87.488c0.522,0,0.946,0.423,0.946,0.946v25.34c0,0.522-0.423,0.946-0.946,0.946H4.256
		c-0.522,0-0.946-0.423-0.946-0.946v-25.34C3.31,34.362,3.734,33.939,4.256,33.939z"/>
	<path style="fill:#D7D7D7;" d="M32.178,80.511h56.625v2.223H32.178V80.511z"/>
	<path style="fill:#D7D7D7;" d="M32.178,77.177h56.625V79.4H32.178V77.177z"/>
	<path style="fill:#D7D7D7;" d="M32.178,73.842h56.625v2.223H32.178V73.842z"/>
	<path style="fill:#D7D7D7;" d="M32.178,70.508h56.625v2.223H32.178V70.508z"/>
	<path style="fill:#D7D7D7;" d="M32.178,62.727H59.38v6.113H32.178V62.727z"/>
	<path style="fill:#D7D7D6;" d="M7.196,62.727h22.206v22.23H7.196V62.727z"/>
	<path style="fill:#D7D7D7;" d="M32.178,54.391h56.625v2.223H32.178V54.391z"/>
	<path style="fill:#D7D7D7;" d="M32.178,51.057h56.625v2.223H32.178V51.057z"/>
	<path style="fill:#D7D7D7;" d="M32.178,47.722h56.625v2.223H32.178V47.722z"/>
	<path style="fill:#D7D7D7;" d="M32.178,44.388h56.625v2.223H32.178V44.388z"/>
	<path style="fill:#D7D7D7;" d="M32.178,36.607H59.38v6.113H32.178V36.607z"/>
	<path style="fill:#D7D7D7;" d="M7.196,36.607h22.206v22.23H7.196V36.607z"/>
	<path style="fill:#D7D7D7;" d="M32.178,28.827h56.625v2.223H32.178V28.827z"/>
	<path style="fill:#D7D7D7;" d="M32.178,25.492h56.625v2.223H32.178V25.492z"/>
	<path style="fill:#D7D7D7;" d="M32.178,22.158h56.625v2.223H32.178V22.158z"/>
	<path style="fill:#D7D7D7;" d="M32.178,18.823h56.625v2.223H32.178V18.823z"/>
	<path style="fill:#D7D7D7;" d="M32.178,11.043H59.38v6.113H32.178V11.043z"/>
	<path style="fill:#D7D7D7;" d="M7.196,11.043h22.206v22.23H7.196V11.043z"/>
</g>
</svg>
