<?xml version="1.0" encoding="utf-8"?>
<!-- Generator: Adobe Illustrator 16.0.0, SVG Export Plug-In . SVG Version: 6.00 Build 0)  -->
<!DOCTYPE svg PUBLIC "-//W3C//DTD SVG 1.1//EN" "http://www.w3.org/Graphics/SVG/1.1/DTD/svg11.dtd">
<svg version="1.1" id="Capa_1" xmlns="http://www.w3.org/2000/svg" xmlns:xlink="http://www.w3.org/1999/xlink" x="0px" y="0px"
	 width="16.824px" height="13px" viewBox="0 0 16.824 13" enable-background="new 0 0 16.824 13" xml:space="preserve">
<g>
	<g>
		<path fill="#448200" d="M2.186,11.542C1.389,11.487,0.66,11.25,0,10.828l0.66-1.603c0.706,0.495,1.4,0.743,2.083,0.743
			c1.05,0,1.575-0.362,1.575-1.086c0-0.363-0.134-0.703-0.402-1.021S3.138,7.195,2.389,6.819C1.64,6.443,1.129,6.132,0.859,5.885
			C0.588,5.637,0.382,5.341,0.237,4.998C0.093,4.654,0.021,4.271,0.021,3.85c0-0.623,0.196-1.173,0.587-1.65
			C1,1.723,1.526,1.405,2.186,1.244V0h1.575L3.753,1.175c0.844,0.083,1.472,0.289,1.883,0.619l-0.542,1.54
			C4.466,2.885,3.804,2.66,3.107,2.66c-0.412,0-0.731,0.111-0.959,0.333c-0.227,0.223-0.34,0.503-0.34,0.842
			c0,0.577,0.639,1.178,1.918,1.801c0.674,0.33,1.16,0.634,1.457,0.911c0.298,0.277,0.525,0.6,0.681,0.969
			c0.155,0.369,0.233,0.78,0.233,1.234c0,0.641-0.206,1.201-0.619,1.681c-0.412,0.479-0.986,0.808-1.718,0.985V13H2.186V11.542z"/>
	</g>
	<polygon fill="#448200" points="15.859,6.446 14.729,6.446 14.496,6.446 14.496,13 10.241,13 10.241,6.446 9.534,6.446 
		8.159,6.446 7.913,6.446 12.35,0 16.824,6.446 	"/>
</g>
</svg>
