<?xml version="1.0" encoding="UTF-8" standalone="no"?>
<svg width="40px" height="41px" viewBox="0 0 40 41" version="1.1" xmlns="http://www.w3.org/2000/svg" xmlns:xlink="http://www.w3.org/1999/xlink" xmlns:sketch="http://www.bohemiancoding.com/sketch/ns">
    <!-- Generator: Sketch 3.3.2 (12043) - http://www.bohemiancoding.com/sketch -->
    <title>googleplus</title>
    <desc>Created with Sketch.</desc>
    <defs></defs>
    <g id="Page-1" stroke="none" stroke-width="1" fill="none" fill-rule="evenodd" sketch:type="MSPage">
        <g id="googleplus" sketch:type="MSLayerGroup" transform="translate(0.000000, 0.500000)">
            <g id="Group" sketch:type="MSShapeGroup">
                <path d="M17.2,23.152 C17.0712,23.0664 16.9392,22.9736 16.8008,22.88 C16.3984,22.7568 15.9712,22.6928 15.5336,22.6872 L15.4808,22.6872 C13.4696,22.6872 11.7064,23.904 11.7064,25.2928 C11.7064,26.8048 13.2176,27.9864 15.1456,27.9864 C17.6888,27.9864 18.9776,27.108 18.9776,25.38 C18.9776,25.2168 18.9584,25.0472 18.9176,24.8768 C18.7456,24.2064 18.1304,23.788 17.2,23.152 L17.2,23.152 Z" id="Shape" fill="#D93231"></path>
                <path d="M15.7752,17.8816 L15.7768,17.8816 C16.2576,17.8816 16.6632,17.692 16.9776,17.332 C17.4704,16.7704 17.6888,15.8488 17.5592,14.8704 C17.3312,13.1216 16.0808,11.6656 14.776,11.628 L14.724,11.6264 C14.2624,11.6264 13.8504,11.8168 13.5376,12.1752 C13.052,12.7296 12.8464,13.608 12.9736,14.5848 C13.2024,16.332 14.4792,17.8416 15.7568,17.8816 L15.7752,17.8816 L15.7752,17.8816 L15.7752,17.8816 Z" id="Shape" fill="#D93231"></path>
                <path d="M19.8608,0 C8.9096,0 0,8.9096 0,19.8608 C0,30.8112 8.9096,39.7216 19.8608,39.7216 C30.8112,39.7216 39.7216,30.8112 39.7216,19.8608 C39.7216,8.9096 30.8128,0 19.8608,0 L19.8608,0 Z M17.5712,29.532 C16.8208,29.7488 16.0088,29.8584 15.1568,29.8584 C14.208,29.8584 13.296,29.7496 12.4456,29.5344 C10.8,29.1192 9.584,28.332 9.016,27.3176 C8.7712,26.8792 8.6472,26.412 8.6472,25.928 C8.6472,25.4296 8.7664,24.924 9.0016,24.4232 C9.9032,22.5016 12.28,21.2088 14.9128,21.2088 L14.988,21.2088 C14.7744,20.832 14.6712,20.4416 14.6712,20.0312 C14.6712,19.8272 14.6984,19.6192 14.7528,19.4072 C11.9912,19.3448 9.9248,17.3224 9.9248,14.656 C9.9248,12.7736 11.4296,10.9392 13.5816,10.1984 C14.2256,9.976 14.8824,9.8624 15.528,9.8624 L21.4336,9.8624 C21.6344,9.8624 21.8128,9.9928 21.8752,10.184 C21.9376,10.3744 21.8688,10.584 21.7064,10.7016 L20.3856,11.6576 C20.3064,11.7136 20.2112,11.744 20.1128,11.744 L19.64,11.744 C20.2504,12.476 20.608,13.52 20.608,14.692 C20.608,15.9856 19.9536,17.2088 18.7624,18.1408 C17.8424,18.8576 17.8064,19.0552 17.8064,19.464 C17.8176,19.6888 18.4584,20.4224 19.1656,20.9224 C20.8128,22.0872 21.4256,23.2304 21.4256,25.1376 C21.4248,27.1304 19.912,28.852 17.5712,29.532 L17.5712,29.532 Z M30.908,19.4024 C30.908,19.6584 30.6992,19.8664 30.444,19.8664 L27.088,19.8664 L27.088,23.224 C27.088,23.48 26.8792,23.688 26.6256,23.688 L25.6696,23.688 C25.412,23.688 25.204,23.48 25.204,23.224 L25.204,19.8664 L21.8504,19.8664 C21.5944,19.8664 21.3864,19.66 21.3864,19.4024 L21.3864,18.448 C21.3864,18.192 21.5944,17.9824 21.8504,17.9824 L25.204,17.9824 L25.204,14.628 C25.204,14.3712 25.412,14.164 25.6696,14.164 L26.6256,14.164 C26.8792,14.164 27.088,14.3712 27.088,14.628 L27.088,17.9824 L30.4432,17.9824 C30.6984,17.9824 30.9072,18.1904 30.9072,18.4464 L30.9072,19.4024 L30.908,19.4024 Z" id="Shape" fill="#DA3131"></path>
            </g>
        </g>
    </g>
</svg>