<?xml version="1.0" encoding="UTF-8" standalone="no"?>
<svg width="40px" height="40px" viewBox="0 0 40 40" version="1.1" xmlns="http://www.w3.org/2000/svg" xmlns:xlink="http://www.w3.org/1999/xlink" xmlns:sketch="http://www.bohemiancoding.com/sketch/ns">
    <!-- Generator: Sketch 3.3.2 (12043) - http://www.bohemiancoding.com/sketch -->
    <title>youtube</title>
    <desc>Created with Sketch.</desc>
    <defs></defs>
    <g id="Page-1" stroke="none" stroke-width="1" fill="none" fill-rule="evenodd" sketch:type="MSPage">
        <g id="youtube" sketch:type="MSLayerGroup" fill="#D0011B">
            <g id="Group" sketch:type="MSShapeGroup">
                <path d="M20,0 C8.955,0 0,8.955 0,20 C0,31.045 8.955,40 20,40 C31.045,40 40,31.045 40,20 C40,8.9525 31.045,0 20,0 L20,0 Z M32.2875,24.4775 C32.1525,26.1425 30.8875,28.2675 29.12,28.575 C23.4575,29.015 16.7475,28.96 10.8825,28.575 C9.0525,28.345 7.85,26.14 7.715,24.4775 C7.43,20.9825 7.43,18.9925 7.715,15.4975 C7.85,13.835 9.0825,11.6425 10.8825,11.4425 C16.68,10.955 23.4275,11.06 29.12,11.4425 C31.155,11.5175 32.1525,13.615 32.2875,15.28 C32.5675,18.775 32.5675,20.9825 32.2875,24.4775 L32.2875,24.4775 Z" id="Shape"></path>
                <path d="M17.5,25 L25,20 L17.5,15 L17.5,25 Z" id="Shape"></path>
            </g>
        </g>
    </g>
</svg>