<svg xmlns="http://www.w3.org/2000/svg" width="31.3" height="24.7"><path fill="#468100" d="M7.4 16.1c0 2.8 2.3 5.1 5.1 5.1s5.1-2.3 5.1-5.1-2.3-5.1-5.1-5.1-5.1 2.3-5.1 5.1zm16-8.6h-5.4c-.4-1.6-.8-3.1-2.3-3.1h-6.3c-1.6 0-2 1.6-2.3 3.1h-5.5c-.9 0-1.6.7-1.6 1.6v14.1c0 .9.7 1.6 1.6 1.6h21.9c.9 0 1.6-.7 1.6-1.6v-14.1c-.1-.9-.8-1.6-1.7-1.6zm-10.9 15.5c-3.8 0-6.9-3.1-6.9-6.9s3.1-6.9 6.9-6.9 6.9 3.1 6.9 6.9-3.1 6.9-6.9 6.9zm10.9-10.8h-3.1v-1.6h3.1v1.6z"/><circle fill="#fff" stroke="#468100" stroke-miterlimit="10" cx="23.8" cy="7.5" r="7"/><polygon fill="#468100" points="25.1,3.5 22.5,3.5 22.5,6.2 19.8,6.2 19.8,8.8 22.5,8.8 22.5,11.5 25.1,11.5 25.1,8.8 27.8,8.8 27.8,6.2 25.1,6.2"/><path fill="#fff" d="M8.7 16.6c0-2.3 1.8-4.1 4.1-4.1"/></svg>