<?xml version="1.0" encoding="utf-8"?>
<!DOCTYPE svg PUBLIC "-//W3C//DTD SVG 1.1//EN" "http://www.w3.org/Graphics/SVG/1.1/DTD/svg11.dtd">
<svg xmlns="http://www.w3.org/2000/svg" xmlns:xlink="http://www.w3.org/1999/xlink" version="1.1" baseProfile="full" width="32.0017" height="32.0016" viewBox="0 0 32.00 32.00" enable-background="new 0 0 32.00 32.00" xml:space="preserve">
	<g>
		<path fill="#478DE5" fill-opacity="1" stroke-linejoin="round" d="M 16.0009,8.0004C 20.4193,8.0004 24.0013,11.5823 24.0013,16.0008C 24.0013,20.4193 20.4194,24.0013 16.0009,24.0013C 11.5823,24.0013 8.0004,20.4193 8.0004,16.0008C 8.0004,11.5823 11.5824,8.0004 16.0009,8.0004 Z "/>
		<path fill="#FFFFFF" fill-opacity="1" stroke-linejoin="round" d="M 16.0009,10.6673C 18.9465,10.6673 21.3345,13.0552 21.3345,16.0008C 21.3345,18.9466 18.9465,21.3345 16.0009,21.3345C 13.0551,21.3345 10.6672,18.9466 10.6672,16.0008C 10.6672,13.0552 13.0552,10.6673 16.0009,10.6673 Z "/>
		<path fill="#478DE5" fill-opacity="1" stroke-linejoin="round" d="M 16.0009,12.9986C 17.6589,12.9986 19.0031,14.3428 19.0031,16.0008C 19.0031,17.6588 17.6589,19.003 16.0009,19.003C 14.3428,19.003 12.9987,17.6588 12.9987,16.0008C 12.9987,14.3428 14.3428,12.9986 16.0009,12.9986 Z "/>
	</g>
</svg>
