<?xml version="1.0" encoding="utf-8"?>
<!-- Generator: Adobe Illustrator 16.0.0, SVG Export Plug-In . SVG Version: 6.00 Build 0)  -->
<!DOCTYPE svg PUBLIC "-//W3C//DTD SVG 1.1//EN" "http://www.w3.org/Graphics/SVG/1.1/DTD/svg11.dtd">
<svg version="1.1" id="Layer_1" xmlns="http://www.w3.org/2000/svg" xmlns:xlink="http://www.w3.org/1999/xlink" x="0px" y="0px"
	 width="23px" height="23px" viewBox="0 0 23 23" enable-background="new 0 0 23 23" xml:space="preserve">
<rect fill="none" width="23" height="23"/>
<g>
	<path fill-rule="evenodd" clip-rule="evenodd" fill="#FFFFFF" d="M17.444,0v1.172H5.556V0H0.977v23h4.579v-1.807h11.889V23h4.579V0
		H17.444z M4.432,21.986H2.157v-3.016h2.274V21.986z M4.432,16.543H2.157v-3.016h2.274V16.543z M4.432,10.193H2.157V7.177h2.274
		V10.193z M4.432,3.993H2.157V0.977h2.274V3.993z M17.444,18.8H5.556V3.564h11.889V18.8z M20.919,21.986h-2.274v-3.016h2.274V21.986
		z M20.919,16.543h-2.274v-3.016h2.274V16.543z M20.919,10.193h-2.274V7.177h2.274V10.193z M20.919,3.993h-2.274V0.977h2.274V3.993z
		"/>
	<path fill-rule="evenodd" clip-rule="evenodd" fill="#FFFFFF" d="M7.561,16.779c0.716,0.344,1.473,0.413,2.248,0.303
		c0.545-0.078,1.055-0.263,1.49-0.612c0.41-0.331,0.642-0.739,0.639-1.293c-0.013-2.346-0.006-4.69-0.006-7.036
		c0-0.056,0-0.113,0-0.18c0.685-0.11,1.294,0.043,1.863,0.391c0.425,0.259,0.78,0.596,1.106,0.967
		c0.543,0.62,0.975,1.319,1.418,2.01c0.058,0.09,0.117,0.179,0.176,0.268c0.013-0.005,0.024-0.009,0.037-0.014
		c-0.054-0.377-0.097-0.755-0.161-1.13c-0.164-0.949-0.432-1.865-0.895-2.716c-0.55-1.009-1.304-1.809-2.381-2.262
		c-0.426-0.179-0.865-0.292-1.334-0.273c-0.246,0.01-0.492,0.002-0.748,0.002c0,2.912,0,5.804,0,8.71
		c-0.03-0.014-0.047-0.02-0.062-0.028c-0.836-0.45-1.722-0.53-2.638-0.34c-0.586,0.122-1.114,0.366-1.521,0.824
		c-0.421,0.476-0.487,1.082-0.175,1.602C6.842,16.343,7.175,16.594,7.561,16.779z"/>
</g>
</svg>
