<?xml version="1.0" encoding="utf-8"?>
<!-- Generator: Adobe Illustrator 16.0.0, SVG Export Plug-In . SVG Version: 6.00 Build 0)  -->
<!DOCTYPE svg PUBLIC "-//W3C//DTD SVG 1.1//EN" "http://www.w3.org/Graphics/SVG/1.1/DTD/svg11.dtd">
<svg version="1.1" id="Layer_1" xmlns="http://www.w3.org/2000/svg" xmlns:xlink="http://www.w3.org/1999/xlink" x="0px" y="0px"
	 width="23px" height="23px" viewBox="0 0 23 23" enable-background="new 0 0 23 23" xml:space="preserve">
<path fill="#468100" d="M22.993,17.161c-0.077-0.061-1.911-1.487-4.055-2.581c1.78-1.805,3.134-3.898,3.222-4.035l0.402-0.627
	l-0.719-0.031c-0.31-0.057-1.147-0.089-1.856-0.089c-0.518,0-1.154,0.015-1.847,0.063c0.393-1.928,0.494-3.587,0.502-3.718
	l0.043-0.738l-0.648,0.324c-0.504,0.183-2.618,1.242-4.5,2.695c-0.812-2.287-2.012-4.316-2.062-4.401V4.016
	c0,0-1.224,2.051-2.055,4.375C7.55,6.955,5.464,5.91,4.964,5.729L4.315,5.405l0.042,0.738c0.008,0.131,0.109,1.791,0.502,3.718
	C4.167,9.812,3.53,9.798,3.014,9.798c-0.71,0-1.548,0.032-1.856,0.089l-0.72,0.031l0.402,0.627c0.088,0.137,1.441,2.23,3.223,4.035
	c-2.145,1.094-3.978,2.521-4.056,2.581H0c0,0,5.618,2.446,8.767,1.672c1.519-0.374,2.314-1.146,2.733-1.846
	c0.419,0.699,1.216,1.472,2.733,1.846C17.383,19.607,23,17.161,23,17.161H22.993z M11.5,16.701c-0.001,0-0.002-0.001-0.004-0.001
	c0.002-0.001,0.002-0.001,0.004-0.003c0.002,0.002,0.003,0.002,0.004,0.003C11.503,16.7,11.502,16.701,11.5,16.701z M7.707,16.183
	c-2.278-0.827-4.783-4.139-5.742-5.506c0.278-0.013,0.634-0.022,1.049-0.022c0.486,0,1.218,0.016,2.042,0.084
	c0.386,1.576,0.976,3.205,1.869,4.244c0.677,0.787,1.37,1.236,2.005,1.485C8.539,16.431,8.129,16.335,7.707,16.183z M10.377,15.891
	c-0.704,0-1.762-0.255-2.803-1.466c-1.578-1.837-2.135-5.947-2.301-7.612c0.853,0.434,2.456,1.33,3.862,2.441
	c-0.34,1.134-0.544,2.28-0.435,3.244c0.223,1.949,1.213,2.854,1.961,3.263c0.021,0.038,0.043,0.073,0.064,0.108
	C10.619,15.882,10.503,15.891,10.377,15.891L10.377,15.891z M12.623,15.891c-0.126,0-0.242-0.009-0.35-0.021
	c0.029-0.046,0.059-0.096,0.088-0.147c0.737-0.429,1.67-1.336,1.885-3.22c0.108-0.955-0.091-2.09-0.426-3.213
	c1.416-1.127,3.045-2.039,3.906-2.477c-0.166,1.665-0.723,5.775-2.301,7.612C14.385,15.636,13.327,15.891,12.623,15.891
	L12.623,15.891z M15.293,16.183c-0.422,0.152-0.831,0.248-1.223,0.285c0.635-0.249,1.329-0.698,2.005-1.485
	c0.894-1.039,1.483-2.668,1.869-4.244c0.824-0.068,1.556-0.084,2.043-0.084c0.415,0,0.77,0.01,1.048,0.022
	C20.076,12.044,17.571,15.355,15.293,16.183z"/>
<rect fill="none" width="23" height="23"/>
</svg>
