<svg xmlns="http://www.w3.org/2000/svg" width="23" height="23"><path fill="#46823D" d="M11.501.031c-4.199 0-7.603 3.403-7.603 7.603 0 .795.123 1.562.35 2.282.297.944.861 1.74 1.404 2.539 1.698 2.498 5.849 10.577 5.849 10.577s4.1-8.022 5.801-10.489c.569-.821 1.145-1.65 1.451-2.625l.001-.001c.227-.72.348-1.487.348-2.282 0-4.2-3.403-7.604-7.601-7.604zm0 10.49c-1.648 0-2.983-1.335-2.983-2.983 0-1.647 1.335-2.983 2.983-2.983 1.649 0 2.984 1.335 2.984 2.983 0 1.647-1.335 2.983-2.984 2.983z"/><path fill="#46823D" d="M11.501 0c-4.199 0-7.603 3.403-7.603 7.603 0 .796.123 1.562.35 2.282.297.943.861 1.74 1.404 2.539 1.698 2.497 5.849 10.576 5.849 10.576s4.1-8.022 5.801-10.489c.569-.821 1.145-1.65 1.451-2.625l.001-.001c.227-.721.348-1.486.348-2.282 0-4.2-3.403-7.603-7.601-7.603zm0 10.489c-1.648 0-2.983-1.335-2.983-2.983 0-1.647 1.335-2.982 2.983-2.982 1.649 0 2.984 1.335 2.984 2.982 0 1.648-1.335 2.983-2.984 2.983z"/></svg>