<?xml version="1.0" encoding="utf-8"?>
<!-- Generator: Adobe Illustrator 15.1.0, SVG Export Plug-In . SVG Version: 6.00 Build 0)  -->
<!DOCTYPE svg PUBLIC "-//W3C//DTD SVG 1.1//EN" "http://www.w3.org/Graphics/SVG/1.1/DTD/svg11.dtd">
<svg version="1.1" id="Layer_1" xmlns="http://www.w3.org/2000/svg" xmlns:xlink="http://www.w3.org/1999/xlink" x="0px" y="0px"
	 width="30px" height="30px" viewBox="0 0 30 30" enable-background="new 0 0 30 30" xml:space="preserve">
<g>
	<g>
		<g>
			<path fill="#D62727" d="M30,27c0,1.656-1.344,3-3,3H2.998C1.339,30,0,28.656,0,27V3.001C0,1.345,1.339,0,2.998,0H27
				c1.656,0,3,1.345,3,3.001V27z"/>
		</g>
	</g>
</g>
<g>
	<path fill="#FFFFFF" d="M25.327,10.047c-0.392-1.568-1.127-2.172-2.481-2.391c-0.779-0.115-4.526-0.262-7.499-0.262h0.013
		c-2.973,0-6.719,0.147-7.5,0.262c-1.354,0.219-2.089,0.823-2.48,2.391c-0.132,0.528-0.314,3.417-0.314,4.519v0.241
		c0,1.104,0.182,3.992,0.314,4.52c0.392,1.568,1.127,2.173,2.48,2.392c0.781,0.114,4.527,0.262,7.5,0.262h-0.013
		c2.972,0,6.719-0.147,7.499-0.262c1.354-0.219,2.09-0.823,2.481-2.392c0.132-0.527,0.313-3.416,0.313-4.52v-0.241
		C25.641,13.464,25.459,10.575,25.327,10.047L25.327,10.047z"/>
	<polygon fill="#D22427" points="13.217,11.732 18.683,14.585 13.217,17.575 13.217,11.732 	"/>
	<polygon fill="#961B1E" points="13.217,11.732 18.683,14.585 18.057,14.927 13.217,11.732 	"/>
</g>
</svg>
