<?xml version="1.0" encoding="utf-8"?>
<!-- Generator: Adobe Illustrator 16.0.0, SVG Export Plug-In . SVG Version: 6.00 Build 0)  -->
<!DOCTYPE svg PUBLIC "-//W3C//DTD SVG 1.1//EN" "http://www.w3.org/Graphics/SVG/1.1/DTD/svg11.dtd">
<svg version="1.1" id="Capa_1" xmlns="http://www.w3.org/2000/svg" xmlns:xlink="http://www.w3.org/1999/xlink" x="0px" y="0px"
	 width="30.092px" height="18px" viewBox="0 0 30.092 18" enable-background="new 0 0 30.092 18" xml:space="preserve">
<path fill="#FFFFFF" d="M18.076,17H1.834l6.868-7.098l2.967,2.832c0.438,0.438,1.022,0.613,1.643,0.613s1.204-0.271,1.642-0.709
	L25,2.584v6.047l1-1.068V0H0v18h19.146L18.076,17z M24.551,1L14.194,11.586c-0.47,0.473-1.296,0.34-1.766-0.133L2.069,1H24.551z
	 M1,1.956l6.961,6.936L1,15.832V1.956z"/>
<polygon fill="#ED1C24" points="27.069,12.906 30.092,9.884 28.58,8.371 25.557,11.395 22.535,8.372 21.023,9.884 24.046,12.906 
	21.023,15.93 22.535,17.439 25.558,14.417 28.58,17.439 30.092,15.93 "/>
</svg>
