<?xml version="1.0" encoding="utf-8"?>
<!-- Generator: Adobe Illustrator 16.0.0, SVG Export Plug-In . SVG Version: 6.00 Build 0)  -->
<!DOCTYPE svg PUBLIC "-//W3C//DTD SVG 1.1//EN" "http://www.w3.org/Graphics/SVG/1.1/DTD/svg11.dtd">
<svg version="1.1" id="Layer_1" xmlns="http://www.w3.org/2000/svg" xmlns:xlink="http://www.w3.org/1999/xlink" x="0px" y="0px"
	 width="62px" height="62px" viewBox="0 0 62 62" enable-background="new 0 0 62 62" xml:space="preserve">
<g>
	
		<rect x="9.189" y="31.02" transform="matrix(0.707 0.7072 -0.7072 0.707 27.6845 -1.7232)" fill="#FFFFFF" width="13.466" height="3.058"/>
	<path fill="#FFFFFF" d="M30.762,19.884l5.709,1.64l2.26-2.261L29.208,9.74l-1.979,1.979l2.785,2.783
		c1.426,1.427,2.756,2.67,4.151,3.786l-0.04,0.042c-1.498-0.649-3.251-1.271-4.818-1.709l-5.469-1.512l-2.514,2.515l9.521,9.523
		l1.978-1.978l-2.868-2.867c-1.553-1.554-2.924-2.869-4.238-4.071l0.029-0.056C27.327,18.825,29.18,19.433,30.762,19.884z"/>
	<path fill="#FFFFFF" d="M12.991,36.271c0.028-1.103-0.451-2.205-1.384-3.138c-0.933-0.934-2.135-1.315-3.221-1.188
		c-1.146,0.127-2.347,0.818-3.675,2.147C3.398,35.407,2.55,36.424,2,37.201l9.396,9.396l2.133-2.133l-3.405-3.406
		c0.228-0.17,0.495-0.41,0.776-0.69C12.173,39.096,12.95,37.698,12.991,36.271z"/>
	<polygon fill="#FFFFFF" points="29.579,28.417 27.77,26.608 23.982,30.396 16.268,22.68 14.105,24.843 23.629,34.365 	"/>
	<polygon fill="#FFFFFF" points="46.67,11.328 44.904,9.56 40.988,13.476 38.729,11.214 42.232,7.71 40.479,5.957 36.975,9.462 
		34.996,7.483 38.713,3.767 36.945,2 31.07,7.878 40.594,17.403 	"/>
</g>
<g>
	<path fill="#EF4823" d="M5.645,36.58l2.812,2.812c0.227-0.144,0.467-0.354,0.777-0.664c1.145-1.146,1.272-2.433,0.297-3.406
		c-0.876-0.877-2.007-0.791-3.081,0.283C6.013,36.043,5.758,36.382,5.645,36.58z"/>
	<path fill="#EF4823" d="M0,62L62,0H0V62z M10.124,41.059l3.406,3.406l-2.134,2.133L2,37.201c0.55-0.777,1.399-1.794,2.712-3.108
		c1.328-1.329,2.529-2.021,3.674-2.147c1.087-0.127,2.289,0.255,3.221,1.188c0.933,0.933,1.413,2.035,1.384,3.138
		c-0.041,1.427-0.818,2.824-2.091,4.097C10.619,40.648,10.351,40.889,10.124,41.059z M19.604,38.391l-9.524-9.522l2.163-2.161
		l9.521,9.523L19.604,38.391z M23.629,34.365l-9.523-9.522l2.162-2.163l7.715,7.716l3.787-3.788l1.809,1.809L23.629,34.365z
		 M36.471,21.524l-5.708-1.64c-1.583-0.451-3.435-1.059-5.016-1.709l-0.029,0.056c1.314,1.202,2.685,2.517,4.238,4.071l2.868,2.867
		l-1.978,1.978l-9.521-9.523l2.514-2.515l5.469,1.512c1.567,0.438,3.32,1.06,4.818,1.709l0.04-0.042
		c-1.396-1.116-2.726-2.359-4.152-3.786l-2.784-2.783l1.979-1.979l9.522,9.523L36.471,21.524z M38.713,3.767l-3.717,3.716
		l1.979,1.979l3.504-3.505l1.754,1.753l-3.504,3.504l2.26,2.262l3.916-3.916l1.766,1.768l-6.076,6.075L31.07,7.878L36.945,2
		L38.713,3.767z"/>
</g>
</svg>
