<?xml version="1.0" encoding="utf-8"?>
<!-- Generator: Adobe Illustrator 16.0.0, SVG Export Plug-In . SVG Version: 6.00 Build 0)  -->
<!DOCTYPE svg PUBLIC "-//W3C//DTD SVG 1.1//EN" "http://www.w3.org/Graphics/SVG/1.1/DTD/svg11.dtd">
<svg version="1.1" id="Layer_1" xmlns="http://www.w3.org/2000/svg" xmlns:xlink="http://www.w3.org/1999/xlink" x="0px" y="0px"
	 width="23px" height="23px" viewBox="0 0 23 23" enable-background="new 0 0 23 23" xml:space="preserve">
<rect fill="none" width="23" height="23"/>
<path fill="#FFFFFF" d="M18.333,3.714c-0.694-1.112-3.028-4.336-3.804-3.609c-0.774,0.727,0.17,2.083-0.509,3.197
	c-0.678,1.114-3.081,5.601-7.46,7.921C5.547,11.76,3.247,12.44,2.377,13.65c-0.524,0.727-1.252,1.833-0.32,4.189
	c0.331,0.84,1.162,1.348,1.733,1.619l-0.017,2.765L10.097,23l4.268-1.009l-0.621-1.475l-0.155-4.811L4.62,15.742
	c-0.009-0.25-0.052-0.582-0.153-0.681c-0.37-0.36-1.806-0.98,1.343-1.586c3.149-0.605,8.865-1.405,11.578,0.484
	s3.173,2.834,3.778,1.914C21.771,14.953,21.267,8.414,18.333,3.714z M3.241,15.361c0.034,0.436,0.174,0.927,0.565,1.229
	l-0.009,1.524C3.038,17.571,3.09,16.215,3.241,15.361z"/>
</svg>
