<?xml version="1.0" encoding="utf-8"?>
<!-- Generator: Adobe Illustrator 16.0.0, SVG Export Plug-In . SVG Version: 6.00 Build 0)  -->
<!DOCTYPE svg PUBLIC "-//W3C//DTD SVG 1.1//EN" "http://www.w3.org/Graphics/SVG/1.1/DTD/svg11.dtd">
<svg version="1.1" id="Capa_1" xmlns="http://www.w3.org/2000/svg" xmlns:xlink="http://www.w3.org/1999/xlink" x="0px" y="0px"
	 width="31.632px" height="18px" viewBox="0 0 31.632 18" enable-background="new 0 0 31.632 18" xml:space="preserve">
<g>
	<polygon fill="#AACD38" points="22.705,13.329 19.271,9.896 17.21,11.956 20.456,15.198 22.705,17.449 24.594,15.561 31.632,8.521 
		29.572,6.461 	"/>
	<path fill="#888888" d="M18.576,17H2.334l6.868-7.098l2.967,2.832c0.438,0.438,1.022,0.613,1.642,0.613s0.954-0.271,1.392-0.709
		L25,2.584v6.047l1-1.068V0H0v18h19.645L18.576,17z M25.051,1L14.694,11.586c-0.47,0.473-1.296,0.34-1.766-0.133L2.569,1H25.051z
		 M1,1.956l6.961,6.936L1,15.832V1.956z"/>
</g>
</svg>
