<?xml version="1.0" encoding="utf-8"?>
<!-- Generator: Adobe Illustrator 17.1.0, SVG Export Plug-In . SVG Version: 6.00 Build 0)  -->
<!DOCTYPE svg PUBLIC "-//W3C//DTD SVG 1.1//EN" "http://www.w3.org/Graphics/SVG/1.1/DTD/svg11.dtd">
<svg version="1.1" id="Layer_1" xmlns="http://www.w3.org/2000/svg" xmlns:xlink="http://www.w3.org/1999/xlink" x="0px" y="0px" width="96" height="96"
	 viewBox="0 0 96 96" style="enable-background:new 0 0 96 96;" xml:space="preserve">
<path style="fill:#FFFDEF;stroke:#7F6A9E;stroke-width:2;stroke-miterlimit:10;" d="M95,89.973C95,92.749,92.749,95,89.973,95H6.027
	C3.251,95,1,92.749,1,89.973V6.027C1,3.251,3.251,1,6.027,1h83.946C92.749,1,95,3.251,95,6.027V89.973z"/>
<g>
	<path style="fill:#D7D7D7;" d="M32.178,80.511h56.625v2.223H32.178V80.511z"/>
	<path style="fill:#D7D7D7;" d="M32.178,77.177h56.625V79.4H32.178V77.177z"/>
	<path style="fill:#D7D7D7;" d="M32.178,73.842h56.625v2.223H32.178V73.842z"/>
	<path style="fill:#D7D7D7;" d="M32.178,70.508h56.625v2.223H32.178V70.508z"/>
	<path style="fill:#D7D7D7;" d="M32.178,62.727H59.38v6.113H32.178V62.727z"/>
	<path style="fill:#D7D7D7;" d="M7.196,62.727h22.206v22.23H7.196V62.727z"/>
	<path style="fill:#D7D7D7;" d="M32.178,54.391h56.625v2.223H32.178V54.391z"/>
	<path style="fill:#D7D7D7;" d="M32.178,51.057h56.625v2.223H32.178V51.057z"/>
	<path style="fill:#D7D7D7;" d="M32.178,47.722h56.625v2.223H32.178V47.722z"/>
	<path style="fill:#D7D7D7;" d="M32.178,44.388h56.625v2.223H32.178V44.388z"/>
	<path style="fill:#D7D7D7;" d="M32.178,36.607H59.38v6.113H32.178V36.607z"/>
	<path style="fill:#D7D7D7;" d="M7.196,36.607h22.206v22.23H7.196V36.607z"/>
	<path style="fill:#D7D7D7;" d="M32.178,28.827h56.625v2.223H32.178V28.827z"/>
	<path style="fill:#D7D7D7;" d="M32.178,25.492h56.625v2.223H32.178V25.492z"/>
	<path style="fill:#D7D7D7;" d="M32.178,22.158h56.625v2.223H32.178V22.158z"/>
	<path style="fill:#D7D7D7;" d="M32.178,18.823h56.625v2.223H32.178V18.823z"/>
	<path style="fill:#D7D7D7;" d="M32.178,11.043H59.38v6.113H32.178V11.043z"/>
	<path style="fill:#D7D7D7;" d="M7.196,11.043h22.206v22.23H7.196V11.043z"/>
	<path style="fill:#7F6A9E;" d="M51.674,70.631c1.907,0,3.452-1.521,3.452-3.396l-0.003-14.622c0-1.423,1.17-2.576,2.616-2.576
		c0,0,1.15,0.001,2.111,0.001c2.106,0,3.313-2.293,2.18-3.981c0,0-5.04-6.12-8.487-10.277c-1.861-2.246-3.931-4.04-5.513-4.04
		c-1.583,0-3.652,1.794-5.514,4.04c-3.446,4.157-8.486,10.277-8.486,10.277c-1.134,1.689,0.075,3.981,2.18,3.981
		c0.96,0,2.111-0.001,2.111-0.001c1.447,0,2.616,1.153,2.616,2.576l-0.003,14.622c0,1.875,1.545,3.396,3.452,3.396
		C46.113,70.631,50.044,70.631,51.674,70.631z"/>
</g>
</svg>
