<?xml version="1.0" encoding="utf-8"?>
<!-- Generator: Adobe Illustrator 16.0.0, SVG Export Plug-In . SVG Version: 6.00 Build 0)  -->
<!DOCTYPE svg PUBLIC "-//W3C//DTD SVG 1.1//EN" "http://www.w3.org/Graphics/SVG/1.1/DTD/svg11.dtd">
<svg version="1.1" id="Layer_1" xmlns="http://www.w3.org/2000/svg" xmlns:xlink="http://www.w3.org/1999/xlink" x="0px" y="0px"
	 width="27px" height="20px" viewBox="0 0 27 20" enable-background="new 0 0 27 20" xml:space="preserve">
<path fill="#468100" d="M16.904,10.215h1.719v7.743h5.361v-7.743h2.932l-5.59-7.616l-5.639,7.616H16.904z"/>
<g id="BtmiDw_1_">
	<g>
		<path fill="#468100" d="M3.077,15.967c1.775,0,3.459-0.002,5.145,0c0.488,0,0.535,0.051,0.538,0.569
			c0.003,0.329-0.009,0.657,0.003,0.987c0.013,0.351-0.136,0.486-0.466,0.485c-0.972-0.012-1.945-0.004-2.918-0.004
			c-1.59,0-3.179,0-4.769,0c-0.551-0.001-0.562-0.046-0.603-0.599c-0.045-0.594,0.129-1.059,0.484-1.525
			c1.695-2.232,3.359-4.49,5.033-6.741c0.038-0.053,0.074-0.11,0.145-0.217c-0.19-0.007-0.333-0.021-0.476-0.021
			C3.782,8.901,2.37,8.89,0.959,8.908C0.564,8.912,0.411,8.764,0.438,8.355C0.46,8.027,0.46,7.696,0.439,7.366
			C0.414,6.963,0.588,6.85,0.951,6.852c2.206,0.011,4.413,0.001,6.618,0.007C8.794,6.86,8.682,6.69,8.663,8.042
			c-0.002,0.234-0.111,0.503-0.25,0.693c-1.702,2.318-3.417,4.625-5.129,6.935C3.229,15.743,3.176,15.823,3.077,15.967z"/>
		<path fill="#468100" d="M10.933,11.048c-0.629,0.491-1.171,0.923-1.721,1.339c-0.353,0.27-0.72,0.237-0.949-0.061
			c-0.242-0.312-0.172-0.691,0.211-0.999c0.706-0.567,1.415-1.131,2.137-1.672c0.237-0.179,0.33-0.362,0.329-0.67
			c-0.013-2.165-0.007-4.326-0.007-6.488c0-0.56,0.05-0.609,0.586-0.611c0.411-0.001,0.822,0.018,1.232-0.006
			c0.4-0.024,0.525,0.157,0.521,0.557c-0.014,1.59-0.006,3.181-0.004,4.771c0,0.083,0.015,0.165,0.03,0.322
			c0.397-0.308,0.755-0.583,1.112-0.859c0.145-0.111,0.279-0.232,0.432-0.329c0.324-0.207,0.682-0.146,0.881,0.138
			c0.207,0.293,0.168,0.656-0.143,0.913c-0.547,0.454-1.088,0.926-1.679,1.308c-0.521,0.338-0.659,0.751-0.65,1.373
			c0.037,2.437,0.016,4.871,0.015,7.306c-0.001,0.589-0.037,0.626-0.609,0.627c-0.356,0-0.712,0-1.068,0
			c-0.625-0.001-0.655-0.03-0.655-0.666c0-1.905,0-3.811,0-5.718C10.933,11.468,10.933,11.311,10.933,11.048z"/>
	</g>
</g>
</svg>
