<?xml version="1.0" encoding="utf-8"?>
<!-- Generator: Adobe Illustrator 15.1.0, SVG Export Plug-In . SVG Version: 6.00 Build 0)  -->
<!DOCTYPE svg PUBLIC "-//W3C//DTD SVG 1.1//EN" "http://www.w3.org/Graphics/SVG/1.1/DTD/svg11.dtd">
<svg version="1.1" id="Layer_1" xmlns="http://www.w3.org/2000/svg" xmlns:xlink="http://www.w3.org/1999/xlink" x="0px" y="0px"
	 width="16px" height="16px" viewBox="0 0 16 16" enable-background="new 0 0 16 16" xml:space="preserve">
<path fill="#468100" d="M15.999,12.875c0,0.357-0.127,0.664-0.377,0.914l-1.832,1.834c-0.253,0.25-0.558,0.375-0.916,0.375
	c-0.356,0-0.664-0.125-0.916-0.375l-3.959-3.961L4.04,15.624c-0.251,0.25-0.557,0.375-0.916,0.375s-0.664-0.125-0.915-0.375
	L0.377,13.79C0.126,13.54,0,13.232,0,12.875c0-0.359,0.126-0.664,0.377-0.916l3.959-3.961L0.377,4.04C0.126,3.79,0,3.483,0,3.124
	S0.126,2.46,0.377,2.208l1.832-1.831C2.459,0.126,2.764,0,3.123,0s0.665,0.125,0.916,0.377l3.959,3.959l3.959-3.959
	C12.209,0.125,12.516,0,12.873,0s0.663,0.125,0.916,0.377l1.832,1.831c0.25,0.252,0.377,0.557,0.377,0.916s-0.127,0.664-0.377,0.916
	l-3.96,3.959l3.96,3.961C15.872,12.211,15.999,12.516,15.999,12.875z"/>
</svg>
