<?xml version="1.0" encoding="utf-8"?>
<!-- Generator: Adobe Illustrator 16.0.0, SVG Export Plug-In . SVG Version: 6.00 Build 0)  -->
<!DOCTYPE svg PUBLIC "-//W3C//DTD SVG 1.1//EN" "http://www.w3.org/Graphics/SVG/1.1/DTD/svg11.dtd">
<svg version="1.1" id="Layer_1" xmlns="http://www.w3.org/2000/svg" xmlns:xlink="http://www.w3.org/1999/xlink" x="0px" y="0px"
	 width="62px" height="62px" viewBox="0 0 62 62" enable-background="new 0 0 62 62" xml:space="preserve">
<g>
	
		<rect x="27.922" y="9.189" transform="matrix(0.7069 0.7073 -0.7073 0.7069 19.8922 -16.1635)" fill="#FFFFFF" width="3.057" height="13.467"/>
	<path fill="#FFFFFF" d="M40.477,36.47l2.26,2.263l9.523-9.523l-1.979-1.979l-2.783,2.784c-1.428,1.426-2.67,2.755-3.786,4.152
		l-0.042-0.04c0.648-1.498,1.271-3.251,1.709-4.819l1.512-5.468l-2.515-2.514l-9.522,9.522l1.978,1.977l2.867-2.868
		c1.554-1.554,2.868-2.924,4.071-4.238l0.056,0.028c-0.65,1.582-1.259,3.433-1.709,5.016L40.477,36.47z"/>
	<polygon fill="#FFFFFF" points="58.232,38.713 60,36.945 54.12,31.071 44.598,40.594 50.672,46.67 52.439,44.904 48.523,40.988 
		50.786,38.729 54.29,42.232 56.043,40.479 52.538,36.975 54.518,34.996 	"/>
	<polygon fill="#FFFFFF" points="35.393,27.769 31.604,23.982 39.32,16.267 37.157,14.105 27.634,23.628 33.583,29.578 	"/>
	<path fill="#FFFFFF" d="M30.054,8.386c-0.126-1.145-0.818-2.346-2.147-3.674C26.593,3.399,25.576,2.55,24.799,2l-9.396,9.396
		l2.133,2.134l3.405-3.406c0.17,0.227,0.411,0.495,0.692,0.776c1.271,1.272,2.67,2.049,4.097,2.091
		c1.101,0.029,2.204-0.451,3.136-1.384C29.8,10.675,30.181,9.473,30.054,8.386z"/>
</g>
<g>
	<path fill="#EF4823" d="M25.42,5.645l-2.812,2.812c0.142,0.227,0.354,0.467,0.664,0.777c1.145,1.145,2.431,1.272,3.406,0.297
		c0.877-0.876,0.791-2.007-0.283-3.081C25.957,6.013,25.618,5.758,25.42,5.645z"/>
	<path fill="#EF4823" d="M0,0l62,62V0H0z M20.941,10.124l-3.405,3.406l-2.133-2.134L24.799,2c0.777,0.55,1.794,1.399,3.108,2.712
		c1.329,1.328,2.021,2.529,2.147,3.674c0.127,1.087-0.254,2.289-1.188,3.221c-0.932,0.933-2.035,1.413-3.136,1.384
		c-1.427-0.042-2.826-0.819-4.097-2.091C21.352,10.619,21.111,10.351,20.941,10.124z M23.609,19.603l9.523-9.523l2.161,2.162
		l-9.523,9.522L23.609,19.603z M27.634,23.628l9.523-9.523l2.163,2.162l-7.717,7.715l3.789,3.787l-1.81,1.809L27.634,23.628z
		 M40.477,36.47l1.64-5.708c0.45-1.583,1.059-3.434,1.709-5.016l-0.056-0.028c-1.203,1.314-2.518,2.684-4.071,4.238l-2.867,2.868
		l-1.978-1.977l9.522-9.522l2.515,2.514l-1.512,5.468c-0.438,1.568-1.061,3.321-1.709,4.819l0.042,0.04
		c1.116-1.396,2.358-2.726,3.786-4.152l2.783-2.784l1.979,1.979l-9.523,9.523L40.477,36.47z M58.232,38.713l-3.715-3.717
		l-1.979,1.979l3.505,3.504l-1.753,1.754l-3.504-3.504l-2.263,2.26l3.916,3.916l-1.768,1.766l-6.074-6.076l9.522-9.523L60,36.945
		L58.232,38.713z"/>
</g>
</svg>
