<?xml version="1.0" encoding="utf-8"?>
<!-- Generator: Adobe Illustrator 16.2.1, SVG Export Plug-In . SVG Version: 6.00 Build 0)  -->
<!DOCTYPE svg PUBLIC "-//W3C//DTD SVG 1.1//EN" "http://www.w3.org/Graphics/SVG/1.1/DTD/svg11.dtd">
<svg version="1.1" id="Layer_1" xmlns="http://www.w3.org/2000/svg" xmlns:xlink="http://www.w3.org/1999/xlink" x="0px" y="0px"
	 width="13.9px" height="14px" viewBox="0 0 13.9 14" enable-background="new 0 0 13.9 14" xml:space="preserve">
<g>
	<g>
		<path fill="#222222" d="M6.4,5.9c0,0.3-0.2,0.5-0.5,0.5H0.5C0.2,6.4,0,6.2,0,5.9V0.5C0,0.2,0.2,0,0.5,0h5.4c0.3,0,0.5,0.2,0.5,0.5
			V5.9z"/>
	</g>
	<g>
		<path fill="#222222" d="M13.9,5.9c0,0.3-0.2,0.5-0.5,0.5H8c-0.3,0-0.5-0.2-0.5-0.5V0.5C7.4,0.2,7.7,0,8,0h5.4
			c0.3,0,0.5,0.2,0.5,0.5V5.9z"/>
	</g>
	<g>
		<path fill="#222222" d="M6.4,13.5c0,0.3-0.2,0.5-0.5,0.5H0.5C0.2,14,0,13.8,0,13.5V8.1c0-0.3,0.2-0.5,0.5-0.5h5.4
			c0.3,0,0.5,0.2,0.5,0.5V13.5z"/>
	</g>
	<g>
		<path fill="#222222" d="M13.9,13.5c0,0.3-0.2,0.5-0.5,0.5H8c-0.3,0-0.5-0.2-0.5-0.5V8.1c0-0.3,0.2-0.5,0.5-0.5h5.4
			c0.3,0,0.5,0.2,0.5,0.5V13.5z"/>
	</g>
</g>
</svg>
