<?xml version="1.0" encoding="utf-8"?>
<!-- Generator: Adobe Illustrator 16.2.1, SVG Export Plug-In . SVG Version: 6.00 Build 0)  -->
<!DOCTYPE svg PUBLIC "-//W3C//DTD SVG 1.1//EN" "http://www.w3.org/Graphics/SVG/1.1/DTD/svg11.dtd">
<svg version="1.1" id="Layer_1" xmlns="http://www.w3.org/2000/svg" xmlns:xlink="http://www.w3.org/1999/xlink" x="0px" y="0px"
	 width="16.3px" height="14px" viewBox="0 0 16.3 14" enable-background="new 0 0 16.3 14" xml:space="preserve">
<g>
	<g>
		<g>
			<path fill="#222222" d="M5.9,5.5c0,0.3-0.2,0.5-0.5,0.5h-5C0.2,5.9,0,5.7,0,5.5v-5C0,0.2,0.2,0,0.5,0h5c0.3,0,0.5,0.2,0.5,0.5
				V5.5z"/>
		</g>
		<g>
			<path fill="#222222" d="M16.3,1.8c0,0.1-0.1,0.3-0.3,0.3H9C8.8,2.1,8.7,2,8.7,1.8v-1c0-0.1,0.1-0.3,0.3-0.3h7.1
				c0.1,0,0.3,0.1,0.3,0.3V1.8z"/>
		</g>
		<g>
			<path fill="#222222" d="M16.3,4.5c0,0.1-0.1,0.3-0.3,0.3H9c-0.1,0-0.3-0.1-0.3-0.3v-1c0-0.1,0.1-0.3,0.3-0.3h7.1
				c0.1,0,0.3,0.1,0.3,0.3V4.5z"/>
		</g>
	</g>
	<g>
		<g>
			<path fill="#222222" d="M5.9,13.5c0,0.3-0.2,0.5-0.5,0.5h-5C0.2,14,0,13.8,0,13.5v-5c0-0.3,0.2-0.5,0.5-0.5h5
				c0.3,0,0.5,0.2,0.5,0.5V13.5z"/>
		</g>
		<g>
			<path fill="#222222" d="M16.3,9.9c0,0.1-0.1,0.3-0.3,0.3H9c-0.1,0-0.3-0.1-0.3-0.3v-1c0-0.1,0.1-0.3,0.3-0.3h7.1
				c0.1,0,0.3,0.1,0.3,0.3V9.9z"/>
		</g>
		<g>
			<path fill="#222222" d="M16.3,12.6c0,0.1-0.1,0.3-0.3,0.3H9c-0.1,0-0.3-0.1-0.3-0.3v-1c0-0.1,0.1-0.3,0.3-0.3h7.1
				c0.1,0,0.3,0.1,0.3,0.3V12.6z"/>
		</g>
	</g>
</g>
</svg>
