<?xml version="1.0" encoding="utf-8"?>
<!-- Generator: Adobe Illustrator 16.2.1, SVG Export Plug-In . SVG Version: 6.00 Build 0)  -->
<!DOCTYPE svg PUBLIC "-//W3C//DTD SVG 1.1//EN" "http://www.w3.org/Graphics/SVG/1.1/DTD/svg11.dtd">
<svg version="1.1" id="Layer_1" xmlns="http://www.w3.org/2000/svg" xmlns:xlink="http://www.w3.org/1999/xlink" x="0px" y="0px"
	 width="20.6px" height="20.6px" viewBox="0 0 20.6 20.6" enable-background="new 0 0 20.6 20.6" xml:space="preserve">
<symbol  id="i_icon" viewBox="-10.3 -10.3 20.6 20.6">
	<g>
		<path fill="none" stroke="#989898" stroke-width="0.6096" stroke-miterlimit="10" d="M-10,0c0,5.5,4.5,10,10,10
			c5.5,0,10-4.5,10-10S5.5-10,0-10C-5.5-10-10-5.5-10,0z"/>
		<g>
			<g>
				<path fill="#676767" d="M-1.6,4.5c0,0.8,0.6,1.4,1.4,1.4c0.8,0,1.4-0.6,1.4-1.4c0-0.8-0.6-1.4-1.4-1.4C-1,3.1-1.6,3.7-1.6,4.5z
					 M-1.5-5.1v6.9h2.6v-6.9H-1.5z"/>
			</g>
		</g>
	</g>
</symbol>
<use xlink:href="#i_icon"  width="20.6" height="20.6" id="XMLID_1_" x="-10.3" y="-10.3" transform="matrix(1 0 0 -1 10.3047 10.3047)" overflow="visible"/>
</svg>
