<?xml version="1.0" encoding="utf-8"?>
<!-- Generator: Adobe Illustrator 15.1.0, SVG Export Plug-In . SVG Version: 6.00 Build 0)  -->
<!DOCTYPE svg PUBLIC "-//W3C//DTD SVG 1.1//EN" "http://www.w3.org/Graphics/SVG/1.1/DTD/svg11.dtd">
<svg version="1.1" id="Layer_1" xmlns="http://www.w3.org/2000/svg" xmlns:xlink="http://www.w3.org/1999/xlink" x="0px" y="0px"
	 width="24.395px" height="15px" viewBox="0 0 24.395 15" enable-background="new 0 0 24.395 15" xml:space="preserve">
<path fill="#FFFFFF" d="M23.691,9.702c-0.192-0.677-0.236-1.763-0.236-1.763l-1.526-1.764L21.52,5.933L20.741,5.49
	c0,0-6.604-5.092-9.138-5.32c-6.085-0.543-8.208,0.359-8.75,0.697c0.461-0.021,1.532-0.109,1.312,0.271
	C3.879,1.638,2.43,4.831,2.43,4.831l-0.658-0.5l1.215-2.82c0,0,0.287-0.664-0.131-0.646L2.811,0.908L0.863,5.146
	c0.265,2.212-0.314,2.767-0.314,2.767c-0.572,1.201-0.602,2.591-0.506,3.606c0.012-0.066,0.037-0.131,0.052-0.195
	c-0.033,0.139-0.066,0.277-0.08,0.424c-0.145,1.641,1.069,3.094,2.71,3.238l0.268,0.013c0.062,0,0.118-0.015,0.18-0.019
	c0.089-0.006,0.178-0.013,0.265-0.023c0.104-0.018,0.203-0.039,0.303-0.064c0.085-0.021,0.167-0.043,0.248-0.072
	c0.098-0.033,0.188-0.076,0.28-0.119c0.078-0.037,0.155-0.072,0.229-0.115c0.086-0.051,0.167-0.109,0.248-0.17
	c0.068-0.051,0.14-0.102,0.204-0.155c0.075-0.063,0.143-0.141,0.212-0.214c0.059-0.062,0.12-0.122,0.175-0.188
	c0.062-0.08,0.114-0.17,0.17-0.256c0.046-0.072,0.096-0.143,0.135-0.218c0.053-0.102,0.09-0.209,0.13-0.315
	c0.02-0.049,0.041-0.092,0.06-0.139c-0.004,0.014-0.004,0.026-0.011,0.041H18.02c-0.003-0.013-0.005-0.022-0.007-0.035
	c0.357,1.104,1.347,1.943,2.575,2.055l0.265,0.012c0.062,0,0.119-0.014,0.182-0.018c0.09-0.006,0.18-0.012,0.266-0.025
	c0.104-0.016,0.203-0.038,0.303-0.062c0.085-0.021,0.168-0.045,0.25-0.072c0.099-0.034,0.188-0.077,0.278-0.12
	c0.078-0.037,0.155-0.072,0.229-0.116c0.089-0.051,0.168-0.109,0.249-0.17c0.068-0.051,0.142-0.1,0.204-0.152
	c0.076-0.066,0.146-0.144,0.215-0.22c0.06-0.062,0.117-0.116,0.169-0.185c0.066-0.084,0.121-0.178,0.18-0.27
	c0.043-0.064,0.092-0.132,0.129-0.203c0.056-0.104,0.096-0.223,0.139-0.336c0.019-0.045,0.038-0.086,0.056-0.133
	c-0.007,0.018-0.007,0.036-0.013,0.055h0.193C25.138,10.598,23.69,9.703,23.691,9.702L23.691,9.702z M4.644,12.5
	c-0.012,0.039-0.031,0.076-0.046,0.115c-0.022,0.064-0.046,0.13-0.079,0.189c-0.021,0.04-0.047,0.077-0.072,0.114
	c-0.032,0.056-0.064,0.108-0.104,0.159c-0.027,0.035-0.06,0.062-0.09,0.102c-0.043,0.045-0.085,0.094-0.134,0.135
	c-0.033,0.028-0.069,0.055-0.104,0.08c-0.051,0.039-0.104,0.075-0.16,0.107c-0.037,0.021-0.077,0.039-0.113,0.061
	c-0.062,0.026-0.12,0.057-0.184,0.078c-0.041,0.015-0.082,0.022-0.124,0.034c-0.062,0.019-0.129,0.032-0.196,0.043
	c-0.044,0.007-0.089,0.011-0.135,0.015c-0.088,0.006-0.177,0.012-0.269,0.002c-0.951-0.082-1.655-0.922-1.569-1.873
	c0.007-0.086,0.026-0.168,0.045-0.25c0.006-0.025,0.008-0.055,0.017-0.079c0.017-0.06,0.042-0.11,0.062-0.164
	c0.021-0.05,0.036-0.101,0.061-0.146c0.022-0.05,0.056-0.091,0.083-0.136c0.028-0.048,0.059-0.096,0.093-0.142
	c0.029-0.038,0.066-0.073,0.103-0.11c0.039-0.042,0.077-0.085,0.121-0.123c0.038-0.032,0.081-0.062,0.122-0.091
	c0.046-0.034,0.091-0.066,0.141-0.098c0.043-0.025,0.092-0.049,0.139-0.067c0.052-0.022,0.102-0.049,0.155-0.067
	c0.05-0.018,0.102-0.029,0.15-0.043c0.056-0.016,0.111-0.027,0.169-0.037c0.052-0.007,0.105-0.013,0.158-0.017
	c0.085-0.005,0.17-0.01,0.257-0.002c0.951,0.084,1.654,0.924,1.568,1.875C4.697,12.282,4.676,12.393,4.644,12.5L4.644,12.5z
	 M5.285,4.489c0,0-0.157-2.589,1.476-3.062c1.634-0.475,4.635,0,4.635,0s4.318,1.493,7.478,4.168L5.285,4.489z M22.542,12.332
	c-0.01,0.055-0.019,0.109-0.031,0.163c-0.016,0.054-0.04,0.103-0.061,0.153c-0.021,0.052-0.038,0.104-0.063,0.153
	c-0.021,0.048-0.056,0.089-0.082,0.134c-0.031,0.047-0.061,0.098-0.096,0.142c-0.029,0.04-0.065,0.073-0.102,0.11
	c-0.041,0.041-0.08,0.086-0.124,0.125c-0.034,0.03-0.073,0.059-0.111,0.086c-0.052,0.035-0.1,0.069-0.151,0.103
	c-0.039,0.022-0.081,0.042-0.123,0.062c-0.057,0.027-0.114,0.056-0.174,0.076c-0.042,0.016-0.086,0.024-0.131,0.035
	c-0.062,0.02-0.126,0.032-0.191,0.043c-0.045,0.008-0.091,0.01-0.137,0.014c-0.089,0.008-0.179,0.014-0.271,0.004
	c-0.948-0.084-1.65-0.924-1.566-1.875c0.011-0.114,0.032-0.227,0.062-0.334c0.014-0.039,0.029-0.072,0.044-0.109
	c0.024-0.064,0.051-0.136,0.081-0.198c0.021-0.036,0.045-0.071,0.067-0.106c0.035-0.057,0.067-0.113,0.109-0.166
	c0.024-0.032,0.059-0.062,0.088-0.096c0.044-0.048,0.087-0.097,0.137-0.14c0.033-0.026,0.068-0.054,0.104-0.08
	c0.053-0.037,0.104-0.073,0.157-0.104c0.04-0.023,0.082-0.043,0.124-0.062c0.056-0.025,0.11-0.053,0.17-0.072
	c0.045-0.018,0.094-0.027,0.143-0.041c0.059-0.017,0.114-0.029,0.177-0.039c0.051-0.008,0.103-0.012,0.155-0.016
	c0.084-0.005,0.17-0.01,0.257-0.002c0.952,0.085,1.651,0.924,1.567,1.875c-0.005,0.057-0.02,0.109-0.028,0.166h0.002V12.332z"/>
</svg>
