<?xml version="1.0" encoding="utf-8"?>
<!-- Generator: Adobe Illustrator 15.1.0, SVG Export Plug-In . SVG Version: 6.00 Build 0)  -->
<!DOCTYPE svg PUBLIC "-//W3C//DTD SVG 1.1//EN" "http://www.w3.org/Graphics/SVG/1.1/DTD/svg11.dtd">
<svg version="1.1" id="Layer_1" xmlns="http://www.w3.org/2000/svg" xmlns:xlink="http://www.w3.org/1999/xlink" x="0px" y="0px"
	 width="22.468px" height="19px" viewBox="0 0 22.468 19" enable-background="new 0 0 22.468 19" xml:space="preserve">
<path fill="#EBA921" d="M22.414,11.76h-9.947v0.92h-2.465v-0.92H0.075L0,11.682V19h22.468v-7.295L22.414,11.76z M0.606,9.72
	l0.522,0.534h8.923V9.28h2.363v0.974h8.943l0.502-0.514L22,9.634V2.796h-7.201l-0.062-0.221L14.24,1.438
	C13.884,0.617,12.943,0,12.048,0h-1.599C9.559,0,8.617,0.618,8.261,1.438L7.73,2.655L7.686,2.796H0.467v6.819L0.606,9.72L0.606,9.72
	z M9.886,2.149c0.076-0.175,0.376-0.373,0.567-0.373h1.597c0.188,0,0.49,0.197,0.564,0.373l0.283,0.648H9.605L9.886,2.149z"/>
</svg>
