<?xml version="1.0" encoding="utf-8"?>
<!-- Generator: Adobe Illustrator 15.1.0, SVG Export Plug-In . SVG Version: 6.00 Build 0)  -->
<!DOCTYPE svg PUBLIC "-//W3C//DTD SVG 1.1//EN" "http://www.w3.org/Graphics/SVG/1.1/DTD/svg11.dtd">
<svg version="1.1" id="Layer_1" xmlns="http://www.w3.org/2000/svg" xmlns:xlink="http://www.w3.org/1999/xlink" x="0px" y="0px"
	 width="12.354px" height="15px" viewBox="0 0 12.354 15" enable-background="new 0 0 12.354 15" xml:space="preserve">
<path fill="#FFFFFF" d="M12.356,2.152V15H2.579C1.144,15,0,14.02,0,12.559V1.436C0,0.646,0.657,0,1.459,0h9.049v11.029h-7.93
	c-0.998,0-1.702,0.527-1.702,1.482v0.049c0,0.957,0.703,1.576,1.702,1.576h9.095V2.152H12.356L12.356,2.152z M10.507,12.227H2.676
	c-0.219,0-0.413,0.121-0.413,0.312c0,0.236,0.194,0.357,0.413,0.357h7.833v-0.67H10.507L10.507,12.227z"/>
</svg>
