<?xml version="1.0" encoding="utf-8"?>
<!-- Generator: Adobe Illustrator 15.1.0, SVG Export Plug-In . SVG Version: 6.00 Build 0)  -->
<!DOCTYPE svg PUBLIC "-//W3C//DTD SVG 1.1//EN" "http://www.w3.org/Graphics/SVG/1.1/DTD/svg11.dtd">
<svg version="1.1" id="Layer_1" xmlns="http://www.w3.org/2000/svg" xmlns:xlink="http://www.w3.org/1999/xlink" x="0px" y="0px"
	 width="17.738px" height="15px" viewBox="0 0 17.738 15" enable-background="new 0 0 17.738 15" xml:space="preserve">
<path fill="#FFFFFF" d="M17.695,9.285H9.844v0.727H7.896V9.285H0.06L0,9.225V15h17.738V9.24L17.695,9.285z M0.479,7.674l0.413,0.422
	h7.044v-0.77h1.864v0.77h7.062L17.26,7.69l0.109-0.083v-5.4h-5.686l-0.051-0.174L11.24,1.135C10.96,0.487,10.219,0,9.511,0H8.25
	C7.547,0,6.802,0.487,6.521,1.135L6.104,2.096L6.068,2.207H0.369v5.385L0.479,7.674L0.479,7.674z M7.806,1.696
	c0.06-0.138,0.297-0.294,0.445-0.294h1.263c0.146,0,0.388,0.156,0.445,0.294l0.225,0.511H7.583L7.806,1.696z"/>
</svg>
