<?xml version="1.0" encoding="utf-8"?>
<!-- Generator: Adobe Illustrator 15.1.0, SVG Export Plug-In . SVG Version: 6.00 Build 0)  -->
<!DOCTYPE svg PUBLIC "-//W3C//DTD SVG 1.1//EN" "http://www.w3.org/Graphics/SVG/1.1/DTD/svg11.dtd">
<svg version="1.1" id="Layer_1" xmlns="http://www.w3.org/2000/svg" xmlns:xlink="http://www.w3.org/1999/xlink" x="0px" y="0px"
	 width="15.648px" height="19px" viewBox="0 0 15.648 19" enable-background="new 0 0 15.648 19" xml:space="preserve">
<path fill="#EBA921" d="M15.649,2.728v16.273H3.265C1.448,19.001,0,17.759,0,15.909V1.819C0,0.819,0.832,0,1.848,0h11.463v13.97
	H3.266c-1.264,0-2.155,0.668-2.155,1.881v0.061c0,1.211,0.891,1.997,2.155,1.997h11.521V2.728H15.649L15.649,2.728z M13.308,15.485
	H3.389c-0.277,0-0.522,0.154-0.522,0.396c0,0.303,0.246,0.454,0.522,0.454h9.92L13.308,15.485L13.308,15.485L13.308,15.485z"/>
</svg>
