<?xml version="1.0" encoding="utf-8"?>
<!-- Generator: Adobe Illustrator 15.1.0, SVG Export Plug-In . SVG Version: 6.00 Build 0)  -->
<!DOCTYPE svg PUBLIC "-//W3C//DTD SVG 1.1//EN" "http://www.w3.org/Graphics/SVG/1.1/DTD/svg11.dtd">
<svg version="1.1" id="Layer_1" xmlns="http://www.w3.org/2000/svg" xmlns:xlink="http://www.w3.org/1999/xlink" x="0px" y="0px"
	 width="19.488px" height="15px" viewBox="0 0 19.488 15" enable-background="new 0 0 19.488 15" xml:space="preserve">
<path fill="#FFFFFF" d="M17.975,0.91c-0.282-0.112-5.054-3.164-6.771,2.577c0,0-0.245,1.162-1.31,1.791l-9.007,6.404
	c0,0-1.629,1.286-0.477,2.713c0,0,0.895,1.317,2.585,0.065l9.087-6.345c0,0,0.534-0.339,2.332,0.279c0,0,3.115,0.978,4.941-2.533
	c0,0,0.542-1.237-0.598-0.921L16.28,5.88c0,0-0.349,0.262-0.702-0.188c0,0-1.447-1.133-1.263-2.562c0,0-0.041-0.633,0.814-0.824
	l2.6-0.876C17.733,1.43,18.423,1.092,17.975,0.91L17.975,0.91z M2.894,13.302c-0.095,0.525-0.594,0.873-1.119,0.779
	c-0.522-0.092-0.877-0.589-0.785-1.11c0.092-0.522,0.591-0.871,1.117-0.779C2.632,12.284,2.983,12.782,2.894,13.302z M8.375,9.239
	l-3.776,2.799c-0.293,0.205-0.699,0.142-0.908-0.147c-0.211-0.291-0.146-0.697,0.146-0.906l3.774-2.799
	c0.294-0.208,0.701-0.142,0.91,0.147C8.732,8.626,8.665,9.03,8.375,9.239z"/>
</svg>
