<?xml version="1.0" encoding="utf-8"?>
<!-- Generator: Adobe Illustrator 15.1.0, SVG Export Plug-In . SVG Version: 6.00 Build 0)  -->
<!DOCTYPE svg PUBLIC "-//W3C//DTD SVG 1.1//EN" "http://www.w3.org/Graphics/SVG/1.1/DTD/svg11.dtd">
<svg version="1.1" id="Layer_1" xmlns="http://www.w3.org/2000/svg" xmlns:xlink="http://www.w3.org/1999/xlink" x="0px" y="0px"
	 width="19.835px" height="15px" viewBox="0 0 19.835 15" enable-background="new 0 0 19.835 15" xml:space="preserve">
<path fill="#1867C3" d="M19.583,8.091c-0.463-0.693-1.445-0.626-1.971-0.428L12.351,9.7L4.989,5.979L4.561,7.668l2.835,3.839
	c-1.828,0.714-5.175,2.028-5.783,2.258c-0.522,0.196,3.845,1.389,4.739,1.221c0,0,6.875-2.527,9.915-3.668l2.345-0.879
	C19.135,10.24,20.362,9.239,19.583,8.091L19.583,8.091z M0.531,11.03L0,11.585l1.408,1.854l2.041-0.812L0.531,11.03z M13.61,4.972
	c-1.37,0-2.486-1.115-2.486-2.486C11.124,1.115,12.24,0,13.61,0s2.485,1.115,2.485,2.485C16.095,3.856,14.98,4.972,13.61,4.972z
	 M13.61,1.289c-0.66,0-1.197,0.537-1.197,1.196c0,0.66,0.537,1.197,1.197,1.197c0.659,0,1.196-0.537,1.196-1.197
	C14.806,1.826,14.271,1.289,13.61,1.289z"/>
</svg>
