<?xml version="1.0" encoding="utf-8"?>
<!-- Generator: Adobe Illustrator 16.0.0, SVG Export Plug-In . SVG Version: 6.00 Build 0)  -->
<!DOCTYPE svg PUBLIC "-//W3C//DTD SVG 1.1//EN" "http://www.w3.org/Graphics/SVG/1.1/DTD/svg11.dtd">
<svg version="1.1" id="Layer_1" xmlns="http://www.w3.org/2000/svg" xmlns:xlink="http://www.w3.org/1999/xlink" x="0px" y="0px"
	 width="17px" height="17px" viewBox="0 0 17 17" enable-background="new 0 0 17 17" xml:space="preserve">
<path fill="#FFFFFF" d="M12.543,8.5l4.164-4.163c0.391-0.391,0.391-1.024,0-1.414l-2.629-2.629c-0.391-0.391-1.024-0.391-1.415,0
	L8.5,4.457L4.336,0.293c-0.391-0.391-1.024-0.391-1.414,0L0.293,2.922c-0.391,0.391-0.391,1.024,0,1.415L4.456,8.5l-4.164,4.163
	c-0.391,0.392-0.391,1.024,0,1.415l2.629,2.629c0.391,0.391,1.023,0.391,1.414,0L8.5,12.543l4.164,4.164
	c0.392,0.391,1.024,0.391,1.415,0l2.629-2.629c0.391-0.391,0.391-1.023,0-1.414L12.543,8.5z"/>
</svg>
