<svg xmlns="http://www.w3.org/2000/svg" width="62" height="20"><path fill="#939492" d="M62 18c0 1.104-.896 2-2 2h-58c-1.104 0-2-.896-2-2v-16c0-1.104.896-2 2-2h58c1.104 0 2 .896 2 2v16z"/><path fill="#fff" d="M31.893 3.997c1.692 0 3.385-.008 5.078.004 1.413.01 1.848.418 1.854 1.785.015 2.625.015 5.247.001 7.873-.01 1.371-.366 1.743-1.73 1.75-3.554.018-7.11.018-10.664 0-1.363-.007-1.72-.379-1.728-1.752-.015-2.625-.015-5.248-.002-7.873.009-1.361.444-1.773 1.856-1.783 1.778-.012 3.556-.004 5.335-.004zm-1.516 5.912c-1.251-1.319-2.501-2.638-3.885-4.1v6.862c1.401-1.004 2.658-1.903 3.913-2.8-.972 1.222-1.944 2.445-3.057 3.847h8.839c-1.131-1.421-2.09-2.622-3.039-3.812l3.867 2.724v-6.825l-3.857 4.115-1.284 1.621c-.652-.723-1.068-1.184-1.497-1.632zm-2.913-4.15l-.069.25c1.282.966 2.558 1.939 3.852 2.888.182.134.546.283.667.198 1.445-1.017 2.859-2.075 4.281-3.122l-.17-.215c-2.855.001-5.708.001-8.561.001z"/></svg>