<svg width="14" height="20" xmlns="http://www.w3.org/2000/svg"><path fill="#fff" clip-rule="evenodd" fill-rule="evenodd" d="M8.44 0v1.98c2.586.392 3.842 1.959 4.798 3.793-1.204.394-2.485.712-3.64 1.156-.428-.313-.548-.863-.993-1.156-.79-.517-3.379-.72-3.061.826.139.668 1.239.821 1.572.907 2.747.693 5.958 1.081 6.535 4.124.754 3.967-2.001 5.756-5.293 6.266v2.063h-2.896v-1.981c-2.889-.558-4.58-2.227-5.211-4.783 1.41-.162 2.631-.513 4.054-.659.478.893 1.284 1.758 2.73 1.814.685.026 1.955-.15 1.986-.99.021-.573-.596-1.01-.993-1.152-.733-.268-2-.424-3.06-.744-1.027-.311-2.014-.634-2.648-1.156-2.174-1.784-1.566-5.361.166-6.927.812-.734 1.513-1.037 2.895-1.319v-2.062h3.061z"/></svg>