<svg id="location-icon" xmlns="http://www.w3.org/2000/svg" viewBox="0 0 67 58"><title>camera-icon</title><path d="M33.6,49A15.5,15.5,0,1,1,49.1,33.5,15.52,15.52,0,0,1,33.6,49Zm0-27A11.5,11.5,0,1,0,45.1,33.5,11.51,11.51,0,0,0,33.6,22Z" transform="translate(-0.1)"/><path d="M26.73,32.38h-2a7.76,7.76,0,0,1,7.75-7.75v2A5.76,5.76,0,0,0,26.73,32.38Z" transform="translate(-0.1)"/><path d="M62.85,58H4.35A4.25,4.25,0,0,1,.1,53.75V17.55a4.23,4.23,0,0,1,3.85-4.23l12.93-1.23,2.55-7.64A6.49,6.49,0,0,1,25.59,0h16a6.49,6.49,0,0,1,6.17,4.44l2.55,7.64,12.93,1.23a4.23,4.23,0,0,1,3.85,4.23v36.2A4.25,4.25,0,0,1,62.85,58ZM25.59,4a2.5,2.5,0,0,0-2.37,1.71L19.85,15.82,4.33,17.3a0.25,0.25,0,0,0-.23.25v36.2a0.25,0.25,0,0,0,.25.25h58.5a0.25,0.25,0,0,0,.25-0.25V17.55a0.25,0.25,0,0,0-.23-0.25L47.35,15.82,44,5.71A2.5,2.5,0,0,0,41.61,4h-16Z" transform="translate(-0.1)"/></svg>
