<svg xmlns="http://www.w3.org/2000/svg" width="25" height="25"><path fill="#468100" d="M11.4 15.8c.3.3.7.2.9 0l4.4-4.5c.3-.3.3-.7 0-.9l-2.1-2.1c-.3-.3-.7-.3-.9 0l-4.5 4.5c-.2.2-.2.6 0 .9l2.2 2.1z"/><path fill="#468100" d="M18.5 2.8s-.3-.3-.6-.7l-1.4-1.4c-.4-.4-1-.4-1.3 0l-13.6 13.6c-.4.4-.4 1 0 1.3l1.4 1.4c.4.4.7.6.7.6 1-1 2.5-1 3.5 0s1 2.5 0 3.5c0 0 .2.4.6.7l1.6 1.6c.4.4 1 .4 1.3 0l13.5-13.7c.4-.4.4-1 0-1.3l-1.6-1.6-.6-.6c-1 1-2.5 1-3.5 0s-.9-2.5 0-3.4zm-.9 6.4c.4.4.8 1 .9 1.4.1.4-.6 1.6-.9 1.9l-4.1 4.1c-.4.4-1 .8-1.4.9-.4.1-1.6-.6-1.9-.9l-1.8-1.8c-.4-.4-.8-1-.9-1.4-.1-.4.6-1.6.9-1.9l4.1-4.1c.4-.4 1-.8 1.4-.9.4-.1 1.6.6 1.9.9l1.8 1.8z"/></svg>