<?xml version="1.0" encoding="utf-8"?>
<!-- Generator: Adobe Illustrator 16.0.0, SVG Export Plug-In . SVG Version: 6.00 Build 0)  -->
<!DOCTYPE svg PUBLIC "-//W3C//DTD SVG 1.1//EN" "http://www.w3.org/Graphics/SVG/1.1/DTD/svg11.dtd">
<svg version="1.1" id="Layer_1" xmlns="http://www.w3.org/2000/svg" xmlns:xlink="http://www.w3.org/1999/xlink" x="0px" y="0px"
	 width="35.02px" height="40px" viewBox="0 0 35.02 40" enable-background="new 0 0 35.02 40" xml:space="preserve">
<circle fill="#FFFFFF" cx="28.993" cy="3.867" r="3.867"/>
<circle fill="#FFFFFF" cx="7.483" cy="5.096" r="3.867"/>
<g>
	<polygon fill="#FFFFFF" points="16.717,31 16.717,31 16.718,31 	"/>
	<path fill="#FFFFFF" d="M26.15,8.194c-6.043-0.768-9.969,1.64-9.969,1.64c-0.156,0.084-0.299,0.187-0.437,0.297l-0.01,0.004
		c0.001-0.001,0.002-0.002,0.003-0.003c-1.576-0.419-3.541-0.71-5.83-0.587c0,0-13.343,1.839-9.055,15.785
		c0,0,2.857,8.393,14.222,14.236c0.086,0.051-0.02,0.097,0.071,0.14c0.017,0.006-0.127,0.013-0.141,0.021
		c0.994,0.143,0.868,0.236,1.242,0.265c1.749,0.128,3.368-1.188,3.496-2.936c0.013-0.183,0.045-0.363,0.033-0.539l0.05-0.051
		C30.581,31.604,33.78,24.068,33.78,24.068C38.902,10.907,26.15,8.194,26.15,8.194z M28.033,22.175
		c-5.585,6.925-10.297,8.652-11.174,8.927c-0.042,0.012-0.082-0.05-0.123-0.035C16.725,31.068,16.717,31,16.717,31
		c-0.658,0.001-1.213,0.732-1.587,1.303l-0.074-0.006c-2.053-1.42-5-3.989-8.119-8.49c0,0-5.062-11.055,8.831-7.052l1.228,0.507
		c0.181,0.099,0.552,0.184,0.753,0.245L18,17.52v-0.001c0,0.07,0.189,0.098,0.417,0.114c1.688,0.124,2.983-1.154,3.106-2.844
		c0.009-0.106-0.025-0.21-0.028-0.314c-0.014,0.002-0.029,0.005-0.043,0.007l0.011-0.007C33.273,12.623,28.033,22.175,28.033,22.175
		z"/>
	<polygon fill="#FFFFFF" points="15,39.729 15.005,39.728 15,39.727 	"/>
</g>
</svg>
