<svg xmlns="http://www.w3.org/2000/svg" width="25" height="25"><path d="M3.1 11.1h20.4c0 .3 0 .6-.1.9-.3 1.5-1 2.8-2.1 3.8-1.5 1.4-3.2 2.2-5.2 2.6-1 .2-2 .3-3 .3-2.4 0-4.6-.6-6.6-1.9-1.3-.9-2.3-2-3-3.4-.2-.7-.4-1.5-.4-2.3zm10.2-.9c0-.1 0-.2.1-.3.7-2.9 1.6-5.9 2.4-8.8.1-.3.2-.5.5-.5.3-.1.5 0 .7.2.2.1.2.3.2.5 0 .1 0 .1-.1.2 2.4.9 4.3 2.4 5.6 4.8.6 1.2 1 2.6 1 4-3.6-.1-7-.1-10.4-.1zm-5.3 9.6c-1.3 0-2.3 1-2.3 2.3 0 1.3 1 2.4 2.3 2.4 1.3 0 2.3-1 2.3-2.3.1-1.3-1-2.4-2.3-2.4zm10.5 0c-1.3 0-2.3 1.1-2.3 2.3 0 1.3 1 2.3 2.3 2.3 1.3 0 2.3-1 2.3-2.3 0-1.2-1-2.3-2.3-2.3zm-15.3-9.3c-.1-.8-.3-1.5-.8-2.1-.4-.5-.9-.7-1.5-.8-.5 0-.7-.5-.6-.9.2-.3.4-.4.7-.4.8 0 1.6.2 2.2.8 1.1.7 1.2 2.4 1.4 3.3" fill="#468100"/></svg>