<?xml version="1.0" encoding="utf-8"?>
<!-- Generator: Adobe Illustrator 15.1.0, SVG Export Plug-In . SVG Version: 6.00 Build 0)  -->
<!DOCTYPE svg PUBLIC "-//W3C//DTD SVG 1.1//EN" "http://www.w3.org/Graphics/SVG/1.1/DTD/svg11.dtd">
<svg version="1.1" id="Layer_1" xmlns="http://www.w3.org/2000/svg" xmlns:xlink="http://www.w3.org/1999/xlink" x="0px" y="0px"
	 width="25px" height="25px" viewBox="0 0 25 25" enable-background="new 0 0 25 25" xml:space="preserve">
<path fill="#FFFFFF" d="M20.1,21.2c-0.3-1.4-0.8-2.8-1.3-4l-1.7-4.5c-0.399-1.1-0.5-2.1-0.3-3c0.101-0.5,0.2-1,0.4-1.4L17.6,6.8
	L17.9,5.3c0-0.2,0-0.4-0.101-0.6c-0.1-0.1-0.2-0.2-0.2-0.3L17.3,4c-0.3-0.7-0.5-1.4-0.5-2.2V0.6h-2.1L14.6,1.3c0,0.2,0,0.3-0.1,0.5
	c-0.1,0.5-0.3,0.9-0.6,1.3C13.3,3.8,12,3.8,11.3,3.1c-0.3-0.3-0.4-0.6-0.5-0.9l-0.2-0.8l-0.2-0.7H8.2v0.6c0,0.8-0.1,1.5-0.3,2.1
	c-0.2,0.5-0.3,1-0.7,1.3C7,4.8,7,5,7,5.2v0.2C7.1,5.7,7.2,6,7.2,6.3l0.3,1.3C7.8,8.5,8,9.2,8.1,10c0.2,0.7,0.2,1.2,0,1.6
	c-0.3,0.8-0.6,1.8-1,2.8L6.9,15c-0.7,1.7-1.4,3.4-1.9,5.1c-0.3,1.301-0.5,2.4-0.5,3.4c0,0.5,0.2,0.7,0.7,0.7h0.4l1.8,0.2
	c1.8,0.1,3.6,0.1,5.4,0.1h0.8c1.7,0,3.301-0.1,4.801-0.2l1-0.1L19.8,24.1c0.4-0.1,0.7-0.3,0.7-0.699C20.5,22.8,20.3,22.1,20.1,21.2z
	"/>
</svg>
