<svg xmlns="http://www.w3.org/2000/svg" width="25" height="25"><path fill="#468100" d="M20.1 21.2c-.3-1.4-.8-2.8-1.3-4l-1.7-4.5c-.4-1.1-.5-2.1-.3-3 .1-.5.2-1 .4-1.4l.4-1.5.3-1.5c0-.2 0-.4-.1-.6-.1-.1-.2-.2-.2-.3l-.3-.4c-.3-.7-.5-1.4-.5-2.2v-1.2h-2.1l-.1.7c0 .2 0 .3-.1.5-.1.5-.3.9-.6 1.3-.6.7-1.9.7-2.6 0-.3-.3-.4-.6-.5-.9l-.2-.8-.2-.7h-2.2v.6c0 .8-.1 1.5-.3 2.1-.2.5-.3 1-.7 1.3-.2.1-.2.3-.2.5v.2c.1.3.2.6.2.9l.3 1.3c.3.9.5 1.6.6 2.4.2.7.2 1.2 0 1.6-.3.8-.6 1.8-1 2.8l-.2.6c-.7 1.7-1.4 3.4-1.9 5.1-.3 1.3-.5 2.4-.5 3.4 0 .5.2.7.7.7h.4l1.8.2c1.8.1 3.6.1 5.4.1h.8c1.7 0 3.3-.1 4.8-.2l1-.1.4-.1c.4-.1.7-.3.7-.7 0-.6-.2-1.3-.4-2.2z"/></svg>