<svg xmlns="http://www.w3.org/2000/svg" width="25" height="25"><path fill="#468100" d="M3.3 18c-.9-.1-1.6-.9-1.5-1.8.1-.9.9-1.6 1.8-1.5.9.1 1.6.9 1.5 1.8 0 .9-.9 1.6-1.8 1.5m.4-4.6c-1.6-.1-3 1-3.2 2.7-.1 1.6 1.1 3 2.7 3.2 1.6.1 3-1 3.2-2.7s-1.1-3.1-2.7-3.2"/><path fill="#468100" d="M3.4 13.5h.2c1.5.1 2.6 1.5 2.5 3-.1.7-.4 1.3-.9 1.8-.4.5-1.1.7-1.8.7h-.2c-1.5-.1-2.6-1.5-2.5-3 .1-.7.4-1.3.9-1.8.5-.4 1.2-.7 1.8-.7m0 4.7c.5 0 .9-.2 1.3-.5.3-.3.6-.8.6-1.2.1-1-.7-2-1.7-2h-.2c-.5 0-.9.2-1.3.5s-.6.8-.6 1.2c0 .5.1 1 .4 1.4.3.4.8.6 1.3.7.1-.1.2-.1.2-.1m0-4.9c-1.5 0-2.8 1.1-2.9 2.7-.1 1.6 1.1 3 2.7 3.2h.3c1.5 0 2.8-1.1 2.9-2.7.1-1.6-1.1-3-2.7-3.2h-.3zm0 4.7h-.2c-.9-.1-1.6-.9-1.5-1.8.1-.9.8-1.6 1.7-1.6h.2c.9.1 1.6.9 1.5 1.8 0 .9-.8 1.6-1.7 1.6z"/><path fill="#468100" d="M20.9 18c-.9-.1-1.6-.9-1.5-1.8.1-.9.9-1.6 1.8-1.5.9.1 1.6.9 1.5 1.8-.1.9-.9 1.6-1.8 1.5m.4-4.6c-1.6-.1-3 1-3.2 2.7-.1 1.6 1 3 2.7 3.2 1.6.1 3-1 3.2-2.7.1-1.7-1.1-3.1-2.7-3.2"/><path fill="#468100" d="M21 13.5h.2c1.5.1 2.6 1.5 2.5 3-.1.7-.4 1.3-.9 1.8-.4.5-1.1.7-1.8.7h-.2c-.7-.1-1.4-.4-1.9-1s-.7-1.3-.6-2c.1-.7.4-1.3.9-1.8.5-.4 1.1-.7 1.8-.7m0 4.7c.5 0 .9-.2 1.3-.5.3-.3.6-.8.6-1.2.1-1-.7-2-1.7-2h-.2c-.5 0-.9.2-1.3.5s-.6.8-.6 1.2c0 .5.1 1 .4 1.4.3.4.8.6 1.3.7.1-.1.2-.1.2-.1m0-4.9c-1.5 0-2.8 1.1-2.9 2.7-.1 1.6 1 3 2.7 3.2h.3c1.5 0 2.8-1.1 2.9-2.7.1-1.6-1.1-3-2.7-3.2h-.3zm0 4.7h-.2c-.9-.1-1.6-.9-1.5-1.8.1-.9.8-1.6 1.7-1.6h.2c.9.1 1.6.9 1.5 1.8-.1.9-.8 1.6-1.7 1.6z"/><path fill="#468100" d="M5.7 8.9s-.2-2.5 1.5-3c1.6-.5 4.6 0 4.6 0s4.2 1.4 7.3 4.1l-13.4-1.1zm18.1 5.1c-.2-.7-.2-1.7-.2-1.7l-1.5-1.7-.4-.2-.8-.4s-6.5-5-9-5.2c-6-.7-8.1.2-8.6.5.5 0 1.5-.1 1.3.3-.3.5-1.7 3.6-1.7 3.6l-.7-.5 1.2-2.8s.3-.7-.1-.6l-2 4.2c.3 2.2-.3 2.7-.3 2.7-.6 1.2-.6 2.5-.5 3.5.2-1.5 1.6-2.6 3.2-2.4 1.6.1 2.8 1.6 2.7 3.2l-.1.7h12c-.1-.4-.2-.8-.1-1.2.1-1.6 1.6-2.8 3.2-2.7 1.6.1 2.8 1.6 2.7 3.2l-.1.7c1.2-2.3-.2-3.2-.2-3.2"/><rect x="6.4" y="16" fill="#468100" width="11.7" height=".2"/></svg>