<svg xmlns="http://www.w3.org/2000/svg" width="25" height="25"><path d="M1 16.3v-7.6c0-.2.2-.4.4-.4h4.7c.3 0 .4.2.4.5v15.1c0 .3-.2.5-.5.5h-4.6c-.2-.1-.4-.2-.4-.4v-7.7zm23-6.4c0-.4-.3-.6-.6-.6h-1.1v-5.9c0-.1 0-.2-.1-.2l-2.8-2.5c-.1-.1-.2-.1-.3-.1h-10.5v8.7h-.9c-.3 0-.6.2-.6.6v13c0 .3.2.5.5.5h15.6c.4 0 .6-.3.6-.6.2-4.3.2-8.6.2-12.9zm-4.7-8.4l2 1.8h-2v-1.8zm-8.2 12.9c0-.2.2-.4.4-.4h1.5c.2 0 .4.2.4.4v1.4c0 .3-.2.4-.5.4h-1.4c-.2 0-.4-.2-.4-.4v-1.4zm0-2.3v-.3c0-.3.2-.4.4-.4h1.4c.2 0 .4.2.4.4v1.3c0 .3-.2.4-.4.4h-1.4c-.2 0-.4-.2-.4-.5v-.9zm0 5.1c0-.2.1-.4.3-.4h1.4c.4 0 .5.2.5.5v1.2c0 .3-.2.5-.5.5h-1.3c-.3 0-.5-.2-.5-.5v-.6c.1-.2.1-.4.1-.7zm3-1.7v-1c0-.3.2-.4.4-.4h1.4c.2 0 .4.2.4.4v1.4c0 .2-.2.4-.4.4h-1.4c-.2 0-.4-.2-.4-.4v-.4zm0-3.7c0-.3.2-.5.5-.5h1.3c.3 0 .5.2.5.5v1.3c0 .3-.2.5-.5.5h-1.2c-.3 0-.5-.2-.5-.5-.1-.5-.1-.9-.1-1.3zm2.2 9.7c0 .2-.2.4-.4.4h-1.3c-.3 0-.4-.2-.4-.5v-1.3c0-.3.2-.5.5-.5h1.2c.2 0 .4.2.4.4v1.5zm0-2.9c0 .2-.2.4-.4.4h-1.3c-.3 0-.4-.2-.4-.5v-1.3c0-.3.2-.4.4-.4h1.4c.2 0 .4.2.4.4-.1.5-.1 1-.1 1.4zm.7-4.1c0-.3.2-.5.5-.5h1.3c.2 0 .4.2.4.4v1.4c0 .2-.2.4-.4.4h-1.2c-.3 0-.5-.2-.5-.5-.1-.3-.1-.8-.1-1.2zm0-2.8c0-.2.2-.4.4-.4h1.4c.2 0 .4.2.4.4v1.4c0 .2-.2.4-.4.4h-1.4c-.2 0-.4-.2-.4-.4v-1.4zm2.2 6.9c0 .3-.2.4-.4.4h-1.4c-.2 0-.4-.2-.4-.4v-1.4c0-.2.2-.4.4-.4h1.3c.2 0 .4.2.4.4v.7c.1.3.1.5.1.7zm2.2-9.5h-12v-7.8h9.2v2.5h2.8v5.3z" fill="#fff"/></svg>