<?xml version="1.0" encoding="utf-8"?>
<!-- Generator: Adobe Illustrator 17.1.0, SVG Export Plug-In . SVG Version: 6.00 Build 0)  -->
<!DOCTYPE svg PUBLIC "-//W3C//DTD SVG 1.1//EN" "http://www.w3.org/Graphics/SVG/1.1/DTD/svg11.dtd">
<svg version="1.1" id="Layer_1" xmlns="http://www.w3.org/2000/svg" xmlns:xlink="http://www.w3.org/1999/xlink" x="0px" y="0px" width="24" height="24"
	 viewBox="0 0 96 96" style="enable-background:new 0 0 96 96;" xml:space="preserve">
<path style="fill:#FFFDEF;stroke:#7F6A9E;stroke-width:2;stroke-miterlimit:10;" d="M95,89.973C95,92.749,92.749,95,89.973,95H6.027
	C3.251,95,1,92.749,1,89.973V6.027C1,3.251,3.251,1,6.027,1h83.946C92.749,1,95,3.251,95,6.027V89.973z"/>
<g>
	<path style="fill:#D0C6DF;" d="M0,10.167h96v22.227H0V10.167z"/>
	<path style="fill:#D7D7D7;" d="M62.063,83.57h29.208v1.127H62.063V83.57z"/>
	<path style="fill:#D7D7D7;" d="M62.063,81.872h29.208v1.135H62.063V81.872z"/>
	<path style="fill:#D7D7D7;" d="M62.063,80.173h29.208v1.135H62.063V80.173z"/>
	<path style="fill:#D7D7D7;" d="M62.063,78.482h29.208v1.127H62.063V78.482z"/>
	<path style="fill:#D7D7D7;" d="M62.063,74.521h14.032v3.111H62.063V74.521z"/>
	<path style="fill:#D7D7D7;" d="M49.182,74.521h11.456v11.311H49.182V74.521z"/>
	<path style="fill:#D7D7D7;" d="M62.063,70.283h29.208v1.135H62.063V70.283z"/>
	<path style="fill:#D7D7D7;" d="M62.063,68.592h29.208v1.127H62.063V68.592z"/>
	<path style="fill:#D7D7D7;" d="M62.063,66.893h29.208v1.127H62.063V66.893z"/>
	<path style="fill:#D7D7D7;" d="M62.063,65.195h29.208v1.135H62.063V65.195z"/>
	<path style="fill:#D7D7D7;" d="M62.063,61.241h14.032v3.111H62.063V61.241z"/>
	<path style="fill:#D7D7D7;" d="M49.182,61.241h11.456v11.304H49.182V61.241z"/>
	<path style="fill:#D7D7D7;" d="M62.063,58.033h29.208v1.127H62.063V58.033z"/>
	<path style="fill:#D7D7D7;" d="M62.063,56.335h29.208v1.135H62.063V56.335z"/>
	<path style="fill:#D7D7D7;" d="M62.063,54.636h29.208v1.135H62.063V54.636z"/>
	<path style="fill:#D7D7D7;" d="M62.063,52.945h29.208v1.127H62.063V52.945z"/>
	<path style="fill:#D7D7D7;" d="M62.063,48.985h14.032v3.111H62.063V48.985z"/>
	<path style="fill:#D7D7D7;" d="M49.182,48.985h11.456v11.311H49.182V48.985z"/>
	<path style="fill:#D7D7D7;" d="M62.063,44.746h29.208v1.135H62.063V44.746z"/>
	<path style="fill:#D7D7D7;" d="M62.063,43.055h29.208v1.127H62.063V43.055z"/>
	<path style="fill:#D7D7D7;" d="M62.063,41.356h29.208v1.127H62.063V41.356z"/>
	<path style="fill:#D7D7D7;" d="M62.063,39.658h29.208v1.135H62.063V39.658z"/>
	<path style="fill:#D7D7D7;" d="M62.063,35.704h14.032v3.111H62.063V35.704z"/>
	<path style="fill:#D7D7D7;" d="M49.182,35.704h11.456v11.304H49.182V35.704z"/>
	<path style="fill:#D7D7D7;" d="M17.61,83.57h29.207v1.127H17.61V83.57z"/>
	<path style="fill:#D7D7D7;" d="M17.61,81.872h29.207v1.135H17.61V81.872z"/>
	<path style="fill:#D7D7D7;" d="M17.61,80.173h29.207v1.135H17.61V80.173z"/>
	<path style="fill:#D7D7D7;" d="M17.61,78.482h29.207v1.127H17.61V78.482z"/>
	<path style="fill:#D7D7D7;" d="M17.61,74.521h14.032v3.111H17.61V74.521z"/>
	<path style="fill:#D7D7D7;" d="M4.729,74.521h11.456v11.311H4.729V74.521z"/>
	<path style="fill:#D7D7D7;" d="M17.61,70.283h29.207v1.135H17.61V70.283z"/>
	<path style="fill:#D7D7D7;" d="M17.61,68.592h29.207v1.127H17.61V68.592z"/>
	<path style="fill:#D7D7D7;" d="M17.61,66.893h29.207v1.127H17.61V66.893z"/>
	<path style="fill:#D7D7D7;" d="M17.61,65.195h29.207v1.135H17.61V65.195z"/>
	<path style="fill:#D7D7D7;" d="M17.61,61.241h14.032v3.111H17.61V61.241z"/>
	<path style="fill:#D7D7D7;" d="M4.729,61.241h11.456v11.304H4.729V61.241z"/>
	<path style="fill:#D7D7D7;" d="M17.61,58.033h29.207v1.127H17.61V58.033z"/>
	<path style="fill:#D7D7D7;" d="M17.61,56.335h29.207v1.135H17.61V56.335z"/>
	<path style="fill:#D7D7D7;" d="M17.61,54.636h29.207v1.135H17.61V54.636z"/>
	<path style="fill:#D7D7D7;" d="M17.61,52.945h29.207v1.127H17.61V52.945z"/>
	<path style="fill:#D7D7D7;" d="M17.61,48.985h14.032v3.111H17.61V48.985z"/>
	<path style="fill:#D7D7D7;" d="M4.729,48.985h11.456v11.311H4.729V48.985z"/>
	<path style="fill:#D7D7D7;" d="M17.61,44.746h29.207v1.135H17.61V44.746z"/>
	<path style="fill:#D7D7D7;" d="M17.61,43.055h29.207v1.127H17.61V43.055z"/>
	<path style="fill:#D7D7D7;" d="M17.61,41.356h29.207v1.127H17.61V41.356z"/>
	<path style="fill:#D7D7D7;" d="M17.61,39.658h29.207v1.135H17.61V39.658z"/>
	<path style="fill:#D7D7D7;" d="M17.61,35.704h14.032v3.111H17.61V35.704z"/>
	<path style="fill:#D7D7D7;" d="M4.729,35.704h11.456v11.304H4.729V35.704z"/>
	<path style="fill:#D7D7D7;" d="M68.571,13.005h17.025V30.03H68.571V13.005z"/>
	<path style="fill:#D7D7D7;" d="M49.182,13.005h17.025V30.03H49.182V13.005z"/>
	<path style="fill:#7F6A9E;" d="M29.32,13.005h17.025V30.03H29.32V13.005z"/>
	<path style="fill:#D7D7D7;" d="M9.931,13.005h17.025V30.03H9.931V13.005z"/>
</g>
</svg>
