<?xml version="1.0" encoding="utf-8"?>
<!-- Generator: Adobe Illustrator 16.0.0, SVG Export Plug-In . SVG Version: 6.00 Build 0)  -->
<!DOCTYPE svg PUBLIC "-//W3C//DTD SVG 1.1//EN" "http://www.w3.org/Graphics/SVG/1.1/DTD/svg11.dtd">
<svg version="1.1" id="Capa_1" xmlns="http://www.w3.org/2000/svg" xmlns:xlink="http://www.w3.org/1999/xlink" x="0px" y="0px"
	 width="40.5px" height="32.063px" viewBox="0 0 40.5 32.063" enable-background="new 0 0 40.5 32.063" xml:space="preserve">
<g>
	<path fill="#468100" d="M23.394,6.799H3.917C1.757,6.799,0,8.561,0,10.724v11.999c0,2.163,1.757,3.922,3.917,3.922h0.322v5.418
		l5.5-5.418h13.654c2.159,0,3.916-1.759,3.916-3.922V10.724C27.31,8.561,25.553,6.799,23.394,6.799z M25.74,22.723
		c0,1.297-1.054,2.354-2.347,2.354H9.093l-3.282,3.229v-3.229H3.917c-1.294,0-2.346-1.057-2.346-2.354V10.724
		c0-1.298,1.052-2.355,2.346-2.355h19.477c1.293,0,2.347,1.058,2.347,2.355V22.723z"/>
	<path fill="#468100" d="M36.582,0H18.366c-2.161,0-3.917,1.762-3.917,3.925v1.614h1.569V3.925c0-1.298,1.053-2.354,2.348-2.354
		h18.216c1.295,0,2.347,1.057,2.347,2.354v10.74c0,1.298-1.052,2.353-2.347,2.353H34.69v3.229l-3.284-3.229h-2.837v1.57h2.191
		l5.499,5.416v-5.416h0.322c2.159,0,3.918-1.76,3.918-3.923V3.925C40.5,1.762,38.741,0,36.582,0z"/>
</g>
</svg>
