<?xml version="1.0" encoding="utf-8"?>
<!-- Generator: Adobe Illustrator 15.1.0, SVG Export Plug-In . SVG Version: 6.00 Build 0)  -->
<!DOCTYPE svg PUBLIC "-//W3C//DTD SVG 1.1//EN" "http://www.w3.org/Graphics/SVG/1.1/DTD/svg11.dtd">
<svg version="1.1" id="Layer_1" xmlns="http://www.w3.org/2000/svg" xmlns:xlink="http://www.w3.org/1999/xlink" x="0px" y="0px"
	 width="8.824px" height="14px" viewBox="0 0 8.824 14" enable-background="new 0 0 8.824 14" xml:space="preserve">
<path fill="#FFFFFF" d="M8.825,7c0,0.312-0.111,0.584-0.333,0.819l-5.859,5.85C2.412,13.889,2.142,14,1.825,14
	s-0.587-0.109-0.809-0.332l-0.683-0.674C0.111,12.762,0,12.488,0,12.176c0-0.316,0.111-0.586,0.333-0.807L4.701,7L0.333,2.641
	C0.112,2.408,0.001,2.136,0.001,1.824c0-0.317,0.111-0.587,0.333-0.809l0.683-0.674C1.232,0.114,1.502,0,1.825,0
	c0.323,0,0.593,0.114,0.809,0.342l5.859,5.85C8.714,6.413,8.825,6.683,8.825,7z"/>
</svg>
