<?xml version="1.0" encoding="utf-8"?>
<!-- Generator: Adobe Illustrator 16.0.0, SVG Export Plug-In . SVG Version: 6.00 Build 0)  -->
<!DOCTYPE svg PUBLIC "-//W3C//DTD SVG 1.1//EN" "http://www.w3.org/Graphics/SVG/1.1/DTD/svg11.dtd">
<svg version="1.1" id="Capa_1" xmlns:sketch="http://www.bohemiancoding.com/sketch/ns"
	 xmlns="http://www.w3.org/2000/svg" xmlns:xlink="http://www.w3.org/1999/xlink" x="0px" y="0px" width="25.084px"
	 height="15.999px" viewBox="0 0.7 25.084 15.999" enable-background="new 0 0.7 25.084 15.999" xml:space="preserve">
<title>Email</title>
<desc>Created with Sketch.</desc>
<g id="Page-1" sketch:type="MSPage">
	<g id="Artboard-5" transform="translate(-410.000000, -170.000000)" sketch:type="MSArtboardGroup">
		<path id="Email" sketch:type="MSShapeGroup" fill="#FFFFFF" d="M434.08,185.085l-6.516-6.494l6.516-6.494V185.085z
			 M411.803,185.699l6.425-6.401l2.777,2.767c0.41,0.41,0.957,0.635,1.536,0.635c0.58,0,1.126-0.225,1.537-0.635l2.777-2.767
			l6.423,6.401H411.803z M411.003,172.099l6.515,6.491l-6.515,6.493V172.099z M433.059,171.7l-9.69,9.657
			c-0.441,0.441-1.213,0.441-1.654,0l-9.692-9.657H433.059z M434.062,170.7H411.02h-0.201h-0.602H410v15.999h25.084V170.7h-0.869
			H434.062z"/>
	</g>
</g>
</svg>
