<?xml version="1.0" encoding="utf-8"?>
<!-- Generator: Adobe Illustrator 15.1.0, SVG Export Plug-In . SVG Version: 6.00 Build 0)  -->
<!DOCTYPE svg PUBLIC "-//W3C//DTD SVG 1.1//EN" "http://www.w3.org/Graphics/SVG/1.1/DTD/svg11.dtd">
<svg version="1.1" id="Layer_1" xmlns="http://www.w3.org/2000/svg" xmlns:xlink="http://www.w3.org/1999/xlink" x="0px" y="0px"
	 width="17px" height="17px" viewBox="0 0 17 17" enable-background="new 0 0 17 17" xml:space="preserve">
<g>
	<path fill="#666666" d="M16.62,12.504L12.617,8.5l4.002-4.003c0.504-0.506,0.506-1.324,0-1.83L14.331,0.38
		c-0.507-0.506-1.325-0.506-1.828,0L8.5,4.383L4.498,0.379c-0.506-0.506-1.324-0.507-1.83,0L0.381,2.667
		c-0.506,0.506-0.506,1.324,0,1.83L4.383,8.5l-4.004,4.004c-0.506,0.506-0.506,1.324,0,1.83l2.288,2.287
		c0.504,0.505,1.323,0.505,1.829,0L8.5,12.617l4.004,4.004c0.504,0.505,1.324,0.505,1.829,0l2.287-2.287
		C17.125,13.828,17.125,13.01,16.62,12.504z"/>
</g>
</svg>
