<?xml version="1.0" encoding="utf-8"?>
<!-- Generator: Adobe Illustrator 16.0.0, SVG Export Plug-In . SVG Version: 6.00 Build 0)  -->
<!DOCTYPE svg PUBLIC "-//W3C//DTD SVG 1.1//EN" "http://www.w3.org/Graphics/SVG/1.1/DTD/svg11.dtd">
<svg version="1.1" id="Layer_1" xmlns="http://www.w3.org/2000/svg" xmlns:xlink="http://www.w3.org/1999/xlink" x="0px" y="0px"
	 width="30px" height="30px" viewBox="0 0 30 30" enable-background="new 0 0 30 30" xml:space="preserve">
<g>
	<linearGradient id="SVGID_1_" gradientUnits="userSpaceOnUse" x1="14.9995" y1="0" x2="14.9995" y2="30.0005">
		<stop  offset="0" style="stop-color:#EF4136"/>
		<stop  offset="1" style="stop-color:#CD3630"/>
	</linearGradient>
	<path fill="url(#SVGID_1_)" d="M30,26.998C30,28.654,28.655,30,26.999,30h-24C1.339,30,0,28.654,0,26.998V3.001
		C0,1.345,1.339,0,2.999,0h24C28.655,0,30,1.345,30,3.001V26.998z"/>
	<path fill="#FFFFFF" d="M14.976,5.082c-5.434,0-9.834,4.4-9.834,9.835c0,4.026,2.42,7.491,5.885,9.008
		c-0.024-0.688,0-1.512,0.176-2.258c0.186-0.797,1.264-5.361,1.264-5.361s-0.317-0.627-0.317-1.555c0-1.455,0.848-2.547,1.901-2.547
		c0.894,0,1.323,0.672,1.323,1.477c0,0.897-0.572,2.244-0.866,3.49c-0.248,1.047,0.524,1.896,1.552,1.896
		c1.862,0,3.119-2.396,3.119-5.229c0-2.154-1.45-3.772-4.092-3.772c-2.983,0-4.843,2.226-4.843,4.712
		c0,0.854,0.251,1.462,0.646,1.931c0.186,0.211,0.206,0.299,0.144,0.545c-0.045,0.182-0.152,0.617-0.202,0.789
		c-0.063,0.252-0.266,0.34-0.489,0.248c-1.375-0.562-2.017-2.064-2.017-3.759c0-2.796,2.356-6.143,7.031-6.143
		c3.757,0,6.227,2.715,6.227,5.632c0,3.862-2.147,6.745-5.307,6.745c-1.065,0-2.063-0.578-2.402-1.227c0,0-0.572,2.268-0.698,2.705
		C12.97,23,12.56,23.76,12.19,24.352c0.887,0.26,1.818,0.402,2.786,0.402c5.433,0,9.839-4.404,9.839-9.836
		C24.814,9.482,20.408,5.082,14.976,5.082z"/>
</g>
</svg>
