<?xml version="1.0" encoding="utf-8"?>
<!-- Generator: Adobe Illustrator 16.0.0, SVG Export Plug-In . SVG Version: 6.00 Build 0)  -->
<!DOCTYPE svg PUBLIC "-//W3C//DTD SVG 1.1//EN" "http://www.w3.org/Graphics/SVG/1.1/DTD/svg11.dtd">
<svg version="1.1" id="Layer_1" xmlns="http://www.w3.org/2000/svg" xmlns:xlink="http://www.w3.org/1999/xlink" x="0px" y="0px"
	 width="30px" height="30px" viewBox="0 0 30 30" enable-background="new 0 0 30 30" xml:space="preserve">
<g>
	<linearGradient id="SVGID_1_" gradientUnits="userSpaceOnUse" x1="14.9995" y1="0" x2="14.9995" y2="30.0005">
		<stop  offset="0" style="stop-color:#F15A29"/>
		<stop  offset="1" style="stop-color:#CD3630"/>
	</linearGradient>
	<path fill="url(#SVGID_1_)" d="M30,26.998C30,28.654,28.655,30,26.999,30H2.997C1.343,30,0,28.654,0,26.998V3.001
		C0,1.345,1.343,0,2.997,0h24.002C28.655,0,30,1.345,30,3.001V26.998z"/>
	<g>
		<path fill="#FFFFFF" d="M15.002,5.963c0.182,0.114,0.387,0.277,0.615,0.496c0.218,0.224,0.432,0.503,0.642,0.835
			c0.2,0.31,0.377,0.677,0.536,1.102c0.125,0.424,0.186,0.92,0.186,1.488c-0.01,1.034-0.244,1.865-0.684,2.491
			c-0.218,0.298-0.446,0.577-0.688,0.835c-0.27,0.252-0.553,0.513-0.855,0.777c-0.176,0.177-0.332,0.381-0.479,0.605
			c-0.176,0.235-0.264,0.51-0.264,0.82c0,0.305,0.093,0.554,0.271,0.755c0.148,0.186,0.295,0.352,0.439,0.49l0.983,0.807
			c0.612,0.504,1.149,1.053,1.609,1.654c0.435,0.615,0.66,1.418,0.683,2.41c0,1.406-0.624,2.646-1.866,3.736
			c-1.288,1.119-3.144,1.701-5.57,1.736c-2.033-0.018-3.55-0.449-4.552-1.295c-1.011-0.793-1.517-1.74-1.517-2.842
			c0-0.537,0.162-1.137,0.498-1.795c0.315-0.654,0.895-1.236,1.729-1.734c0.938-0.539,1.927-0.895,2.959-1.072
			c1.025-0.152,1.875-0.236,2.555-0.258c-0.211-0.275-0.396-0.568-0.562-0.881c-0.189-0.305-0.284-0.67-0.284-1.096
			c0-0.254,0.036-0.47,0.108-0.637c0.064-0.184,0.125-0.348,0.176-0.499c-0.328,0.035-0.638,0.058-0.93,0.058
			c-1.545-0.022-2.723-0.507-3.53-1.46c-0.849-0.888-1.273-1.919-1.273-3.101c0-1.424,0.6-2.714,1.802-3.874
			c0.826-0.681,1.683-1.123,2.57-1.331c0.879-0.178,1.705-0.267,2.475-0.267h5.801L16.79,5.963H15.002z M16.122,22.66
			c0-0.734-0.24-1.377-0.717-1.922c-0.514-0.521-1.305-1.156-2.389-1.914c-0.183-0.018-0.4-0.029-0.645-0.029
			c-0.152-0.016-0.527,0-1.143,0.059c-0.596,0.086-1.211,0.221-1.839,0.41c-0.148,0.057-0.358,0.143-0.622,0.258
			c-0.27,0.121-0.541,0.295-0.82,0.52c-0.264,0.236-0.493,0.529-0.674,0.879c-0.219,0.367-0.322,0.814-0.322,1.33
			c0,1.023,0.461,1.859,1.384,2.52c0.878,0.66,2.079,1,3.603,1.021c1.37-0.021,2.411-0.322,3.128-0.906
			C15.771,24.305,16.122,23.568,16.122,22.66z M12.079,14.161c0.762-0.029,1.4-0.305,1.909-0.828
			c0.245-0.367,0.405-0.747,0.473-1.132c0.042-0.391,0.065-0.715,0.065-0.979c0-1.143-0.293-2.298-0.879-3.458
			c-0.274-0.557-0.637-1.011-1.084-1.361c-0.455-0.328-0.982-0.503-1.576-0.526c-0.783,0.022-1.44,0.336-1.962,0.951
			c-0.439,0.644-0.65,1.362-0.63,2.155c0,1.051,0.307,2.139,0.921,3.277c0.301,0.528,0.682,0.979,1.151,1.347
			C10.937,13.974,11.474,14.161,12.079,14.161z"/>
		<polygon fill="#FFFFFF" points="26.441,8.085 23.396,8.085 23.396,5.041 21.923,5.041 21.923,8.085 18.876,8.085 18.876,9.562 
			21.923,9.562 21.923,12.602 23.396,12.602 23.396,9.562 26.441,9.562 		"/>
	</g>
</g>
</svg>
