<?xml version="1.0" encoding="utf-8"?>
<!-- Generator: Adobe Illustrator 16.0.0, SVG Export Plug-In . SVG Version: 6.00 Build 0)  -->
<!DOCTYPE svg PUBLIC "-//W3C//DTD SVG 1.1//EN" "http://www.w3.org/Graphics/SVG/1.1/DTD/svg11.dtd">
<svg version="1.1" id="Layer_1" xmlns="http://www.w3.org/2000/svg" xmlns:xlink="http://www.w3.org/1999/xlink" x="0px" y="0px"
	 width="62px" height="62px" viewBox="0 0 62 62" enable-background="new 0 0 62 62" xml:space="preserve">
<g>
	<polygon fill="#EF4823" points="0,0 0,62 62,0 	"/>
	<g>
		<path fill="#FFFFFF" d="M6.637,45.446l-5.273-5.27l1.629-1.627l5.285,5.281c0.953,0.953,1.967,1,2.823,0.145
			c0.845-0.844,0.796-1.857-0.157-2.811l-5.284-5.281l1.629-1.627l5.272,5.27c1.858,1.857,1.773,4.064-0.036,5.873
			C10.702,47.219,8.494,47.303,6.637,45.446z"/>
		<path fill="#FFFFFF" d="M20.478,37.161l-4.138-1.676l-0.869,0.867l2.907,2.906l-1.616,1.615l-8.048-8.043l3.004-3.002
			c1.473-1.472,3.512-1.388,4.995,0.096c1.389,1.387,1.352,2.823,0.905,3.704l4.657,1.736L20.478,37.161z M15.084,31.601
			c-0.699-0.699-1.557-0.735-2.184-0.108l-1.146,1.146l2.293,2.291l1.146-1.145C15.82,33.157,15.784,32.3,15.084,31.601z"/>
		<path fill="#FFFFFF" d="M19.068,30.538c-2.51-2.508-2.799-5.523-0.76-7.561c1.399-1.399,3.1-1.387,4.523-0.832l-0.699,1.93
			c-0.82-0.313-1.725-0.326-2.389,0.337c-1.025,1.025-0.736,2.737,0.99,4.462c1.725,1.725,3.438,2.015,4.463,0.989
			c0.531-0.531,0.761-1.193,0.736-1.701l-1.219-1.218l-1.508,1.508l-1.424-1.423l3.041-3.039l3.281,3.281
			c0.121,1.471-0.289,2.845-1.472,4.027C24.595,33.334,21.566,33.034,19.068,30.538z"/>
		<path fill="#FFFFFF" d="M30.485,27.158l-8.048-8.044l4.609-4.605l1.423,1.422l-2.993,2.992l1.822,1.82l2.908-2.906l1.423,1.424
			l-2.908,2.906l1.955,1.953l2.992-2.992l1.424,1.424L30.485,27.158z"/>
		<path fill="#FFFFFF" d="M40.646,17.004l-7.494-2.013l4.754,4.75l-1.615,1.615l-8.048-8.043l1.641-1.64l7.216,1.953l-4.586-4.583
			l1.629-1.627l8.049,8.043L40.646,17.004z"/>
		<path fill="#FFFFFF" d="M44.943,12.708l-6.623-6.62l-1.787,1.785L35.109,6.45l5.189-5.186l1.424,1.423l-1.787,1.784l6.625,6.621
			L44.943,12.708z"/>
	</g>
</g>
</svg>
