<svg xmlns="http://www.w3.org/2000/svg" width="26.2" height="23.9"><path fill="#468100" d="M25.3 17.2l-.1-.2-.1-.1-2.5-2.1-6.5-5.4 3.8-3.8 1.5 1.5 1.6-1.6-4.7-4.7-1.6 1.6 1.5 1.5-3.9 3.9-3.6-2.8h-.2c-.1 0-.4 0-1.2.8-.4.4-.3 1.5 0 1.9.2.2.5.6.8.9l1.5 1.8-3.1 3.1-2.6-2.3-.5.5-.3.3-.2.2c-.6.6-1.2 1.2-1.8 1.9l-.4.4c-.4.4-.7.7-1 1.2-1.3 1.9-1.4 4-.4 6.1.1.2.3.4.5.5.9.5 1.9.8 2.9.8 1.2 0 2.4-.4 3.4-1.2.7-.5 1.3-1.1 1.9-1.7.2-.2.4-.4.7-.6l1-1 .8-.8-2.2-2.6 2.9-2.9 5.4 6.4c.7.8 1.4 1.6 2.1 2.5.2.3.6.4.8.4.4.1.5.1.5.1l1.5.1.9.1h.1c.4 0 .7-.1.9-.4.2-.3.4-.6.3-1l-.2-2.2c-.1-.1-.1-.8-.2-1.1z"/><path fill="#468100" d="M7.9 6h.2c.2 0 .5-.1.6-.2l.4-.4.3-.3c.3-.2.6-.6.3-1.1l-.6-1.2-.3-.7c0-.1-.1-.2-.2-.3l-.4-.9-3.6 3.5 1.3.6c.6.4 1.3.7 2 1z"/></svg>