<svg xmlns="http://www.w3.org/2000/svg" width="70" height="20"><path fill="#939492" d="M70.042 18c0 1.104-.896 2-2 2h-66.042c-1.104 0-2-.896-2-2v-16c0-1.104.896-2 2-2h66.042c1.104 0 2 .896 2 2v16z"/><path fill="#fff" d="M6.429 8.672l-.75-2.753h-1.102l1.351 4.204v2.854h1.001v-2.854l1.301-4.204h-1.051l-.75 2.753zm3.468-.978c-.13-.024-.306-.024-.441.002-.327.061-.913.269-1.125.976 0 0-.05.35-.05.5v2.501s.012.429.25.804c.18.282.491.532.991.588.067.008.288.006.368-.006.472-.064.77-.309.943-.582.237-.375.25-.804.25-.804v-2.501c0-.15-.049-.5-.049-.5-.216-.715-.812-.919-1.137-.978zm.235 1.478v2.501c0 .603-.45.552-.45.552s-.5.051-.5-.552v-2.501c0-.701.5-.65.5-.65.501 0 .45.65.45.65zm3.554-1.451v4.055c-.15.351-.55.449-.55.449-.351 0-.3-.248-.3-.248v-4.256h-.952v4.555s.25.802.751.802c.5 0 1.051-.65 1.051-.65v.601h.951v-5.308h-.951z"/><path fill="#fff" d="M29.829 9.148s-.05-.555-.454-.555-.505.455-.505.555v.657h.958l.001-.657zm.655-4.692c-1.159-.203-2.474-.152-6.658-.203-2.827 0-4.246.05-4.44.05-1.817.104-3.079-.15-3.533 1.818-.202 1.109-.302 2.522-.302 3.606.1 2.348-.101 5.169 2.167 5.375 1.163.103 4.19.15 6.185.15 2.723 0 5.676-.051 6.685-.254.443-.107.832-.564.959-.756.591-.791.603-1.984.654-4.541-.099-2.169.049-4.993-1.717-5.245zm-10.04 2.522h-1.158v6.108h-1.062v-6.108h-1.108v-1.059h3.331c-.003 0 .048 1.059-.003 1.059zm2.978 6.158h-.959v-.608s-.504.658-1.059.658c-.556 0-.76-.354-.76-1.01v-4.389h.958v4.289s0 .201.254.201c.251 0 .605-.355.605-.455v-4.035h.959l.002 5.349zm3.684-.96s-.104 1.01-.709 1.01-.958-.354-1.158-.604v.555h-.959v-7.168h.959v2.322s.503-.607.958-.607c.455 0 .909.303.909.959v3.533zm3.631 0c-.149.91-1.263 1.01-1.263 1.01-1.613 0-1.563-1.514-1.563-1.514v-2.523c0-.203.1-.505.1-.505.104-.302.204-.909 1.413-.909 1.414 0 1.364 1.414 1.364 1.414v1.465h-1.918v1.059c0 .302.15.604.554.604l.404-.604v-.403h.959c.001-.002.05.248-.05.906zm-4.993-3.582c-.253 0-.455.202-.455.202v3.28c.149.201.455.201.455.201.404 0 .404-.455.404-.455v-2.674s-.154-.554-.404-.554z"/></svg>