<?xml version="1.0" encoding="UTF-8" standalone="no"?>
<svg width="17px" height="16px" viewBox="0 0 17 16" version="1.1" xmlns="http://www.w3.org/2000/svg" xmlns:xlink="http://www.w3.org/1999/xlink" xmlns:sketch="http://www.bohemiancoding.com/sketch/ns">
    <!-- Generator: Sketch 3.1.1 (8761) - http://www.bohemiancoding.com/sketch -->
    <title>Check-premium</title>
    <desc>Created with Sketch.</desc>
    <defs></defs>
    <g id="Page-1" stroke="none" stroke-width="1" fill="none" fill-rule="evenodd" sketch:type="MSPage">
        <g id="Artboard-4" sketch:type="MSArtboardGroup" transform="translate(-427.000000, -1431.000000)" fill="#AACD38">
            <path d="M443.487842,1438.96538 C442.984346,1438.47842 442.872179,1437.73698 443.210903,1437.13489 C443.452566,1436.70531 443.469443,1436.19315 443.256511,1435.75008 C443.043578,1435.30697 442.625288,1434.98373 442.125414,1434.87599 C441.424791,1434.72503 440.908617,1434.15892 440.851113,1433.47832 C440.810075,1432.9928 440.532929,1432.55329 440.101714,1432.2899 C439.67054,1432.02658 439.134731,1431.96955 438.652968,1432.13577 C437.977702,1432.36872 437.221469,1432.15771 436.785932,1431.61477 C436.475157,1431.22736 435.991995,1431 435.479443,1431 C434.966932,1431 434.483728,1431.22736 434.172954,1431.61473 C433.737416,1432.15767 432.981184,1432.36868 432.305958,1432.13573 C431.824155,1431.96951 431.288305,1432.02654 430.857172,1432.28986 C430.425956,1432.55321 430.148811,1432.99276 430.107772,1433.47828 C430.050268,1434.15885 429.534094,1434.72495 428.833472,1434.87595 C428.333639,1434.98369 427.915307,1435.30693 427.702375,1435.75004 C427.489443,1436.19311 427.506319,1436.70527 427.748024,1437.13485 C428.086748,1437.73694 427.974581,1438.47838 427.471043,1438.96534 C427.11182,1439.3128 426.943796,1439.79969 427.016736,1440.28184 C427.089675,1440.76399 427.395222,1441.18617 427.842903,1441.42339 C428.470339,1441.75583 428.797784,1442.43718 428.651247,1443.10558 C428.546736,1443.58245 428.682365,1444.07838 429.018002,1444.44653 C429.353639,1444.81465 429.850796,1445.01283 430.36236,1444.98232 C431.079365,1444.9396 431.742406,1445.34457 431.999382,1445.98218 C432.182678,1446.43707 432.578946,1446.78457 433.070712,1446.92184 C433.562477,1447.05907 434.093511,1446.97027 434.506491,1446.6818 C435.085314,1446.27746 435.87353,1446.27746 436.452353,1446.6818 C436.865334,1446.97027 437.396368,1447.05907 437.888133,1446.92184 C438.379939,1446.78457 438.776126,1446.43707 438.959462,1445.98218 C439.216397,1445.34457 439.879479,1444.93964 440.596484,1444.98232 C441.108007,1445.01279 441.605205,1444.81465 441.940842,1444.44653 C442.276479,1444.07838 442.412109,1443.58245 442.307598,1443.10558 C442.161019,1442.43718 442.488465,1441.75583 443.115942,1441.42339 C443.563622,1441.18621 443.869169,1440.76403 443.942109,1440.28184 C444.015048,1439.79973 443.847065,1439.31284 443.487842,1438.96538 L443.487842,1438.96538 Z M434.073135,1442.91875 L430.467571,1439.49119 L432.002799,1438.0319 L434.073053,1439.99998 L438.852646,1435.45755 L440.388532,1436.91624 L434.073135,1442.91875 L434.073135,1442.91875 Z" id="Check-premium" sketch:type="MSShapeGroup"></path>
        </g>
    </g>
</svg>
