<?xml version="1.0" encoding="UTF-8" standalone="no"?>
<svg width="18px" height="19px" viewBox="0 0 18 19" version="1.1" xmlns="http://www.w3.org/2000/svg" xmlns:xlink="http://www.w3.org/1999/xlink" xmlns:sketch="http://www.bohemiancoding.com/sketch/ns">
    <!-- Generator: Sketch 3.1 (8751) - http://www.bohemiancoding.com/sketch -->
    <title>Glass</title>
    <desc>Created with Sketch.</desc>
    <defs></defs>
    <g id="Page-1" stroke="none" stroke-width="1" fill="none" fill-rule="evenodd" sketch:type="MSPage">
        <g id="Artboard-5" sketch:type="MSArtboardGroup" transform="translate(-323.000000, -169.000000)" fill="#4A4A4A">
            <path d="M325.601615,181.13246 C323.168243,178.698446 323.168243,174.738446 325.601615,172.30495 C326.780742,171.126532 328.349456,170.476978 330.017122,170.476978 C331.684787,170.476978 333.252984,171.126014 334.431592,172.30495 C336.864964,174.738446 336.864964,178.698446 334.431592,181.13246 C333.252984,182.311396 331.684787,182.96095 330.016604,182.96095 C328.349456,182.96095 326.780742,182.311396 325.601615,181.13246 M340.698678,186.343396 L335.479128,181.125727 C337.704237,178.371597 337.539491,174.313698 334.980745,171.755367 C333.655524,170.429842 331.892533,169.7 330.017122,169.7 C328.14171,169.7 326.378202,170.429842 325.051944,171.755885 C322.316019,174.492403 322.316019,178.945007 325.051944,181.682043 C326.378202,183.007568 328.141192,183.737928 330.016604,183.737928 C331.640751,183.737928 333.179418,183.188345 334.423821,182.180345 L339.643371,187.398014 C339.99514,187.750763 340.521499,187.802043 340.811618,187.511453 C341.102254,187.221381 341.050448,186.696144 340.698678,186.343396" id="Glass" sketch:type="MSShapeGroup"></path>
        </g>
    </g>
</svg>