<svg xmlns="http://www.w3.org/2000/svg" width="62" height="20"><path fill="#939492" d="M62 18c0 1.104-.896 2-2 2h-58c-1.104 0-2-.896-2-2v-16c0-1.104.896-2 2-2h58c1.104 0 2 .896 2 2v16z"/><path d="M17.418 15.479h-.093l-2.201.002c-.083 0-.098-.027-.098-.102.001-1.325.002-2.648 0-3.972-.001-.347-.034-.692-.172-1.015-.162-.377-.453-.576-.857-.619-.279-.029-.55-.003-.812.101-.292.117-.485.335-.605.619-.117.274-.173.567-.175.864-.008 1.334-.011 2.666-.017 4 0 .138.014.119-.123.119l-2.153.004c-.082 0-.1-.024-.1-.103l.002-7.417c0-.105.001-.107.104-.107h2.074c.1 0 .101.003.101.102l.001.861.005.103.198-.287c.194-.261.441-.463.724-.62.391-.219.81-.325 1.258-.335.456-.009.9.036 1.332.188.485.172.857.479 1.121.92.211.354.324.742.388 1.144.04.252.073.51.079.766.014.776.016 1.555.019 2.331v2.453zm-11.244 0v-7.519c0-.104.001-.104.109-.104h2.154c.113 0 .113 0 .113.113v7.401c0 .108 0 .108-.104.108h-2.17l-.102.001zm-.188-10.023c-.014-.75.625-1.384 1.375-1.38.762.003 1.39.609 1.388 1.379-.003.774-.592 1.378-1.384 1.384-.777.006-1.382-.617-1.379-1.383z" fill="#fff"/></svg>