<?xml version="1.0" encoding="utf-8"?>
<!-- Generator: Adobe Illustrator 16.0.4, SVG Export Plug-In . SVG Version: 6.00 Build 0)  -->
<!DOCTYPE svg PUBLIC "-//W3C//DTD SVG 1.1//EN" "http://www.w3.org/Graphics/SVG/1.1/DTD/svg11.dtd">
<svg version="1.1" id="Capa_1" xmlns:sketch="http://www.bohemiancoding.com/sketch/ns"
	 xmlns="http://www.w3.org/2000/svg" xmlns:xlink="http://www.w3.org/1999/xlink" x="0px" y="0px" width="14.688px"
	 height="11.78px" viewBox="0 -0.456 14.688 11.78" enable-background="new 0 -0.456 14.688 11.78" xml:space="preserve">
<g>
	<rect x="4.689" y="0.433" fill="#989898" width="10" height="2"/>
	<rect x="4.689" y="4.433" fill="#989898" width="10" height="2"/>
	<rect x="4.689" y="8.435" fill="#989898" width="10" height="2"/>
</g>
<g>
	<path fill="#989898" d="M1.202,0.518V0.191C1.511,0.16,1.724,0.11,1.846,0.04c0.122-0.071,0.21-0.235,0.269-0.497h0.333v3.362
		H1.997V0.514H1.202V0.518z"/>
	<path fill="#989898" d="M0.922,6.31c0.096-0.199,0.283-0.379,0.562-0.539l0.418-0.243C2.086,5.421,2.214,5.33,2.287,5.251
		C2.408,5.132,2.47,4.996,2.47,4.841c0-0.179-0.053-0.321-0.163-0.428C2.199,4.307,2.051,4.255,1.873,4.255
		c-0.268,0-0.453,0.102-0.554,0.302c-0.056,0.106-0.085,0.258-0.09,0.45H0.835c0.003-0.27,0.053-0.487,0.149-0.657
		C1.149,4.047,1.449,3.9,1.875,3.9c0.352,0,0.613,0.094,0.777,0.287C2.813,4.378,2.894,4.59,2.894,4.825
		c0,0.248-0.085,0.459-0.259,0.634C2.532,5.563,2.353,5.684,2.091,5.831L1.792,5.995c-0.14,0.078-0.251,0.15-0.33,0.219
		C1.317,6.341,1.23,6.48,1.191,6.634h1.688v0.367H0.758C0.771,6.738,0.827,6.505,0.922,6.31z"/>
	<path fill="#989898" d="M0.962,11.011c-0.171-0.209-0.256-0.465-0.256-0.762h0.419C1.14,10.456,1.18,10.609,1.24,10.7
		c0.105,0.17,0.295,0.254,0.565,0.254c0.212,0,0.384-0.055,0.51-0.17c0.129-0.115,0.193-0.258,0.193-0.438
		c0-0.219-0.068-0.375-0.199-0.463C2.172,9.798,1.987,9.751,1.748,9.751c-0.029,0-0.056,0-0.085,0c-0.026,0-0.052,0-0.084,0.002
		V9.398c0.04,0.006,0.075,0.01,0.104,0.012c0.028,0,0.062,0,0.091,0c0.151,0,0.274-0.023,0.371-0.07
		c0.168-0.084,0.253-0.234,0.253-0.447c0-0.16-0.056-0.283-0.169-0.371C2.115,8.433,1.983,8.39,1.836,8.39
		c-0.269,0-0.456,0.092-0.557,0.268c-0.056,0.1-0.09,0.24-0.094,0.424h-0.4c0-0.242,0.048-0.441,0.143-0.609
		c0.165-0.297,0.454-0.441,0.868-0.441c0.327,0,0.579,0.072,0.759,0.215c0.18,0.145,0.267,0.355,0.267,0.631
		c0,0.197-0.052,0.357-0.159,0.48C2.599,9.433,2.514,9.495,2.41,9.538c0.168,0.043,0.302,0.135,0.395,0.266
		c0.091,0.133,0.142,0.293,0.142,0.484c0,0.305-0.102,0.553-0.304,0.746c-0.202,0.191-0.485,0.289-0.856,0.289
		C1.406,11.325,1.133,11.224,0.962,11.011z"/>
</g>
</svg>
