<?xml version="1.0" encoding="utf-8"?>
<!-- Generator: Adobe Illustrator 16.0.0, SVG Export Plug-In . SVG Version: 6.00 Build 0)  -->
<!DOCTYPE svg PUBLIC "-//W3C//DTD SVG 1.1//EN" "http://www.w3.org/Graphics/SVG/1.1/DTD/svg11.dtd">
<svg version="1.1" id="Layer_1" xmlns="http://www.w3.org/2000/svg" xmlns:xlink="http://www.w3.org/1999/xlink" x="0px" y="0px"
	 width="16px" height="28px" viewBox="0 0 16 28" enable-background="new 0 0 16 28" xml:space="preserve">
<path fill="#FFFFFF" d="M15.281,18.516c0,1.677-0.645,3.245-1.846,4.42c-0.594,0.582-1.298,1.042-2.065,1.359
	c-0.492,0.203-1.683,0.195-1.683,0.755c0,0.675,0.236,1.822,0,2.45c0,0.819-2.073,0.5-2.568,0.5c-0.846,0-0.542-1.775-0.542-2.271
	c0-0.188,0.107-0.801,0-0.963c-1.125-0.153-2.227-0.501-3.245-1.003c-0.629-0.311-3.162-1.593-2.442-2.536
	c0.424-0.557,0.943-1.639,1.531-2.007c0.352-0.497,0.843,0.062,1.121,0.283c0.679,0.543,1.433,0.997,2.246,1.309
	c1.538,0.59,3.576,0.8,4.872-0.44c3.029-2.898-3.489-4.78-5.207-5.549c-2.899-1.296-5.212-3.893-4.147-7.273
	c0.498-1.58,1.763-2.852,3.231-3.57c0.203-0.099,2.04-0.688,2.04-0.697c0-0.458,0-0.916,0-1.374c0-0.361-0.143-1.069,0-1.406
	c0-0.697,1.144-0.5,1.554-0.5c0.418,0,1.554-0.199,1.554,0.5c0.172,0.455,0,1.299,0,1.782c0,0.993-0.14,0.893,0.877,1.104
	c1.133,0.236,2.249,0.667,3.201,1.331c0.48,0.338,1.219,0.725,0.848,1.393c-0.349,0.628-0.698,1.257-1.047,1.885
	c-0.396,0.715-0.789,0.465-1.398,0.05c-0.997-0.68-2.123-1.197-3.338-1.307c-1.091-0.099-2.325,0.11-3.149,0.887
	c-0.81,0.763-0.9,2.118-0.057,2.897C8.721,13.402,15.268,12.928,15.281,18.516z"/>
</svg>
