<svg width="8" height="14" viewBox="0 0 8 14" xmlns="http://www.w3.org/2000/svg"><title></title><desc>Created with Sketch.</desc><path d="M7.436 3.68c.101.112.12.235.059.37l-4.537 9.72c-.073.14-.19.21-.353.21l-.118-.017c-.095-.028-.167-.081-.214-.16-.048-.078-.06-.162-.038-.252l1.655-6.788-3.411.849-.101.008c-.101 0-.188-.031-.26-.092-.101-.084-.137-.193-.109-.328l1.689-6.931c.022-.078.067-.143.134-.193.067-.05.146-.076.235-.076h2.756c.106 0 .196.035.269.105.073.07.109.153.109.248l-.042.151-1.437 3.89 3.327-.823.101-.017c.106 0 .202.042.286.126z" fill="#fff"/></svg>