<svg width="11" height="9" viewBox="0 0 11 9" xmlns="http://www.w3.org/2000/svg"><title>Shape</title><desc>Created with Sketch.</desc><path d="M7.65 0c-.241 0-.486.042-.736.125-.25.083-.483.196-.699.338-.215.142-.401.275-.556.399-.155.124-.303.256-.442.396-.14-.14-.287-.272-.442-.396-.155-.124-.341-.257-.556-.399-.215-.142-.448-.254-.699-.338-.25-.083-.496-.125-.736-.125-.869 0-1.551.241-2.044.722-.493.481-.739 1.149-.739 2.003 0 .26.046.528.137.803.091.276.195.51.311.704.116.194.248.383.396.568l.323.381.16.151 3.633 3.505c.07.07.155.105.256.105s.186-.035.256-.105l3.627-3.493c.889-.889 1.333-1.762 1.333-2.62 0-.854-.247-1.521-.739-2.003-.493-.481-1.174-.722-2.044-.722z" fill="#fff"/></svg>