<svg width="11" height="9" viewBox="0 0 11 9" xmlns="http://www.w3.org/2000/svg"><title>Shape</title><desc>Created with Sketch.</desc><path d="M7.812.496c-.797-.331-1.668-.496-2.612-.496-.704 0-1.377.098-2.02.293-.642.195-1.196.459-1.66.792-.464.333-.834.728-1.109 1.187-.275.458-.412.939-.412 1.442 0 .58.175 1.124.525 1.631.35.507.829.932 1.436 1.277-.043.155-.093.302-.151.441l-.157.342-.189.296-.18.229-.2.221-.18.2-.046.052-.041.049-.035.052-.026.055-.012.058.003.07c.016.075.049.131.102.174.052.043.111.06.177.052.252-.031.472-.073.662-.128 1.014-.259 1.904-.727 2.67-1.405.29.031.571.046.841.046.944 0 1.815-.165 2.612-.496.797-.331 1.428-.781 1.892-1.352.464-.57.696-1.192.696-1.866 0-.673-.232-1.295-.696-1.866-.464-.571-1.095-1.021-1.892-1.352z" fill="#fff"/></svg>