<?xml version="1.0" encoding="utf-8"?>
<!-- Generator: Adobe Illustrator 14.0.0, SVG Export Plug-In . SVG Version: 6.00 Build 43363)  -->
<!DOCTYPE svg PUBLIC "-//W3C//DTD SVG 1.1//EN" "http://www.w3.org/Graphics/SVG/1.1/DTD/svg11.dtd">
<svg version="1.1" id="Layer_1" xmlns="http://www.w3.org/2000/svg" xmlns:xlink="http://www.w3.org/1999/xlink" x="0px" y="0px"
	 width="20px" height="16px" viewBox="0 0 20 16" enable-background="new 0 0 20 16" xml:space="preserve">
<g>
	<path fill="#1E98D5" d="M19.998,5.158v9.023c0,0.5-0.175,0.928-0.523,1.284C19.125,15.822,18.705,16,18.213,16H1.786
		c-0.491,0-0.912-0.178-1.261-0.533c-0.35-0.355-0.523-0.785-0.523-1.285V5.158C0.33,5.531,0.704,5.86,1.127,6.148
		c2.694,1.863,4.542,3.168,5.549,3.918c0.422,0.318,0.767,0.566,1.032,0.744c0.264,0.181,0.616,0.361,1.054,0.547
		c0.44,0.187,0.848,0.278,1.229,0.279h0.022c0.378,0,0.787-0.094,1.228-0.279c0.438-0.188,0.792-0.366,1.055-0.547
		c0.265-0.177,0.608-0.424,1.031-0.744c1.266-0.93,3.118-2.238,5.557-3.919C19.307,5.852,19.68,5.523,20,5.158H19.998z
		 M19.998,1.818c0,0.599-0.182,1.171-0.547,1.716c-0.364,0.545-0.815,1.01-1.361,1.397c-2.798,1.978-4.538,3.208-5.222,3.694
		c-0.076,0.052-0.233,0.168-0.476,0.346c-0.242,0.18-0.441,0.323-0.603,0.434c-0.16,0.109-0.354,0.231-0.58,0.369
		c-0.229,0.135-0.442,0.238-0.642,0.307c-0.201,0.068-0.388,0.104-0.561,0.104H9.987c-0.169,0-0.355-0.035-0.556-0.104
		c-0.2-0.066-0.415-0.172-0.642-0.307c-0.228-0.138-0.422-0.26-0.58-0.369c-0.16-0.109-0.36-0.254-0.604-0.434
		C7.364,8.793,7.207,8.677,7.131,8.625C6.454,8.14,5.479,7.448,4.207,6.552c-1.272-0.9-2.035-1.437-2.288-1.621
		c-0.46-0.317-0.895-0.755-1.306-1.313C0.204,3.062,0,2.544,0,2.067C0,1.475,0.154,0.982,0.462,0.59C0.773,0.196,1.213,0,1.785,0
		h16.427c0.485,0,0.902,0.176,1.254,0.532C19.82,0.889,19.997,1.316,19.998,1.818L19.998,1.818z"/>
</g>
</svg>
