<svg xmlns="http://www.w3.org/2000/svg" width="75" height="75"><linearGradient id="a" gradientUnits="userSpaceOnUse" x1="37.501" y1="75" x2="37.501"><stop offset="0" stop-color="#C9B444"/><stop offset="1" stop-color="#F7E676"/></linearGradient><path fill="url(#a)" d="M75 72c0 1.657-1.344 3-3 3h-69c-1.657 0-3-1.343-3-3v-69c0-1.656 1.343-3 3-3h69c1.656 0 3 1.344 3 3v69z"/><linearGradient id="b" gradientUnits="userSpaceOnUse" x1="37.501" y1="33" x2="37.501"><stop offset="0" stop-color="#fff" stop-opacity=".2"/><stop offset="1" stop-color="#fff" stop-opacity="0"/></linearGradient><path fill="url(#b)" d="M75 3c0-1.656-1.344-3-3-3h-69c-1.657 0-3 1.344-3 3v30h75v-30z"/><path fill="#fff" d="M38.49 17.888c-10.484-.376-19.509 8.386-19.902 19.322-.376 10.479 8.389 19.508 19.32 19.902 10.477.377 19.697-8.372 19.847-19.321.143-10.644-7.788-19.365-19.265-19.903zm-.595 32.834c-3.068.019-3.068.003-3.066-3.737.002-3.005.002-3.005 3.803-3.003 2.941.002 2.941.002 2.941 3.437-.018 3.785.318 3.28-3.678 3.303zm4.086-17.782l-.401 7.158c.018 1.123-.447 1.537-1.574 1.613-5.148.348-5.159.376-5.316-4.709-.111-3.617-.141-7.236-.291-10.852-.059-1.42.42-1.998 1.87-1.896 1.36.095 2.734.075 4.097.006 1.283-.066 1.662.514 1.633 1.713-.059 2.322-.025 4.787-.018 6.967z"/></svg>