<?xml version="1.0" encoding="utf-8"?>
<!-- Generator: Adobe Illustrator 16.0.4, SVG Export Plug-In . SVG Version: 6.00 Build 0)  -->
<!DOCTYPE svg PUBLIC "-//W3C//DTD SVG 1.1//EN" "http://www.w3.org/Graphics/SVG/1.1/DTD/svg11.dtd">
<svg version="1.1" id="Capa_1" xmlns:sketch="http://www.bohemiancoding.com/sketch/ns"
	 xmlns="http://www.w3.org/2000/svg" xmlns:xlink="http://www.w3.org/1999/xlink" x="0px" y="0px" width="14px" height="10px"
	 viewBox="0 0 14 10" enable-background="new 0 0 14 10" xml:space="preserve">
<g id="Page-1_1_" sketch:type="MSPage">
	<path id="list-points" sketch:type="MSShapeGroup" fill="#989898" d="M4,0v2h10V0H4z M1,2c0.553,0,1-0.447,1-1c0-0.552-0.447-1-1-1
		C0.449,0,0,0.448,0,1C0,1.552,0.449,2,1,2z M1,6c0.553,0,1-0.447,1-1c0-0.552-0.447-1-1-1C0.449,4,0,4.448,0,5C0,5.552,0.449,6,1,6
		z M1,10c0.553,0,1-0.447,1-1S1.553,8,1,8C0.449,8,0,8.447,0,9S0.449,10,1,10z M4,4v2h10V4H4z M4,8v2h10V8H4z"/>
</g>
</svg>
