<?xml version="1.0" encoding="utf-8"?>
<!-- Generator: Adobe Illustrator 16.0.4, SVG Export Plug-In . SVG Version: 6.00 Build 0)  -->
<!DOCTYPE svg PUBLIC "-//W3C//DTD SVG 1.1//EN" "http://www.w3.org/Graphics/SVG/1.1/DTD/svg11.dtd">
<svg version="1.1" id="Capa_1" xmlns:sketch="http://www.bohemiancoding.com/sketch/ns"
	 xmlns="http://www.w3.org/2000/svg" xmlns:xlink="http://www.w3.org/1999/xlink" x="0px" y="0px" width="20px" height="20px"
	 viewBox="0 0 20 20" enable-background="new 0 0 20 20" xml:space="preserve">
<title>Shape 3</title>
<desc>Created with Sketch.</desc>
<g id="Page-1" sketch:type="MSPage">
	<g id="Artboard-3" transform="translate(-975.000000, -1329.000000)" sketch:type="MSArtboardGroup">
		<path id="Shape-3" sketch:type="MSShapeGroup" fill="#FFFFFF" d="M988.419,1341.137l-1.4,1.402l0.354,0.354l0.242-0.438
			c-0.133-0.074-0.189-0.105-0.273-0.152c-1.451-0.807-2.26-1.355-3.26-2.359c-1.003-1.005-1.549-1.812-2.357-3.271
			c-0.077-0.139-0.115-0.208-0.154-0.275l-0.435,0.247l0.354,0.354l0.939-0.941l0.463-0.464c0.765-0.767,0.787-2.002,0.037-2.754
			l-2.78-2.787c-0.751-0.753-1.985-0.729-2.752,0.039l0.354,0.353l-0.271-0.42c-0.228,0.147-0.544,0.423-0.856,0.834
			c-0.031,0.041-0.031,0.041-0.062,0.083c-0.237,0.329-0.379,0.564-0.496,0.816c-0.029,0.063-0.057,0.127-0.087,0.2
			c-0.027,0.066-0.05,0.125-0.102,0.257c-0.167,0.439-0.271,0.859-0.318,1.283c-0.389,3.228,1.068,6.148,4.94,10.029
			c2.345,2.351,4.675,3.789,6.891,4.498c1.383,0.442,2.449,0.531,3.119,0.46c0.444-0.054,0.863-0.159,1.285-0.323
			c0.459-0.18,0.889-0.423,1.262-0.717l0.846-0.793c0.775-0.779,0.798-2.012,0.049-2.766l-2.781-2.787
			C990.418,1340.346,989.184,1340.369,988.419,1341.137z M993.242,1344.59c0.355,0.357,0.344,0.961-0.037,1.344l-0.799,0.753
			c-0.263,0.203-0.606,0.398-0.975,0.542c-0.344,0.135-0.68,0.219-1.035,0.262c-0.138,0.014-0.389,0.019-0.742-0.012
			c-0.579-0.048-1.236-0.176-1.959-0.408c-2.062-0.659-4.254-2.013-6.487-4.251c-3.677-3.685-5-6.338-4.655-9.207
			c0.039-0.342,0.123-0.682,0.259-1.04c0.049-0.126,0.07-0.179,0.093-0.237c0.025-0.06,0.047-0.111,0.069-0.159
			c0.088-0.189,0.198-0.372,0.399-0.651c0.023-0.032,0.023-0.032,0.047-0.063c0.235-0.309,0.466-0.51,0.603-0.599l0.082-0.067
			c0.381-0.382,0.982-0.393,1.336-0.039l2.78,2.787c0.355,0.356,0.344,0.959-0.038,1.342l-0.462,0.464l-0.939,0.94l-0.27,0.27
			l0.188,0.331c0.035,0.062,0.071,0.126,0.148,0.266c0.85,1.534,1.441,2.408,2.524,3.494c1.081,1.084,1.956,1.679,3.48,2.525
			c0.084,0.047,0.141,0.079,0.276,0.154l0.33,0.184l0.267-0.268l1.4-1.404c0.381-0.381,0.98-0.393,1.336-0.037L993.242,1344.59z"/>
	</g>
</g>
</svg>
