<?xml version="1.0" encoding="utf-8"?>
<!-- Generator: Adobe Illustrator 16.0.0, SVG Export Plug-In . SVG Version: 6.00 Build 0)  -->
<!DOCTYPE svg PUBLIC "-//W3C//DTD SVG 1.1//EN" "http://www.w3.org/Graphics/SVG/1.1/DTD/svg11.dtd">
<svg version="1.1" id="Layer_1" xmlns="http://www.w3.org/2000/svg" xmlns:xlink="http://www.w3.org/1999/xlink" x="0px" y="0px"
	 width="45px" height="45px" viewBox="0 0 45 45" enable-background="new 0 0 45 45" xml:space="preserve">
<g>
	<path fill="#2697D4" d="M45.022,22.502C45.022,34.928,34.946,45,22.523,45C10.098,45,0.022,34.928,0.022,22.502
		c0-12.424,10.076-22.498,22.501-22.498C34.946,0.004,45.022,10.078,45.022,22.502z"/>
	<g id="WRKMVo_8_">
		<g>
			<path fill-rule="evenodd" clip-rule="evenodd" fill="#FFFFFF" d="M40.051,16.942c-0.644-1.821-1.669-3.488-3.412-4.398
				c-1.989,1.056-2.536,1.41-4.512,2.493c-1.466,0.804-2.911,1.277-4.584,1.124c-0.885-0.08-1.784-0.02-2.677-0.008
				c-0.642,0.008-1.264,0.138-1.589,0.762c-1.005,1.913-1.99,3.839-2.961,5.771c-0.243,0.479-0.281,1.01,0.016,1.484
				c0.436,0.695,1.114,1.004,1.914,1.026c0.769,0.022,1.301-0.384,1.646-1.04c0.559-1.064,1.101-2.137,1.651-3.204
				c0.077-0.148,0.164-0.288,0.256-0.448c0.17,0.103,0.303,0.181,0.432,0.264c2.671,1.689,5.342,3.374,8.001,5.081
				c0.335,0.214,0.582,0.216,0.931,0.046c1.73-0.834,3.465-1.66,5.199-2.489C40.482,21.508,40.664,18.668,40.051,16.942z"/>
			<path fill-rule="evenodd" clip-rule="evenodd" fill="#FFFFFF" d="M33.887,26.424c-2.489-1.558-4.981-3.113-7.473-4.669
				c-0.112-0.071-0.231-0.125-0.378-0.206c-0.57,1.056-1.119,2.084-1.681,3.107c-0.652,1.191-2.272,1.632-3.503,0.961
				c-1.252-0.683-1.753-2.179-1.131-3.398c0.942-1.834,1.888-3.665,2.831-5.498c0.083-0.161,0.156-0.325,0.262-0.55
				c-0.256-0.013-0.441-0.027-0.623-0.027c-2.665-0.001-5.33,0.006-7.997-0.011c-0.293-0.002-0.615-0.083-0.873-0.22
				c-1.609-0.855-3.214-1.715-4.821-2.572c-2.033,1.107-3.099,3.73-3.438,5.911c-0.252,1.597-0.354,3.25-0.241,4.865
				c0.027,0.376,0.056,0.753,0.081,1.126c0.983,0.554,1.966,1.106,2.95,1.658c0.702,0.394,1.405,0.785,2.137,1.194
				c0.11-0.193,0.202-0.354,0.289-0.515c0.468-0.879,0.927-1.767,1.406-2.638c0.455-0.823,1.182-1.137,2.089-0.893
				c0.964,0.263,1.719,0.772,1.952,1.861c0.73-0.343,1.405-0.186,2.058,0.128c0.667,0.319,1.108,0.841,1.281,1.56
				c1.462-0.459,2.615,0.136,3.372,1.7c1.137-0.344,2.08,0.04,2.826,0.878c0.822,0.925,0.194,1.8-0.233,2.728
				c0.883,0.559,1.734,1.104,2.59,1.644c0.772,0.485,1.459,0.338,1.942-0.409c0.551-0.849,0.418-1.531-0.393-2.052
				c-1.132-0.723-2.265-1.437-3.382-2.178c-0.126-0.084-0.15-0.322-0.222-0.485c0.192-0.048,0.385-0.12,0.576-0.125
				c0.1-0.002,0.204,0.113,0.306,0.179c1.237,0.775,2.471,1.56,3.712,2.326c0.697,0.433,1.389,0.239,1.85-0.485
				c0.522-0.824,0.426-1.498-0.293-1.963c-0.778-0.502-1.562-0.997-2.345-1.496c-0.827-0.526-1.659-1.044-2.471-1.592
				c-0.123-0.083-0.145-0.323-0.212-0.491c0.192-0.044,0.386-0.125,0.578-0.119c0.117,0.002,0.231,0.133,0.347,0.208
				c1.578,1.006,3.154,2.018,4.736,3.02c0.756,0.48,1.457,0.311,1.933-0.448C34.821,27.576,34.698,26.934,33.887,26.424z"/>
			<path fill-rule="evenodd" clip-rule="evenodd" fill="#FFFFFF" d="M14.944,33.072c-1.21,0.004-1.891-1.086-1.295-2.234
				c0.589-1.142,1.177-2.284,1.774-3.421c0.424-0.804,1.095-0.983,1.95-0.534c0.834,0.438,1.048,1.055,0.634,1.861
				c-0.611,1.19-1.235,2.37-1.842,3.562C15.927,32.773,15.58,33.056,14.944,33.072z"/>
			<path fill-rule="evenodd" clip-rule="evenodd" fill="#FFFFFF" d="M23.096,30.062c1.335,0.014,2.002,1.099,1.406,2.25
				c-0.583,1.124-1.165,2.25-1.751,3.374c-0.438,0.834-1.112,1.02-1.981,0.562c-0.846-0.445-1.037-1.054-0.594-1.913
				c0.607-1.172,1.22-2.339,1.819-3.515C22.234,30.35,22.592,30.085,23.096,30.062z"/>
			<path fill-rule="evenodd" clip-rule="evenodd" fill="#FFFFFF" d="M21.454,29.868c-0.037,0.107-0.085,0.347-0.191,0.555
				c-0.619,1.209-1.243,2.413-1.875,3.612c-0.418,0.79-1.106,0.962-1.965,0.508c-0.806-0.427-1.02-1.05-0.617-1.832
				c0.628-1.225,1.256-2.444,1.9-3.66c0.307-0.578,0.815-0.793,1.424-0.643C20.9,28.6,21.44,29.142,21.454,29.868z"/>
			<path fill-rule="evenodd" clip-rule="evenodd" fill="#FFFFFF" d="M11.825,31.359c-1.409,0.012-2.101-1.086-1.503-2.235
				c0.584-1.129,1.168-2.26,1.758-3.385c0.439-0.839,1.117-1.024,1.988-0.559c0.827,0.439,1.027,1.056,0.603,1.876
				c-0.613,1.19-1.235,2.38-1.848,3.568C12.591,31.076,12.243,31.337,11.825,31.359z"/>
			<path fill-rule="evenodd" clip-rule="evenodd" fill="#FFFFFF" d="M24.66,33.603c0.675,0.43,1.324,0.787,1.898,1.241
				c0.229,0.181,0.406,0.57,0.41,0.865c0.01,0.649-0.303,1.196-0.887,1.524c-0.535,0.305-1.019,0.097-1.483-0.222
				c-0.404-0.278-0.826-0.536-1.273-0.824C23.772,35.323,24.202,34.49,24.66,33.603z"/>
		</g>
	</g>
</g>
</svg>
