<?xml version="1.0" encoding="UTF-8" standalone="no"?>
<svg width="47px" height="47px" viewBox="0 0 47 47" version="1.1" xmlns="http://www.w3.org/2000/svg" xmlns:xlink="http://www.w3.org/1999/xlink">
    <!-- Generator: Sketch 40 (33762) - http://www.bohemiancoding.com/sketch -->
    <title>User Photo</title>
    <desc>Created with Sketch.</desc>
    <defs>
        <circle id="path-1" cx="22.5" cy="22.5" r="22.5"></circle>
    </defs>
    <g id="GumTree-Style-Guide" stroke="none" stroke-width="1" fill="#55404E" fill-rule="evenodd">
        <g id="23_Navegation" transform="translate(-88.000000, -773.000000)">
            <g id="Group-2" transform="translate(75.000000, 714.000000)">
                <g id="Group" transform="translate(7.000000, 55.000000)">
                    <g id="My-Account" transform="translate(7.000000, 2.000000)">
                        <g id="User-Photo" transform="translate(0.000000, 3.000000)">
                            <g id="User-Icon_Large">
                                <mask id="mask-2" fill="white">
                                    <use xlink:href="#path-1"></use>
                                </mask>
                                <use id="Oval-124" stroke="#B7B5AF" stroke-width="2" xlink:href="#path-1"></use>
                                <g id="Group-6" mask="url(#mask-2)" fill="#ffffff">
                                    <g transform="translate(7.000000, 5.000000)">
                                        <circle id="Oval" cx="15" cy="8" r="8"></circle>
                                        <path d="M0.895440631,23.0094787 C0.895440631,18.5859657 4.43263186,15.5382651 7.09987996,15.9441483 L7.09987996,15.9441483 C10.0104672,15.9441483 11.0002132,18.1200498 15,18.1200498 C18.9997868,18.1200498 20.2783938,16.5447449 23.0075554,15.9441483 L23.0075554,15.9441483 C26.4765276,15.1518853 29.2886852,18.090856 29.2886852,22.5092064 L29.2886852,22.5150087 C29.2886852,22.5150087 29.2886887,28.5882888 29.2886887,29 C29.2886887,29.0097896 29.2886887,29 29.2886887,29 C29.2886868,31.2681539 25.7105136,33.1068559 21.2945162,33.1068559 C21.2945162,33.1068559 16.9172266,33.1068559 15,33.1068559 C12.4000577,33.1068559 7.75882151,33.1068559 7.75882151,33.1068559 C3.33566114,33.1068559 0.754984819,29.6753431 0.895440631,29 C0.895440631,29 0.895440631,29.4288226 0.895440631,29 C0.895440631,28.4305846 0.895440631,23.0094787 0.895440631,23.0094787 Z" id="Rectangle"></path>
                                    </g>
                                </g>
                            </g>
                        </g>
                    </g>
                </g>
            </g>
        </g>
    </g>
</svg>