<svg xmlns="http://www.w3.org/2000/svg" width="25" height="25"><g fill="#468100"><path d="M20.3 14.2c-.2-.4-.6-.6-.9-.8l-1.8-1.5c-.5-.4-1-.8-1.4-1.2l-1.6-1.3c-.1-.1-.2-.2-.4-.1h-.2c-.6 0-.6 0-.9.5-.3.6-.6 1.1-1 1.7-.1.2-.3.4-.5.5-.3.2-.6.3-1 .2-.4-.1-.8-.3-1.1-.6-.1-.1-.1-.2-.1-.3.5-1 1-2.1 1.4-3.1l.4-.9c.1-.1.1-.1.1-.2l.1-.1c.1-.2.3-.4.5-.5 0 0 .1 0 .1-.1.3-.1.5-.2.8-.2h.3l.6.1h.2l.6.1c.1.1.1 0 .2 0 .2.1.4.1.6.1h.2l.6.1h.2l.6.1c0 .3 0 .3.1.3.2.1.4.1.6.1.1 0 .2 0 .3.1l.6.1h.1c0 .2.1.4.2.6 0 .1 0 .1.1.2 0 .2.1.4.2.5v.1l.2.5.1.2c0 .2.1.4.2.5l.1.2c0 .2.1.4.2.5v.1l.2.5c0 .1.1.2.1.2 0 .2.1.4.2.5l.1.2c0 .2.1.4.2.5v.1l.2.5c0 .1.1.2.1.2l.1.4c-.4.4-.6.4-.8.4zm-15.7 1.7c.1-.5.2-.9.4-1.4 0-.2.1-.3.2-.4.3-.4.9-.4 1.2 0 .2.3.2.6.1 1-.2.4-.3.9-.5 1.4-.2.1-.3.3-.5.3h-.5s-.1 0-.1-.1c-.1-.1-.2-.2-.2-.3l-.1-.2v-.3zm6 2.5c.2-.4.2-.7.3-1.1.1-.3.3-.6.6-.6s.5.1.7.3c.2.3.2.6.1 1l-.3 1.3c-.1.2-.3.4-.5.5h-.2l-.4-.1-.1-.1c-.1-.1-.2-.2-.2-.3v-.1c-.1-.4 0-.6 0-.8zm-4-1.6c.2-.4.3-.9.4-1.3.2-.6.6-.8 1.1-.5.3.2.4.6.3.9l-.4 1.3v.2c-.1 0-.1.1-.1.2l-.2.2-.3.1h-.5l-.1-.1c-.1-.1-.2-.2-.2-.3 0 0 0-.1-.1-.1.1-.3.1-.5.1-.6zm2 .7c.1-.4.2-.8.3-1.1.1-.2.2-.4.4-.6.4-.3 1 0 1.1.4.1.3 0 .5-.1.8l-.3 1.1c-.1.2-.2.4-.4.5h-.3c-.1 0-.3 0-.4-.1l-.2-.1-.2-.3v-.1c0-.1 0-.3.1-.5zm-2.6-8.6zm-.9-.9zm6.4 12zm-7.5-5.2v-.1c.1 0 .1.1 0 .1zm1.5-4.4zm9.3 8.2zm-9.8-6.7zm11.7 6.5zm-2.4 1.5zm-9.8-6.6zm14.3 4.1zm-9.3-9.4h-3c-.1-.1-.2 0-.3.2 0 .2-.1.5-.2.7v.1c0 .1 0 .2-.1.3l-.4 1v.1c0 .1 0 .2-.1.3-.1.4-.2.7-.4 1.1v.1c0 .1 0 .2-.1.3-.1.4-.2.7-.4 1.1v.1c0 .1 0 .2-.1.3-.1.4-.2.7-.4 1.1v.1c0 .1 0 .2-.1.3 0 .1 0 .2-.1.3-.1.1-.1.3.1.3h.1c.1-.5.2-1 .4-1.5l.1-.4c.1-.2.1-.4.3-.7.3-.3.6-.5 1-.5s.8.2 1.1.6c.1.2.2.4.3.7.2-.1.5-.2.7-.2.2 0 .5.1.7.2.4.2.6.6.6 1 .2-.1.4-.2.7-.2.6 0 1.1.4 1.3 1v.2c.1-.1.3-.1.5-.2h.2c.4 0 .7.2 1 .5.5.5.4 1.2.2 1.6l-.3 1.2-.1.5v.1s.1 0 .1.1h.1c.2 0 .3.2.5.3.1 0 .1 0 .2.1.2.1.5 0 .7 0h.1c.2-.1.4-.3.5-.5v-.8l.5.4h.1c.3 0 .5 0 .8-.1.2-.1.4-.3.5-.5 0 0 0-.1.1-.1 0-.2.1-.5 0-.7 0-.1.1-.1.1-.1l.3.3c.1 0 .1 0 .2.1.2.1.5 0 .7 0 .3-.1.4-.3.6-.6.1-.3.1-.7-.1-1 .4.1.7.1 1 0 0 0 .1 0 .1-.1.2-.1.3-.3.5-.5 0 0 0-.1.1-.1v-.4l-.2-.2h-.2c-.1-.2-.3-.3-.5-.5l-.3-.3c-.4-.4-.8-.7-1.3-1l-.6-.5c-.3-.3-.6-.5-1-.8l-.5-.4c-.1-.1-.3-.2-.4-.4l-1.2-1h-.7s-.1.2-.2.3l-.9 1.5-.1.2c-.1.3-.4.5-.6.7-.4.3-.9.4-1.3.2-.5-.1-.9-.4-1.2-.7-.2-.2-1-.9-.9-1.2.6-1.2.8-1.8 1.3-2.7l.3-.7"/><polygon points="18.7,6.7 22.6,17.8 24.4,17.1 24.4,5.9"/><polygon points="6.1,6.7 2.2,17.8 0.4,17.1 0.4,5.9"/></g></svg>