<?xml version="1.0" encoding="utf-8"?>
<!-- Generator: Adobe Illustrator 16.0.0, SVG Export Plug-In . SVG Version: 6.00 Build 0)  -->
<!DOCTYPE svg PUBLIC "-//W3C//DTD SVG 1.1//EN" "http://www.w3.org/Graphics/SVG/1.1/DTD/svg11.dtd">
<svg version="1.1" id="Layer_1" xmlns="http://www.w3.org/2000/svg" xmlns:xlink="http://www.w3.org/1999/xlink" x="0px" y="0px"
	 width="30px" height="30px" viewBox="0 0 30 30" enable-background="new 0 0 30 30" xml:space="preserve">
<g>
	<linearGradient id="SVGID_1_" gradientUnits="userSpaceOnUse" x1="14.9995" y1="0" x2="14.9995" y2="30.0005">
		<stop  offset="0" style="stop-color:#77B8E5"/>
		<stop  offset="1" style="stop-color:#19ABE2"/>
	</linearGradient>
	<path fill="url(#SVGID_1_)" d="M30,26.998C30,28.654,28.655,30,26.999,30H3.003C1.347,30,0,28.654,0,26.998V3.001
		C0,1.345,1.347,0,3.003,0h23.996C28.655,0,30,1.345,30,3.001V26.998z"/>
	<path fill="#FFFFFF" d="M24.11,9.007c-0.645,0.29-1.348,0.483-2.08,0.571c0.748-0.45,1.321-1.157,1.592-2.005
		c-0.697,0.413-1.474,0.717-2.295,0.879c-0.669-0.704-1.609-1.144-2.65-1.144c-2.003,0-3.619,1.624-3.619,3.622
		c0,0.287,0.029,0.559,0.089,0.828c-3.014-0.154-5.682-1.594-7.47-3.789C7.368,8.508,7.192,9.128,7.192,9.795
		c0,1.252,0.633,2.364,1.611,3.011c-0.599-0.017-1.157-0.18-1.641-0.454v0.05c0,1.751,1.244,3.217,2.901,3.551
		c-0.305,0.083-0.626,0.128-0.954,0.128c-0.233,0-0.463-0.025-0.684-0.068c0.465,1.443,1.8,2.488,3.384,2.518
		c-1.235,0.971-2.801,1.553-4.499,1.553c-0.292,0-0.574-0.018-0.864-0.049c1.608,1.027,3.513,1.627,5.557,1.627
		c6.662,0,10.308-5.521,10.308-10.31c0-0.158-0.002-0.312-0.008-0.469C23.007,10.372,23.622,9.732,24.11,9.007z"/>
</g>
</svg>
