<?xml version="1.0" encoding="utf-8"?>
<!-- Generator: Adobe Illustrator 16.0.0, SVG Export Plug-In . SVG Version: 6.00 Build 0)  -->
<!DOCTYPE svg PUBLIC "-//W3C//DTD SVG 1.1//EN" "http://www.w3.org/Graphics/SVG/1.1/DTD/svg11.dtd">
<svg version="1.1" id="Layer_1" xmlns="http://www.w3.org/2000/svg" xmlns:xlink="http://www.w3.org/1999/xlink" x="0px" y="0px"
	 width="85px" height="1700px" viewBox="0 0 85 1700" enable-background="new 0 0 85 1700" xml:space="preserve">
<g>
	<circle fill="#14BD35" cx="42.5" cy="42.5" r="42.5"/>
	<g>
		<g>
			<g>
				<g>
					<defs>
						<rect id="SVGID_1_" x="20.767" y="20.728" width="43.466" height="43.543"/>
					</defs>
					<clipPath id="SVGID_2_">
						<use xlink:href="#SVGID_1_"  overflow="visible"/>
					</clipPath>
					<path clip-path="url(#SVGID_2_)" fill="#007012" d="M34.335,22.278c-2.698,1.095-5.119,2.704-7.194,4.78
						c-2.078,2.073-3.685,4.498-4.779,7.197c-1.056,2.605-1.594,5.359-1.594,8.185s0.538,5.578,1.594,8.184
						c1.096,2.703,2.701,5.125,4.779,7.199c2.075,2.075,4.496,3.684,7.194,4.778c2.606,1.058,5.363,1.592,8.188,1.592
						c2.826,0,5.58-0.534,8.186-1.592c2.697-1.097,5.119-2.703,7.195-4.778c2.08-2.074,3.688-4.496,4.777-7.199
						c1.057-2.606,1.594-5.358,1.594-8.184s-0.537-5.58-1.594-8.185c-1.092-2.699-2.701-5.124-4.777-7.197
						c-2.076-2.077-4.498-3.686-7.195-4.78c-2.604-1.057-5.359-1.591-8.186-1.591C39.698,20.687,36.941,21.221,34.335,22.278
						L34.335,22.278z M26.205,51.602c-1.049-0.66-2.014-1.418-2.87-2.31c-1.306-3.674-1.523-7.653-0.66-11.432
						c0.405-0.799,0.869-1.572,1.392-2.309c0.164-0.229,0.312-0.468,0.484-0.688l4.912,2.908v0.122
						c-0.012,2.64,0.255,5.259,0.789,7.843c0,0.013,0.003,0.019,0.007,0.029l-3.809,5.971
						C26.369,51.693,26.284,51.648,26.205,51.602L26.205,51.602z M40.803,61.689c0.846,0.435,1.717,0.797,2.612,1.095
						c-3.802,0.164-7.644-0.726-11.038-2.677l8.229,1.472C40.67,61.62,40.734,61.657,40.803,61.689L40.803,61.689z M40.771,60.204
						l-9.715-1.729c-1.134-1.381-2.156-2.842-3.035-4.398c-0.221-0.396-0.471-0.779-0.66-1.197l3.803-5.963
						c0.083,0.021,0.178,0.043,0.287,0.068c2.377,0.639,4.798,1.092,7.238,1.445c0.14,0.021,0.261,0.037,0.362,0.047l4.558,7.885
						c-0.791,1.111-1.59,2.221-2.409,3.312C41.066,59.857,40.922,60.029,40.771,60.204L40.771,60.204z M56.928,56.846
						c-0.773,0.774-1.594,1.471-2.453,2.094c-0.141-1.135-0.389-2.254-0.732-3.344l4.863-9.076c1.342-0.606,2.635-1.299,3.834-2.158
						c0.156-0.11,0.285-0.235,0.389-0.37C62.475,48.675,60.508,53.268,56.928,56.846L56.928,56.846z M56.711,45.077
						c0.182,0.344,0.363,0.692,0.541,1.045l-4.699,8.769c-0.025,0.006-0.055,0.012-0.08,0.014c-2.543,0.479-5.102,0.729-7.683,0.742
						l-4.688-8.106c0.73-1.356,1.453-2.72,2.17-4.078c0.483-0.926,0.963-1.853,1.442-2.783l9.702-0.995
						C54.607,41.424,55.734,43.206,56.711,45.077L56.711,45.077z M54.742,34.681c-0.459,1.215-0.951,2.419-1.441,3.625l-9.455,0.972
						c-0.113-0.149-0.229-0.297-0.352-0.437c-1.119-1.264-2.24-2.52-3.363-3.78c0.012-0.015,0.02-0.021,0.029-0.034
						c-0.449-0.453-0.905-0.904-1.358-1.355l2.632-7.927c0.183-0.046,0.366-0.088,0.549-0.108c1.434-0.144,2.865-0.308,4.301-0.393
						c0.877-0.048,1.762-0.076,2.654-0.015l6.512,7.341C55.223,33.276,55.004,33.987,54.742,34.681L54.742,34.681z M56.928,28.033
						c1.797,1.798,3.188,3.85,4.174,6.039c-1.219-0.837-2.52-1.526-3.887-2.088c-0.213-0.086-0.432-0.165-0.652-0.241l-6.41-7.224
						c0.045-0.312,0.066-0.625,0.074-0.938C52.666,24.573,54.953,26.058,56.928,28.033L56.928,28.033z M35.996,23.2
						c0.025,0.02,0.038,0.035,0.055,0.037c1.463,0.509,2.797,1.256,4.055,2.136l-2.459,7.409c-0.016,0.002-0.026,0.005-0.039,0.01
						c-0.5,0.209-1.015,0.393-1.51,0.62c-2.043,0.928-4.031,1.954-5.906,3.188l-4.851-2.873c0.007-0.153,0.031-0.305,0.083-0.441
						c0.325-0.871,0.648-1.742,1.016-2.592c0.285-0.655,0.606-1.289,0.961-1.909c0.229-0.252,0.469-0.504,0.716-0.751
						c2.305-2.302,5.026-3.938,7.929-4.906C36.029,23.148,36.014,23.173,35.996,23.2L35.996,23.2z"/>
				</g>
			</g>
		</g>
	</g>
	<g>
		<g>
			<g>
				<g>
					<defs>
						<rect id="SVGID_3_" x="20.184" y="20.895" width="43.465" height="43.544"/>
					</defs>
					<clipPath id="SVGID_4_">
						<use xlink:href="#SVGID_3_"  overflow="visible"/>
					</clipPath>
					<path clip-path="url(#SVGID_4_)" fill="#FFFFFF" d="M33.752,22.444c-2.697,1.095-5.119,2.704-7.193,4.78
						c-2.078,2.073-3.686,4.498-4.78,7.197c-1.056,2.605-1.594,5.359-1.594,8.184c0,2.827,0.538,5.579,1.594,8.186
						c1.096,2.703,2.702,5.125,4.78,7.199c2.074,2.076,4.496,3.684,7.193,4.779c2.607,1.057,5.363,1.592,8.188,1.592
						c2.826,0,5.582-0.535,8.188-1.592c2.697-1.098,5.119-2.703,7.195-4.779c2.08-2.074,3.688-4.496,4.777-7.199
						c1.057-2.607,1.594-5.359,1.594-8.186c0-2.825-0.537-5.579-1.594-8.184c-1.092-2.699-2.703-5.124-4.777-7.197
						c-2.076-2.077-4.498-3.686-7.195-4.78c-2.604-1.057-5.357-1.591-8.188-1.591C39.115,20.853,36.359,21.387,33.752,22.444
						L33.752,22.444z M25.622,51.768c-1.049-0.66-2.015-1.418-2.87-2.309c-1.306-3.674-1.523-7.655-0.66-11.433
						c0.405-0.799,0.869-1.572,1.392-2.309c0.163-0.229,0.312-0.468,0.484-0.688l4.912,2.908v0.122
						c-0.012,2.64,0.255,5.261,0.789,7.845c0,0.012,0.003,0.018,0.007,0.029l-3.809,5.971
						C25.786,51.861,25.701,51.816,25.622,51.768L25.622,51.768z M40.221,61.857c0.846,0.434,1.717,0.797,2.611,1.094
						c-3.803,0.164-7.645-0.725-11.038-2.676l8.229,1.471C40.087,61.787,40.15,61.824,40.221,61.857L40.221,61.857z M40.189,60.371
						l-9.715-1.729c-1.135-1.382-2.156-2.844-3.035-4.4c-0.222-0.396-0.472-0.779-0.662-1.197l3.804-5.963
						c0.083,0.021,0.178,0.043,0.287,0.07c2.377,0.637,4.798,1.09,7.237,1.445c0.141,0.02,0.262,0.035,0.363,0.047l4.559,7.885
						c-0.791,1.111-1.592,2.219-2.41,3.311C40.482,60.025,40.339,60.197,40.189,60.371L40.189,60.371z M56.346,57.012
						c-0.773,0.775-1.596,1.471-2.453,2.094c-0.141-1.135-0.389-2.254-0.734-3.344l4.863-9.076c1.344-0.605,2.635-1.299,3.836-2.158
						c0.156-0.109,0.283-0.234,0.387-0.369C61.891,48.842,59.924,53.434,56.346,57.012L56.346,57.012z M56.129,45.244
						c0.182,0.344,0.361,0.693,0.541,1.045l-4.699,8.768c-0.027,0.006-0.055,0.012-0.08,0.014c-2.543,0.479-5.102,0.73-7.684,0.742
						l-4.689-8.105c0.731-1.355,1.453-2.721,2.17-4.078c0.485-0.928,0.965-1.854,1.444-2.784l9.702-0.995
						C54.023,41.589,55.152,43.373,56.129,45.244L56.129,45.244z M54.158,34.847c-0.457,1.215-0.951,2.419-1.439,3.625l-9.455,0.972
						c-0.115-0.149-0.229-0.297-0.353-0.437c-1.119-1.264-2.24-2.52-3.363-3.78c0.013-0.015,0.021-0.021,0.029-0.034
						c-0.449-0.453-0.905-0.904-1.358-1.355l2.631-7.927c0.184-0.046,0.368-0.088,0.549-0.108c1.435-0.144,2.867-0.308,4.301-0.393
						c0.879-0.048,1.762-0.076,2.654-0.015l6.512,7.341C54.641,33.442,54.42,34.153,54.158,34.847L54.158,34.847z M56.346,28.199
						c1.797,1.798,3.188,3.85,4.172,6.039c-1.219-0.838-2.52-1.526-3.885-2.088c-0.213-0.086-0.434-0.165-0.652-0.241l-6.412-7.224
						c0.045-0.312,0.068-0.625,0.076-0.938C52.084,24.739,54.371,26.224,56.346,28.199L56.346,28.199z M35.413,23.366
						c0.026,0.02,0.038,0.035,0.055,0.037c1.464,0.509,2.796,1.256,4.054,2.136l-2.457,7.409c-0.017,0.002-0.027,0.006-0.039,0.011
						c-0.5,0.209-1.016,0.394-1.512,0.62c-2.041,0.928-4.029,1.954-5.906,3.188l-4.85-2.873c0.008-0.153,0.031-0.306,0.083-0.441
						c0.325-0.871,0.647-1.742,1.015-2.592c0.285-0.655,0.607-1.289,0.961-1.909c0.23-0.252,0.47-0.504,0.717-0.751
						c2.305-2.302,5.027-3.938,7.929-4.906C35.445,23.314,35.43,23.339,35.413,23.366L35.413,23.366z"/>
				</g>
			</g>
		</g>
	</g>
</g>
<g>
	<circle fill="#E51732" cx="42.5" cy="186.574" r="42.5"/>
	<path fill="#A80722" d="M51.156,166.67H33.844c-2.041,0-3.71,1.67-3.71,3.71v32.151c0,2.04,1.669,3.71,3.71,3.71h17.312
		c2.041,0,3.711-1.67,3.711-3.71V170.38C54.867,168.34,53.197,166.67,51.156,166.67z M37.555,168.524h9.893v1.236h-9.893V168.524z
		 M42.5,203.768c-1.365,0-2.475-1.106-2.475-2.476c0-1.364,1.107-2.473,2.475-2.473c1.366,0,2.475,1.106,2.475,2.473
		C44.975,202.661,43.867,203.768,42.5,203.768z M52.393,196.348H32.607v-24.732h19.785V196.348z"/>
	<path fill="#FFFFFF" d="M50.906,166.315H33.594c-2.041,0-3.71,1.67-3.71,3.71v32.152c0,2.039,1.669,3.709,3.71,3.709h17.312
		c2.041,0,3.711-1.67,3.711-3.709v-32.152C54.617,167.986,52.947,166.315,50.906,166.315z M37.305,168.171h9.893v1.235h-9.893
		V168.171z M42.25,203.414c-1.365,0-2.475-1.105-2.475-2.474c0-1.365,1.107-2.474,2.475-2.474c1.366,0,2.475,1.106,2.475,2.474
		C44.725,202.307,43.617,203.414,42.25,203.414z M52.143,195.994H32.357v-24.732h19.785V195.994z"/>
</g>
<g>
	<circle fill="#EE4683" cx="42.5" cy="319.771" r="42.5"/>
	<g>
		<path fill="#82003B" d="M63.177,302.56l-6.601,6.598l-4.323-4.319l6.604-6.6c-3.489-1.698-7.812-1.107-10.713,1.793
			c-3.656,3.655-3.656,9.583,0,13.242c3.656,3.655,9.584,3.655,13.238,0C64.282,310.374,64.874,306.049,63.177,302.56z"/>
		<path fill="#82003B" d="M46.893,314.526c-0.935-0.935-1.654-1.993-2.188-3.124l-21.931,21.174c-1.668,1.674-1.668,4.389,0,6.062
			c1.675,1.675,4.392,1.675,6.065,0l21.173-21.933C48.881,316.178,47.82,315.458,46.893,314.526z"/>
	</g>
	<g>
		<path fill="#FFFFFF" d="M62.831,302.271l-6.603,6.598l-4.321-4.319l6.604-6.6c-3.49-1.698-7.812-1.107-10.714,1.793
			c-3.655,3.655-3.655,9.583,0,13.242c3.657,3.655,9.583,3.655,13.239,0C63.938,310.083,64.527,305.759,62.831,302.271z"/>
		<path fill="#FFFFFF" d="M46.545,314.235c-0.934-0.935-1.652-1.993-2.188-3.124l-21.93,21.174c-1.669,1.674-1.669,4.389,0,6.063
			c1.674,1.675,4.391,1.675,6.065,0l21.172-21.933C48.535,315.888,47.479,315.167,46.545,314.235z"/>
	</g>
</g>
<g>
	<circle fill="#41BBDF" cx="42.5" cy="452.969" r="42.5"/>
	<g>
		<path fill="#0C9BBC" d="M66.19,461.621c-0.045-0.051-0.11-0.082-0.18-0.082H20.294c-0.068,0-0.134,0.031-0.178,0.082
			c-0.045,0.051-0.063,0.121-0.055,0.188c0.006,0.043,0.695,4.276,6.047,4.276h34.086c5.353,0,6.041-4.233,6.049-4.276
			C66.254,461.742,66.231,461.672,66.19,461.621z M46.591,464.603h-6.877v-1.579h6.876L46.591,464.603L46.591,464.603z"/>
		<path fill="#0C9BBC" d="M25.043,459.895h36.219c0.524,0,0.949-0.427,0.949-0.947v-22.249c0-0.523-0.425-0.948-0.949-0.948H25.043
			c-0.522,0-0.948,0.425-0.948,0.948v22.247C24.095,459.468,24.521,459.895,25.043,459.895z M27.415,439.072h31.477v17.502H27.415
			V439.072z"/>
	</g>
	<g>
		<path fill="#FFFFFF" d="M65.535,461.365c-0.044-0.051-0.11-0.08-0.179-0.08H19.64c-0.068,0-0.134,0.029-0.178,0.08
			c-0.044,0.052-0.062,0.121-0.054,0.188c0.006,0.043,0.694,4.276,6.047,4.276H59.54c5.354,0,6.041-4.233,6.049-4.276
			C65.601,461.488,65.578,461.417,65.535,461.365z M45.937,464.348h-6.875v-1.58h6.875V464.348z"/>
		<path fill="#FFFFFF" d="M24.388,459.64h36.219c0.524,0,0.949-0.427,0.949-0.948v-22.247c0-0.523-0.425-0.948-0.949-0.948H24.388
			c-0.521,0-0.947,0.425-0.947,0.948v22.247C23.44,459.213,23.866,459.64,24.388,459.64z M26.76,438.817h31.476v17.503H26.76
			V438.817z"/>
	</g>
</g>
<g>
	<circle fill="#996235" cx="42.5" cy="719.363" r="42.5"/>
	<g>
		<path fill="#702D00" d="M27.343,720.02l15.181-11.642l15.178,11.496v13.265c0,3.686-3.54,4.275-5.603,4.275h-5.01v-10.32
			c0-0.734-0.289-1.769-1.771-1.769h-5.893c-0.884,0-1.475,1.479-1.475,2.509v9.283h-6.193c-2.795,0-4.415-2.652-4.415-4.863
			L27.343,720.02L27.343,720.02z"/>
		<g>
			<path fill="#702D00" d="M22.628,719.814c-0.375,0-0.746-0.165-0.999-0.482c-0.432-0.55-0.334-1.347,0.216-1.778l19.747-15.474
				c0.456-0.353,1.09-0.358,1.546-0.016l19.894,15.03c0.56,0.422,0.671,1.215,0.25,1.775c-0.423,0.557-1.22,0.665-1.775,0.246
				l-19.117-14.442l-18.98,14.875C23.175,719.73,22.9,719.814,22.628,719.814L22.628,719.814z"/>
		</g>
		<path fill="#702D00" d="M33.091,706.323l-5.454,3.824v-4.273c0-0.737,0.442-1.915,2.356-1.915h1.325
			C32.061,703.959,33.091,704.251,33.091,706.323z"/>
	</g>
	<g>
		<path fill="#FFFFFF" d="M27.02,719.52l15.182-11.642l15.178,11.497v13.263c0,3.687-3.541,4.276-5.603,4.276h-5.01v-10.321
			c0-0.734-0.291-1.769-1.771-1.769h-5.894c-0.884,0-1.475,1.479-1.475,2.509v9.283h-6.193c-2.795,0-4.415-2.652-4.415-4.863
			L27.02,719.52L27.02,719.52z"/>
		<g>
			<path fill="#FFFFFF" d="M22.305,719.315c-0.375,0-0.746-0.166-0.999-0.483c-0.432-0.55-0.334-1.347,0.216-1.778l19.747-15.475
				c0.456-0.353,1.09-0.358,1.546-0.016l19.893,15.03c0.562,0.422,0.672,1.215,0.25,1.775c-0.422,0.557-1.218,0.665-1.774,0.246
				l-19.118-14.441l-18.98,14.875C22.852,719.23,22.578,719.315,22.305,719.315L22.305,719.315z"/>
		</g>
		<path fill="#FFFFFF" d="M32.768,705.823l-5.454,3.824v-4.273c0-0.737,0.442-1.915,2.356-1.915h1.326
			C31.738,703.459,32.768,703.751,32.768,705.823z"/>
	</g>
</g>
<g>
	<circle fill="#00599C" cx="42.5" cy="985.757" r="42.5"/>
	<path fill="#004875" d="M61.284,988.399c0-2.248-1.025-4.235-2.591-5.502l-5.697-10.936c-0.266-0.521-0.95-0.938-1.523-0.938
		h-17.88c-0.573,0-1.261,0.424-1.506,0.945l-5.422,10.984c-1.531,1.264-2.532,3.228-2.532,5.443c0,2.59,1.338,4.813,3.312,6.008
		c-0.032,0.136-0.102,0.25-0.102,0.391v3.329c0,1.26,1.255,2.28,2.802,2.28c1.551,0,2.809-1.021,2.809-2.28v-2.8h19.812v2.8
		c0,1.26,1.244,2.28,2.801,2.28c1.543,0,2.797-1.021,2.797-2.28v-3.329c0-0.182-0.074-0.362-0.131-0.54
		C60.064,993.036,61.284,990.88,61.284,988.399z M33.796,973.659c0.215-0.432,0.786-0.782,1.269-0.782h14.982
		c0.48,0,1.061,0.347,1.282,0.772l4.312,8.282c-0.637-0.251-1.312-0.407-2.016-0.407H31.792c-0.739,0-1.431,0.159-2.093,0.428
		L33.796,973.659z M33.779,990.944c-1.397,0-2.539-1.138-2.539-2.545c0-1.396,1.142-2.539,2.539-2.539
		c1.408,0,2.547,1.143,2.547,2.539C36.326,989.808,35.188,990.944,33.779,990.944z M49.823,988.399c0-1.396,1.135-2.537,2.54-2.537
		c1.404,0,2.541,1.142,2.541,2.537c0,1.408-1.137,2.547-2.541,2.547C50.958,990.944,49.823,989.808,49.823,988.399z"/>
	<path fill="#FFFFFF" d="M60.743,988.065c0-2.248-1.025-4.235-2.591-5.502l-5.697-10.935c-0.266-0.521-0.95-0.938-1.523-0.938
		h-17.88c-0.573,0-1.261,0.424-1.507,0.946l-5.422,10.984c-1.531,1.264-2.532,3.228-2.532,5.442c0,2.592,1.338,4.814,3.312,6.01
		c-0.032,0.135-0.102,0.248-0.102,0.39v3.329c0,1.259,1.254,2.281,2.803,2.281s2.808-1.022,2.808-2.281v-2.801h19.812v2.801
		c0,1.259,1.245,2.281,2.803,2.281c1.541,0,2.795-1.022,2.795-2.281v-3.329c0-0.183-0.073-0.363-0.131-0.541
		C59.523,992.702,60.743,990.545,60.743,988.065z M33.256,973.325c0.215-0.432,0.785-0.782,1.27-0.782h14.981
		c0.481,0,1.062,0.347,1.282,0.772l4.311,8.282c-0.636-0.251-1.312-0.407-2.015-0.407H31.25c-0.738,0-1.432,0.159-2.093,0.428
		L33.256,973.325z M33.238,990.61c-1.397,0-2.539-1.138-2.539-2.545c0-1.396,1.142-2.539,2.539-2.539
		c1.406,0,2.547,1.143,2.547,2.539C35.785,989.474,34.646,990.61,33.238,990.61z M49.283,988.065c0-1.396,1.134-2.537,2.54-2.537
		c1.403,0,2.54,1.142,2.54,2.537c0,1.408-1.137,2.547-2.54,2.547C50.417,990.61,49.283,989.474,49.283,988.065z"/>
</g>
<g>
	<circle fill="#18C4B8" cx="42.5" cy="1252.151" r="42.499"/>
	<g>
		<path fill="#626262" d="M55.835,1231.873c-2.531,3.539-5.07,7.077-7.596,10.625c-0.725,1.021-1.397,2.074-2.115,3.102
			c-1.616,2.314-2.703,4.891-3.507,7.562c-0.983,3.257-3.613,3.939-5.812,3.712c-1.248-0.13-2.391,0.06-3.511,0.586
			c-2.869,1.351-5.748,2.674-8.614,4.028c-0.664,0.312-1.299,0.697-1.931,1.072c-0.61,0.364-0.978,0.932-0.8,1.631
			c0.18,0.705,0.477,1.435,1.336,1.603c3.217,0.633,6.438,1.267,9.66,1.864c1.005,0.188,2.029,0.281,3.045,0.416
			c1.429,0,2.859,0,4.291,0c0.458-0.08,0.916-0.188,1.379-0.231c2.384-0.217,3.986-1.442,4.775-3.696
			c0.523-1.496,1.03-2.998,1.484-4.515c1.025-3.414,2.245-6.737,4.062-9.822c0.543-0.918,0.847-1.066,1.914-0.891
			c0.223,0.035,0.44,0.08,0.66,0.117c0.639,0.105,0.973,0.441,0.991,1.126c0.084,2.839,0.236,5.673,0.275,8.509
			c0.026,2.188-0.062,4.377-0.144,6.566c-0.021,0.629,0.188,0.873,0.797,0.812c0.2-0.021,0.402-0.017,0.604-0.028
			c0.428-0.033,0.604-0.226,0.595-0.693c-0.027-1.182-0.031-2.368,0.026-3.551c0.17-3.394,0.33-6.81,1.221-10.094
			c0.879-3.248,2.04-6.416,3.077-9.619c0-0.536,0-1.074,0-1.608c-0.027-0.062-0.064-0.119-0.08-0.18
			c-0.791-3.395-2.729-5.991-5.546-7.977c-0.157-0.11-0.271-0.284-0.408-0.426C55.927,1231.873,55.881,1231.873,55.835,1231.873z"/>
	</g>
	<g>
		<path fill="#FFFFFF" d="M55.545,1231.692c-2.53,3.539-5.071,7.077-7.595,10.625c-0.727,1.021-1.398,2.074-2.116,3.101
			c-1.616,2.314-2.703,4.892-3.508,7.562c-0.983,3.256-3.613,3.938-5.812,3.711c-1.248-0.129-2.39,0.061-3.51,0.586
			c-2.869,1.352-5.748,2.674-8.615,4.027c-0.664,0.312-1.298,0.697-1.93,1.072c-0.611,0.365-0.977,0.934-0.8,1.631
			c0.18,0.705,0.477,1.436,1.336,1.604c3.217,0.633,6.437,1.268,9.659,1.865c1.006,0.188,2.029,0.279,3.046,0.416
			c1.429,0,2.858,0,4.291,0c0.458-0.08,0.916-0.188,1.379-0.232c2.384-0.217,3.987-1.441,4.774-3.695
			c0.524-1.496,1.031-2.998,1.485-4.516c1.026-3.414,2.245-6.736,4.062-9.822c0.543-0.918,0.849-1.066,1.916-0.892
			c0.224,0.036,0.44,0.081,0.66,0.118c0.64,0.105,0.974,0.441,0.991,1.126c0.084,2.836,0.237,5.67,0.274,8.506
			c0.027,2.188-0.061,4.377-0.143,6.567c-0.021,0.63,0.188,0.873,0.799,0.812c0.199-0.021,0.4-0.016,0.603-0.027
			c0.429-0.033,0.604-0.227,0.595-0.693c-0.027-1.182-0.033-2.369,0.026-3.551c0.17-3.395,0.329-6.811,1.221-10.094
			c0.88-3.248,2.04-6.416,3.077-9.619c0-0.535,0-1.073,0-1.607c-0.027-0.062-0.066-0.119-0.08-0.18
			c-0.791-3.396-2.727-5.991-5.546-7.977c-0.157-0.111-0.271-0.285-0.408-0.426C55.638,1231.692,55.591,1231.692,55.545,1231.692z"
			/>
	</g>
</g>
<g>
	<circle fill="#E05A2A" cx="42.5" cy="1385.348" r="42.499"/>
	<g>
		<path fill="#892303" d="M56.353,1401.637c-0.953,0-1.729-0.777-1.729-1.73v-1.732h1.729c2.762,0,3.465-0.938,3.465-0.938v2.672
			c0,0.953-0.778,1.729-1.73,1.729L56.353,1401.637L56.353,1401.637z"/>
		<path fill="#892303" d="M26.915,1401.637c-0.953,0-1.73-0.777-1.73-1.73v-2.672c0,0,0.705,0.938,3.463,0.938h1.731v1.733
			c0,0.952-0.778,1.729-1.731,1.729L26.915,1401.637L26.915,1401.637z"/>
		<g>
			<path fill="#892303" d="M64.687,1383.455c0-2.213-1.791-4.006-4.004-4.006c-1.719,0-3.172,1.086-3.74,2.608l-1.896,4.255
				c-0.145-0.088-5.888-1.893-12.436-1.893c-6.549,0-12.521,1.812-12.666,1.902l-1.799-3.99c-0.486-1.661-2.008-2.879-3.824-2.879
				c-2.215,0-4.006,1.789-4.006,4.002c0,1.844,1.25,3.377,2.94,3.846l0.743,6.371c0.781,2.703,4.648,2.77,4.648,2.77h27.707
				c0,0,3.869-0.066,4.649-2.771l0.744-6.373C63.437,1386.83,64.687,1385.295,64.687,1383.455z"/>
		</g>
		<path fill="#892303" d="M24.319,1377.371c2.617,0,4.968,1.729,5.772,4.221l0.876,1.947c1.695-0.609,7.791-1.198,11.641-1.198
			c3.748,0,9.754,0.546,11.418,1.153l0.994-2.232c0.903-2.331,3.17-3.891,5.662-3.891c0.188,0,0.358,0.037,0.541,0.055
			c0-0.012,0.004-0.023,0.004-0.034c0-4.603-3.73-8.334-8.336-8.334c-0.576,0-20.201,0-20.779,0c-4.604,0-8.336,3.729-8.336,8.334
			c0,0.011,0.002,0.021,0.002,0.034C23.961,1377.41,24.136,1377.371,24.319,1377.371z"/>
	</g>
	<g>
		<path fill="#FFFFFF" d="M55.853,1401.449c-0.953,0-1.729-0.775-1.729-1.729v-1.732h1.729c2.762,0,3.465-0.938,3.465-0.938v2.672
			c0,0.953-0.778,1.729-1.73,1.729h-1.734V1401.449z"/>
		<path fill="#FFFFFF" d="M26.415,1401.449c-0.953,0-1.73-0.775-1.73-1.729v-2.673c0,0,0.705,0.938,3.463,0.938h1.731v1.732
			c0,0.953-0.778,1.729-1.731,1.729h-1.732V1401.449z"/>
		<g>
			<path fill="#FFFFFF" d="M64.187,1383.268c0-2.213-1.791-4.006-4.004-4.006c-1.719,0-3.172,1.086-3.74,2.607l-1.896,4.256
				c-0.145-0.088-5.888-1.895-12.436-1.895c-6.549,0-12.521,1.812-12.666,1.902l-1.799-3.99c-0.486-1.662-2.008-2.879-3.824-2.879
				c-2.215,0-4.006,1.789-4.006,4.002c0,1.844,1.25,3.377,2.94,3.848l0.743,6.369c0.781,2.703,4.648,2.771,4.648,2.771h27.707
				c0,0,3.869-0.066,4.649-2.771l0.744-6.373C62.937,1386.643,64.187,1385.107,64.187,1383.268z"/>
		</g>
		<path fill="#FFFFFF" d="M23.819,1377.184c2.617,0,4.968,1.729,5.772,4.221l0.876,1.949c1.695-0.611,7.792-1.199,11.641-1.199
			c3.748,0,9.754,0.547,11.418,1.154l0.994-2.234c0.903-2.33,3.17-3.891,5.662-3.891c0.188,0,0.358,0.038,0.541,0.055
			c0-0.012,0.004-0.023,0.004-0.033c0-4.604-3.73-8.334-8.336-8.334c-0.576,0-20.201,0-20.779,0c-4.604,0-8.336,3.729-8.336,8.334
			c0,0.01,0.002,0.021,0.002,0.033C23.461,1377.223,23.636,1377.184,23.819,1377.184z"/>
	</g>
</g>
<g>
	<circle fill="#B5307A" cx="42.5" cy="1118.954" r="42.5"/>
	<g>
		<path fill="#72385A" d="M41.529,1125.83h2.781c0.166,0,0.303-0.137,0.303-0.303v-1.743h-3.387v1.743
			C41.227,1125.693,41.361,1125.83,41.529,1125.83z"/>
		<path fill="#72385A" d="M46.658,1121.869v0.59c0,0.624-0.438,1.124-1.021,1.265v1.806c0,0.729-0.597,1.325-1.326,1.325h-2.781
			c-0.729,0-1.325-0.596-1.325-1.325v-1.806c-0.582-0.141-1.022-0.641-1.022-1.265v-0.59h-11.26c-1.523,0-2.917-0.541-3.986-1.427
			v7.877c0,2.646,2.146,4.797,4.797,4.797h28.369c2.65,0,4.799-2.15,4.799-4.797v-7.877c-1.068,0.886-2.459,1.427-3.981,1.427
			H46.658z"/>
		<path fill="#72385A" d="M57.104,1106.94h-7.256v-2.463c0-1.53-1.24-2.774-2.771-2.774H38.76c-1.525,0-2.771,1.245-2.771,2.774
			v2.463h-7.257c-2.65,0-4.797,2.146-4.797,4.797v4.902c0.307,1.799,1.969,3.188,3.986,3.188h11.26v-0.188
			c0-0.729,0.596-1.326,1.324-1.326h4.824c0.734,0,1.328,0.595,1.328,1.326v0.188h11.261c2.017,0,3.679-1.388,3.981-3.188v-4.902
			C61.9,1109.086,59.755,1106.94,57.104,1106.94z M47.802,1106.94h-9.769v-2.463c0-0.403,0.326-0.731,0.727-0.731h8.316
			c0.398,0,0.729,0.328,0.729,0.731v2.463H47.802z"/>
		<path fill="#72385A" d="M45.637,1119.64c0-0.168-0.14-0.306-0.308-0.306h-4.824c-0.168,0-0.303,0.138-0.303,0.306v2.819
			c0,0.168,0.135,0.306,0.303,0.306h4.824c0.168,0,0.308-0.138,0.308-0.306V1119.64z"/>
	</g>
	<g>
		<path fill="#FFFFFF" d="M41.109,1125.343h2.781c0.166,0,0.305-0.137,0.305-0.303v-1.742h-3.389v1.742
			C40.807,1125.206,40.941,1125.343,41.109,1125.343z"/>
		<path fill="#FFFFFF" d="M46.24,1121.382v0.59c0,0.625-0.438,1.125-1.021,1.268v1.803c0,0.73-0.597,1.326-1.326,1.326h-2.781
			c-0.729,0-1.325-0.596-1.325-1.326v-1.803c-0.582-0.143-1.022-0.643-1.022-1.268v-0.59h-11.26c-1.523,0-2.917-0.541-3.986-1.426
			v7.877c0,2.646,2.146,4.797,4.797,4.797h28.371c2.65,0,4.797-2.15,4.797-4.797v-7.877c-1.067,0.885-2.459,1.426-3.981,1.426H46.24
			z"/>
		<path fill="#FFFFFF" d="M56.686,1106.453H49.43v-2.462c0-1.531-1.24-2.775-2.771-2.775h-8.316c-1.525,0-2.771,1.245-2.771,2.775
			v2.462h-7.256c-2.65,0-4.797,2.146-4.797,4.797v4.902c0.307,1.799,1.969,3.188,3.986,3.188h11.26v-0.188
			c0-0.731,0.596-1.326,1.325-1.326h4.823c0.734,0,1.328,0.595,1.328,1.326v0.188H57.5c2.018,0,3.68-1.389,3.982-3.188v-4.902
			C61.482,1108.599,59.337,1106.453,56.686,1106.453z M47.387,1106.453h-9.771v-2.462c0-0.404,0.327-0.732,0.727-0.732h8.316
			c0.399,0,0.728,0.328,0.728,0.732V1106.453L47.387,1106.453z"/>
		<path fill="#FFFFFF" d="M45.221,1119.153c0-0.168-0.141-0.307-0.309-0.307h-4.823c-0.168,0-0.303,0.139-0.303,0.307v2.818
			c0,0.168,0.135,0.306,0.303,0.306h4.823c0.168,0,0.309-0.138,0.309-0.306V1119.153z"/>
	</g>
</g>
<g>
	<circle fill="#9C207A" cx="42.5" cy="1518.545" r="42.5"/>
	<g>
		<g>
			<g>
				<defs>
					<rect id="SVGID_5_" x="19.958" y="1495.861" width="44.035" height="44.033"/>
				</defs>
				<clipPath id="SVGID_6_">
					<use xlink:href="#SVGID_5_"  overflow="visible"/>
				</clipPath>
				<path clip-path="url(#SVGID_6_)" fill="#8E006D" d="M30.055,1539.197c0.877,0.877,2.295,0.877,3.164,0l7.723-7.717l-3.827-3.826
					c-0.581-0.582-0.581-1.525,0-2.109l0.177-0.174c0.582-0.581,1.525-0.581,2.107,0l3.826,3.826l2.598-2.598l-3.825-3.826
					c-0.581-0.582-0.581-1.526,0-2.11l0.173-0.173c0.582-0.582,1.527-0.582,2.109,0l3.826,3.826l4.31-4.31l-12.603-12.603
					l-19.195,19.187c-0.877,0.877-0.877,2.294,0,3.165L30.055,1539.197z"/>
			</g>
			<g>
				<defs>
					<rect id="SVGID_7_" x="19.958" y="1495.861" width="44.035" height="44.033"/>
				</defs>
				<clipPath id="SVGID_8_">
					<use xlink:href="#SVGID_7_"  overflow="visible"/>
				</clipPath>
				<path clip-path="url(#SVGID_8_)" fill="#8E006D" d="M59.688,1506.934c-0.029-0.399-0.041-0.816-0.019-1.25
					c0.085-1.852,1.074-3.525,2.597-4.589c0.191-0.133,0.389-0.293,0.562-0.472c1.277-1.278,1.497-3.125,0.492-4.129
					c-1.006-1.008-2.855-0.787-4.131,0.492c-0.18,0.179-0.332,0.367-0.473,0.562c-1.059,1.521-2.73,2.513-4.588,2.597
					c-0.432,0.02-0.852,0.012-1.248-0.02c-2.119-0.165-4.213,0.357-5.965,1.482l11.289,11.289
					C59.33,1511.146,59.857,1509.047,59.688,1506.934L59.688,1506.934z"/>
			</g>
		</g>
		<path fill="#8E006D" d="M40.866,1506.341l3.751,3.751l5.104,5.105l3.754,3.75l0.034,0.035c0.418,0.418,0.968,0.629,1.519,0.629
			c0.546,0,1.101-0.211,1.517-0.629l1.306-1.303c0.836-0.839,0.836-2.195,0-3.031l-12.686-12.682
			c-0.417-0.418-0.964-0.627-1.518-0.627c-0.553,0-1.1,0.209-1.518,0.627l-1.305,1.305c-0.835,0.836-0.835,2.194,0,3.029
			L40.866,1506.341z"/>
	</g>
	<g>
		<g>
			<defs>
				<rect id="SVGID_9_" x="19.322" y="1495.425" width="44.035" height="44.034"/>
			</defs>
			<clipPath id="SVGID_10_">
				<use xlink:href="#SVGID_9_"  overflow="visible"/>
			</clipPath>
			<path clip-path="url(#SVGID_10_)" fill="#FFFFFF" d="M29.418,1538.762c0.876,0.877,2.294,0.877,3.164,0l7.723-7.719l-3.828-3.824
				c-0.58-0.582-0.58-1.527,0-2.111l0.178-0.174c0.582-0.58,1.525-0.58,2.107,0l3.825,3.828l2.597-2.598l-3.824-3.826
				c-0.582-0.582-0.582-1.527,0-2.111l0.173-0.174c0.581-0.582,1.528-0.582,2.11,0l3.824,3.828l4.311-4.311l-12.603-12.604
				l-19.194,19.188c-0.877,0.877-0.877,2.293,0,3.164L29.418,1538.762z"/>
		</g>
		<g>
			<defs>
				<rect id="SVGID_11_" x="19.322" y="1495.425" width="44.035" height="44.034"/>
			</defs>
			<clipPath id="SVGID_12_">
				<use xlink:href="#SVGID_11_"  overflow="visible"/>
			</clipPath>
			<path clip-path="url(#SVGID_12_)" fill="#FFFFFF" d="M59.052,1506.496c-0.028-0.399-0.04-0.816-0.018-1.249
				c0.084-1.853,1.073-3.526,2.596-4.589c0.19-0.133,0.39-0.293,0.562-0.473c1.277-1.277,1.496-3.125,0.492-4.129
				c-1.006-1.007-2.854-0.787-4.131,0.492c-0.18,0.18-0.332,0.368-0.473,0.562c-1.059,1.521-2.73,2.513-4.588,2.596
				c-0.432,0.02-0.852,0.012-1.248-0.02c-2.119-0.164-4.213,0.357-5.965,1.482l11.289,11.289
				C58.693,1510.709,59.223,1508.609,59.052,1506.496L59.052,1506.496z"/>
		</g>
	</g>
	<path fill="#FFFFFF" d="M40.23,1505.904l3.75,3.75l5.104,5.105l3.754,3.751l0.033,0.034c0.418,0.419,0.967,0.63,1.519,0.63
		c0.547,0,1.102-0.211,1.518-0.63l1.305-1.302c0.836-0.839,0.836-2.195,0-3.032l-12.686-12.682
		c-0.418-0.418-0.965-0.627-1.516-0.627c-0.554,0-1.101,0.209-1.519,0.627l-1.306,1.306c-0.834,0.835-0.834,2.194,0,3.028
		L40.23,1505.904z"/>
</g>
<g>
	<circle fill="#F79E4A" cx="42.5" cy="1657.5" r="42.5"/>
	<g id="Layer_3">
		<g>
			<path fill="#BF5600" d="M51.473,1653.535c-5.604,0-10.166,4.047-10.166,9.652c0,2.688,1.066,5.144,3.004,6.912
				c1.879,1.721,4.424,2.668,7.162,2.668s5.283-0.947,7.164-2.668c1.938-1.771,3.002-4.226,3.002-6.912
				C61.639,1657.582,57.078,1653.535,51.473,1653.535z M51.473,1667.52c-2.389,0-4.33-1.94-4.33-4.332c0-2.387,1.941-4.33,4.33-4.33
				c2.391,0,4.33,1.943,4.33,4.33C55.803,1665.577,53.861,1667.52,51.473,1667.52z"/>
			<path fill="#BF5600" d="M30.561,1658.787c-3.97,0-7.199,3.229-7.199,7.197c0,1.9,0.755,3.641,2.125,4.895
				c1.332,1.219,3.134,1.889,5.074,1.889c1.938,0,3.739-0.67,5.069-1.889c1.372-1.254,2.126-2.992,2.126-4.895
				C37.756,1662.018,34.525,1658.787,30.561,1658.787z M30.561,1669.037c-1.685,0-3.053-1.368-3.053-3.053
				c0-1.686,1.369-3.053,3.053-3.053c1.682,0,3.051,1.367,3.051,3.053C33.611,1667.669,32.241,1669.037,30.561,1669.037z"/>
			<path fill="#BF5600" d="M43.559,1655.475c2.088-1.941,4.898-3.011,7.914-3.011c2.033,0,3.973,0.486,5.658,1.396
				c0.008,0.007,0.018,0.009,0.023,0.012c0.156,0.111,0.35,0.171,0.555,0.152c0.452-0.043,0.787-0.44,0.746-0.895
				c-0.007-0.085-0.77-8.641-0.912-10.318c-0.229-2.653-2.146-2.653-2.869-2.653H43.559c-0.99-0.001-2.83,0-3.397,2.812
				c-0.32,1.582-1.022,4.912-1.563,7.455c-2.854,0-5.529,0-7.598,0v-4.164c0-0.607-0.492-1.1-1.1-1.1s-1.1,0.492-1.1,1.1v4.165
				c-1.055,0-1.724,0-1.854,0c-3.186,0-4.17,6.841-2.416,9.909c1.51-1.609,3.652-2.616,6.029-2.616c4.157,0,7.608,3.085,8.182,7.089
				h1.615c-0.08-0.529-0.119-1.07-0.119-1.619C40.236,1660.207,41.416,1657.469,43.559,1655.475z M55.9,1642.952
				c0.091,1.052,0.424,4.795,0.66,7.473c-1.304,0-3.812,0-6.843,0v-8.62h4.955C55.479,1641.805,55.805,1641.85,55.9,1642.952z
				 M41.773,1643.296c0.302-1.491,0.86-1.489,1.785-1.491H48.4v8.62c-2.553,0-5.381,0-8.121,0
				C40.852,1647.736,41.547,1644.42,41.773,1643.296z"/>
		</g>
	</g>
	<g id="Layer_3_1_">
		<g>
			<path fill="#FFFFFF" d="M51.234,1653.355c-5.604,0-10.164,4.047-10.164,9.652c0,2.688,1.063,5.143,3.002,6.912
				c1.879,1.721,4.424,2.668,7.162,2.668s5.285-0.947,7.166-2.668c1.936-1.771,3-4.225,3-6.912
				C61.4,1657.402,56.84,1653.355,51.234,1653.355z M51.234,1667.339c-2.387,0-4.33-1.94-4.33-4.331c0-2.387,1.943-4.33,4.33-4.33
				c2.391,0,4.33,1.943,4.33,4.33C55.564,1665.396,53.625,1667.339,51.234,1667.339z"/>
			<path fill="#FFFFFF" d="M30.322,1658.607c-3.969,0-7.198,3.229-7.198,7.197c0,1.9,0.754,3.641,2.125,4.895
				c1.332,1.218,3.133,1.889,5.073,1.889c1.938,0,3.74-0.671,5.07-1.889c1.371-1.254,2.125-2.992,2.125-4.895
				C37.52,1661.837,34.29,1658.607,30.322,1658.607z M30.322,1668.857c-1.684,0-3.053-1.368-3.053-3.053
				c0-1.686,1.369-3.054,3.053-3.054c1.682,0,3.051,1.368,3.051,3.054C33.373,1667.489,32.004,1668.857,30.322,1668.857z"/>
			<path fill="#FFFFFF" d="M43.32,1655.295c2.089-1.941,4.897-3.011,7.914-3.011c2.033,0,3.973,0.485,5.658,1.396
				c0.008,0.006,0.018,0.008,0.024,0.012c0.155,0.11,0.351,0.17,0.554,0.151c0.452-0.042,0.788-0.44,0.745-0.894
				c-0.006-0.085-0.769-8.641-0.911-10.319c-0.229-2.653-2.146-2.653-2.867-2.653H43.32c-0.99,0-2.83,0-3.397,2.812
				c-0.319,1.582-1.022,4.912-1.563,7.455c-2.854,0-5.529,0-7.598,0v-4.164c0-0.607-0.492-1.1-1.1-1.1s-1.1,0.492-1.1,1.1v4.165
				c-1.055,0-1.724,0-1.854,0c-3.186,0-4.169,6.841-2.416,9.909c1.51-1.61,3.652-2.616,6.029-2.616c4.158,0,7.609,3.085,8.182,7.088
				h1.615c-0.078-0.528-0.119-1.069-0.119-1.618C40,1660.027,41.178,1657.289,43.32,1655.295z M55.664,1642.771
				c0.09,1.053,0.424,4.795,0.66,7.474c-1.305,0-3.812,0-6.844,0v-8.62h4.957C55.24,1641.625,55.568,1641.669,55.664,1642.771z
				 M41.537,1643.116c0.301-1.491,0.861-1.49,1.783-1.491h4.844v8.62c-2.553,0-5.381,0-8.121,0
				C40.614,1647.557,41.311,1644.24,41.537,1643.116z"/>
		</g>
	</g>
</g>
<g>
	<circle fill="#D33A1E" cx="42.5" cy="586.166" r="42.5"/>
	<g>
		<g>
			<g>
				<defs>
					<rect id="SVGID_13_" x="20.482" y="567.136" width="44.036" height="38.059"/>
				</defs>
				<clipPath id="SVGID_14_">
					<use xlink:href="#SVGID_13_"  overflow="visible"/>
				</clipPath>
				<path clip-path="url(#SVGID_14_)" fill="#931100" d="M35.417,584.195c3.508,0,6.361-3.83,6.361-8.539
					c0-4.711-2.853-8.541-6.361-8.541c-3.51,0-6.365,3.83-6.365,8.541C29.052,580.365,31.908,584.195,35.417,584.195L35.417,584.195
					z"/>
			</g>
		</g>
		<g>
			<g>
				<defs>
					<rect id="SVGID_15_" x="20.482" y="567.136" width="44.036" height="38.059"/>
				</defs>
				<clipPath id="SVGID_16_">
					<use xlink:href="#SVGID_15_"  overflow="visible"/>
				</clipPath>
				<path clip-path="url(#SVGID_16_)" fill="#931100" d="M54.287,592.503c-0.131-0.18-0.254-0.346-0.322-0.49
					c-1.42-3.048-5.32-6.638-11.641-6.726l-0.238-0.003c-6.225,0-10.096,3.4-11.645,6.586c-0.055,0.105-0.169,0.25-0.295,0.398
					c-0.146,0.176-0.294,0.354-0.419,0.547c-1.306,2.035-1.974,4.326-1.875,6.453c0.103,2.256,1.049,4.066,2.653,5.103
					c0.65,0.417,1.354,0.629,2.088,0.629c1.516,0,2.902-0.854,4.512-1.849c1.024-0.627,2.08-1.275,3.253-1.762
					c0.132-0.043,0.668-0.113,1.552-0.113c1.047,0,1.801,0.097,1.961,0.148c1.146,0.508,2.15,1.17,3.127,1.809
					c1.486,0.986,2.896,1.914,4.426,1.914c0.656,0,1.291-0.176,1.893-0.518c3.309-1.88,3.939-7.035,1.404-11.494
					C54.592,592.914,54.439,592.704,54.287,592.503L54.287,592.503z"/>
			</g>
		</g>
		<g>
			<g>
				<defs>
					<rect id="SVGID_17_" x="20.482" y="567.136" width="44.036" height="38.059"/>
				</defs>
				<clipPath id="SVGID_18_">
					<use xlink:href="#SVGID_17_"  overflow="visible"/>
				</clipPath>
				<path clip-path="url(#SVGID_18_)" fill="#931100" d="M48.945,584.195c3.508,0,6.363-3.83,6.363-8.539
					c0-4.711-2.855-8.541-6.363-8.541s-6.361,3.83-6.361,8.541C42.584,580.365,45.438,584.195,48.945,584.195L48.945,584.195z"/>
			</g>
		</g>
	</g>
	<path fill="#931100" d="M59.396,579.81c-2.812,0-5.016,2.916-5.016,6.64c0,3.721,2.203,6.637,5.016,6.637
		c2.809,0,5.016-2.916,5.016-6.637C64.41,582.726,62.203,579.81,59.396,579.81L59.396,579.81z"/>
	<path fill="#931100" d="M30.507,586.45c0-3.726-2.202-6.64-5.012-6.64c-2.813,0-5.014,2.916-5.014,6.64
		c0,3.721,2.199,6.637,5.014,6.637C28.305,593.086,30.507,590.17,30.507,586.45L30.507,586.45z"/>
	<g>
		<g>
			<g>
				<g>
					<defs>
						<rect id="SVGID_19_" x="20.047" y="566.918" width="44.033" height="38.06"/>
					</defs>
					<clipPath id="SVGID_20_">
						<use xlink:href="#SVGID_19_"  overflow="visible"/>
					</clipPath>
					<path clip-path="url(#SVGID_20_)" fill="#FFFFFF" d="M34.981,583.978c3.509,0,6.361-3.832,6.361-8.541
						s-2.852-8.541-6.361-8.541c-3.509,0-6.364,3.832-6.364,8.541S31.472,583.978,34.981,583.978L34.981,583.978z"/>
				</g>
			</g>
			<g>
				<g>
					<defs>
						<rect id="SVGID_21_" x="20.047" y="566.918" width="44.033" height="38.06"/>
					</defs>
					<clipPath id="SVGID_22_">
						<use xlink:href="#SVGID_21_"  overflow="visible"/>
					</clipPath>
					<path clip-path="url(#SVGID_22_)" fill="#FFFFFF" d="M53.854,592.285c-0.133-0.18-0.254-0.346-0.322-0.49
						c-1.42-3.047-5.322-6.637-11.644-6.727l-0.239-0.002c-6.225,0-10.095,3.4-11.645,6.586c-0.055,0.104-0.168,0.25-0.295,0.396
						c-0.146,0.178-0.293,0.355-0.418,0.549c-1.307,2.033-1.974,4.324-1.875,6.451c0.102,2.258,1.049,4.068,2.652,5.104
						c0.65,0.418,1.354,0.629,2.088,0.629c1.516,0,2.903-0.855,4.512-1.848c1.024-0.627,2.081-1.275,3.254-1.764
						c0.131-0.043,0.668-0.111,1.551-0.111c1.047,0,1.801,0.096,1.961,0.148c1.146,0.506,2.15,1.168,3.127,1.809
						c1.486,0.984,2.896,1.914,4.426,1.914c0.656,0,1.291-0.178,1.891-0.518c3.311-1.881,3.941-7.037,1.406-11.496
						C54.154,592.695,54.004,592.486,53.854,592.285L53.854,592.285z"/>
				</g>
			</g>
			<g>
				<g>
					<defs>
						<rect id="SVGID_23_" x="20.047" y="566.918" width="44.033" height="38.06"/>
					</defs>
					<clipPath id="SVGID_24_">
						<use xlink:href="#SVGID_23_"  overflow="visible"/>
					</clipPath>
					<path clip-path="url(#SVGID_24_)" fill="#FFFFFF" d="M48.51,583.978c3.51,0,6.363-3.832,6.363-8.541s-2.854-8.541-6.363-8.541
						c-3.508,0-6.362,3.832-6.362,8.541S45.002,583.978,48.51,583.978L48.51,583.978z"/>
				</g>
			</g>
		</g>
		<path fill="#FCFCFC" d="M58.961,579.591c-2.812,0-5.018,2.916-5.018,6.641c0,3.721,2.203,6.637,5.018,6.637
			c2.809,0,5.016-2.916,5.016-6.637C63.977,582.506,61.77,579.591,58.961,579.591L58.961,579.591z"/>
		<path fill="#FCFCFC" d="M30.071,586.232c0-3.726-2.202-6.641-5.013-6.641c-2.812,0-5.013,2.916-5.013,6.641
			c0,3.721,2.199,6.637,5.013,6.637C27.869,592.869,30.071,589.953,30.071,586.232L30.071,586.232z"/>
	</g>
</g>
<g>
	<circle fill="#5204AD" cx="42.5" cy="852.56" r="42.5"/>
	<g>
		<g>
			<path fill="#2A006D" d="M65.719,835.257h-3.294c-4.777-2.133-8.835-3.229-12.066-3.229c-4.188,0-6.147,1.824-7.035,3.217
				c-0.889-1.393-2.848-3.217-7.035-3.217c-3.233,0-7.29,1.096-12.069,3.229h-3.294c-1.402,0-2.538,1.136-2.538,2.537v24.703
				c0,1.401,1.136,2.539,2.538,2.539h44.794c1.402,0,2.538-1.138,2.538-2.539v-24.703C68.257,836.393,67.121,835.257,65.719,835.257
				z M42.636,836.796c-0.008,0.041-0.012,0.08-0.012,0.121v23.297c-1.11-1.281-2.969-2.262-6.079-2.262
				c-5.552,0-12.521,3.045-15.01,4.223v-24.239c2.132-1.086,4.121-1.972,5.978-2.679c3.406-1.297,6.348-1.961,8.773-1.961
				c2.975,0,4.601,0.994,5.479,1.961c0.509,0.556,0.77,1.103,0.894,1.439C42.646,836.753,42.636,836.792,42.636,836.796z
				 M65.108,862.175c-2.488-1.178-9.459-4.223-15.01-4.223c-3.111,0-4.97,0.979-6.08,2.262c-0.041,0.049-0.088,0.092-0.125,0.139
				v-23.363c0.014-0.057,0.041-0.154,0.09-0.287c0.127-0.336,0.393-0.884,0.906-1.444c0.885-0.964,2.51-1.959,5.467-1.959
				c2.426,0,5.365,0.665,8.773,1.959c1.855,0.708,3.846,1.593,5.977,2.679L65.108,862.175L65.108,862.175z"/>
		</g>
	</g>
	<g>
		<g>
			<path fill="#FFFFFF" d="M64.719,835.257h-3.294c-4.777-2.133-8.835-3.229-12.066-3.229c-4.188,0-6.147,1.824-7.035,3.217
				c-0.889-1.393-2.848-3.217-7.035-3.217c-3.233,0-7.29,1.096-12.069,3.229h-3.294c-1.402,0-2.538,1.136-2.538,2.537v24.703
				c0,1.401,1.136,2.539,2.538,2.539h44.794c1.402,0,2.538-1.138,2.538-2.539v-24.703C67.257,836.393,66.121,835.257,64.719,835.257
				z M41.636,836.796c-0.008,0.041-0.012,0.08-0.012,0.121v23.297c-1.11-1.281-2.969-2.262-6.079-2.262
				c-5.552,0-12.521,3.045-15.01,4.223v-24.239c2.132-1.086,4.121-1.972,5.978-2.679c3.406-1.297,6.348-1.961,8.773-1.961
				c2.975,0,4.601,0.994,5.479,1.961c0.509,0.556,0.77,1.103,0.894,1.439C41.646,836.753,41.636,836.792,41.636,836.796z
				 M64.108,862.175c-2.488-1.178-9.459-4.223-15.01-4.223c-3.111,0-4.97,0.979-6.081,2.262c-0.04,0.049-0.087,0.092-0.125,0.139
				v-23.363c0.014-0.057,0.042-0.154,0.091-0.287c0.127-0.336,0.393-0.884,0.906-1.444c0.885-0.964,2.51-1.959,5.467-1.959
				c2.426,0,5.365,0.665,8.773,1.959c1.855,0.708,3.846,1.593,5.977,2.679L64.108,862.175L64.108,862.175z"/>
		</g>
	</g>
	<path fill="#5204AD" d="M39.93,850.18c-1.016,0.411-0.828,28.54-0.728,29.606c5.636,4.186-3.919,6.86,3.638,6.86
		c18.72,0,33.894-15.176,33.894-33.894c0-1.096-0.059-2.178-0.158-3.248c-7.42,0.604-15.313-4.141-21.34-5.907
		C53.907,843.21,44.294,848.413,39.93,850.18z"/>
	<g>
		<g>
			<path fill="#2A006D" d="M42.162,854.019c0,3.695,0,14.293,0,14.293c0,0.639,0.377,1.223,0.961,1.486l10.837,4.83
				c0.535,0.238,1.145-0.154,1.145-0.744v-14.818c0-0.322-0.189-0.611-0.481-0.74l-11.315-5.051
				C42.767,853.036,42.162,853.431,42.162,854.019z M48.284,861.294c0.701-0.045,1.328,0.863,1.404,2.031
				c0.073,1.168-0.437,2.147-1.139,2.19c-0.701,0.047-1.329-0.865-1.402-2.033C47.071,862.319,47.582,861.337,48.284,861.294z"/>
			<path fill="#2A006D" d="M69.179,868.31c0,0,0-10.6,0-14.295c0-0.588-0.607-0.98-1.144-0.74l-11.314,5.051
				c-0.292,0.129-0.479,0.424-0.479,0.74v14.818c0,0.59,0.606,0.982,1.144,0.744l10.835-4.836
				C68.803,869.534,69.179,868.95,69.179,868.31z M61.657,867.919c-0.074,1.166-0.701,2.072-1.403,2.031
				c-0.701-0.045-1.208-1.027-1.137-2.191c0.073-1.166,0.702-2.074,1.401-2.031C61.228,865.772,61.733,866.755,61.657,867.919z
				 M66.462,859.683c-0.072,1.168-0.701,2.072-1.404,2.033c-0.701-0.047-1.209-1.027-1.138-2.191
				c0.075-1.168,0.703-2.076,1.403-2.031C66.026,857.534,66.535,858.517,66.462,859.683z"/>
			<path fill="#2A006D" d="M43.871,852.282l11.469,5.115c0.212,0.096,0.452,0.096,0.663,0l11.471-5.115
				c0.648-0.289,0.639-1.215-0.018-1.492l-11.153-4.705c-0.2-0.084-0.416-0.127-0.629-0.127c-0.216,0-0.432,0.043-0.633,0.127
				l-11.156,4.705C43.231,851.067,43.221,851.993,43.871,852.282z M61.86,850.192c1.166-0.005,2.115,0.562,2.117,1.27
				c0.004,0.705-0.938,1.281-2.105,1.285c-1.166,0.008-2.115-0.562-2.118-1.267C59.75,850.773,60.692,850.196,61.86,850.192z
				 M55.665,850.192c1.166-0.005,2.115,0.562,2.119,1.27c0.004,0.705-0.939,1.281-2.105,1.285c-1.166,0.008-2.115-0.562-2.119-1.267
				C53.556,850.773,54.499,850.196,55.665,850.192z M49.472,850.192c1.168-0.005,2.115,0.562,2.119,1.27
				c0.003,0.705-0.939,1.281-2.105,1.285c-1.168,0.004-2.116-0.562-2.119-1.267C47.36,850.773,48.304,850.196,49.472,850.192z"/>
		</g>
	</g>
	<g>
		<g>
			<path fill="#FFFFFF" d="M41.495,853.853c0,3.695,0,14.293,0,14.293c0,0.639,0.377,1.223,0.961,1.486l10.837,4.83
				c0.535,0.238,1.144-0.154,1.144-0.744v-14.818c0-0.322-0.188-0.611-0.48-0.74l-11.315-5.052
				C42.1,852.87,41.495,853.264,41.495,853.853z M47.617,861.128c0.702-0.045,1.329,0.863,1.405,2.031
				c0.072,1.168-0.438,2.147-1.14,2.19c-0.7,0.047-1.329-0.865-1.403-2.033C46.405,862.153,46.915,861.171,47.617,861.128z"/>
			<path fill="#FFFFFF" d="M68.512,868.144c0,0,0-10.6,0-14.295c0-0.588-0.606-0.98-1.144-0.741l-11.314,5.052
				c-0.292,0.129-0.479,0.424-0.479,0.74v14.818c0,0.59,0.607,0.982,1.144,0.744l10.835-4.836
				C68.136,869.368,68.512,868.784,68.512,868.144z M60.989,867.753c-0.073,1.166-0.7,2.072-1.402,2.031
				c-0.701-0.045-1.208-1.027-1.137-2.191c0.074-1.166,0.701-2.074,1.402-2.031C60.56,865.606,61.065,866.589,60.989,867.753z
				 M65.795,859.517c-0.073,1.168-0.701,2.072-1.403,2.033c-0.701-0.047-1.209-1.027-1.139-2.191
				c0.075-1.168,0.703-2.076,1.404-2.031C65.358,857.368,65.868,858.351,65.795,859.517z"/>
			<path fill="#FFFFFF" d="M43.204,852.116l11.469,5.115c0.212,0.096,0.452,0.096,0.663,0l11.47-5.115
				c0.649-0.289,0.641-1.215-0.017-1.492l-11.153-4.705c-0.201-0.084-0.416-0.127-0.629-0.127c-0.216,0-0.432,0.043-0.633,0.127
				l-11.156,4.705C42.564,850.901,42.554,851.827,43.204,852.116z M61.192,850.026c1.168-0.005,2.115,0.562,2.119,1.27
				c0.002,0.705-0.939,1.281-2.106,1.285c-1.166,0.008-2.115-0.562-2.118-1.267C59.083,850.607,60.026,850.03,61.192,850.026z
				 M54.998,850.026c1.166-0.005,2.116,0.562,2.119,1.27c0.004,0.705-0.939,1.281-2.105,1.285c-1.166,0.008-2.116-0.562-2.12-1.267
				C52.89,850.607,53.832,850.03,54.998,850.026z M48.806,850.026c1.166-0.005,2.114,0.562,2.118,1.27
				c0.003,0.705-0.94,1.281-2.106,1.285s-2.115-0.562-2.119-1.267C46.694,850.607,47.637,850.03,48.806,850.026z"/>
		</g>
	</g>
</g>
</svg>
