<?xml version="1.0" encoding="utf-8"?>
<!-- Generator: Adobe Illustrator 20.0.0, SVG Export Plug-In . SVG Version: 6.00 Build 0)  -->
<svg version="1.1" id="Layer_1" xmlns="http://www.w3.org/2000/svg" xmlns:xlink="http://www.w3.org/1999/xlink" x="0px" y="0px"
	 width="50px" height="50px" viewBox="0 0 50 50" style="enable-background:new 0 0 50 50;" xml:space="preserve">
<style type="text/css">
	.st0{fill:#B3B3B3;}
</style>
<path class="st0" d="M25,12.9c-6.7,0-12.1,5.4-12.1,12.1S18.3,37.1,25,37.1c6.7,0,12.1-5.4,12.1-12.1S31.7,12.9,25,12.9z M25,35.1
	c-5.6,0-10.1-4.5-10.1-10.1S19.4,14.9,25,14.9S35.1,19.4,35.1,25S30.6,35.1,25,35.1z M38.9,3.8H11.1c-4,0-7.3,3.3-7.3,7.3v27.8
	c0,4,3.3,7.3,7.3,7.3h27.8c4,0,7.3-3.3,7.3-7.3V11.1C46.2,7.1,42.9,3.8,38.9,3.8z M44.2,38.9c0,2.9-2.4,5.3-5.3,5.3H11.1
	c-2.9,0-5.3-2.4-5.3-5.3V11.1c0-2.9,2.4-5.3,5.3-5.3h27.8c2.9,0,5.3,2.4,5.3,5.3V38.9z M26,17.8c0-0.6-0.4-1-1-1s-1,0.4-1,1V24h-6.2
	c-0.6,0-1,0.4-1,1s0.4,1,1,1H24v6.2c0,0.6,0.4,1,1,1s1-0.4,1-1V26h6.2c0.6,0,1-0.4,1-1s-0.4-1-1-1H26V17.8z M38.6,8.9
	c-1.3,0-2.4,1.1-2.4,2.4c0,1.3,1.1,2.4,2.4,2.4c1.3,0,2.4-1.1,2.4-2.4C41,9.9,39.9,8.9,38.6,8.9z"/>
</svg>
