<?xml version="1.0" encoding="utf-8"?>
<!-- Generator: Adobe Illustrator 20.0.0, SVG Export Plug-In . SVG Version: 6.00 Build 0)  -->
<svg version="1.1" id="Layer_1" xmlns="http://www.w3.org/2000/svg" xmlns:xlink="http://www.w3.org/1999/xlink" x="0px" y="0px"
	 width="18px" height="18px" viewBox="0 0 50 50" style="enable-background:new 0 0 50 50;" xml:space="preserve">
<style type="text/css">
	.st0{fill:#B3B3B3;}
</style>
<path class="st0" d="M42.7,35.1c-2.1-0.8-4.7-3.4-5.5-11.2c-0.9-9.1-2.8-15.3-9.1-16.7c0.4-0.6,0.6-1.3,0.6-2.1c0-2-1.7-3.7-3.7-3.7
	c-2,0-3.7,1.7-3.7,3.7c0,0.8,0.2,1.5,0.6,2.1c-6.4,1.4-8.3,7.5-9.1,16.7c-0.7,7.9-3.4,10.4-5.5,11.2c-1.3,0.5-2.1,1.7-2.1,3v1.4
	c0,1.3,1.1,2.4,2.4,2.4h34.7c1.4,0,2.4-1.1,2.4-2.4v-1.4C44.8,36.8,44,35.6,42.7,35.1z M25,3.5c0.9,0,1.7,0.8,1.7,1.7
	S25.9,6.9,25,6.9s-1.7-0.8-1.7-1.7S24.1,3.5,25,3.5z M42.8,39.5c0,0.2-0.2,0.4-0.4,0.4H7.6c-0.2,0-0.4-0.2-0.4-0.4v-1.4
	c0-0.5,0.3-0.9,0.8-1.1c2.6-1,5.9-4,6.8-12.9C15.9,12.8,18.4,9,25,9c6.6,0,9.1,3.8,10.2,15.2C36,33,39.4,36,42,37
	c0.5,0.2,0.8,0.6,0.8,1.1V39.5z M28.6,42.9c-0.6,0-1,0.4-1,1c0,1.4-1.2,2.6-2.6,2.6s-2.6-1.2-2.6-2.6c0-0.6-0.4-1-1-1s-1,0.4-1,1
	c0,2.5,2.1,4.6,4.6,4.6s4.6-2.1,4.6-4.6C29.6,43.4,29.1,42.9,28.6,42.9z"/>
</svg>
