<?xml version="1.0" encoding="utf-8"?>
<!-- Generator: Adobe Illustrator 20.0.0, SVG Export Plug-In . SVG Version: 6.00 Build 0)  -->
<svg version="1.1" id="Layer_1" xmlns="http://www.w3.org/2000/svg" xmlns:xlink="http://www.w3.org/1999/xlink" x="0px" y="0px"
	 width="24px" height="24px" viewBox="0 0 50 50" style="enable-background:new 0 0 50 50;" xml:space="preserve">
<style type="text/css">
	.st0{fill-rule:evenodd;clip-rule:evenodd;fill:#4A4A4A;}
</style>
<path class="st0" d="M11.2,36.6c0,0.9,0.3,1.7,1,2.3c0.6,0.6,1.4,0.9,2.3,0.9h2.2l0,6.7c0,0.8,0.3,1.6,0.9,2.2
	c0.6,0.6,1.3,0.9,2.2,0.9c0.9,0,1.6-0.3,2.2-0.9c0.6-0.6,0.9-1.3,0.9-2.2v-6.7h4.1v6.7c0,0.8,0.3,1.6,0.9,2.2
	c0.6,0.6,1.3,0.9,2.2,0.9c0.9,0,1.6-0.3,2.2-0.9c0.6-0.6,0.9-1.3,0.9-2.2v-6.7h2.3c0.9,0,1.7-0.3,2.3-0.9c0.6-0.6,1-1.4,1-2.3V16.9
	H11.2V36.6z M7,16.3c-0.9,0-1.6,0.3-2.2,0.9c-0.6,0.6-0.9,1.3-0.9,2.1v12.7c0,0.8,0.3,1.6,0.9,2.2s1.3,0.9,2.2,0.9
	c0.9,0,1.6-0.3,2.2-0.9c0.6-0.6,0.9-1.3,0.9-2.2V19.4c0-0.8-0.3-1.5-0.9-2.1C8.5,16.6,7.8,16.3,7,16.3z M31.8,4.9l2.1-3.9
	c0.1-0.3,0.1-0.5-0.1-0.6c-0.3-0.1-0.5-0.1-0.6,0.2L31,4.6c-1.9-0.8-3.9-1.2-6-1.2c-2.1,0-4.1,0.4-6,1.2l-2.2-3.9
	c-0.1-0.2-0.3-0.3-0.6-0.2c-0.2,0.1-0.3,0.3-0.1,0.6l2.1,3.9C16,6,14.3,7.5,13,9.5c-1.3,1.9-1.9,4.1-1.9,6.4h27.8
	c0-2.3-0.6-4.4-1.9-6.4S34,6,31.8,4.9z M19.5,10.6c-0.2,0.2-0.5,0.3-0.8,0.3s-0.6-0.1-0.8-0.3c-0.2-0.2-0.3-0.5-0.3-0.8
	s0.1-0.6,0.3-0.8c0.2-0.2,0.5-0.3,0.8-0.3c0.3,0,0.6,0.1,0.8,0.3c0.2,0.2,0.3,0.5,0.3,0.8S19.7,10.3,19.5,10.6z M32.1,10.6
	c-0.2,0.2-0.5,0.3-0.8,0.3s-0.6-0.1-0.8-0.3c-0.2-0.2-0.3-0.5-0.3-0.8s0.1-0.6,0.3-0.8c0.2-0.2,0.5-0.3,0.8-0.3s0.6,0.1,0.8,0.3
	c0.2,0.2,0.3,0.5,0.3,0.8S32.4,10.3,32.1,10.6z M45.2,17.2c-0.6-0.6-1.3-0.9-2.2-0.9c-0.8,0-1.6,0.3-2.2,0.9
	c-0.6,0.6-0.9,1.3-0.9,2.1v12.7c0,0.8,0.3,1.6,0.9,2.2c0.6,0.6,1.3,0.9,2.2,0.9c0.9,0,1.6-0.3,2.2-0.9c0.6-0.6,0.9-1.3,0.9-2.2V19.4
	C46.1,18.5,45.8,17.8,45.2,17.2z"/>
</svg>
