<?xml version="1.0" encoding="utf-8"?>
<!-- Generator: Adobe Illustrator 20.0.0, SVG Export Plug-In . SVG Version: 6.00 Build 0)  -->
<svg version="1.1" id="Layer_1" xmlns="http://www.w3.org/2000/svg" xmlns:xlink="http://www.w3.org/1999/xlink" x="0px" y="0px"
	 width="50px" height="50px" viewBox="0 0 50 50" style="enable-background:new 0 0 50 50;" xml:space="preserve">
<style type="text/css">
	.st0{fill:#B3B3B3;}
</style>
<path class="st0" d="M43.7,36.1L37.5,30c-0.6-0.6-1.3-0.9-2.1-0.9s-1.5,0.3-2.1,0.9L30,33.3c0,0-3.3-1.8-7.4-5.9
	c-4.1-4.1-5.9-7.4-5.9-7.4l3.3-3.3c1.2-1.2,1.2-3,0-4.2l-6.1-6.1c-0.6-0.6-1.3-0.9-2.1-0.9c-0.8,0-1.5,0.3-2.1,0.9L7.5,8.5
	c-4.9,4.9-0.6,15.8,8.8,25.2c6.7,6.7,14.2,10.9,19.7,10.9c2.2,0,4.1-0.6,5.4-2l2.2-2.2C44.8,39.2,44.8,37.3,43.7,36.1z M42.2,38.9
	l-2.2,2.2c-1,1-2.3,1.4-4,1.4c-5,0-12-3.9-18.3-10.3C9,23.5,5.1,13.7,8.9,9.9l2.2-2.2c0.2-0.2,0.5-0.3,0.7-0.3c0.2,0,0.4,0,0.7,0.3
	l6.1,6.1c0.2,0.2,0.3,0.5,0.3,0.7c0,0.2,0,0.4-0.3,0.7l-3.3,3.3c-0.6,0.6-0.8,1.6-0.3,2.4c0.1,0.1,2,3.6,6.2,7.8
	c4.2,4.2,7.7,6.2,7.8,6.2c0.3,0.2,0.6,0.3,1,0.3c0.5,0,1-0.2,1.4-0.6l3.3-3.3c0.2-0.2,0.5-0.3,0.7-0.3s0.4,0,0.7,0.3l6.1,6.1
	C42.6,37.9,42.6,38.5,42.2,38.9z"/>
</svg>
