<?xml version="1.0" encoding="utf-8"?>
<!-- Generator: Adobe Illustrator 20.0.0, SVG Export Plug-In . SVG Version: 6.00 Build 0)  -->
<svg version="1.1" id="Layer_1" xmlns="http://www.w3.org/2000/svg" xmlns:xlink="http://www.w3.org/1999/xlink" x="0px" y="0px"
	 width="50px" height="50px" viewBox="0 0 50 50" style="enable-background:new 0 0 50 50;" xml:space="preserve">
<style type="text/css">
	.st0{fill:#B3B3B3;}
</style>
<path class="st0" d="M43.9,7.9H6.1c-1.8,0-3.2,1.4-3.2,3.2v27.8c0,1.8,1.4,3.2,3.2,3.2h37.8c1.8,0,3.2-1.4,3.2-3.2V11.1
	C47.1,9.3,45.7,7.9,43.9,7.9z M6.1,9.9h37.8c0.7,0,1.2,0.6,1.2,1.2v5.3L27.6,26.5c-1.6,0.9-3.7,0.9-5.3,0L4.9,16.4v-5.3
	C4.9,10.4,5.4,9.9,6.1,9.9z M43.9,40.1H6.1c-0.7,0-1.2-0.6-1.2-1.2V18.7l16.5,9.6c1.1,0.7,2.4,1,3.6,1c1.3,0,2.5-0.3,3.6-1l16.5-9.6
	v20.2C45.1,39.6,44.6,40.1,43.9,40.1z"/>
</svg>
