<?xml version="1.0" encoding="utf-8"?>
<!-- Generator: Adobe Illustrator 16.0.0, SVG Export Plug-In . SVG Version: 6.00 Build 0)  -->
<!DOCTYPE svg PUBLIC "-//W3C//DTD SVG 1.1//EN" "http://www.w3.org/Graphics/SVG/1.1/DTD/svg11.dtd">
<svg version="1.1" id="Layer_1" xmlns="http://www.w3.org/2000/svg" xmlns:xlink="http://www.w3.org/1999/xlink" x="0px" y="0px"
	 width="20px" height="20px" viewBox="0 0 30 30" enable-background="new 0 0 30 30" xml:space="preserve">
<g>
	<path fill="#FFFFFF" d="M30,26.998C30,28.654,28.655,30,26.999,30H2.997C1.341,30,0,28.654,0,26.998V3.001C0,1.345,1.341,0,2.997,0
		h24.002C28.655,0,30,1.345,30,3.001V26.998z"/>
	<path fill="#3B5999" d="M19.974,16.129l0.484-3.779h-3.736V9.937c0-1.091,0.301-1.837,1.868-1.837l1.999-0.001v-3.38
		c-0.345-0.045-1.53-0.148-2.914-0.148c-2.887,0-4.857,1.76-4.857,4.995v2.785H9.553v3.779h3.265v9.693h3.904v-9.693H19.974z"/>
</g>
</svg>
