<?xml version="1.0" encoding="utf-8"?>
<!-- Generator: Adobe Illustrator 20.0.0, SVG Export Plug-In . SVG Version: 6.00 Build 0)  -->
<svg version="1.1" id="Layer_1" xmlns="http://www.w3.org/2000/svg" xmlns:xlink="http://www.w3.org/1999/xlink" x="0px" y="0px"
	 width="50px" height="50px" viewBox="0 0 50 50" style="enable-background:new 0 0 50 50;" xml:space="preserve">
<style type="text/css">
	.st0{fill:#B3B3B3;}
</style>
<path class="st0" d="M28.8,26.8l-2.1-5.4c0,0,0-0.1-0.1-0.1c-0.3-0.6-0.9-0.9-1.6-0.9c-0.7,0-1.3,0.4-1.6,0.9c0,0,0,0.1-0.1,0.1
	l-2.1,5.4l-5.9,0.3c0,0-0.1,0-0.1,0c-0.7,0.1-1.2,0.6-1.4,1.3s0,1.3,0.4,1.8c0,0,0.1,0.1,0.1,0.1l4.5,3.6l-1.5,5.7c0,0,0,0.1,0,0.1
	c-0.1,0.7,0.2,1.3,0.8,1.7c0.6,0.4,1.3,0.4,1.9,0.1c0,0,0.1,0,0.1-0.1l4.9-3.2l4.9,3.2c0,0,0.1,0,0.1,0.1c0.3,0.1,0.5,0.2,0.8,0.2
	c0.4,0,0.7-0.1,1.1-0.3c0.6-0.4,0.8-1.1,0.8-1.7c0,0,0-0.1,0-0.1L31.1,34l4.5-3.6c0,0,0.1-0.1,0.1-0.1c0.5-0.5,0.6-1.2,0.4-1.8
	s-0.7-1.1-1.4-1.3c0,0-0.1,0-0.1,0L28.8,26.8z M29.3,32.8c-0.3,0.2-0.4,0.7-0.3,1l1.5,5.8l-5-3.3c-0.2-0.1-0.4-0.2-0.5-0.2
	s-0.4,0.1-0.5,0.2l-5,3.3l1.5-5.8c0.1-0.4,0-0.8-0.3-1l-4.6-3.7l5.9-0.4c0.4,0,0.7-0.3,0.9-0.6l2.1-5.5l2.1,5.5
	c0.1,0.4,0.5,0.6,0.9,0.6l5.9,0.4L29.3,32.8z M35.1,19.7l8.8-17.3h-2.2l-8.2,16.1C31,17,28.1,16.1,25,16.1c-0.1,0-0.3,0-0.4,0
	l6.9-13.6h-2.2l-7.1,13.9c-2.1,0.4-4,1.1-5.7,2.2L8.4,2.4H6.1l8.8,17.3c-3.5,2.9-5.7,7.2-5.7,12.1c0,8.7,7.1,15.8,15.8,15.8
	s15.8-7.1,15.8-15.8C40.7,27,38.5,22.6,35.1,19.7z M25,45.6c-7.6,0-13.8-6.2-13.8-13.8S17.4,18.1,25,18.1s13.8,6.2,13.8,13.8
	S32.6,45.6,25,45.6z M24.2,9.2l-3.4-6.8h-2.2l4.5,8.8L24.2,9.2z"/>
</svg>
