<?xml version="1.0" encoding="utf-8"?>
<!-- Generator: Adobe Illustrator 20.0.0, SVG Export Plug-In . SVG Version: 6.00 Build 0)  -->
<svg version="1.1" id="Layer_1" xmlns="http://www.w3.org/2000/svg" xmlns:xlink="http://www.w3.org/1999/xlink" x="0px" y="0px"
	 width="146px" height="50px" viewBox="0 0 146 50" style="enable-background:new 0 0 146 50;" xml:space="preserve">
<style type="text/css">
	.st0{fill:#010101;}
	.st1{fill:none;}
	.st2{fill:url(#SVGID_1_);}
	.st3{fill:url(#SVGID_2_);}
	.st4{fill:url(#SVGID_3_);}
	.st5{fill:url(#SVGID_4_);}
	.st6{fill:#FFFFFF;}
</style>
<g>
	<path class="st0" d="M4.9,0h136.2c2.6,0,4.8,2.1,4.8,4.8v40.5c0,2.6-2.1,4.8-4.8,4.8H4.9c-2.6,0-4.8-2.1-4.8-4.8V4.8
		C0.2,2.1,2.3,0,4.9,0z"/>
	<polygon class="st1" points="19.1,31.9 22.8,28.2 22.8,28.2 19.1,31.9 7.2,20 7.2,20 19.1,31.9 7.1,43.8 7.1,43.8 19.1,31.9
		22.9,35.6 22.9,35.6 	"/>

		<linearGradient id="SVGID_1_" gradientUnits="userSpaceOnUse" x1="637.9961" y1="316.2941" x2="622.2401" y2="326.1512" gradientTransform="matrix(0.7071 0.7071 0.7071 -0.7071 -658.2007 -196.5477)">
		<stop  offset="0" style="stop-color:#D6E59D"/>
		<stop  offset="0.45" style="stop-color:#94C3A9"/>
		<stop  offset="1" style="stop-color:#00A3B6"/>
	</linearGradient>
	<path class="st2" d="M22.8,28.1l-14.6-8c-0.3-0.2-0.7-0.3-1.1-0.2l11.9,11.9L22.8,28.1z"/>

		<linearGradient id="SVGID_2_" gradientUnits="userSpaceOnUse" x1="628.8378" y1="324.7208" x2="649.2604" y2="319.3815" gradientTransform="matrix(0.7071 0.7071 0.7071 -0.7071 -658.2007 -196.5477)">
		<stop  offset="0" style="stop-color:#EC297B"/>
		<stop  offset="2.000000e-02" style="stop-color:#ED327C"/>
		<stop  offset="0.7" style="stop-color:#F5BB80"/>
		<stop  offset="1" style="stop-color:#FCE974"/>
	</linearGradient>
	<path class="st3" d="M22.9,35.6l5-2.7c1-0.6,1-1.5,0-2l-5-2.7l-3.7,3.7L22.9,35.6z"/>

		<linearGradient id="SVGID_3_" gradientUnits="userSpaceOnUse" x1="640.2282" y1="308.8015" x2="618.0794" y2="321.8372" gradientTransform="matrix(0.7071 0.7071 0.7071 -0.7071 -658.2007 -196.5477)">
		<stop  offset="0" style="stop-color:#88CEBC"/>
		<stop  offset="9.000000e-02" style="stop-color:#7DBDBA"/>
		<stop  offset="0.54" style="stop-color:#467CAC"/>
		<stop  offset="0.85" style="stop-color:#1D5AA1"/>
		<stop  offset="1" style="stop-color:#094F9C"/>
	</linearGradient>
	<path class="st4" d="M7.2,20c-0.5,0.2-0.8,0.7-0.7,1.3v21.4c-0.1,0.5,0.2,1,0.7,1.3l12-12L7.2,20z"/>

		<linearGradient id="SVGID_4_" gradientUnits="userSpaceOnUse" x1="648.2836" y1="319.1674" x2="634.6407" y2="301.1972" gradientTransform="matrix(0.7071 0.7071 0.7071 -0.7071 -658.2007 -196.5477)">
		<stop  offset="0" style="stop-color:#EF4B29"/>
		<stop  offset="0.47" style="stop-color:#B4506B"/>
		<stop  offset="0.84" style="stop-color:#8B5191"/>
		<stop  offset="1" style="stop-color:#7951A0"/>
	</linearGradient>
	<path class="st5" d="M7.1,43.8c0.4,0.1,0.8,0,1.1-0.2l14.6-8l-3.8-3.8L7.1,43.8z"/>
	<path class="st6" d="M56.6,26.9c-3.5,0-6,2.6-6,5.6c0,0.1,0,0.1,0,0.2c0.1,3,2.6,5.3,5.6,5.2c0.1,0,0.1,0,0.2,0
		c3.1,0,5.6-2.5,5.6-5.6c0-0.1,0-0.2,0-0.2C62,29.1,59.6,26.8,56.6,26.9z M59.2,36.1c-0.6,0.7-1.4,1.2-2.4,1.2c-2.8,0-3.9-3.8-3.9-6
		c-0.1-1,0.3-2.1,1.1-2.8c0.6-0.5,1.3-0.8,2.1-0.8c2.9,0,3.8,3.9,3.8,5.9C59.9,34.4,59.7,35.3,59.2,36.1z M43.7,33.5l3.3-0.2v3.5
		c-0.9,0.4-1.8,0.6-2.7,0.5c-4.7,0-7.6-3.8-7.6-7.9c0-3.8,2.5-6.4,6-6.4c1.8,0,3.4,0.7,4.6,2L46.7,26l0.8-0.2l1.8-1.7
		c-0.9-0.6-1.8-1.1-2.9-1.3c-1.1-0.3-2.2-0.4-3.3-0.4c-5.5,0-8.7,3.9-8.7,8.1c0,3.4,2.3,7.8,8.2,7.8c1.2,0,2.4-0.2,3.6-0.4l3.1-0.7
		l0,0v-2.6c0-0.2,0-0.8,0-1c0-0.1,0.1-0.3,0.2-0.3l0.6-0.5h-4.6L43.7,33.5z M110.8,26.8c-1.5,0-2.9,0.7-3.8,2v-1.7h-1.2V42h1.2v-5.9
		c0.8,1.2,2.3,2,3.8,2c2.9,0,4.8-2.2,4.8-5.7C115.7,29,113.7,26.8,110.8,26.8z M114.4,32.5c0,2.6-1.4,4.6-3.8,4.6
		c-1.5,0-3-1.2-3.6-2.3v-4.8c0.6-1,2.1-2.2,3.6-2.2C113.1,27.9,114.4,29.9,114.4,32.5L114.4,32.5z M74.4,32.1
		c-0.1-3-2.5-5.3-5.5-5.3c-3.5,0-6,2.6-6,5.6c0,0.1,0,0.1,0,0.2c0.1,3,2.6,5.3,5.6,5.2c0.1,0,0.1,0,0.2,0c3.1,0,5.6-2.5,5.7-5.6
		C74.4,32.3,74.4,32.2,74.4,32.1z M71.4,36.1c-0.6,0.7-1.4,1.2-2.4,1.2c-2.8,0-3.9-3.8-3.9-6c-0.1-1,0.3-2.1,1.1-2.8
		c0.6-0.5,1.3-0.8,2.1-0.8c2.9,0,3.8,3.9,3.8,5.9C72.2,34.4,71.9,35.3,71.4,36.1z M129.2,35.7v-5.4c0.1-1-0.4-2-1.2-2.6
		c-1.9-1.2-4.3-1.2-6.2,0c-0.7,0.5-1.1,1.3-1.1,2.1v0.1h1.2c0-0.6,0.3-1.2,0.8-1.5c0.6-0.4,1.4-0.6,2.1-0.6c0.8-0.1,1.6,0.2,2.2,0.7
		c0.5,0.5,0.8,1.1,0.8,1.8v1.3h-2.7c-1.3-0.1-2.5,0.3-3.6,0.9c-0.9,0.5-1.4,1.4-1.4,2.4c0,0.9,0.3,1.7,0.9,2.3
		c0.7,0.6,1.7,0.9,2.6,0.8c1.6,0,3.1-0.7,4-2c0,0.3,0,0.6,0.1,0.8c0,0.3,0.1,0.6,0.2,1l0.1,0h1.3c-0.1-0.4-0.2-0.7-0.2-1.1
		C129.3,36.4,129.2,36.1,129.2,35.7z M127.9,34.7c-0.3,0.7-0.8,1.3-1.5,1.7c-0.7,0.5-1.6,0.7-2.4,0.7c-0.6,0-1.3-0.2-1.8-0.6
		c-0.4-0.4-0.7-0.9-0.7-1.5c0-0.7,0.4-1.3,1-1.7c0.8-0.5,1.7-0.7,2.6-0.7h2.7V34.7z M117.3,37.9h1.2V23h-1.2V37.9z M139.5,27.1
		l-3.9,9.4l-3.9-9.4h-1.3L135,38l-0.9,1.9c-0.5,1-0.9,1.3-1.7,1.3c-0.3,0-0.6-0.1-0.9-0.2l-0.2,1.1c0.4,0.1,0.8,0.2,1.2,0.2
		c1.3,0,2.2-0.7,2.7-2l5.6-13.2H139.5z M85.8,27.2H81c-1.5-0.1-2.9,0.4-4.1,1.3c-0.9,0.8-1.4,1.9-1.5,3.1c0,0.1,0,0.1,0,0.2
		c0.1,2,1.8,3.6,3.8,3.5c0.2,0,0.5,0,0.7,0c-0.1,0.3-0.2,0.6-0.2,0.9c0,0.6,0.3,1.1,0.7,1.6c-1,0.1-3,0.2-4.4,1.1
		c-1.1,0.5-1.7,1.6-1.8,2.8c0,1.7,1.6,3.3,5,3.3c4,0,6.1-2.2,6.1-4.4c0-1.6-0.9-2.4-1.9-3.2l-0.8-0.6c-0.3-0.2-0.6-0.6-0.6-1
		c0-0.4,0.3-0.9,0.6-1.1c1-0.8,1.9-1.6,1.9-3.3c0-1.2-0.6-2.4-1.6-3.1h1.5L85.8,27.2z M83.7,41.3c0,1.4-1.2,2.5-3.4,2.5
		c-2.5,0-4.1-1.2-4.1-2.8c0-1.6,1.5-2.2,2-2.4c0.8-0.2,1.6-0.4,2.4-0.4c0.2,0,0.4,0,0.5,0v0C82.9,39.5,83.7,40.1,83.7,41.3z
		 M81.9,33.9L81.9,33.9c-0.4,0.4-1,0.6-1.6,0.6c-2,0-2.9-2.6-2.9-4.1c0-0.6,0.1-1.2,0.5-1.7c0.4-0.5,1-0.8,1.6-0.8
		c1.9,0,2.9,2.6,2.9,4.2C82.5,32.8,82.3,33.4,81.9,33.9z M100.4,36c-0.8,0.5-1.7,0.7-2.6,0.7c-2.2,0-4.2-1.7-4.8-4.6l1.8-0.1
		l5.4-2.2c-0.2-0.9-0.8-1.7-1.6-2.3c-0.7-0.4-1.5-0.7-2.4-0.6c0,0-0.1,0-0.1,0c-2.9,0.1-5.2,2.4-5.1,5.3c0,1.9,0.8,3.7,2.4,4.9
		c0.9,0.6,2,0.9,3.1,0.9c0.8,0,1.5-0.1,2.2-0.4c0.3-0.1,0.5-0.3,0.8-0.4L100.4,36C100.6,36,100.4,36,100.4,36z M92.9,30.9
		c0-2.5,1.7-3.2,2.6-3.2c1.2,0,2.1,0.8,2.3,2c0,0.3-0.2,0.4-0.7,0.6L93,32.1C93,31.7,92.9,31.3,92.9,30.9z M89.1,35.9L89.1,35.9
		l0-13.1c0-0.7,0.4-1.2,1-1.5h-3.3l-1.7,0.8h1.8v14.2c0,0.4-0.1,0.5-0.6,1.2h4.1l0.9-0.5c-0.4,0-0.8-0.1-1.2-0.1
		C89.3,36.9,89.1,36.8,89.1,35.9z M97.1,13.3h-4.2v-1.9h3.7v-1.2h-3.7V8.3H97V7.1h-5.4v7.3h5.5V13.3z M83.5,13.9
		c0.5-0.4,0.8-0.9,0.8-1.6c0-0.8-0.4-1.3-1.1-1.7c0.5-0.4,0.8-0.9,0.8-1.5c0-0.6-0.2-1.1-0.7-1.4c-0.4-0.3-1-0.5-1.8-0.5h-3.1v7.3
		h3.3C82.4,14.4,83,14.3,83.5,13.9z M79.5,8.3h1.8c0.4,0,0.8,0.1,1,0.3c0.2,0.2,0.3,0.4,0.3,0.6c0,0.3-0.1,0.6-0.3,0.7
		c-0.2,0.2-0.6,0.3-1,0.3h-1.8V8.3z M79.5,11.3h1.9c0.5,0,1,0.1,1.2,0.3c0.2,0.2,0.4,0.4,0.4,0.7c0,0.3-0.1,0.5-0.4,0.7
		c-0.3,0.2-0.6,0.3-1.1,0.3h-2.1V11.3z M109.2,9.3l4.1,5.2h1V7.1H113v5l-4-5H108v7.3h1.2V9.3z M76.6,7.1h-1.2v7.3h1.2V7.1z
		 M90.5,13.3h-3.8V7.1h-1.2v7.3h5.1V13.3z M40.7,13.4c0.7-0.7,1.1-1.6,1.1-2.6c0-1-0.4-1.9-1.1-2.6l0,0c-0.7-0.7-1.7-1-2.8-1h-2.6
		v7.3H38C39.1,14.4,40,14.1,40.7,13.4z M36.6,8.3H38c0.8,0,1.4,0.2,1.9,0.7c0.5,0.5,0.7,1.1,0.7,1.8c0,0.7-0.2,1.3-0.7,1.8h0
		c-0.5,0.5-1.1,0.7-1.9,0.7h-1.4V8.3z M106.8,13.3h-4.2v-1.9h3.7v-1.2h-3.7V8.3h4.2V7.1h-5.4v7.3h5.5V13.3z M48.8,10.2
		c-0.9-0.2-1.2-0.4-1.4-0.5c-0.2-0.2-0.3-0.3-0.3-0.6c0-0.2,0.1-0.4,0.3-0.6c0.2-0.2,0.5-0.3,0.9-0.3c0.6,0,1.3,0.2,1.8,0.7l0.2,0.2
		l0.7-1l-0.2-0.1C50.2,7.3,49.3,7,48.4,7c-0.7,0-1.3,0.2-1.8,0.6c-0.5,0.4-0.7,0.9-0.7,1.5c0,0.6,0.2,1.1,0.6,1.5
		c0.4,0.3,1,0.6,1.9,0.8c0.8,0.2,1.2,0.3,1.3,0.5c0.2,0.1,0.3,0.4,0.3,0.6c0,0.3-0.1,0.5-0.3,0.7c-0.2,0.2-0.6,0.3-1,0.3
		c-0.4,0-0.8-0.1-1.2-0.2c-0.3-0.1-0.7-0.4-1-0.7l-0.2-0.2l-0.8,0.9l0.2,0.2c0.9,0.8,1.8,1.2,2.9,1.2c0.7,0,1.3-0.2,1.8-0.6
		c0.5-0.4,0.7-0.9,0.7-1.6c0-0.6-0.2-1.1-0.6-1.4C50.2,10.6,49.6,10.4,48.8,10.2z M53.7,12h1.4c0.8,0,1.5-0.2,2.1-0.6
		C57.7,11,58,10.3,58,9.6c0-0.7-0.3-1.3-0.8-1.8c-0.5-0.4-1.2-0.6-2-0.6h-2.8v7.3h1.2V12z M53.7,8.3h1.5c0.5,0,0.9,0.1,1.2,0.3
		c0.3,0.2,0.4,0.5,0.4,0.9c0,0.4-0.1,0.7-0.4,0.9c-0.3,0.2-0.7,0.4-1.2,0.4h-1.5V8.3z M62.5,14.6c1.1,0,2-0.4,2.7-1.1
		c0.7-0.7,1-1.6,1-2.7c0-1-0.3-1.9-1-2.6C64.5,7.4,63.6,7,62.5,7c-1.1,0-2,0.4-2.7,1.1c-0.7,0.7-1,1.6-1,2.7c0,1,0.3,1.9,1,2.6
		C60.5,14.2,61.4,14.6,62.5,14.6z M60.7,8.9c0.5-0.5,1-0.7,1.7-0.7c0.7,0,1.3,0.2,1.8,0.7c0.5,0.5,0.7,1.1,0.7,1.8
		c0,0.7-0.2,1.3-0.7,1.8c-0.5,0.5-1,0.7-1.7,0.7c-0.7,0-1.3-0.2-1.8-0.7c-0.5-0.5-0.7-1.1-0.7-1.8C60,10.1,60.3,9.5,60.7,8.9z
		 M44.4,7.1h-1.2v7.3h1.2V7.1z M68.7,9.3l4.1,5.2h1V7.1h-1.2v5l-4-5h-1.1v7.3h1.2V9.3z"/>
</g>
</svg>
