<?xml version="1.0" encoding="utf-8"?>
<!-- Generator: Adobe Illustrator 20.0.0, SVG Export Plug-In . SVG Version: 6.00 Build 0)  -->
<svg version="1.1" id="Layer_1" xmlns="http://www.w3.org/2000/svg" xmlns:xlink="http://www.w3.org/1999/xlink" x="0px" y="0px"
	 width="50px" height="50px" viewBox="0 0 50 50" style="enable-background:new 0 0 50 50;" xml:space="preserve">
<style type="text/css">
	.st0{fill:#B3B3B3;}
</style>
<path class="st0" d="M48.4,27.8c0-1.9-1.3-3.4-3-3.9c0.4-0.6,0.6-1.4,0.6-2.1c0-2.2-1.8-4-4-4l-12.8,0c1.2-1.6,2.4-3.8,1.9-7.1
	c-0.4-2.4-0.7-4.5-3.5-4.5h-1c-1.3,0-2.4,1-2.6,2.5c-0.5,4.9-4,7.3-6.4,8.9l-3.7,2H5.4c-2.1,0-3.8,1.7-3.8,3.8v14.2
	c0,2.1,1.7,3.8,3.8,3.8h11.1l7.9,2.5c0.1,0,0.2,0,0.3,0h14.1c2.2,0,4-1.8,4-4c0-0.7-0.2-1.4-0.5-2c2.1-0.1,3.8-1.9,3.8-4
	c0-0.8-0.2-1.5-0.6-2.1C47.2,31.2,48.4,29.7,48.4,27.8z M13.2,39.4H5.4c-1,0-1.8-0.8-1.8-1.8V23.3c0-1,0.8-1.8,1.8-1.8h7.8V39.4z
	 M44.4,29.8H31.2c-0.6,0-1,0.4-1,1s0.4,1,1,1H42c1.1,0,2,0.9,2,2s-0.9,2-2,2H31.2c-0.6,0-1,0.4-1,1s0.4,1,1,1h7.6c1.1,0,2,0.9,2,2
	s-0.9,2-2,2h-14l-7.9-2.5c-0.1,0-0.2,0-0.3,0h-1.4V21.1l3.3-1.8c0,0,0.1,0,0.1-0.1l0.1-0.1c2.5-1.7,6.6-4.5,7.2-10.4
	c0-0.3,0.2-0.7,0.6-0.7h1c0.9,0,1.1,0,1.5,2.8c0.5,3.3-1.2,5.3-2.4,6.7c-0.1,0.2-0.3,0.3-0.4,0.5c-0.2,0.3-0.3,0.7-0.1,1.1
	c0.2,0.4,0.5,0.6,0.9,0.6H42c1.1,0,2,0.9,2,2s-0.9,2-2,2H31.2c-0.6,0-1,0.4-1,1s0.4,1,1,1h13.2c1.1,0,2,0.9,2,2S45.5,29.8,44.4,29.8
	z M8.4,36.8c1.1,0,2-0.9,2-2s-0.9-2-2-2c-1.1,0-2,0.9-2,2S7.3,36.8,8.4,36.8z"/>
</svg>
