<?xml version="1.0" encoding="utf-8"?>
<!-- Generator: Adobe Illustrator 20.0.0, SVG Export Plug-In . SVG Version: 6.00 Build 0)  -->
<svg version="1.1" id="Layer_1" xmlns="http://www.w3.org/2000/svg" xmlns:xlink="http://www.w3.org/1999/xlink" x="0px" y="0px"
	 width="50px" height="50px" viewBox="0 0 50 50" style="enable-background:new 0 0 50 50;" xml:space="preserve">
<style type="text/css">
	.st0{fill:#B3B3B3;}
</style>
<path class="st0" d="M48.8,22.5l-22-19.2c-1.1-1-2.7-1-3.8,0L1.2,22.5c-0.5,0.4-0.7,1-0.7,1.6c0,0.6,0.3,1.2,0.8,1.5
	c1,0.8,2.9,1.4,5.6,2l0.9,17.9c0.1,1.1,0.9,1.9,1.9,1.9H21V37c0-2.3,1.8-4.1,4.1-4.1s4.1,1.9,4.1,4.1v10.3h11.1c1,0,1.9-0.8,1.9-1.9
	l0.9-17.9c2.8-0.5,4.6-1.2,5.6-2c0.5-0.4,0.7-0.9,0.8-1.5C49.5,23.5,49.3,22.9,48.8,22.5z M42,25.8l-0.8,0.1l-1,19.4h-9.2V37
	c0-3.4-2.7-6.1-6-6.1s-6,2.8-6,6.1v8.3l-9.3,0l-1-19.5L8,25.8c-3.7-0.6-5.1-1.4-5.5-1.8L24.3,4.9c0.2-0.2,0.4-0.2,0.6-0.2
	c0.2,0,0.4,0.1,0.6,0.2l22,19.2l0,0C47.1,24.4,45.8,25.2,42,25.8z"/>
</svg>
