<?xml version="1.0" encoding="utf-8"?>
<!-- Generator: Adobe Illustrator 20.0.0, SVG Export Plug-In . SVG Version: 6.00 Build 0)  -->
<svg version="1.1" xmlns="http://www.w3.org/2000/svg" xmlns:xlink="http://www.w3.org/1999/xlink" x="0px" y="0px" width="50px"
	 height="50px" viewBox="0 0 50 50" style="enable-background:new 0 0 50 50;" xml:space="preserve">
<style type="text/css">
	.st0{fill:#B3B3B3;}
</style>
<g id="Layer_1">
</g>
<g id="ICONS">
	<path class="st0" d="M30.7,9.7c1.2-1.2,2.2-2.6,2.8-4.1c0.6-1.5,0.9-2.8,0.9-4c0-0.1,0-0.2,0-0.3c0-0.1,0-0.2,0-0.3
		c0-0.1,0-0.2-0.1-0.3c0-0.2-0.1-0.3-0.1-0.3c-3.5,0.8-6,2.3-7.4,4.4c-1.5,2.1-2.3,4.7-2.3,7.6c1.3-0.1,2.4-0.3,3.1-0.5
		C28.6,11.5,29.6,10.8,30.7,9.7z M40.8,32.6c-1.4-2-2-4.2-2-6.6c0-2.2,0.6-4.3,1.9-6.1c0.7-1,1.8-2.2,3.4-3.5c-1-1.3-2.1-2.3-3.1-3
		c-1.9-1.3-4-1.9-6.3-1.9c-1.4,0-3.1,0.3-5.1,1c-1.9,0.7-3.4,1-4.2,1c-0.7,0-2-0.3-4.1-0.9c-2.1-0.6-3.8-0.9-5.3-0.9
		c-3.4,0-6.2,1.4-8.4,4.3c-2.2,2.9-3.4,6.6-3.4,11.1c0,4.8,1.5,9.8,4.4,14.9c2.9,5.1,5.9,7.7,8.9,7.7c1,0,2.3-0.3,3.9-1
		c1.6-0.7,3-1,4.2-1c1.3,0,2.8,0.3,4.5,0.9c1.8,0.6,3.2,0.9,4.2,0.9c2.5,0,5.1-1.9,7.6-5.8c1.7-2.5,2.9-4.9,3.6-7.4
		C43.7,35.9,42.2,34.6,40.8,32.6z"/>
</g>
</svg>
