<?xml version="1.0" encoding="utf-8"?>
<!-- Generator: Adobe Illustrator 20.0.0, SVG Export Plug-In . SVG Version: 6.00 Build 0)  -->
<svg version="1.1" id="Layer_1" xmlns="http://www.w3.org/2000/svg" xmlns:xlink="http://www.w3.org/1999/xlink" x="0px" y="0px"
	 width="50px" height="50px" viewBox="0 0 50 50" style="enable-background:new 0 0 50 50;" xml:space="preserve">
<style type="text/css">
	.st0{fill:#B3B3B3;}
</style>
<path class="st0" d="M5.3,17.1h9.3c0.8,0,1.5-0.7,1.5-1.5s-0.7-1.5-1.5-1.5H5.3c-0.8,0-1.5,0.7-1.5,1.5S4.5,17.1,5.3,17.1z
	 M5.3,27.1h15.4c0.8,0,1.5-0.7,1.5-1.5s-0.7-1.5-1.5-1.5H5.3c-0.8,0-1.5,0.7-1.5,1.5S4.5,27.1,5.3,27.1z M26.9,35.4H5.3
	c-0.8,0-1.5,0.7-1.5,1.5s0.7,1.5,1.5,1.5h21.6c0.8,0,1.5-0.7,1.5-1.5S27.8,35.4,26.9,35.4z M45.7,28.6c-0.6-0.6-1.5-0.6-2.1,0l-5,5
	V12.8c0-0.8-0.7-1.5-1.5-1.5s-1.5,0.7-1.5,1.5v20.8l-5-5C30,28,29,28,28.4,28.6s-0.6,1.5,0,2.1l7.6,7.6c0.1,0.1,0.1,0.1,0.2,0.2
	c0,0,0,0,0.1,0c0.1,0,0.1,0.1,0.2,0.1c0,0,0.1,0,0.1,0c0.1,0,0.1,0,0.2,0.1c0.1,0,0.2,0,0.3,0s0.2,0,0.3,0c0.1,0,0.1,0,0.2-0.1
	c0,0,0.1,0,0.1,0c0.1,0,0.1-0.1,0.2-0.1c0,0,0,0,0.1,0c0.1-0.1,0.2-0.1,0.2-0.2l7.6-7.6C46.3,30.1,46.3,29.1,45.7,28.6z"/>
</svg>
