<?xml version="1.0" encoding="utf-8"?>
<!-- Generator: Adobe Illustrator 20.0.0, SVG Export Plug-In . SVG Version: 6.00 Build 0)  -->
<svg version="1.1" id="Layer_1" xmlns="http://www.w3.org/2000/svg" xmlns:xlink="http://www.w3.org/1999/xlink" x="0px" y="0px"
	 width="50px" height="50px" viewBox="0 0 50 50" style="enable-background:new 0 0 50 50;" xml:space="preserve">
<style type="text/css">
	.st0{fill:#B3B3B3;}
</style>
<path class="st0" d="M43.4,6.6c-3.1-3.1-8.1-3.1-11.2,0L21.4,17.3c1.5-0.3,3.1-0.3,4.5,0.2L34.5,9c1.8-1.8,4.7-1.8,6.5,0
	s1.8,4.7,0,6.5L30.6,25.9c-1.8,1.8-4.7,1.8-6.5,0l-0.2-0.2c-0.7-0.7-1.7-0.7-2.4,0c-0.7,0.7-0.7,1.7,0,2.4l0.2,0.2
	c3.1,3.1,8.1,3.1,11.2,0l10.4-10.4C46.5,14.8,46.5,9.7,43.4,6.6z M24,32.5L15.5,41c-1.8,1.8-4.7,1.8-6.5,0s-1.8-4.7,0-6.5l10.4-10.4
	c1.8-1.8,4.7-1.8,6.5,0l0.2,0.2c0.7,0.7,1.7,0.7,2.4,0c0.7-0.7,0.7-1.7,0-2.4l-0.2-0.2c-3.1-3.1-8.1-3.1-11.2,0L6.6,32.1
	c-3.1,3.1-3.1,8.1,0,11.2c3.1,3.1,8.1,3.1,11.2,0l10.7-10.7C27.1,33,25.5,32.9,24,32.5z"/>
</svg>
