<?xml version="1.0" encoding="utf-8"?>
<!-- Generator: Adobe Illustrator 20.0.0, SVG Export Plug-In . SVG Version: 6.00 Build 0)  -->
<svg version="1.1" id="Layer_1" xmlns="http://www.w3.org/2000/svg" xmlns:xlink="http://www.w3.org/1999/xlink" x="0px" y="0px"
	 width="146px" height="50px" viewBox="0 0 146 50" style="enable-background:new 0 0 146 50;" xml:space="preserve">
<style type="text/css">
	.st0{fill:#010101;}
	.st1{fill:#FFFFFF;}
</style>
<g>
	<path class="st0" d="M4.9,0h136.2c2.6,0,4.8,2.1,4.8,4.8v40.5c0,2.6-2.1,4.8-4.8,4.8H4.9c-2.6,0-4.8-2.1-4.8-4.8V4.8
		C0.2,2.1,2.3,0,4.9,0z"/>
	<path class="st1" d="M29.4,24.8c0-4.2,3.5-6.3,3.6-6.4c-1.4-2-3.7-3.2-6.1-3.3c-2.6-0.3-5.1,1.5-6.4,1.5c-1.3,0-3.4-1.5-5.6-1.5
		C12,15.3,9.4,16.9,8,19.4c-3,5.2-0.8,12.7,2.1,16.9c1.4,2,3.1,4.3,5.3,4.2c2.2-0.1,2.9-1.4,5.5-1.4s3.3,1.4,5.5,1.3
		c2.2-0.1,3.7-2.1,5.1-4.1c1-1.5,1.8-3.1,2.3-4.8C31.2,30.5,29.4,27.8,29.4,24.8z M25.2,12.4c1.2-1.5,1.9-3.4,1.7-5.4
		C25,7.2,23.2,8.1,22,9.6c-1.1,1.2-2,3.3-1.8,5.2C22.1,14.9,24,13.8,25.2,12.4z M44.2,23.4l-5.4,16.6h2.8l1.5-4.9h5.4l1.6,4.9h2.8
		l-5.4-16.6H44.2z M43.6,33.1l1.4-4.3c0.4-1.4,0.6-2.4,0.8-3.1h0c0.4,1.6,0.7,2.7,0.8,3.1l1.4,4.3H43.6z M65.3,29.5
		c-0.3-0.3-0.6-0.6-1-0.9c-2.2-1.5-5.1-0.8-6.6,1.3h0l-0.1-1.9h-2.3c0.1,1.3,0.1,2.7,0.1,3.9V45h2.7v-6.3h0c0.7,1.1,1.8,1.7,3.4,1.7
		c1.4,0,2.7-0.5,3.7-1.6c1.2-1.3,1.8-3.1,1.7-4.8C66.8,32.3,66.3,30.8,65.3,29.5z M63.1,37.1c-0.5,0.8-1.4,1.2-2.3,1.2
		c-0.8,0-1.6-0.3-2.1-0.9c-0.5-0.6-0.8-1.4-0.8-2.2v-2c0-0.3,0.1-0.5,0.1-0.8c0.1-0.7,0.5-1.3,1-1.7c0.5-0.4,1.1-0.7,1.8-0.7
		c0.9,0,1.8,0.4,2.3,1.2C63.7,32,64,33,64,34C64,35.1,63.7,36.2,63.1,37.1z M79.1,29.5c-0.3-0.3-0.6-0.6-1-0.9
		c-2.2-1.5-5.1-0.8-6.6,1.3h0l-0.1-1.9h-2.3C69,29.4,69,30.8,69,32V45h2.7v-6.3h0c0.7,1.1,1.8,1.7,3.4,1.7c1.4,0,2.7-0.5,3.7-1.6
		c1.2-1.3,1.8-3.1,1.7-4.8C80.6,32.3,80.1,30.8,79.1,29.5z M76.9,37.1c-0.5,0.8-1.4,1.2-2.3,1.2c-0.8,0-1.6-0.3-2.1-0.9
		c-0.5-0.6-0.8-1.4-0.8-2.2v-2c0-0.3,0.1-0.5,0.1-0.8c0.1-0.7,0.5-1.3,1-1.7c0.5-0.4,1.1-0.7,1.8-0.7c0.9,0,1.8,0.4,2.3,1.2
		c0.6,0.9,0.8,1.9,0.8,2.9C77.8,35.1,77.5,36.2,76.9,37.1z M91.7,30.5c-0.9-0.3-1.7-0.7-2.4-1.3c-0.5-0.4-0.8-1-0.8-1.6
		c0-0.6,0.2-1.1,0.7-1.5c0.6-0.5,1.4-0.7,2.2-0.7c1.1,0,2.2,0.2,3.2,0.8l0.6-2.2c-1.2-0.6-2.5-0.8-3.8-0.8c-1.5-0.1-2.9,0.4-4.1,1.3
		c-1,0.8-1.6,2.1-1.5,3.4c0,2.1,1.5,3.7,4.4,4.8c0.8,0.3,1.6,0.7,2.3,1.3c0.5,0.4,0.7,1.1,0.7,1.7c0,0.7-0.3,1.4-0.8,1.8
		c-0.7,0.5-1.5,0.7-2.3,0.7c-1.4,0-2.7-0.4-3.9-1.1l-0.6,2.2c1.3,0.7,2.8,1.1,4.3,1c1.9,0,3.4-0.5,4.5-1.5c1-0.9,1.5-2.1,1.5-3.5
		c0-1.1-0.3-2.1-1-2.9C94,31.6,92.9,30.9,91.7,30.5z M101.8,25.1l-2.6,0.8v2.2h-1.8v2h1.8v6c0,1.5,0.3,2.6,0.9,3.2
		c0.6,0.7,1.5,1,2.5,1c0.7,0,1.4-0.1,2.1-0.3l-0.1-2c-0.4,0.1-0.8,0.1-1.2,0.1c-1,0-1.6-0.7-1.6-2.2v-5.8h2.9v-2h-2.9V25.1z
		 M112.2,27.8c-1.6-0.1-3.2,0.6-4.4,1.8c-1.1,1.3-1.7,2.9-1.6,4.6c-0.1,1.6,0.5,3.2,1.6,4.4c1.1,1.2,2.6,1.8,4.2,1.8
		c1.7,0.1,3.3-0.6,4.4-1.8c1.1-1.3,1.6-2.9,1.6-4.5c0.1-1.6-0.5-3.2-1.5-4.4C115.4,28.4,113.8,27.8,112.2,27.8z M114.5,37
		c-0.3,0.5-0.6,0.9-1.1,1.1c-1.3,0.7-3,0.2-3.7-1.1c-0.5-0.9-0.7-1.8-0.7-2.8c0-1,0.2-2,0.7-2.9c0.5-0.9,1.4-1.5,2.4-1.4
		c1,0,1.9,0.5,2.4,1.4c0.5,0.9,0.7,1.8,0.7,2.8l0,0C115.2,35.1,115,36.1,114.5,37z M126,27.9c-0.7,0-1.4,0.2-1.9,0.6
		c-0.6,0.5-1.1,1.2-1.3,1.9h-0.1l-0.1-2.3h-2.3c0.1,1.1,0.1,2.4,0.1,3.8v8.2h2.7v-6.3c0-0.8,0.2-1.7,0.7-2.4
		c0.5-0.7,1.3-1.1,2.2-1.1c0.3,0,0.5,0,0.8,0.1v-2.5C126.4,27.9,126.2,27.8,126,27.9z M126.6,30.4L126.6,30.4
		C126.6,30.4,126.6,30.4,126.6,30.4L126.6,30.4z M138.6,33.5c0-1.3-0.3-2.7-1.1-3.8c-0.9-1.3-2.4-2-3.9-1.9
		c-1.6-0.1-3.2,0.7-4.2,1.9c-1,1.3-1.5,2.9-1.5,4.5c-0.1,1.6,0.5,3.2,1.6,4.4c1.2,1.1,2.8,1.7,4.4,1.6c1.4,0,2.7-0.2,4-0.7l-0.4-1.9
		c-1,0.4-2.1,0.6-3.2,0.6c-0.9,0-1.9-0.3-2.6-0.8c-0.8-0.7-1.2-1.7-1.2-2.7h8C138.5,34.3,138.6,33.9,138.6,33.5z M130.5,32.8
		c0.1-0.8,0.3-1.5,0.8-2.1c0.5-0.7,1.3-1.1,2.1-1.1c0.9-0.1,1.7,0.4,2.1,1.1c0.4,0.6,0.6,1.3,0.5,2H130.5z M137,8.1h-1.5V18h1.5V8.1
		z M88.5,17.3c0.5,0.4,1.1,0.6,1.8,0.6c0.9,0,1.6-0.3,2.2-0.9c0.5-0.6,0.8-1.5,0.8-2.5c0-1.1-0.3-1.9-0.9-2.6c-0.6-0.7-1.4-1-2.3-1
		c-0.5,0-1,0.1-1.4,0.3V8.1h-1.5v9.6h1.3V17.3z M88.6,12.5c0.4-0.2,0.8-0.4,1.2-0.4c0.6,0,1,0.2,1.4,0.6c0.4,0.4,0.5,1,0.5,1.7
		c0,0.7-0.2,1.2-0.5,1.6c-0.3,0.4-0.7,0.6-1.3,0.6c-0.5,0-1-0.2-1.3-0.5V12.5z M131,18.1c1,0,1.8-0.2,2.5-0.7l-0.5-1
		c-0.7,0.3-1.3,0.5-1.8,0.5c-0.6,0-1.1-0.2-1.5-0.6c-0.3-0.3-0.4-0.8-0.4-1.2h4.5c0,0,0-0.1,0-0.2c0-0.1,0-0.2,0-0.3
		c0-1.1-0.3-1.9-0.8-2.5c-0.5-0.6-1.2-0.9-2.1-0.9c-0.9,0-1.7,0.3-2.3,1c-0.6,0.7-0.9,1.5-0.9,2.6c0,1,0.3,1.8,0.8,2.5
		C129.1,17.8,129.9,18.1,131,18.1z M129.7,12.7c0.3-0.3,0.7-0.5,1.2-0.5c0.5,0,0.9,0.2,1.2,0.6c0.2,0.3,0.3,0.7,0.3,1.1h-3.1
		C129.2,13.5,129.4,13.1,129.7,12.7z M101.3,18.1c1,0,1.8-0.2,2.5-0.7l-0.5-1c-0.7,0.3-1.3,0.5-1.8,0.5c-0.6,0-1.1-0.2-1.5-0.6
		c-0.3-0.3-0.4-0.8-0.4-1.2h4.5c0,0,0-0.1,0-0.2c0-0.1,0-0.2,0-0.3c0-1.1-0.3-1.9-0.8-2.5c-0.5-0.6-1.2-0.9-2.1-0.9
		c-0.9,0-1.7,0.3-2.3,1c-0.6,0.7-0.9,1.5-0.9,2.6c0,1,0.3,1.8,0.8,2.5C99.4,17.8,100.2,18.1,101.3,18.1z M100,12.7
		c0.3-0.3,0.7-0.5,1.2-0.5c0.5,0,0.9,0.2,1.2,0.6c0.2,0.3,0.3,0.7,0.3,1.1h-3.1C99.6,13.5,99.7,13.1,100,12.7z M61.6,17.8
		c0.4,0.2,0.9,0.3,1.4,0.3c0.9,0,1.7-0.3,2.3-1c0.6-0.7,0.9-1.5,0.9-2.6c0-1-0.3-1.8-0.8-2.5c-0.5-0.6-1.3-0.9-2.2-0.9
		c-0.7,0-1.3,0.2-1.8,0.6v-0.5h-1.3v9.6h1.5V17.8z M61.6,12.8c0.4-0.3,0.8-0.5,1.3-0.5c0.5,0,0.9,0.2,1.3,0.6
		c0.3,0.4,0.5,0.9,0.5,1.6c0,0.7-0.2,1.3-0.5,1.7c-0.4,0.4-0.8,0.6-1.4,0.6c-0.4,0-0.8-0.1-1.2-0.4V12.8z M112.3,18.1
		c1,0,1.8-0.2,2.5-0.7l-0.5-1c-0.7,0.3-1.3,0.5-1.8,0.5c-0.6,0-1.1-0.2-1.5-0.6c-0.3-0.3-0.4-0.8-0.4-1.2h4.5c0,0,0-0.1,0-0.2
		c0-0.1,0-0.2,0-0.3c0-1.1-0.3-1.9-0.8-2.5c-0.5-0.6-1.2-0.9-2.1-0.9c-0.9,0-1.7,0.3-2.3,1c-0.6,0.7-0.9,1.5-0.9,2.6
		c0,1,0.3,1.8,0.8,2.5C110.5,17.8,111.3,18.1,112.3,18.1z M111.1,12.7c0.3-0.3,0.7-0.5,1.2-0.5c0.5,0,0.9,0.2,1.2,0.6
		c0.2,0.3,0.3,0.7,0.3,1.1h-3.1C110.6,13.5,110.8,13.1,111.1,12.7z M84.4,8.4c-0.2,0-0.5,0.1-0.6,0.3c-0.2,0.2-0.3,0.4-0.3,0.6
		c0,0.2,0.1,0.5,0.3,0.6c0.2,0.2,0.4,0.3,0.6,0.3c0.2,0,0.5-0.1,0.6-0.3c0.2-0.2,0.3-0.4,0.3-0.6c0-0.2-0.1-0.5-0.3-0.6
		C84.8,8.5,84.6,8.4,84.4,8.4z M83.6,18h1.5v-6.7h-1.5V18z M50.9,10.2c0.2,0,0.5-0.1,0.6-0.3c0.2-0.2,0.3-0.4,0.3-0.6
		c0-0.2-0.1-0.5-0.3-0.6c-0.2-0.2-0.4-0.3-0.6-0.3c-0.2,0-0.5,0.1-0.6,0.3C50.1,8.9,50,9.1,50,9.3c0,0.2,0.1,0.5,0.3,0.6
		C50.5,10.1,50.7,10.2,50.9,10.2z M94.8,18h1.5V8.1h-1.5V18z M73.3,17.2c0.6-0.7,0.9-1.5,0.9-2.6c0-1-0.3-1.9-0.9-2.5
		c-0.6-0.6-1.4-1-2.3-1c-1,0-1.8,0.3-2.4,1c-0.6,0.7-0.9,1.5-0.9,2.6c0,1,0.3,1.9,0.9,2.5c0.6,0.6,1.4,1,2.3,1
		C71.9,18.1,72.7,17.8,73.3,17.2z M69.7,16.3c-0.3-0.4-0.5-1-0.5-1.7c0-0.7,0.2-1.2,0.5-1.6c0.3-0.4,0.7-0.6,1.3-0.6
		c0.5,0,0.9,0.2,1.3,0.6c0.3,0.4,0.5,1,0.5,1.7c0,0.7-0.2,1.2-0.5,1.6c-0.3,0.4-0.7,0.6-1.3,0.6C70.5,16.9,70,16.7,69.7,16.3z
		 M81,11.7c-0.4-0.4-1-0.6-1.7-0.6c-0.7,0-1.4,0.2-2,0.7v-0.5H76V18h1.5v-5.1c0.5-0.3,1-0.5,1.5-0.5c0.4,0,0.6,0.1,0.8,0.3
		c0.2,0.2,0.3,0.7,0.3,1.6V18h1.5v-3.7c0-0.6,0-1.1-0.1-1.4C81.5,12.4,81.3,12,81,11.7z M50.2,18h1.5v-6.7h-1.5V18z M45,17.8
		c0.8-0.2,1.5-0.6,2.1-1.1c0.8-0.8,1.3-2,1.3-3.3c0-1.3-0.4-2.4-1.3-3.3c-0.5-0.5-1.1-0.9-1.9-1c-0.5-0.1-1.2-0.2-2.3-0.2h-2.3V18h2
		C43.6,18,44.4,17.9,45,17.8z M42.1,10.1h0.7c0.8,0,1.3,0,1.7,0.1c0.5,0.1,0.9,0.3,1.3,0.7c0.6,0.6,0.9,1.4,0.9,2.4
		c0,1.1-0.3,1.9-0.8,2.5c-0.6,0.6-1.5,0.9-2.7,0.9h-1.1V10.1z M121,14.3V18h1.5v-3.7c0-0.6,0-1.1-0.1-1.4c-0.1-0.5-0.3-0.8-0.6-1.1
		c-0.4-0.4-1-0.6-1.7-0.6c-0.7,0-1.4,0.2-2,0.7v-0.5h-1.3V18h1.5v-5.1c0.5-0.3,1-0.5,1.5-0.5c0.4,0,0.6,0.1,0.8,0.3
		C120.9,12.9,121,13.5,121,14.3z M57.5,17.6c0.5-0.4,0.7-0.9,0.7-1.5c0-0.6-0.2-1.1-0.7-1.4c-0.2-0.2-0.7-0.4-1.4-0.7
		c-0.4-0.2-0.7-0.3-0.8-0.4C55.1,13.4,55,13.2,55,13c0-0.5,0.4-0.8,1.1-0.8c0.5,0,1,0.2,1.5,0.5l0.5-1c-0.5-0.4-1.2-0.6-2.2-0.6
		c-0.7,0-1.3,0.2-1.8,0.5c-0.5,0.4-0.7,0.8-0.7,1.4c0,0.5,0.2,1,0.6,1.3c0.2,0.2,0.6,0.4,1.2,0.6c0.6,0.2,0.9,0.4,1.1,0.5
		c0.3,0.2,0.4,0.4,0.4,0.6c0,0.2-0.1,0.4-0.3,0.6c-0.2,0.2-0.5,0.2-0.9,0.2c-0.5,0-1.1-0.2-1.7-0.5l-0.5,1c0.1,0.1,0.4,0.2,0.7,0.4
		c0.5,0.2,1.1,0.3,1.7,0.3C56.4,18.2,57,18,57.5,17.6z"/>
</g>
</svg>
