<?xml version="1.0" encoding="utf-8"?>
<!-- Generator: Adobe Illustrator 20.0.0, SVG Export Plug-In . SVG Version: 6.00 Build 0)  -->
<svg version="1.1" id="Layer_1" xmlns="http://www.w3.org/2000/svg" xmlns:xlink="http://www.w3.org/1999/xlink" x="0px" y="0px"
	 width="50px" height="50px" viewBox="0 0 50 50" style="enable-background:new 0 0 50 50;" xml:space="preserve">
<style type="text/css">
	.st0{fill:#B3B3B3;}
</style>
<path class="st0" d="M47.6,35.3H2.4c-0.8,0-1.4,0.6-1.4,1.4s0.6,1.4,1.4,1.4h45.2c0.8,0,1.4-0.6,1.4-1.4S48.4,35.3,47.6,35.3z
	 M2.4,14.7h45.2c0.8,0,1.4-0.6,1.4-1.4s-0.6-1.4-1.4-1.4H2.4c-0.8,0-1.4,0.6-1.4,1.4S1.6,14.7,2.4,14.7z M47.6,23.6H2.4
	C1.6,23.6,1,24.2,1,25s0.6,1.4,1.4,1.4h45.2c0.8,0,1.4-0.6,1.4-1.4S48.4,23.6,47.6,23.6z"/>
</svg>
