<?xml version="1.0" encoding="utf-8"?>
<!-- Generator: Adobe Illustrator 20.0.0, SVG Export Plug-In . SVG Version: 6.00 Build 0)  -->
<svg version="1.1" id="Layer_1" xmlns="http://www.w3.org/2000/svg" xmlns:xlink="http://www.w3.org/1999/xlink" x="0px" y="0px"
	 width="50px" height="50px" viewBox="0 0 50 50" style="enable-background:new 0 0 50 50;" xml:space="preserve">
<style type="text/css">
	.st0{fill:#B3B3B3;}
</style>
<path class="st0" d="M25,1.1c-13.2,0-23.9,9.8-23.9,21.8c0,5.2,2,10.2,5.7,14.1C6,44,4.1,47.1,4.1,47.1l-1.2,1.8L5,48.7
	c6.7-0.8,11.4-3.5,13.5-4.9c2.1,0.5,4.3,0.8,6.5,0.8c13.2,0,23.9-9.8,23.9-21.8S38.2,1.1,25,1.1z M25,42.6c-2.2,0-4.4-0.3-6.5-0.9
	l-0.5-0.1l-0.4,0.3c-1.5,1.1-5.4,3.5-11.1,4.6c0.7-1.8,1.7-4.9,2.2-9.8l0-0.5l-0.3-0.3c-3.5-3.6-5.4-8.2-5.4-13
	C3.1,11.9,12.9,3.1,25,3.1s21.9,8.9,21.9,19.8S37.1,42.6,25,42.6z"/>
</svg>
