<?xml version="1.0" encoding="utf-8"?>
<!-- Generator: Adobe Illustrator 20.0.0, SVG Export Plug-In . SVG Version: 6.00 Build 0)  -->
<svg version="1.1" id="Layer_1" xmlns="http://www.w3.org/2000/svg" xmlns:xlink="http://www.w3.org/1999/xlink" x="0px" y="0px"
	 width="50px" height="50px" viewBox="0 0 50 50" style="enable-background:new 0 0 50 50;" xml:space="preserve">
<style type="text/css">
	.st0{fill:#B3B3B3;}
</style>
<g>
	<path class="st0" d="M25,19.3c-3.2,0-5.7,2.6-5.7,5.7s2.6,5.7,5.7,5.7s5.7-2.6,5.7-5.7S28.2,19.3,25,19.3z M41.3,19.3
		c-3.2,0-5.7,2.6-5.7,5.7s2.6,5.7,5.7,5.7S47,28.2,47,25S44.4,19.3,41.3,19.3z M8.7,19.3C5.6,19.3,3,21.8,3,25s2.6,5.7,5.7,5.7
		s5.7-2.6,5.7-5.7S11.9,19.3,8.7,19.3z"/>
</g>
</svg>
