<?xml version="1.0" encoding="utf-8"?>
<!-- Generator: Adobe Illustrator 20.0.0, SVG Export Plug-In . SVG Version: 6.00 Build 0)  -->
<svg version="1.1" id="Layer_1" xmlns="http://www.w3.org/2000/svg" xmlns:xlink="http://www.w3.org/1999/xlink" x="0px" y="0px"
	 width="50px" height="50px" viewBox="0 0 50 50" style="enable-background:new 0 0 50 50;" xml:space="preserve">
<style type="text/css">
	.st0{fill:#B3B3B3;}
</style>
<path class="st0" d="M5.3,16h9.3c0.8,0,1.5-0.7,1.5-1.5S15.4,13,14.6,13H5.3c-0.8,0-1.5,0.7-1.5,1.5S4.5,16,5.3,16z M5.3,25.9h15.4
	c0.8,0,1.5-0.7,1.5-1.5s-0.7-1.5-1.5-1.5H5.3c-0.8,0-1.5,0.7-1.5,1.5S4.5,25.9,5.3,25.9z M26.9,34.3H5.3c-0.8,0-1.5,0.7-1.5,1.5
	s0.7,1.5,1.5,1.5h21.6c0.8,0,1.5-0.7,1.5-1.5S27.8,34.3,26.9,34.3z M45.7,19.3l-7.6-7.6c-0.3-0.3-0.6-0.4-1.1-0.4s-0.8,0.2-1.1,0.4
	l-7.6,7.6c-0.6,0.6-0.6,1.5,0,2.1s1.5,0.6,2.1,0l5-5v20.8c0,0.8,0.7,1.5,1.5,1.5s1.5-0.7,1.5-1.5V16.4l5,5c0.3,0.3,0.7,0.4,1.1,0.4
	s0.8-0.1,1.1-0.4C46.3,20.9,46.3,19.9,45.7,19.3z"/>
</svg>
