<?xml version="1.0" encoding="UTF-8" standalone="no"?>
<!-- Generator: Adobe Illustrator 19.2.1, SVG Export Plug-In . SVG Version: 6.00 Build 0)  -->

<svg
   xmlns:dc="http://purl.org/dc/elements/1.1/"
   xmlns:cc="http://creativecommons.org/ns#"
   xmlns:rdf="http://www.w3.org/1999/02/22-rdf-syntax-ns#"
   xmlns:svg="http://www.w3.org/2000/svg"
   xmlns="http://www.w3.org/2000/svg"
   xmlns:xlink="http://www.w3.org/1999/xlink"
   xmlns:sodipodi="http://sodipodi.sourceforge.net/DTD/sodipodi-0.dtd"
   xmlns:inkscape="http://www.inkscape.org/namespaces/inkscape"
   version="1.1"
   id="Layer_1"
   x="0px"
   y="0px"
   viewBox="0 0 62 62"
   style="enable-background:new 0 0 62 62;"
   xml:space="preserve"
   inkscape:version="0.91 r13725"
   sodipodi:docname="my-ads-active.svg"><metadata
     id="metadata57"><rdf:RDF><cc:Work
         rdf:about=""><dc:format>image/svg+xml</dc:format><dc:type
           rdf:resource="http://purl.org/dc/dcmitype/StillImage" /><dc:title></dc:title></cc:Work></rdf:RDF></metadata><defs
     id="defs55" /><sodipodi:namedview
     bordercolor="#ffffff"
     borderopacity="0"
     objecttolerance="10"
     gridtolerance="10"
     guidetolerance="10"
     inkscape:pageopacity="0"
     inkscape:pageshadow="2"
     inkscape:window-width="1067"
     inkscape:window-height="710"
     id="namedview53"
     showgrid="false"
     inkscape:zoom="5.3831355"
     inkscape:cx="35.288513"
     inkscape:cy="4.8276337"
     inkscape:window-x="180"
     inkscape:window-y="68"
     inkscape:window-maximized="0"
     inkscape:current-layer="Layer_1"
     showborder="true" /><g
     id="Layer_1_1_"
     style="display:none;"><g
       style="display:inline;"
       id="g4"><g
         id="g6"><g
           id="g8"><defs
             id="defs10"><rect
               id="SVGID_1_"
               x="-0.5"
               y="0.2"
               width="63"
               height="62.1" /></defs><clipPath
             id="SVGID_2_"><use
               xlink:href="#SVGID_1_"
               style="overflow:visible;"
               id="use14" /></clipPath><path
             style="clip-path:url(#SVGID_2_);"
             d="M-0.4,62.2v-0.2c0-0.1,0-0.2,0-0.4c0-13.6,8.3-25.8,20.7-30.4l1.4,3.7      C10.8,39.2,3.5,49.8,3.5,61.8v0.5H-0.4z"
             id="path16"
             clip-path="url(#SVGID_2_)" /></g><g
           id="g18"><defs
             id="defs20"><rect
               id="SVGID_3_"
               x="-0.5"
               y="0.2"
               width="63"
               height="62.1" /></defs><clipPath
             id="SVGID_4_"><use
               xlink:href="#SVGID_3_"
               style="overflow:visible;"
               id="use24" /></clipPath><path
             style="clip-path:url(#SVGID_4_);"
             d="M62.4,62.3l-4-0.1v-0.5c0-12-7.4-22.8-18.3-26.8l1.4-3.8C54,35.8,62.4,48,62.4,61.8      c0,0.1,0,0.2,0,0.4V62.3z"
             id="path26"
             clip-path="url(#SVGID_4_)" /></g><g
           id="g28"><defs
             id="defs30"><rect
               id="SVGID_5_"
               x="-0.5"
               y="0.2"
               width="63"
               height="62.1" /></defs><clipPath
             id="SVGID_6_"><use
               xlink:href="#SVGID_5_"
               style="overflow:visible;"
               id="use34" /></clipPath><path
             style="clip-path:url(#SVGID_6_);"
             d="M31,4.2c7.5,0,13.5,6.9,13.5,15.4S38.4,35,31,35c-7.5,0-13.5-6.9-13.5-15.4      S23.5,4.2,31,4.2 M31,0.2c-9.7,0-17.5,8.7-17.5,19.4S21.2,39,31,39s17.5-8.7,17.5-19.4S40.7,0.2,31,0.2"
             id="path36"
             clip-path="url(#SVGID_6_)" /></g></g></g></g><path
     inkscape:connector-curvature="0"
     id="path39"
     d="m 49.3,36 c -0.5,0.7 -1.1,1.4 -1.6,2 7.1,5.4 11.5,14.1 11.5,23.5 l 0,0.5 2.6,0 0,-0.5 C 61.7,51.3 57,41.9 49.3,36 Z"
     style="fill:#6e6a60;fill-opacity:1" /><path
     inkscape:connector-curvature="0"
     id="path41"
     d="M 14.3,38 C 13.7,37.4 13.2,36.7 12.7,36 5,41.9 0.2,51.3 0.2,61.5 l 0,0.5 2.6,0 0,-0.5 C 2.8,52.1 7.2,43.4 14.3,38 Z"
     style="fill:#6e6a60;fill-opacity:1" /><path
     inkscape:connector-curvature="0"
     id="path43"
     d="m 49.3,36 c -0.1,0.2 -0.2,0.3 -0.4,0.5 -0.1,0.1 -0.2,0.2 -0.3,0.3 C 44.3,42.3 38,45.7 31,45.7 23.6,45.7 17,42 12.7,36.1"
     style="fill:none;stroke:#6e6a60;stroke-width:2;stroke-miterlimit:10" /><g
     id="g47"
     style="fill:#6e6a60;fill-opacity:1"><ellipse
       cx="31"
       cy="19.4"
       rx="17.5"
       ry="19.4"
       id="ellipse49"
       style="fill:#6e6a60;fill-opacity:1" /></g><path
     d="m 48.9,36.5 c 0,0 12.8,15.9 11.5,25.5 L 1.6,62 c 0,0 1.9,-18.1 11.9,-24.9 0,0 7.4,8.4 15.8,8.6 8.3,0.2 17,-3.1 19.5,-8.8"
     id="path51"
     inkscape:connector-curvature="0"
     style="fill:#6e6a60;fill-opacity:1;stroke:#6e6a60;stroke-opacity:0" /></svg>