<?xml version="1.0" encoding="utf-8"?>
<!-- Generator: Adobe Illustrator 19.2.1, SVG Export Plug-In . SVG Version: 6.00 Build 0)  -->
<svg version="1.1" id="Layer_1" xmlns="http://www.w3.org/2000/svg" xmlns:xlink="http://www.w3.org/1999/xlink" x="0px" y="0px"
	 viewBox="0 0 62 62" style="enable-background:new 0 0 62 62;" xml:space="preserve">
<g id="Layer_1_1_" style="display:none;">
	<g style="display:inline;">
		<g>
			<g>
				<defs>
					<rect id="SVGID_1_" x="-0.5" y="0.2" width="63" height="62.1"/>
				</defs>
				<clipPath id="SVGID_2_">
					<use xlink:href="#SVGID_1_"  style="overflow:visible;"/>
				</clipPath>
				<path style="clip-path:url(#SVGID_2_);" d="M-0.4,62.2v-0.2c0-0.1,0-0.2,0-0.4c0-13.6,8.3-25.8,20.7-30.4l1.4,3.7
					C10.8,39.2,3.5,49.8,3.5,61.8v0.5H-0.4z"/>
			</g>
			<g>
				<defs>
					<rect id="SVGID_3_" x="-0.5" y="0.2" width="63" height="62.1"/>
				</defs>
				<clipPath id="SVGID_4_">
					<use xlink:href="#SVGID_3_"  style="overflow:visible;"/>
				</clipPath>
				<path style="clip-path:url(#SVGID_4_);" d="M62.4,62.3l-4-0.1v-0.5c0-12-7.4-22.8-18.3-26.8l1.4-3.8C54,35.8,62.4,48,62.4,61.8
					c0,0.1,0,0.2,0,0.4V62.3z"/>
			</g>
			<g>
				<defs>
					<rect id="SVGID_5_" x="-0.5" y="0.2" width="63" height="62.1"/>
				</defs>
				<clipPath id="SVGID_6_">
					<use xlink:href="#SVGID_5_"  style="overflow:visible;"/>
				</clipPath>
				<path style="clip-path:url(#SVGID_6_);" d="M31,4.2c7.5,0,13.5,6.9,13.5,15.4S38.4,35,31,35c-7.5,0-13.5-6.9-13.5-15.4
					S23.5,4.2,31,4.2 M31,0.2c-9.7,0-17.5,8.7-17.5,19.4S21.2,39,31,39s17.5-8.7,17.5-19.4S40.7,0.2,31,0.2"/>
			</g>
		</g>
	</g>
</g>
<g id="Layer_2">
	<path d="M49.3,36c-0.5,0.7-1.1,1.4-1.6,2c7.1,5.4,11.5,14.1,11.5,23.5V62h2.6v-0.5C61.7,51.3,57,41.9,49.3,36z"/>
	<path d="M14.3,38c-0.6-0.6-1.1-1.3-1.6-2C5,41.9,0.2,51.3,0.2,61.5V62h2.6v-0.5C2.8,52.1,7.2,43.4,14.3,38z"/>
	<path style="fill:none;stroke:#000000;stroke-width:2;stroke-miterlimit:10;" d="M49.3,36c-0.1,0.2-0.2,0.3-0.4,0.5
		c-0.1,0.1-0.2,0.2-0.3,0.3C44.3,42.3,38,45.7,31,45.7c-7.4,0-14-3.7-18.3-9.6"/>
	<g>
		<g>
			<ellipse cx="31" cy="19.4" rx="17.5" ry="19.4"/>
		</g>
		<path d="M48.9,36.5c0,0,12.8,15.9,11.5,25.5H1.6c0,0,1.9-18.1,11.9-24.9c0,0,7.4,8.4,15.8,8.6c8.3,0.2,17-3.1,19.5-8.8"/>
	</g>
</g>
</svg>
