<?xml version="1.0" encoding="utf-8"?>
<!-- Generator: Adobe Illustrator 20.0.0, SVG Export Plug-In . SVG Version: 6.00 Build 0)  -->
<svg version="1.1" id="Layer_1" xmlns="http://www.w3.org/2000/svg" xmlns:xlink="http://www.w3.org/1999/xlink" x="0px" y="0px"
	 width="50px" height="50px" viewBox="0 0 50 50" style="enable-background:new 0 0 50 50;" xml:space="preserve">
<style type="text/css">
	.st0{fill:#B3B3B3;}
</style>
<path class="st0" d="M46.9,25.6C46.9,25.6,46.9,25.6,46.9,25.6C47,25.4,47,25.2,47,25s0-0.4-0.1-0.5c0,0,0,0,0,0
	c-0.1-0.2-0.2-0.4-0.3-0.5l-18-18c-0.6-0.6-1.5-0.6-2.1,0s-0.6,1.5,0,2.1l15.4,15.4H4.5C3.7,23.5,3,24.2,3,25s0.7,1.5,1.5,1.5h37.4
	L26.5,41.9c-0.6,0.6-0.6,1.5,0,2.1c0.3,0.3,0.7,0.4,1.1,0.4s0.8-0.1,1.1-0.4l18-18C46.7,25.9,46.8,25.8,46.9,25.6z"/>
</svg>
