<?xml version="1.0" encoding="utf-8"?>
<!-- Generator: Adobe Illustrator 20.0.0, SVG Export Plug-In . SVG Version: 6.00 Build 0)  -->
<svg version="1.1" id="Layer_1" xmlns="http://www.w3.org/2000/svg" xmlns:xlink="http://www.w3.org/1999/xlink" x="0px" y="0px"
	 width="50px" height="50px" viewBox="0 0 50 50" style="enable-background:new 0 0 50 50;" xml:space="preserve">
<style type="text/css">
	.st0{fill:#B3B3B3;}
</style>
<path class="st0" d="M25,14.5c-1.6,0-2.9,1.3-2.9,2.9c0,1.6,1.3,2.9,2.9,2.9s2.9-1.3,2.9-2.9C27.9,15.8,26.6,14.5,25,14.5z
	 M33.3,29.8c0.4-2.1,0.6-4.2,0.6-6.4c0-8.2-3.1-16-8.2-20.8c-0.4-0.4-1-0.4-1.4,0c-5.1,4.8-8.2,12.6-8.2,20.8c0,2.2,0.2,4.3,0.6,6.3
	c-4.1,1.8-7.5,6.5-5.5,14.8c0.1,0.4,0.5,0.8,1,0.8h0c0.5,0,0.9-0.3,1-0.8c0.9-3.8,3.9-6.3,6.3-6.7c0.2,0.3,0.3,0.6,0.5,0.9
	c0.2,0.3,0.5,0.5,0.9,0.5H21v5.2c0,0.6,0.4,1,1,1s1-0.4,1-1v-5.2h1v7.3c0,0.6,0.4,1,1,1s1-0.4,1-1v-7.3h1v5.2c0,0.6,0.4,1,1,1
	s1-0.4,1-1v-5.2h0.1c0.4,0,0.7-0.2,0.9-0.5c0.2-0.3,0.3-0.6,0.5-0.9c2.4,0.4,5.4,2.9,6.3,6.7c0.1,0.4,0.5,0.8,1,0.8h0
	c0.5,0,0.9-0.3,1-0.8C40.7,36.4,37.3,31.7,33.3,29.8z M12.7,40.7c-0.3-5.6,2.7-8,4.5-8.9c0.4,1.5,0.9,2.9,1.5,4.3
	C16.6,36.6,14.3,38.2,12.7,40.7z M28.5,37.3h-7c-2.2-4-3.4-8.8-3.4-13.8c0-7.3,2.5-14.2,6.8-18.7c4.3,4.5,6.8,11.4,6.8,18.7
	C31.9,28.5,30.7,33.3,28.5,37.3z M37.3,40.7c-1.5-2.5-3.8-4.1-5.9-4.6c0.6-1.4,1.1-2.8,1.5-4.3C34.6,32.8,37.6,35.2,37.3,40.7z"/>
</svg>
