<?xml version="1.0" encoding="utf-8"?>
<!-- Generator: Adobe Illustrator 20.0.0, SVG Export Plug-In . SVG Version: 6.00 Build 0)  -->
<svg version="1.1" id="Layer_1" xmlns="http://www.w3.org/2000/svg" xmlns:xlink="http://www.w3.org/1999/xlink" x="0px" y="0px"
	 width="25px" height="25px" viewBox="0 0 50 50" style="enable-background:new 0 0 50 50;" xml:space="preserve">
<style type="text/css">
	.st0{fill:#FFFFFF;}
</style>
<path class="st0" d="M18.1,27.5H20c0-2.3,1.8-4.1,4.1-4.1v-1.9C20.8,21.5,18.1,24.2,18.1,27.5z M25,17.3c-6.1,0-11.1,5-11.1,11.1
	s5,11.1,11.1,11.1s11.1-5,11.1-11.1S31.1,17.3,25,17.3z M25,37.6c-5.1,0-9.2-4.1-9.2-9.2s4.1-9.2,9.2-9.2c5.1,0,9.2,4.1,9.2,9.2
	S30.1,37.6,25,37.6z M47.3,13.7l-10.1-1l-2-6.1c-0.6-1.8-2.3-3-4.1-3H19c-1.9,0-3.5,1.2-4.1,3l-2,6.1l-10.1,1
	c-1.4,0.1-2.4,1.3-2.4,2.6v27.3c0,1.5,1.2,2.7,2.7,2.7H47c1.5,0,2.7-1.2,2.7-2.7V16.4C49.7,15,48.7,13.9,47.3,13.7z M47.8,43.6
	c0,0.4-0.3,0.7-0.7,0.7H3c-0.4,0-0.7-0.3-0.7-0.7V16.4c0-0.4,0.3-0.7,0.7-0.7l11.3-1.1l2.4-7.3c0.3-1,1.3-1.7,2.3-1.7H31
	c1,0,2,0.7,2.3,1.7l2.4,7.3l11.3,1.1c0.4,0,0.7,0.3,0.7,0.7V43.6z"/>
</svg>
