<?xml version="1.0" encoding="utf-8"?>
<!-- Generator: Adobe Illustrator 20.0.0, SVG Export Plug-In . SVG Version: 6.00 Build 0)  -->
<svg version="1.1" id="Layer_1" xmlns="http://www.w3.org/2000/svg" xmlns:xlink="http://www.w3.org/1999/xlink" x="0px" y="0px"
	 width="50px" height="50px" viewBox="0 0 50 50" style="enable-background:new 0 0 50 50;" xml:space="preserve">
<style type="text/css">
	.st0{fill:#B3B3B3;}
</style>
<path class="st0" d="M46.2,9.6c0-1.1,0-2.2,0-3.3c0-0.6-0.4-1-1-1h-6.3c0-1.1,0-2.1,0-3.3c0-0.6-0.4-1-1-1H12.2c-0.6,0-1,0.4-1,1
	c0,1.1,0,2.2,0,3.3H4.9c-0.6,0-1,0.4-1,1c0,1.1,0,2.2,0,3.3c-0.1,5.2-0.2,9.7,2.5,12.5c1.6,1.6,4,2.5,7.4,2.5c1.9,3.8,5.2,6.3,11,8
	c0.1,0,0.2,0,0.3,0s0.2,0,0.3,0c5.8-1.7,9.1-4.2,11-8c3.4-0.1,5.8-0.9,7.4-2.5C46.4,19.3,46.3,14.8,46.2,9.6z M7.7,20.7
	c-2.1-2.2-2-6.3-1.9-11.1c0-0.8,0-1.6,0-2.4h5.3c0.1,6.5,0.3,11.5,1.6,15.3C10.5,22.4,8.8,21.8,7.7,20.7z M25,30.6
	C13.4,27.1,13.2,20.4,13.2,3h23.6C36.8,20.4,36.6,27.1,25,30.6z M42.3,20.7c-1.1,1.1-2.8,1.7-5.1,1.9c1.3-3.9,1.6-8.9,1.6-15.3h5.3
	c0,0.8,0,1.6,0,2.4C44.3,14.4,44.4,18.5,42.3,20.7z M28.9,36.3c0.6,0,1-0.4,1-1s-0.4-1-1-1h-7.8c-0.6,0-1,0.4-1,1s0.4,1,1,1H28.9z
	 M32.2,38.1H17.8c-0.5,0-0.9,0.3-1,0.8l-1.6,8.9c-0.1,0.3,0,0.6,0.2,0.8c0.2,0.2,0.5,0.4,0.8,0.4h17.7c0.3,0,0.6-0.1,0.8-0.4
	c0.2-0.2,0.3-0.5,0.2-0.8l-1.6-8.9C33.1,38.5,32.7,38.1,32.2,38.1z M17.3,47l1.3-6.9h12.8l1.3,6.9H17.3z"/>
</svg>
