<?xml version="1.0" encoding="utf-8"?>
<!-- Generator: Adobe Illustrator 20.0.0, SVG Export Plug-In . SVG Version: 6.00 Build 0)  -->
<svg version="1.1" id="Layer_1" xmlns="http://www.w3.org/2000/svg" xmlns:xlink="http://www.w3.org/1999/xlink" x="0px" y="0px"
	 width="50px" height="50px" viewBox="0 0 50 50" style="enable-background:new 0 0 50 50;" xml:space="preserve">
<style type="text/css">
	.st0{fill:#B3B3B3;}
</style>
<path class="st0" d="M43.9,7.2H6.1c-1.8,0-3.2,1.4-3.2,3.2v29.2c0,1.8,1.4,3.2,3.2,3.2h37.8c1.8,0,3.2-1.4,3.2-3.2V10.4
	C47.1,8.6,45.7,7.2,43.9,7.2z M45.1,39.6c0,0.7-0.6,1.2-1.2,1.2H6.1c-0.7,0-1.2-0.6-1.2-1.2V10.4c0-0.7,0.6-1.2,1.2-1.2h37.8
	c0.7,0,1.2,0.6,1.2,1.2V39.6z M30.8,26.6c1.1-1.5,1.8-3.3,1.8-5.4c0-4.7-3.4-8.4-7.6-8.4s-7.6,3.8-7.6,8.4c0,2.1,0.7,3.9,1.8,5.4
	c-4.8,2.3-7.9,7.6-7.9,13.1h0h1h1h0c0-5,3-9.7,7.5-11.5c1.2,0.9,2.7,1.5,4.3,1.5c1.6,0,3.1-0.6,4.3-1.5c4.5,1.8,7.5,6.5,7.5,11.6h0
	h2h0C38.8,34.1,35.6,28.9,30.8,26.6z M25,27.6c-3.1,0-5.6-2.9-5.6-6.4c0-3.5,2.5-6.4,5.6-6.4s5.6,2.9,5.6,6.4
	C30.6,24.7,28.1,27.6,25,27.6z"/>
</svg>
