<?xml version="1.0" encoding="utf-8"?>
<!-- Generator: Adobe Illustrator 20.0.0, SVG Export Plug-In . SVG Version: 6.00 Build 0)  -->
<svg version="1.1" id="Layer_1" xmlns="http://www.w3.org/2000/svg" xmlns:xlink="http://www.w3.org/1999/xlink" x="0px" y="0px"
	 width="18px" height="18px" viewBox="0 0 50 50" style="enable-background:new 0 0 50 50;" xml:space="preserve">
<style type="text/css">
	.st0{fill:#6E6A60;}
</style>
<path class="st0" d="M27.5,21.5c-4.6-1.9-6-2.9-6-4.7c0-0.7,0.3-3.2,4.5-3.2c3.2,0,5.4,1,6.6,1.6l0.3,0.1c0.1,0.1,0.3,0.1,0.4,0
	s0.2-0.2,0.3-0.3l1.4-4.8c0.1-0.2,0-0.5-0.3-0.6c-2.1-1.1-4.4-1.6-7-1.8V3.5c0-0.3-0.2-0.5-0.5-0.5H23c-0.3,0-0.5,0.2-0.5,0.5v4.7
	c-5.2,1.1-8.5,4.6-8.5,9.3c0,5.7,4.8,8.2,9.4,9.9c3.8,1.4,5.4,2.8,5.4,4.8c0,2.2-2,3.6-5.1,3.6c-3.6,0-6.5-1.4-7.9-2.2
	c-0.1-0.1-0.3-0.1-0.4,0c-0.1,0.1-0.3,0.2-0.3,0.3l-1.4,4.9c-0.1,0.2,0,0.4,0.2,0.6c1.9,1.3,5.1,2.2,8.3,2.4v4.6
	c0,0.3,0.2,0.5,0.5,0.5H27c0.3,0,0.5-0.2,0.5-0.5v-5c5.4-1,8.9-4.8,8.9-9.8C36.3,26.9,33.7,23.9,27.5,21.5z"/>
</svg>
