<?xml version="1.0" encoding="utf-8"?>
<!-- Generator: Adobe Illustrator 20.0.0, SVG Export Plug-In . SVG Version: 6.00 Build 0)  -->
<svg version="1.1" id="Layer_1" xmlns="http://www.w3.org/2000/svg" xmlns:xlink="http://www.w3.org/1999/xlink" x="0px" y="0px"
	 width="50px" height="50px" viewBox="0 0 50 50" style="enable-background:new 0 0 50 50;" xml:space="preserve">
<style type="text/css">
	.st0{fill:#B3B3B3;}
</style>
<path class="st0" d="M25,17.6c-8.6,0-16.7,4.1-21.8,11.1c-0.3,0.4-0.3,0.8,0,1.2C8.3,36.7,16.4,40.9,25,40.9
	c8.6,0,16.7-4.1,21.8-11.1c0.3-0.4,0.3-0.8,0-1.2C41.7,21.7,33.6,17.6,25,17.6z M5.3,29.2c3.4-4.4,8.2-7.5,13.6-8.9
	c-2.8,2-4.6,5.2-4.6,8.9c0,3.7,1.8,6.9,4.6,8.9C13.5,36.7,8.7,33.6,5.3,29.2z M16.2,29.2c0-4.9,4-8.8,8.8-8.8c4.9,0,8.8,4,8.8,8.8
	S29.9,38,25,38C20.1,38,16.2,34.1,16.2,29.2z M31.2,38.1c2.8-2,4.6-5.2,4.6-8.9c0-3.7-1.8-6.9-4.6-8.9c5.3,1.4,10.1,4.5,13.6,8.9
	C41.3,33.6,36.5,36.7,31.2,38.1z M25,25C25,25,25,25,25,25c0,0.2,0,0.4,0,0.6c0,2.3-1.9,4.2-4.2,4.3c0.3,2.1,2.1,3.7,4.2,3.7
	c2.4,0,4.3-1.9,4.3-4.3S27.4,25,25,25z M47.1,14.6C40.3,11,32.7,9.1,25,9.1c-7.7,0-15.3,1.9-22.1,5.5c-0.5,0.3-0.7,0.9-0.4,1.4
	c0.3,0.5,0.9,0.7,1.4,0.4c6.5-3.4,13.8-5.2,21.2-5.2s14.7,1.8,21.2,5.2c0.1,0.1,0.3,0.1,0.5,0.1c0.4,0,0.7-0.2,0.9-0.5
	C47.8,15.4,47.6,14.8,47.1,14.6z"/>
</svg>
