<?xml version="1.0" encoding="utf-8"?>
<!-- Generator: Adobe Illustrator 20.0.0, SVG Export Plug-In . SVG Version: 6.00 Build 0)  -->
<svg version="1.1" id="Layer_1" xmlns="http://www.w3.org/2000/svg" xmlns:xlink="http://www.w3.org/1999/xlink" x="0px" y="0px"
	 width="50px" height="50px" viewBox="0 0 50 50" style="enable-background:new 0 0 50 50;" xml:space="preserve">
<style type="text/css">
	.st0{fill:#B3B3B3;}
</style>
<path class="st0" d="M45.6,17.9H44c-1.2-3.6-3.4-6.7-6.4-9.2C38,7.6,38.5,7,39,6.4c0.4-0.6,0.9-1.1,1.2-1.9c0.1-0.3,0.1-0.6-0.1-0.8
	c-0.1-0.2-0.4-0.4-0.6-0.5C36.1,2.2,33.2,2.8,31,5c-2.5-0.9-5.2-1.4-7.9-1.4C11,3.6,1.2,12.7,1.2,23.8c0,4.1,1.3,8.1,3.9,11.4
	c1.2,1.7,1.9,3.5,1.9,5.4V44c0,1.8,1.5,3.2,3.2,3.2H17c1.8,0,3.2-1.5,3.2-3.2v-0.2c1.9,0.2,3.7,0.2,5.7,0V44c0,1.8,1.5,3.2,3.2,3.2
	H36c1.8,0,3.2-1.5,3.2-3.2v-3.2c0-2,0.7-3.9,2-5.7c1.2-1.7,2.2-3.5,2.8-5.4h1.6c1.8,0,3.2-1.4,3.2-3.2v-5.4
	C48.8,19.3,47.4,17.9,45.6,17.9z M46.8,26.5c0,0.7-0.5,1.2-1.2,1.2h-2.4c-0.4,0-0.8,0.3-1,0.7c-0.6,2-1.5,3.8-2.7,5.5
	c-1.5,2.1-2.4,4.5-2.4,6.9V44c0,0.7-0.6,1.2-1.2,1.2h-6.8c-0.7,0-1.2-0.6-1.2-1.2v-1.4c0-0.3-0.1-0.6-0.4-0.8
	c-0.2-0.2-0.4-0.2-0.6-0.2c-0.1,0-0.1,0-0.2,0c-2.6,0.4-4.8,0.4-7.3,0c-0.3,0-0.6,0-0.8,0.2c-0.2,0.2-0.4,0.5-0.4,0.8V44
	c0,0.7-0.6,1.2-1.2,1.2h-6.8c-0.7,0-1.2-0.6-1.2-1.2v-3.4c0-2.3-0.8-4.6-2.3-6.6c-2.3-3-3.5-6.6-3.5-10.2c0-10,8.9-18.2,19.9-18.2
	c2.7,0,5.3,0.5,7.8,1.5c0.4,0.2,0.8,0,1.1-0.3c1.5-1.7,3.4-2.3,5.7-2c-0.1,0.1-0.1,0.2-0.2,0.3c-0.7,0.8-1.5,1.9-1.9,3.8
	c-0.1,0.4,0.1,0.7,0.4,1c3.1,2.4,5.4,5.6,6.4,9.3c0.1,0.4,0.5,0.7,1,0.7h2.4c0.7,0,1.2,0.5,1.2,1.2V26.5z M24.7,22.7V18
	c1,0.1,1.9,0.5,2.7,1.2c0.2,0.1,0.3,0.2,0.5,0.2c0.5,0,0.8-0.4,0.8-0.9c0-0.2-0.1-0.5-0.3-0.6c-1.1-0.9-2.3-1.4-3.8-1.5v-1.5
	c0-0.3-0.3-0.6-0.6-0.6c-0.4,0-0.7,0.3-0.7,0.6v1.5c-2.6,0.2-4.5,1.7-4.5,4c0,2.7,2.3,3.4,4.5,4v5.3c-1.4-0.2-2.6-0.8-3.4-1.5
	c-0.2-0.1-0.3-0.2-0.5-0.2c-0.5,0-0.8,0.5-0.8,0.9c0,0.2,0.1,0.5,0.3,0.7c1.1,1,2.6,1.7,4.5,1.8v1.4c0,0.3,0.3,0.6,0.7,0.6
	c0.3,0,0.6-0.3,0.6-0.6v-1.4c3.4-0.3,4.6-2.3,4.6-4.2C29.4,24.2,27,23.3,24.7,22.7z M23.4,22.3c-1.5-0.4-2.7-0.9-2.7-2.2
	c0-1.3,1.1-2.2,2.7-2.3V22.3z M24.7,29.6v-4.9c1.5,0.5,2.7,1,2.7,2.5C27.5,28.2,26.8,29.4,24.7,29.6z"/>
</svg>
