<?xml version="1.0" encoding="utf-8"?>
<!-- Generator: Adobe Illustrator 20.0.0, SVG Export Plug-In . SVG Version: 6.00 Build 0)  -->
<svg version="1.1" id="Layer_1" xmlns="http://www.w3.org/2000/svg" xmlns:xlink="http://www.w3.org/1999/xlink" x="0px" y="0px"
	 width="50px" height="50px" viewBox="0 0 50 50" style="enable-background:new 0 0 50 50;" xml:space="preserve">
<style type="text/css">
	.st0{fill:#B3B3B3;}
	.st1{fill:#FFFFFF;}
</style>
<g>
	<circle class="st0" cx="25" cy="25" r="23.5"/>
	<path class="st1" d="M37,12.8c-2.1-2.1-5.4-2.1-7.5,0l-7.1,7.1c1-0.2,2-0.2,3,0.1l5.7-5.7c1.2-1.2,3.1-1.2,4.3,0
		c1.2,1.2,1.2,3.1,0,4.3l-6.9,6.9c-1.2,1.2-3.1,1.2-4.3,0L24,25.4c-0.4-0.4-1.1-0.4-1.6,0c-0.4,0.4-0.4,1.1,0,1.6l0.2,0.2
		c2.1,2.1,5.4,2.1,7.5,0l6.9-6.9C39.1,18.2,39.1,14.8,37,12.8z M24.1,30l-5.7,5.7c-1.2,1.2-3.1,1.2-4.3,0c-1.2-1.2-1.2-3.1,0-4.3
		l6.9-6.9c1.2-1.2,3.1-1.2,4.3,0l0.2,0.2c0.4,0.4,1.1,0.4,1.6,0c0.4-0.4,0.4-1.1,0-1.6l-0.2-0.2c-2.1-2.1-5.4-2.1-7.5,0l-6.9,6.9
		c-2.1,2.1-2.1,5.4,0,7.5c2.1,2.1,5.4,2.1,7.5,0l7.1-7.1C26.1,30.3,25.1,30.3,24.1,30z"/>
</g>
</svg>
