<?xml version="1.0" encoding="utf-8"?>
<!-- Generator: Adobe Illustrator 20.0.0, SVG Export Plug-In . SVG Version: 6.00 Build 0)  -->
<svg version="1.1" id="Layer_1" xmlns="http://www.w3.org/2000/svg" xmlns:xlink="http://www.w3.org/1999/xlink" x="0px" y="0px"
	 width="50px" height="50px" viewBox="0 0 50 50" style="enable-background:new 0 0 50 50;" xml:space="preserve">
<style type="text/css">
	.st0{fill:#2BB826;}
	.st1{fill:#FFFFFF;}
</style>
<g>
	<circle class="st0" cx="25" cy="25" r="23.5"/>
	<path class="st1" d="M31.1,27c-0.3-0.2-2-1-2.3-1.1c-0.3-0.1-0.5-0.2-0.8,0.2c-0.2,0.3-0.9,1.1-1.1,1.3c-0.2,0.2-0.4,0.3-0.7,0.1
		c-0.3-0.2-1.4-0.5-2.7-1.7c-1-0.9-1.7-2-1.9-2.3c-0.2-0.3,0-0.5,0.1-0.7c0.2-0.1,0.3-0.4,0.5-0.6s0.2-0.3,0.3-0.6s0.1-0.4,0-0.6
		c-0.1-0.2-0.8-1.8-1-2.5c-0.3-0.7-0.5-0.6-0.8-0.6c-0.2,0-0.4,0-0.6,0s-0.6,0.1-0.9,0.4c-0.3,0.3-1.2,1.1-1.2,2.8
		c0,1.6,1.2,3.2,1.4,3.5c0.2,0.2,2.4,3.6,5.7,5c0.8,0.3,1.4,0.5,1.9,0.7c0.8,0.3,1.5,0.2,2.1,0.1c0.6-0.1,2-0.8,2.3-1.6
		c0.3-0.8,0.3-1.4,0.2-1.6C31.6,27.3,31.4,27.2,31.1,27z M34.5,14.8c-2.5-2.5-5.9-3.9-9.5-3.9c-7.4,0-13.4,6-13.4,13.4
		c0,2.4,0.6,4.7,1.8,6.7l-1.9,6.9l7.1-1.9c2,1.1,4.2,1.6,6.4,1.6h0c7.4,0,13.4-6,13.4-13.4C38.4,20.7,37,17.3,34.5,14.8z M25,35.3
		L25,35.3c-2,0-4-0.5-5.7-1.5l-0.4-0.2l-4.2,1.1l1.1-4.1l-0.3-0.4c-1.1-1.8-1.7-3.8-1.7-5.9c0-6.1,5-11.1,11.1-11.1
		c3,0,5.8,1.2,7.9,3.3c2.1,2.1,3.3,4.9,3.3,7.9C36.1,30.3,31.1,35.3,25,35.3z"/>
</g>
</svg>
