<?xml version="1.0" encoding="utf-8"?>
<!-- Generator: Adobe Illustrator 20.0.0, SVG Export Plug-In . SVG Version: 6.00 Build 0)  -->
<svg version="1.1" id="Layer_1" xmlns="http://www.w3.org/2000/svg" xmlns:xlink="http://www.w3.org/1999/xlink" x="0px" y="0px"
	 width="50px" height="50px" viewBox="0 0 50 50" style="enable-background:new 0 0 50 50;" xml:space="preserve">
<style type="text/css">
	.st0{fill:#B3B3B3;}
</style>
<path class="st0" d="M25,1.5C12,1.5,1.5,12,1.5,25S12,48.5,25,48.5S48.5,38,48.5,25S38,1.5,25,1.5z M18.5,32.6c0.4,0.4,0.4,1,0,1.4
	c-0.2,0.2-0.5,0.3-0.7,0.3s-0.5-0.1-0.7-0.3l-8.3-8.3c-0.2-0.2-0.3-0.4-0.3-0.7s0.1-0.5,0.3-0.7l8.3-8.3c0.4-0.4,1-0.4,1.4,0
	s0.4,1,0,1.4L11,25L18.5,32.6z M40.8,25.7L32.5,34c-0.2,0.2-0.5,0.3-0.7,0.3s-0.5-0.1-0.7-0.3c-0.4-0.4-0.4-1,0-1.4l7.6-7.6
	l-7.6-7.6c-0.4-0.4-0.4-1,0-1.4s1-0.4,1.4,0l8.3,8.3c0.2,0.2,0.3,0.4,0.3,0.7S41,25.5,40.8,25.7z"/>
</svg>
