<?xml version="1.0" encoding="utf-8"?>
<!-- Generator: Adobe Illustrator 20.0.0, SVG Export Plug-In . SVG Version: 6.00 Build 0)  -->
<svg version="1.1" id="Layer_1" xmlns="http://www.w3.org/2000/svg" xmlns:xlink="http://www.w3.org/1999/xlink" x="0px" y="0px"
	 width="50px" height="50px" viewBox="0 0 50 50" style="enable-background:new 0 0 50 50;" xml:space="preserve">
<style type="text/css">
	.st0{fill:#B3B3B3;}
</style>
<path class="st0" d="M43.4,10.2l-1.2-1.6l-4.8,3.6l1.2,1.6L43.4,10.2z M25.6,0.6h-2v5.7h2V0.6z M25.4,14.1c-7.4,0-13.4,6-13.4,13.4
	c0,4.4,2.1,8.3,5.4,10.7v3.2c0,1.1,0.2,2.1,0.6,3v0.4h0.2c1.3,2.7,4,4.5,7.2,4.5h0c3.2,0,5.9-1.9,7.2-4.5h0.2v-0.5
	c0.4-0.9,0.6-1.9,0.6-3v-3.2c3.3-2.4,5.4-6.3,5.4-10.8C38.8,20.1,32.8,14.1,25.4,14.1z M25.4,47.4c-2,0-3.8-1-4.9-2.5h9.8
	C29.2,46.4,27.4,47.4,25.4,47.4z M31.4,41.4c0,0.5-0.1,1-0.2,1.5H19.6c-0.1-0.5-0.2-1-0.2-1.5v-2.2h12V41.4z M32.2,36.7l-0.8,0.6v0
	h-5v-5.4c2-0.5,3.5-2.2,3.5-4.4c0-0.6-0.4-1-1-1s-1,0.4-1,1c0,1.4-1.1,2.5-2.5,2.5s-2.5-1.1-2.5-2.5c0-0.6-0.4-1-1-1s-1,0.4-1,1
	c0,2.1,1.5,3.9,3.5,4.4v5.4h-5v0l-0.8-0.6c-2.9-2.2-4.6-5.5-4.6-9.1c0-6.3,5.1-11.4,11.4-11.4c6.3,0,11.4,5.1,11.4,11.4
	C36.8,31.1,35.1,34.5,32.2,36.7z M7.8,8.6l-1.2,1.6l4.8,3.6l1.2-1.6L7.8,8.6z"/>
</svg>
