<?xml version="1.0" encoding="utf-8"?>
<!-- Generator: Adobe Illustrator 20.0.0, SVG Export Plug-In . SVG Version: 6.00 Build 0)  -->
<svg version="1.1" id="Layer_1" xmlns="http://www.w3.org/2000/svg" xmlns:xlink="http://www.w3.org/1999/xlink" x="0px" y="0px"
	 width="50px" height="50px" viewBox="0 0 50 50" style="enable-background:new 0 0 50 50;" xml:space="preserve">
<style type="text/css">
	.st0{fill:#B3B3B3;}
</style>
<path class="st0" d="M25,28.4c0.8,0,1.5-0.7,1.5-1.5V14.4c0-0.8-0.7-1.5-1.5-1.5s-1.5,0.7-1.5,1.5v12.5C23.5,27.8,24.2,28.4,25,28.4
	z M25,31.6c-1.1,0-2,0.9-2,2c0,1.1,0.9,2,2,2c1.1,0,2-0.9,2-2C27,32.5,26.1,31.6,25,31.6z M25,7C15,7,7,15,7,25S15,43,25,43
	c10,0,18-8.1,18-18S35,7,25,7z M25,41.4C16,41.4,8.6,34,8.6,25S16,8.6,25,8.6c9,0,16.4,7.3,16.4,16.4S34,41.4,25,41.4z"/>
</svg>
