<?xml version="1.0" encoding="utf-8"?>
<!-- Generator: Adobe Illustrator 20.0.0, SVG Export Plug-In . SVG Version: 6.00 Build 0)  -->
<svg version="1.1" id="Layer_1" xmlns="http://www.w3.org/2000/svg" xmlns:xlink="http://www.w3.org/1999/xlink" x="0px" y="0px"
	 width="24px" height="24px" viewBox="0 0 50 50" style="enable-background:new 0 0 50 50;" xml:space="preserve">
<style type="text/css">
	.st0{fill:#4A4A4A;}
</style>
<path class="st0" d="M33,30.8h-3.7V12h-8.3v18.8h-3.7l7.9,7.3L33,30.8z M33.9,0H16.1c-1.9,0-3.4,1.5-3.4,3.4v43.3
	c0,1.9,1.5,3.4,3.4,3.4h17.7c1.9,0,3.4-1.5,3.4-3.4V3.4C37.2,1.5,35.7,0,33.9,0z M23.5,3h3.1c0.1,0,0.2,0.1,0.2,0.2
	c0,0.1-0.1,0.2-0.2,0.2h-3.1c-0.1,0-0.2-0.1-0.2-0.2C23.3,3,23.4,3,23.5,3z M21.6,2.7c0.2,0,0.4,0.2,0.4,0.4s-0.2,0.4-0.4,0.4
	c-0.2,0-0.4-0.2-0.4-0.4S21.4,2.7,21.6,2.7z M25,48.6c-0.9,0-1.6-0.7-1.6-1.6c0-0.9,0.7-1.6,1.6-1.6c0.9,0,1.6,0.7,1.6,1.6
	C26.6,47.9,25.9,48.6,25,48.6z M35.8,44.3H14.2V5.8h21.6V44.3z"/>
</svg>
