<?xml version="1.0" encoding="utf-8"?>
<!-- Generator: Adobe Illustrator 20.0.0, SVG Export Plug-In . SVG Version: 6.00 Build 0)  -->
<svg version="1.1" id="Layer_1" xmlns="http://www.w3.org/2000/svg" xmlns:xlink="http://www.w3.org/1999/xlink" x="0px" y="0px"
	 width="12px" height="12px" viewBox="0 0 50 50" style="enable-background:new 0 0 50 50;" xml:space="preserve">
<style type="text/css">
	.st0{fill:#478BCD;}
</style>
<path class="st0" d="M36,45.3L19.1,25L36,4.7c0.9-1,0.7-2.6-0.3-3.4c-0.4-0.4-1-0.6-1.6-0.6c-0.7,0-1.4,0.3-1.9,0.9L14,23.4
	c-0.4,0.4-0.6,1-0.6,1.6s0.2,1.1,0.6,1.6l18.2,21.9c0.5,0.6,1.1,0.9,1.9,0.9c0.6,0,1.1-0.2,1.6-0.6C36.7,47.9,36.9,46.3,36,45.3z"/>
</svg>
