<?xml version="1.0" encoding="utf-8"?>
<!-- Generator: Adobe Illustrator 20.0.0, SVG Export Plug-In . SVG Version: 6.00 Build 0)  -->
<svg version="1.1" id="Layer_1" xmlns="http://www.w3.org/2000/svg" xmlns:xlink="http://www.w3.org/1999/xlink" x="0px" y="0px"
	 width="50px" height="50px" viewBox="0 0 50 50" style="enable-background:new 0 0 50 50;" xml:space="preserve">
<style type="text/css">
	.st0{fill:#B3B3B3;}
</style>
<path class="st0" d="M5,5.3v2h4.6l2.6,40.8c0.1,1,0.9,1.8,1.9,1.8h21.9c1,0,1.8-0.8,1.9-1.8l2.6-40.8H45v-2H5z M35.8,47.9H14.2
	L11.6,7.3h26.8L35.8,47.9z M30.9,15.7l-2-0.1l-1.3,24l2,0.1L30.9,15.7z M28.6,0.1h-7.2v2h7.2V0.1z M22.4,39.6l-1.3-24l-2,0.1l1.3,24
	L22.4,39.6z"/>
</svg>
