<?xml version="1.0" encoding="utf-8"?>
<!-- Generator: Adobe Illustrator 20.0.0, SVG Export Plug-In . SVG Version: 6.00 Build 0)  -->
<svg version="1.1" id="Layer_1" xmlns="http://www.w3.org/2000/svg" xmlns:xlink="http://www.w3.org/1999/xlink" x="0px" y="0px"
	 width="50px" height="50px" viewBox="0 0 50 50" style="enable-background:new 0 0 50 50;" xml:space="preserve">
<style type="text/css">
	.st0{fill:#B3B3B3;}
</style>
<path class="st0" d="M9.4,21.2c-2.2,0-3.9,1.8-3.9,3.9S7.2,29,9.4,29c2.2,0,3.9-1.8,3.9-3.9S11.5,21.2,9.4,21.2z M43,23.5H18.4
	c-0.8,0-1.5,0.7-1.5,1.5s0.7,1.5,1.5,1.5H43c0.8,0,1.5-0.7,1.5-1.5S43.9,23.5,43,23.5z M9.4,7.6c-2.2,0-3.9,1.8-3.9,3.9
	c0,2.2,1.8,3.9,3.9,3.9c2.2,0,3.9-1.8,3.9-3.9C13.3,9.3,11.5,7.6,9.4,7.6z M18.4,12.9H43c0.8,0,1.5-0.7,1.5-1.5S43.9,9.9,43,9.9
	H18.4c-0.8,0-1.5,0.7-1.5,1.5S17.5,12.9,18.4,12.9z M9.4,34.6c-2.2,0-3.9,1.8-3.9,3.9c0,2.2,1.8,3.9,3.9,3.9c2.2,0,3.9-1.8,3.9-3.9
	C13.3,36.3,11.5,34.6,9.4,34.6z M43,37.1H18.4c-0.8,0-1.5,0.7-1.5,1.5s0.7,1.5,1.5,1.5H43c0.8,0,1.5-0.7,1.5-1.5S43.9,37.1,43,37.1z
	"/>
</svg>
