<?xml version="1.0" encoding="utf-8"?>
<!-- Generator: Adobe Illustrator 20.0.0, SVG Export Plug-In . SVG Version: 6.00 Build 0)  -->
<svg version="1.1" id="Layer_1" xmlns="http://www.w3.org/2000/svg" xmlns:xlink="http://www.w3.org/1999/xlink" x="0px" y="0px"
	 width="50px" height="50px" viewBox="0 0 50 50" style="enable-background:new 0 0 50 50;" xml:space="preserve">
<style type="text/css">
	.st0{fill:#6E6A60;}
</style>
<path class="st0" d="M43.1,23C42.2,14.5,35.5,7.8,27,6.9V2.7h-4v4.2C14.5,7.8,7.8,14.5,6.9,23H2.7v4h4.2c0.9,8.4,7.6,15.1,16.1,16.1
	v4.2h4v-4.2c8.4-0.9,15.1-7.6,16.1-16.1h4.2v-4H43.1z M25,39.2c-7.8,0-14.2-6.3-14.2-14.2S17.2,10.8,25,10.8S39.2,17.2,39.2,25
	S32.8,39.2,25,39.2z M25,16.9c-4.5,0-8.1,3.6-8.1,8.1c0,4.5,3.6,8.1,8.1,8.1s8.1-3.6,8.1-8.1C33.1,20.5,29.5,16.9,25,16.9z"/>
</svg>
