<?xml version="1.0" encoding="utf-8"?>
<!-- Generator: Adobe Illustrator 20.0.0, SVG Export Plug-In . SVG Version: 6.00 Build 0)  -->
<svg version="1.1" id="Layer_1" xmlns="http://www.w3.org/2000/svg" xmlns:xlink="http://www.w3.org/1999/xlink" x="0px" y="0px"
	 width="20px" height="20px" viewBox="0 0 52 52" style="enable-background:new 0 0 52 52;" xml:space="preserve">
<style type="text/css">
	.st0{fill:#B3B3B3;}
</style>
<path class="st0" d="M25,12.7c-4.4,0-7.9,3.6-7.9,7.9c0,4.4,3.6,7.9,7.9,7.9s7.9-3.6,7.9-7.9C32.9,16.2,29.4,12.7,25,12.7z M25,26.5
	c-3.3,0-5.9-2.7-5.9-5.9c0-3.3,2.7-5.9,5.9-5.9c3.3,0,5.9,2.7,5.9,5.9C30.9,23.9,28.3,26.5,25,26.5z M25,0.6
	c-11.1,0-20.1,9-20.1,20.1c0,8.8,12.3,22.4,17.6,27.8c0.7,0.7,1.5,1,2.5,1c0.9,0,1.8-0.4,2.5-1c5.3-5.4,17.6-19,17.6-27.8
	C45.1,9.6,36.1,0.6,25,0.6z M26,47c-0.5,0.6-1.5,0.6-2.1,0c-4-4.1-17-18.1-17-26.4C6.9,10.7,15,2.6,25,2.6s18.1,8.1,18.1,18.1
	C43.1,28.9,30,42.9,26,47z"/>
</svg>
