<?xml version="1.0" encoding="utf-8"?>
<!-- Generator: Adobe Illustrator 20.0.0, SVG Export Plug-In . SVG Version: 6.00 Build 0)  -->
<svg version="1.1" id="Layer_1" xmlns="http://www.w3.org/2000/svg" xmlns:xlink="http://www.w3.org/1999/xlink" x="0px" y="0px"
	 width="18px" height="18px" viewBox="0 0 50 50" style="enable-background:new 0 0 50 50;" xml:space="preserve">
<style type="text/css">
	.st0{fill:#B3B3B3;}
</style>
<path class="st0" d="M34.9,26.3c2.3-2.7,3.7-6.3,3.7-10.4c0-8.4-6.1-15.2-13.7-15.2S11.3,7.6,11.3,16c0,4,1.4,7.7,3.7,10.4
	c-8.5,4-14,13.2-14,22.9h0h2h0C3,40,8.4,31.4,16.5,27.9c2.3,2,5.3,3.3,8.4,3.3c3.2,0,6.1-1.2,8.5-3.3C41.6,31.3,47,40,47,49.2h0h2h0
	C49,39.5,43.4,30.3,34.9,26.3z M25,29.1c-6.4,0-11.7-5.9-11.7-13.2S18.5,2.8,25,2.8S36.6,8.7,36.6,16S31.4,29.1,25,29.1z"/>
</svg>
