<?xml version="1.0" encoding="utf-8"?>
<!-- Generator: Adobe Illustrator 20.0.0, SVG Export Plug-In . SVG Version: 6.00 Build 0)  -->
<svg version="1.1" id="Layer_1" xmlns="http://www.w3.org/2000/svg" xmlns:xlink="http://www.w3.org/1999/xlink" x="0px" y="0px"
	 width="50px" height="50px" viewBox="0 0 50 50" style="enable-background:new 0 0 50 50;" xml:space="preserve">
<style type="text/css">
	.st0{fill:#B3B3B3;}
</style>
<path class="st0" d="M37.5,20.3c-0.2-0.4-0.5-0.6-0.9-0.6H26.5l7.4-13.6c0.2-0.3,0.2-0.7,0-1c-0.2-0.3-0.5-0.5-0.9-0.5h-9.7
	c-0.4,0-0.8,0.3-0.9,0.6L14,26.8c-0.1,0.3-0.1,0.7,0.1,0.9s0.5,0.4,0.8,0.4h4.9L12.5,44c-0.2,0.4-0.1,1,0.3,1.2
	c0.2,0.1,0.4,0.2,0.6,0.2c0.3,0,0.5-0.1,0.7-0.3l23.2-23.7C37.6,21.1,37.7,20.7,37.5,20.3z M16.7,39.6l5.5-12c0.1-0.3,0.1-0.7-0.1-1
	c-0.2-0.3-0.5-0.5-0.8-0.5h-5l7.7-19.6h7.3L24,20.2c-0.2,0.3-0.2,0.7,0,1c0.2,0.3,0.5,0.5,0.9,0.5h9.4L16.7,39.6z"/>
</svg>
