<?xml version="1.0" encoding="utf-8"?>
<!-- Generator: Adobe Illustrator 20.0.0, SVG Export Plug-In . SVG Version: 6.00 Build 0)  -->
<svg version="1.1" id="Layer_1" xmlns="http://www.w3.org/2000/svg" xmlns:xlink="http://www.w3.org/1999/xlink" x="0px" y="0px"
	 width="50px" height="50px" viewBox="0 0 50 50" style="enable-background:new 0 0 50 50;" xml:space="preserve">
<style type="text/css">
	.st0{fill:#B3B3B3;}
</style>
<path class="st0" d="M49.1,45.9l-11.6-9.7c-0.4-0.3-1-0.3-1.3,0.1c-0.3,0.4-0.3,1,0.1,1.3l11.6,9.7c0.2,0.1,0.4,0.2,0.6,0.2
	c0.3,0,0.5-0.1,0.7-0.3C49.6,46.8,49.5,46.2,49.1,45.9z M20.8,2.4C9.7,2.4,0.6,11.5,0.6,22.7S9.7,43,20.8,43
	c11.2,0,20.3-9.1,20.3-20.3S32,2.4,20.8,2.4z M20.8,41.1c-10.1,0-18.4-8.2-18.4-18.4S10.7,4.3,20.8,4.3s18.4,8.2,18.4,18.4
	S31,41.1,20.8,41.1z"/>
</svg>
