<?xml version="1.0" encoding="utf-8"?>
<!-- Generator: Adobe Illustrator 20.0.0, SVG Export Plug-In . SVG Version: 6.00 Build 0)  -->
<svg version="1.1" id="Layer_1" xmlns="http://www.w3.org/2000/svg" xmlns:xlink="http://www.w3.org/1999/xlink" x="0px" y="0px"
	 width="50px" height="50px" viewBox="0 0 50 50" style="enable-background:new 0 0 50 50;" xml:space="preserve">
<style type="text/css">
	.st0{fill:#B3B3B3;}
</style>
<path class="st0" d="M31.2,0.3H18.8c-4.6,0-8.3,3.7-8.3,8.3v32.8c0,4.6,3.7,8.3,8.3,8.3h12.4c4.6,0,8.3-3.7,8.3-8.3V8.6
	C39.5,4,35.7,0.3,31.2,0.3z M37.5,41.4c0,3.5-2.8,6.3-6.3,6.3H18.8c-3.5,0-6.3-2.8-6.3-6.3V8.6c0-3.5,2.8-6.3,6.3-6.3h12.4
	c3.5,0,6.3,2.8,6.3,6.3V41.4z M15.3,36.3h19.4V11.7H15.3V36.3z M16.3,12.7h17.4v22.6H16.3V12.7z M22.2,8.8h5.5
	c0.8,0,1.5-0.7,1.5-1.5s-0.7-1.5-1.5-1.5h-5.5c-0.8,0-1.5,0.7-1.5,1.5S21.4,8.8,22.2,8.8z M25,39.3c-1.5,0-2.8,1.2-2.8,2.8
	c0,1.5,1.2,2.8,2.8,2.8s2.8-1.2,2.8-2.8C27.8,40.6,26.5,39.3,25,39.3z"/>
</svg>
