<?xml version="1.0" encoding="UTF-8" standalone="no"?>
<svg width="40px" height="40px" viewBox="0 0 64 64" version="1.1" xmlns="http://www.w3.org/2000/svg" xmlns:xlink="http://www.w3.org/1999/xlink">
    <!-- Generator: Sketch 40.3 (33839) - http://www.bohemiancoding.com/sketch -->
    <title>Edit</title>
    <desc>Created with Sketch.</desc>
    <defs></defs>
    <g id="New-Page" stroke="none" stroke-width="1" fill="none" fill-rule="evenodd">
        <g id="Edit" fill="#747474">
            <g id="Icon/iOS/edit">
                <g id="Group" transform="translate(9.000000, 9.000000)">
                    <path d="M2.9,47 C1.9,47 1.2,46.5 0.8,46.1 C-1.11022302e-16,45.2 -0.2,44.2 0.2,43 C1.4,39.4 2.6,35.7 3.8,32.1 C4.3,30.6 4.8,29.1 5.3,27.6 C5.4,27.1 5.8,26.6 6.2,26.3 L30.3,1.9 C31.3,0.9 33,0.7 34.2,1.4 C36.8,3 38.9,4.6 40.6,6.4 C42.4,8.1 44,10.1 45.5,12.4 C46.3,13.7 46.1,15.3 45,16.4 L20.8,40.8 C20.4,41.2 20,41.4 19.6,41.6 C15.2,43 9.5,44.8 4,46.8 C3.7,46.9 3.3,47 2.9,47 L2.9,47 Z M32.5,3 C32.3,3 32,3.1 31.7,3.3 L7.5,27.7 C7.3,27.8 7.2,28 7.2,28.1 C6.7,29.6 6.2,31.2 5.7,32.7 C4.5,36.3 3.3,40 2.1,43.6 C1.9,44.2 2,44.3 2.2,44.6 C2.5,44.9 2.7,45 2.9,45 C3,45 3.1,45 3.3,44.9 C8.9,42.9 14.6,41.1 18.9,39.7 C19,39.6 19.2,39.5 19.4,39.3 L43.6,15 C44,14.6 44.1,14 43.8,13.5 C42.4,11.3 40.9,9.4 39.2,7.8 C37.6,6.2 35.6,4.6 33.1,3.1 C33,3.1 32.8,3 32.5,3 L32.5,3 Z" id="Shape"></path>
                    <rect id="Rectangle-path" transform="translate(6.406890, 40.462390) rotate(45.000000) translate(-6.406890, -40.462390) " x="2.10693124" y="39.4623996" width="8.59991753" height="1.99998082"></rect>
                </g>
            </g>
        </g>
    </g>
</svg>
