<?xml version="1.0" encoding="utf-8"?>
<!-- Generator: Adobe Illustrator 20.0.0, SVG Export Plug-In . SVG Version: 6.00 Build 0)  -->
<svg version="1.1" id="Layer_1" xmlns="http://www.w3.org/2000/svg" xmlns:xlink="http://www.w3.org/1999/xlink" x="0px" y="0px"
	 viewBox="0 0 72 72" width="30px" height="30px" style="enable-background:new 0 0 72 72;" xml:space="preserve">
<style type="text/css">
	.st0{fill:#FE9627;}
</style>
<g>
	<path class="st0" d="M39.4,45l4.5-4c0.3-0.4,0.7-0.6,1.2-0.6l0.8,0.3l10.4,5.2c0.6,0.3,0.8,0.8,0.8,1.4c-0.2,2.8-1.2,5.1-3,6.8
		C52.2,56,49.6,57,46.4,57c-3.2,0-6.7-0.9-10.4-2.7s-7.2-4.4-10.5-7.6c-2.4-2.5-4.5-5.1-6.2-7.9s-2.9-5.5-3.6-8.1
		c-0.7-2.6-0.9-5-0.6-7.3c0.3-2.3,1.2-4.1,2.6-5.6c1.5-1.5,3.9-2.4,7-2.7c0.6,0,1,0.3,1.4,0.8l5.7,10.4c0.2,0.3,0.2,0.6,0.2,0.8
		c0,0.4-0.2,0.8-0.6,1.2L27,32.7c-0.5,0.6-0.6,1.2-0.2,1.9c1.3,2.2,2.9,4.2,4.7,6c1.9,1.9,3.9,3.5,6,4.7
		C38.2,45.7,38.8,45.6,39.4,45z"/>
</g>
</svg>
