<?xml version="1.0" encoding="utf-8"?>
<!-- Generator: Adobe Illustrator 20.0.0, SVG Export Plug-In . SVG Version: 6.00 Build 0)  -->
<svg version="1.1" id="Layer_1" xmlns="http://www.w3.org/2000/svg" xmlns:xlink="http://www.w3.org/1999/xlink" x="0px" y="0px"
	 viewBox="0 0 72 72" style="enable-background:new 0 0 72 72;" xml:space="preserve">
<style type="text/css">
	.st0{fill:#FE9627;}
</style>
<path class="st0" d="M65,13.6c-19.3-2-38.7-2-58,0c-3.3,0.4-6,3.4-6,6.7c0,10.4,0,20.8,0,31.3c0,3.3,2.7,6.3,6,6.7
	c19.3,2,38.7,2,58,0c3.3-0.4,6-3.4,6-6.7c0-10.4,0-20.8,0-31.3C71,17.1,68.3,13.9,65,13.6z M20.8,41.4c-0.3,0.7-0.7,1.2-1.2,1.7
	c-0.5,0.5-1.2,0.9-2,1.1c-0.8,0.3-1.7,0.4-2.7,0.4c-1.2,0-2.2-0.2-3.2-0.6c-0.9-0.4-1.7-0.9-2.4-1.5l0.7-1.1
	c0.1-0.1,0.2-0.3,0.3-0.3s0.3-0.1,0.5-0.1c0.2,0,0.4,0.1,0.6,0.2c0.2,0.2,0.5,0.3,0.8,0.5c0.3,0.2,0.7,0.4,1.1,0.5s1,0.2,1.7,0.2
	c0.6,0,1.1-0.1,1.5-0.2s0.8-0.3,1.1-0.6s0.5-0.5,0.6-0.9c0.1-0.3,0.2-0.7,0.2-1.1c0-0.5-0.1-0.8-0.4-1.1c-0.2-0.3-0.6-0.6-1-0.8
	c-0.4-0.2-0.9-0.4-1.4-0.6c-0.5-0.2-1.1-0.3-1.6-0.5s-1.1-0.4-1.6-0.6c-0.5-0.2-1-0.5-1.4-0.8c-0.4-0.3-0.7-0.8-1-1.3
	s-0.4-1.1-0.4-1.8c0-0.6,0.1-1.3,0.4-1.8c0.3-0.6,0.6-1.1,1.2-1.6c0.5-0.4,1.1-0.8,1.9-1.1s1.6-0.4,2.5-0.4c1.1,0,2.1,0.2,3,0.5
	c0.9,0.3,1.6,0.8,2.3,1.4l-0.7,1.1c-0.1,0.2-0.3,0.4-0.6,0.4c-0.2,0-0.4-0.1-0.6-0.2c-0.2-0.1-0.5-0.3-0.8-0.4
	c-0.3-0.1-0.7-0.3-1.1-0.4s-0.9-0.2-1.5-0.2c-0.5,0-0.9,0.1-1.3,0.2s-0.7,0.3-1,0.5c-0.3,0.2-0.5,0.5-0.6,0.8
	c-0.1,0.3-0.2,0.6-0.2,0.9c0,0.4,0.1,0.8,0.4,1.1c0.2,0.3,0.6,0.5,1,0.7s0.9,0.4,1.4,0.6c0.5,0.2,1,0.3,1.6,0.5
	c0.5,0.2,1.1,0.4,1.6,0.6c0.5,0.2,1,0.5,1.4,0.8c0.4,0.3,0.7,0.7,1,1.2s0.4,1.1,0.4,1.7C21.2,40,21.1,40.7,20.8,41.4z M47.7,44.4
	h-2.9V33.7c0-1.3-0.3-2.3-0.9-3c-0.6-0.7-1.4-1-2.5-1c-0.5,0-0.9,0.1-1.4,0.3c-0.4,0.2-0.8,0.4-1.1,0.8s-0.6,0.7-0.8,1.2
	s-0.3,1.1-0.3,1.7v10.6h-2.9V33.7c0-1.3-0.3-2.3-0.8-3c-0.5-0.7-1.3-1-2.4-1c-0.7,0-1.4,0.2-2,0.6c-0.6,0.4-1.2,0.9-1.7,1.6v12.5
	h-2.9V27.6h1.7c0.4,0,0.7,0.2,0.8,0.6l0.2,1.7c0.6-0.8,1.3-1.4,2.1-1.9c0.8-0.5,1.7-0.7,2.7-0.7c1.1,0,2,0.3,2.7,0.9
	c0.7,0.6,1.2,1.5,1.5,2.5c0.2-0.6,0.5-1.1,0.9-1.6s0.8-0.8,1.3-1.1c0.5-0.3,1-0.5,1.5-0.6c0.5-0.1,1.1-0.2,1.6-0.2
	c0.9,0,1.7,0.1,2.4,0.4c0.7,0.3,1.3,0.7,1.7,1.2c0.5,0.5,0.8,1.2,1.1,2c0.3,0.8,0.4,1.7,0.4,2.7V44.4z M62.2,41.4
	C62,42,61.6,42.6,61,43.1c-0.5,0.5-1.2,0.9-2,1.1c-0.8,0.3-1.7,0.4-2.7,0.4c-1.2,0-2.2-0.2-3.2-0.6c-0.9-0.4-1.7-0.9-2.4-1.5
	l0.7-1.1c0.1-0.1,0.2-0.3,0.3-0.3S52,41,52.2,41c0.2,0,0.4,0.1,0.6,0.2c0.2,0.2,0.5,0.3,0.8,0.5c0.3,0.2,0.7,0.4,1.1,0.5
	s1,0.2,1.7,0.2c0.6,0,1.1-0.1,1.5-0.2s0.8-0.3,1.1-0.6s0.5-0.5,0.6-0.9c0.1-0.3,0.2-0.7,0.2-1.1c0-0.5-0.1-0.8-0.4-1.1
	c-0.2-0.3-0.6-0.6-1-0.8c-0.4-0.2-0.9-0.4-1.4-0.6c-0.5-0.2-1.1-0.3-1.6-0.5s-1.1-0.4-1.6-0.6c-0.5-0.2-1-0.5-1.4-0.8
	c-0.4-0.3-0.7-0.8-1-1.3s-0.4-1.1-0.4-1.8c0-0.6,0.1-1.3,0.4-1.8c0.3-0.6,0.6-1.1,1.2-1.6c0.5-0.4,1.1-0.8,1.9-1.1s1.6-0.4,2.5-0.4
	c1.1,0,2.1,0.2,3,0.5c0.9,0.3,1.6,0.8,2.3,1.4l-0.7,1.1c-0.1,0.2-0.3,0.4-0.6,0.4c-0.2,0-0.4-0.1-0.6-0.2c-0.2-0.1-0.5-0.3-0.8-0.4
	c-0.3-0.1-0.7-0.3-1.1-0.4s-0.9-0.2-1.5-0.2c-0.5,0-0.9,0.1-1.3,0.2s-0.7,0.3-1,0.5c-0.3,0.2-0.5,0.5-0.6,0.8
	C54.1,31.3,54,31.7,54,32c0,0.4,0.1,0.8,0.4,1.1c0.2,0.3,0.6,0.5,1,0.7s0.9,0.4,1.4,0.6c0.5,0.2,1,0.3,1.6,0.5
	c0.5,0.2,1.1,0.4,1.6,0.6c0.5,0.2,1,0.5,1.4,0.8c0.4,0.3,0.7,0.7,1,1.2s0.4,1.1,0.4,1.7C62.7,40,62.5,40.7,62.2,41.4z"/>
</svg>
