<?xml version="1.0" encoding="UTF-8" standalone="no"?>
<svg width="16px" height="22px" viewBox="0 0 16 22" version="1.1" xmlns="http://www.w3.org/2000/svg" xmlns:xlink="http://www.w3.org/1999/xlink">
    <!-- Generator: Sketch 41.2 (35397) - http://www.bohemiancoding.com/sketch -->
    <title>Icon/iOS/SMS</title>
    <desc>Created with Sketch.</desc>
    <defs></defs>
    <g id="Symbols" stroke="none" stroke-width="1" fill="none" fill-rule="evenodd">
        <g id="contact-bar-2" transform="translate(-158.000000, -41.000000)" fill="#FF9800">
            <g id="Contact-Bar-Copy">
                <g id="Email" transform="translate(127.500000, 32.000000)">
                    <g id="Group-6" transform="translate(30.000000, 9.000000)">
                        <g id="Icon/iOS/SMS">
                            <g id="Group" transform="translate(0.527344, 0.143750)">
                                <path d="M8.0859375,21.3378906 C5.9765625,21.3378906 4.26269531,21.2480469 2.68066406,21.0234375 C1.53808594,20.8886719 0.659179688,19.9003906 0.615234375,18.6875 C0.483398438,16.0820313 0.395507813,13.3867188 0.395507813,10.7363281 C0.395507813,7.86132813 0.483398438,5.2109375 0.615234375,2.875 C0.659179687,1.70703125 1.53808594,0.763671875 2.68066406,0.583984375 C4.52636719,0.359375 6.328125,0.224609375 8.0859375,0.224609375 C9.79980469,0.224609375 11.6015625,0.359375 13.4472656,0.583984375 C14.5898438,0.763671875 15.46875,1.75195313 15.5566406,2.875 C15.6884766,5.66015625 15.7763672,8.31054688 15.7763672,10.8261719 C15.7763672,13.3867188 15.6884766,16.0371094 15.5566406,18.6875 C15.46875,19.8554688 14.5898438,20.84375 13.4472656,21.0234375 C11.9091797,21.2480469 10.1953125,21.3378906 8.0859375,21.3378906 L8.0859375,21.3378906 Z M8.0859375,1.12304688 C6.37207031,1.12304688 4.61425781,1.2578125 2.8125,1.48242188 C2.109375,1.6171875 1.53808594,2.20117188 1.49414062,2.96484375 C1.36230469,5.30078125 1.27441406,7.90625 1.27441406,10.78125 C1.27441406,13.4316406 1.36230469,16.0820312 1.49414062,18.6875 C1.53808594,19.4511719 2.06542969,20.0800781 2.8125,20.1699219 C4.35058594,20.3496094 6.02050781,20.4394531 8.0859375,20.4394531 C10.1513672,20.4394531 11.8212891,20.3496094 13.359375,20.1699219 C14.0625,20.0800781 14.6337891,19.4511719 14.6777344,18.6875 C14.8095703,16.0371094 14.8974609,13.4316406 14.8974609,10.8710938 C14.8974609,8.35546875 14.8095703,5.70507813 14.6777344,2.96484375 C14.6337891,2.24609375 14.0625,1.6171875 13.359375,1.48242188 C11.5576172,1.2578125 9.79980469,1.12304688 8.0859375,1.12304688 L8.0859375,1.12304688 Z M12.3046875,15.9472656 L3.8671875,15.9472656 C3.47167969,15.9472656 3.1640625,15.6777344 3.12011719,15.2734375 C3.03222656,13.5664062 2.98828125,11.9042969 2.98828125,10.1523437 C2.98828125,8.17578125 3.07617188,6.15429687 3.20800781,3.81835937 C3.25195312,3.4140625 3.55957031,3.14453125 3.91113281,3.09960937 C6.81152344,2.74023437 9.31640625,2.74023437 12.3046875,3.09960937 C12.65625,3.14453125 12.9199219,3.4140625 12.9638672,3.81835937 C13.1396484,6.06445312 13.2275391,7.90625 13.2275391,9.74804687 C13.2275391,11.4101562 13.1835937,13.1171875 13.0517578,15.2734375 C13.0517578,15.6328125 12.7441406,15.9472656 12.3046875,15.9472656 L12.3046875,15.9472656 Z M3.99902344,15.0488281 L12.1728516,15.0488281 C12.3046875,12.9824219 12.3486328,11.3203125 12.3486328,9.703125 C12.3486328,7.90625 12.2607422,6.15429688 12.0849609,3.953125 C9.27246094,3.63867188 6.81152344,3.63867188 4.08691406,3.953125 C3.95507813,6.24414062 3.8671875,8.22070312 3.8671875,10.1523438 C3.8671875,11.8144531 3.91113281,13.4316406 3.99902344,15.0488281 L3.99902344,15.0488281 Z" id="Shape"></path>
                                <ellipse id="Oval" cx="8.0859375" cy="17.7441406" rx="0.87890625" ry="0.8984375"></ellipse>
                                <g transform="translate(5.273438, 8.984375)" id="Oval">
                                    <ellipse cx="0.439453125" cy="0.853515625" rx="0.439453125" ry="0.44921875"></ellipse>
                                    <ellipse cx="2.85644531" cy="0.853515625" rx="0.439453125" ry="0.44921875"></ellipse>
                                    <ellipse cx="5.2734375" cy="0.853515625" rx="0.439453125" ry="0.44921875"></ellipse>
                                </g>
                            </g>
                        </g>
                    </g>
                </g>
            </g>
        </g>
    </g>
</svg>