<?xml version="1.0" encoding="UTF-8" standalone="no"?>
<svg width="23px" height="18px" viewBox="0 0 23 18" version="1.1" xmlns="http://www.w3.org/2000/svg" xmlns:xlink="http://www.w3.org/1999/xlink">
    <!-- Generator: Sketch 41.2 (35397) - http://www.bohemiancoding.com/sketch -->
    <title>Icon/iOS/Email</title>
    <desc>Created with Sketch.</desc>
    <defs></defs>
    <g id="Symbols" stroke="none" stroke-width="1" fill="none" fill-rule="evenodd">
        <g id="contact-bar-2" transform="translate(-260.000000, -43.000000)" fill="#FF9800">
            <g id="Contact-Bar-Copy">
                <g id="Email" transform="translate(245.000000, 32.000000)">
                    <g id="Group-7" transform="translate(15.000000, 11.000000)">
                        <g id="Icon/iOS/Email">
                            <path d="M11.5,17.0722656 C8.0453125,17.0722656 4.6421875,16.8144531 1.2390625,16.3503906 C0.6203125,16.2472656 0.15625,15.7316406 0.15625,15.1128906 L0.15625,2.22226563 C0.15625,1.60351563 0.6203125,1.03632813 1.2390625,0.984765625 C7.99375,0.005078125 15.0578125,0.005078125 21.709375,0.984765625 C22.328125,1.08789063 22.84375,1.60351563 22.84375,2.22226563 L22.84375,15.0613281 C22.84375,15.6800781 22.3796875,16.2472656 21.709375,16.2988281 C18.3578125,16.8144531 14.9546875,17.0722656 11.5,17.0722656 L11.5,17.0722656 Z M1.1875,5.00664063 L1.1875,15.0613281 C1.1875,15.2160156 1.290625,15.2675781 1.39375,15.3191406 C8.0453125,16.2988281 15.00625,16.2988281 21.5546875,15.3191406 C21.709375,15.3191406 21.8125,15.2160156 21.8125,15.0613281 L21.8125,5.00664063 L21.8125,5.00664063 L13.5625,11.2972656 C13.046875,11.7097656 12.325,11.9160156 11.5,11.9160156 C10.675,11.9160156 9.953125,11.7097656 9.4375,11.2972656 L1.1875,5.00664063 C1.1875,5.05820313 1.1875,5.05820313 1.1875,5.00664063 L1.1875,5.00664063 Z M1.8578125,4.23320313 L10.05625,10.4722656 C10.4171875,10.7300781 10.9328125,10.8847656 11.5,10.8847656 C12.0671875,10.8847656 12.5828125,10.7300781 12.94375,10.4722656 L21.19375,4.23320313 C21.60625,3.82070313 21.7609375,3.51132813 21.8640625,3.25351563 L21.8640625,2.22226563 C21.8640625,2.11914063 21.7609375,2.01601563 21.6578125,1.96445313 C15.0578125,0.984765625 8.096875,0.984765625 1.4453125,1.96445313 C1.3421875,1.96445313 1.2390625,2.06757813 1.2390625,2.22226563 L1.2390625,3.25351563 C1.2390625,3.51132813 1.4453125,3.82070313 1.8578125,4.23320313 L1.8578125,4.23320313 Z" id="Shape"></path>
                        </g>
                    </g>
                </g>
            </g>
        </g>
    </g>
</svg>