<?xml version="1.0" encoding="UTF-8" standalone="no"?>
<svg width="23px" height="23px" viewBox="0 0 23 23" version="1.1" xmlns="http://www.w3.org/2000/svg" xmlns:xlink="http://www.w3.org/1999/xlink">
    <!-- Generator: Sketch 41.2 (35397) - http://www.bohemiancoding.com/sketch -->
    <title>Icon/iOS/Phone</title>
    <desc>Created with Sketch.</desc>
    <defs>
        <path d="M16.5680262,22.15625 C13.2047434,22.15625 9.32403248,20.2422633 6.06423529,16.9833131 C0.993439656,11.913835 -0.662330346,5.29247573 2.33875278,2.29217233 C3.47709466,1.15412621 5.2880931,0.895479369 6.06423529,0.84375 C6.58166341,0.84375 6.99560592,1.10239684 7.20257717,1.5162318 L9.94494623,6.53398058 C10.0484319,6.74089806 10.1001747,6.89608617 10.1001747,7.20646238 C10.1001747,7.56856796 9.94494623,7.87894417 9.68623217,8.13759102 L7.51303404,10.2584951 C7.46129123,10.3102245 7.40954842,10.4136833 7.51303404,10.517142 C8.13394779,11.5517294 8.85834717,12.482858 9.68623217,13.3105279 C10.56586,14.1899272 11.4972306,14.9141383 12.480344,15.5348908 C12.5838297,15.5866201 12.6873153,15.5866201 12.7390581,15.4831614 L14.8605134,13.5691748 C15.1192275,13.2587985 15.4296844,13.1036104 15.8436269,13.1036104 C16.1023409,13.1036104 16.361055,13.2070692 16.4645406,13.3105279 L21.4835934,15.845267 C21.8975359,16.1039138 22.15625,16.5177488 22.15625,16.9833131 C22.0527644,18.4317354 21.4835934,19.776699 20.5522228,20.6560983 C19.672595,21.6389563 18.2237962,22.15625 16.5680262,22.15625 L16.5680262,22.15625 Z" id="path-1"></path>
        <mask id="mask-2" maskContentUnits="userSpaceOnUse" maskUnits="objectBoundingBox" x="0" y="0" width="21.3125" height="21.3125" fill="white">
            <use xlink:href="#path-1"></use>
        </mask>
    </defs>
    <g id="Symbols" stroke="none" stroke-width="1" fill="none" fill-rule="evenodd">
        <g id="contact-bar-2" transform="translate(-31.000000, -41.000000)" stroke-width="2" stroke="#FF9800">
            <g id="Contact-Bar-Copy">
                <g id="Call" transform="translate(10.000000, 32.000000)">
                    <g id="Group-4" transform="translate(21.000000, 9.000000)">
                        <g id="Icon/iOS/Phone">
                            <use id="Shape" mask="url(#mask-2)" xlink:href="#path-1"></use>
                        </g>
                    </g>
                </g>
            </g>
        </g>
    </g>
</svg>