<?xml version="1.0" encoding="utf-8"?>
<!-- Generator: Adobe Illustrator 20.0.0, SVG Export Plug-In . SVG Version: 6.00 Build 0)  -->
<svg version="1.1" id="Layer_1" xmlns="http://www.w3.org/2000/svg" xmlns:xlink="http://www.w3.org/1999/xlink" x="0px" y="0px"
	 viewBox="0 0 72 72" width="30px" height="30px" style="enable-background:new 0 0 72 72;" xml:space="preserve">
<style type="text/css">
	.st0{fill:#FE9627;}
</style>
<g>
	<path class="st0" d="M16.2,25.3c-0.9-0.9-1.5-1.7-1.7-2.5v-2.2c0-0.4,0.1-0.7,0.4-1c0.3-0.3,0.6-0.4,0.9-0.5
		c6.6-1,13.4-1.4,20.2-1.4s13.5,0.5,20.1,1.4c0.4,0.1,0.7,0.2,1,0.5c0.3,0.3,0.4,0.6,0.4,1v2.2c-0.2,0.8-0.8,1.7-1.7,2.5L39.5,37.6
		c-0.9,0.7-2,1.1-3.5,1.1c-1.4,0-2.6-0.4-3.5-1.1L16.2,25.3z M42.3,41.7l15.2-11.6v21.4c0,0.4-0.1,0.7-0.4,1c-0.3,0.3-0.6,0.4-1,0.5
		c-6.6,1-13.3,1.4-20.1,1.4c-6.8,0-13.5-0.5-20.2-1.4c-0.4-0.1-0.7-0.2-0.9-0.5c-0.3-0.3-0.4-0.6-0.4-1V30.1l15.2,11.6
		c1.7,1.3,3.8,1.9,6.3,1.9S40.6,43,42.3,41.7z"/>
</g>
</svg>
