<?xml version="1.0" encoding="utf-8"?>
<!-- Generator: Adobe Illustrator 20.0.0, SVG Export Plug-In . SVG Version: 6.00 Build 0)  -->
<svg version="1.1" id="Layer_1" xmlns="http://www.w3.org/2000/svg" xmlns:xlink="http://www.w3.org/1999/xlink" x="0px" y="0px"
	 width="50px" height="50px" viewBox="0 0 50 50" style="enable-background:new 0 0 50 50;" xml:space="preserve">
<style type="text/css">
	.st0{fill:#B3B3B3;}
</style>
<path class="st0" d="M25,34.7c-1.1,0-2,0.9-2,2c0,1.1,0.9,2,2,2s2-0.9,2-2C27,35.6,26.1,34.7,25,34.7z M46.5,39.9L27.6,7.1
	C27,6.1,26,5.6,25,5.6c-1,0-2,0.5-2.6,1.5L3.5,39.9c-1.2,2,0.3,4.5,2.6,4.5h37.9C46.3,44.4,47.7,41.9,46.5,39.9z M44.8,41.9
	c-0.1,0.2-0.3,0.5-0.9,0.5H6.1c-0.5,0-0.8-0.4-0.9-0.5c-0.1-0.2-0.3-0.6,0-1L24.1,8.1c0.3-0.5,0.7-0.5,0.9-0.5c0.2,0,0.6,0,0.9,0.5
	l18.9,32.8C45.1,41.3,44.9,41.7,44.8,41.9z M25,31.6c0.8,0,1.5-0.7,1.5-1.5V17.6c0-0.8-0.7-1.5-1.5-1.5s-1.5,0.7-1.5,1.5v12.5
	C23.5,30.9,24.2,31.6,25,31.6z"/>
</svg>
