<?xml version="1.0" encoding="utf-8"?>
<!DOCTYPE svg PUBLIC "-//W3C//DTD SVG 1.1//EN" "http://www.w3.org/Graphics/SVG/1.1/DTD/svg11.dtd">
<svg xmlns="http://www.w3.org/2000/svg" xmlns:xlink="http://www.w3.org/1999/xlink" version="1.1" baseProfile="full" width="32.0016" height="32.0018" viewBox="0 0 32.00 32.00" enable-background="new 0 0 32.00 32.00" xml:space="preserve">
	<path fill="#478DE5" fill-opacity="1" stroke-linejoin="round" d="M 25.668,11.1674C 25.668,5.82831 21.3398,1.50018 16.0008,1.50018C 10.6617,1.50018 6.33365,5.82831 6.33365,11.1673C 6.33456,11.7681 6.38754,12.3416 6.48819,12.8985C 6.94739,16.0975 8.76974,23.2706 16.0008,30.5016C 16.0007,30.5018 25.6241,20.9304 25.6678,11.2335L 25.668,11.1674 Z M 11.9727,11.1674C 11.9727,8.94281 13.7761,7.13947 16.0007,7.13947C 18.2253,7.13947 20.0287,8.94281 20.0287,11.1674C 20.0287,13.392 18.2253,15.1954 16.0007,15.1954C 13.7761,15.1954 11.9727,13.392 11.9727,11.1674 Z "/>
</svg>
