<svg xmlns="http://www.w3.org/2000/svg" width="25" height="23"><path fill="#fff" d="M6.1 16.3c-3.9 0-5-.3-5-.3-.2 0-.3-.1-.4-.3-.1-.2-.1-.4-.1-.5.3-1.4.3-1.9 1.6-2.9 1.2-.9 2.7-1.5 3.2-2.1.4-.4.8-1 .1-1.8-1.7-2-1.9-3.8-1.2-5.4.7-1.5 2.3-2.1 3.5-2.1 1.2 0 2.8.5 3.5 2.1.3.6.4 1.2.4 1.8-1.7.4-3.4 1.3-4.3 3.2-.7 1.6-1.1 4 1.1 6.9-.2.1-.5.3-.8.4-.5.4-1.1.7-1.6 1zm-.2 5.4c-.2 0-.3-.2-.4-.3-.1-.1-.1-.4-.1-.5.3-1.4.3-1.9 1.6-2.9 1.2-.9 2.7-1.5 3.2-2.1.4-.4.8-1 .1-1.8-1.7-2-1.9-3.8-1.2-5.4.7-1.5 2.3-2.1 3.5-2.1s2.8.5 3.5 2.1c.7 1.6.6 3.4-1.2 5.4-.7.8-.3 1.4.1 1.8.5.5 2 1.2 3.2 2.1 1.3.9 1.3 1.4 1.6 2.9 0 .2 0 .4-.1.5-.1.1-.3.3-.5.3-.1 0-1.5.3-6.6.3-5.3-.1-6.6-.3-6.7-.3zm18.5-5.9c-.1.1-.3.3-.5.3-.1 0-1.2.2-5 .3-.5-.4-1.1-.7-1.5-1-.3-.1-.6-.3-.8-.4 2.2-2.9 1.8-5.3 1.1-6.9-.9-1.9-2.6-2.8-4.2-3 0-.6.1-1.2.4-1.8.7-1.5 2.3-2.1 3.5-2.1s2.8.5 3.5 2.1c.7 1.6.6 3.4-1.2 5.4-.7.8-.3 1.4.1 1.8.5.5 2 1.2 3.2 2.1 1.3 1 1.3 1.4 1.6 2.9-.1-.1-.1.1-.2.3z"/></svg>