<?xml version="1.0" encoding="utf-8"?>
<!-- Generator: Adobe Illustrator 15.1.0, SVG Export Plug-In . SVG Version: 6.00 Build 0)  -->
<!DOCTYPE svg PUBLIC "-//W3C//DTD SVG 1.1//EN" "http://www.w3.org/Graphics/SVG/1.1/DTD/svg11.dtd">
<svg version="1.1" id="Layer_1" xmlns="http://www.w3.org/2000/svg" xmlns:xlink="http://www.w3.org/1999/xlink" x="0px" y="0px"
	 width="17px" height="20px" viewBox="0 0 17 20" enable-background="new 0 0 17 20" xml:space="preserve">
<path fill="#468100" d="M13.635,10.859l-5.038,8.691c-0.246,0.417-0.766,0.571-1.146,0.342l-7.005-4.037
	c-0.414-0.233-0.574-0.758-0.331-1.162l5.044-8.69l4.108-2.562l1.979,1.112c0.133-0.358,0.1-0.389,0.182-0.747
	c0.178-0.808,0.358-2.226,1.977-3.442c0.55-0.472,1.377-0.472,2.141-0.083c0.409,0.181,0.77,0.498,1.031,0.832
	c0.263,0.391,0.396,0.806,0.428,1.188c-0.031,0.5-0.262,1.167-1.359,1.685c-0.86,0.393-1.586,0.49-2.262,0.568
	c-0.598,0.083-1.07,0.133-1.463,0.393l1.93,1.104L13.635,10.859z M11.605,8.309c0.426-0.699,0.295-1.558-0.199-2.128l-0.891-0.538
	C9.743,5.385,8.853,5.719,8.411,6.472C7.912,7.35,8.208,8.454,9.089,8.974C9.971,9.46,11.115,9.188,11.605,8.309z M11.848,3.855
	c0,0.131-0.029,0.213-0.062,0.312c-0.017,0.127,0,0.21-0.05,0.353c0.475-0.305,0.967-0.324,1.584-0.384
	c0.632-0.067,1.357-0.183,2.144-0.539c0.724-0.31,1.095-0.78,1.11-1.295c0-0.59-0.439-1.208-1.09-1.582l-0.133-0.071
	c-0.625-0.314-1.246-0.314-1.719,0.054C12.178,1.811,11.977,3.077,11.848,3.855L11.848,3.855z"/>
</svg>
