<?xml version="1.0" encoding="utf-8"?>
<!-- Generator: Adobe Illustrator 17.1.0, SVG Export Plug-In . SVG Version: 6.00 Build 0)  -->
<!DOCTYPE svg PUBLIC "-//W3C//DTD SVG 1.1//EN" "http://www.w3.org/Graphics/SVG/1.1/DTD/svg11.dtd">
<svg version="1.1" id="Layer_1" xmlns="http://www.w3.org/2000/svg" xmlns:xlink="http://www.w3.org/1999/xlink" x="0px" y="0px" width="96" height="96"
	 viewBox="0 0 96 96" style="enable-background:new 0 0 96 96;" xml:space="preserve">
<path style="fill:#FFFDEF;stroke:#7F6A9E;stroke-width:2;stroke-miterlimit:10;" d="M95,89.973C95,92.749,92.749,95,89.973,95H6.027
	C3.251,95,1,92.749,1,89.973V6.027C1,3.251,3.251,1,6.027,1h83.946C92.749,1,95,3.251,95,6.027V89.973z"/>
<g>
	<path style="fill:#D7D7D7;" d="M31.795,80.838h57.372v2.239H31.795V80.838z"/>
	<path style="fill:#D7D7D7;" d="M31.795,77.466h57.372v2.239H31.795V77.466z"/>
	<path style="fill:#D7D7D7;" d="M31.795,74.094h57.372v2.239H31.795V74.094z"/>
	<path style="fill:#D7D7D7;" d="M31.795,70.722h57.372v2.239H31.795V70.722z"/>
	<path style="fill:#D7D7D7;" d="M31.795,62.871h27.551v6.164H31.795V62.871z"/>
	<path style="fill:#D7D7D7;" d="M6.487,62.871h22.511v22.445H6.487V62.871z"/>
	<path style="fill:#D7D7D7;" d="M31.795,54.441h57.372v2.266H31.795V54.441z"/>
	<path style="fill:#D7D7D7;" d="M31.795,51.095h57.372v2.239H31.795V51.095z"/>
	<path style="fill:#D7D7D7;" d="M31.795,47.723h57.372v2.239H31.795V47.723z"/>
	<path style="fill:#D7D7D7;" d="M31.795,44.351h57.372v2.239H31.795V44.351z"/>
	<path style="fill:#D7D7D7;" d="M31.795,36.501h27.551v6.164H31.795V36.501z"/>
	<path style="fill:#D7D7D7;" d="M6.487,36.501h22.511v22.445H6.487V36.501z"/>
	<path style="fill:#D7D7D7;" d="M31.795,28.624h57.372v2.266H31.795V28.624z"/>
	<path style="fill:#D7D7D7;" d="M31.795,25.278h57.372v2.239H31.795V25.278z"/>
	<path style="fill:#D7D7D7;" d="M31.795,21.906h57.372v2.239H31.795V21.906z"/>
	<path style="fill:#D7D7D7;" d="M31.795,18.534h57.372v2.239H31.795V18.534z"/>
	<path style="fill:#D7D7D7;" d="M31.795,10.684h27.551v6.164H31.795V10.684z"/>
	<path style="fill:#D7D7D7;" d="M6.487,10.684h22.511v22.445H6.487V10.684z"/>
	<g>
		<polygon style="fill:none;stroke:#7F6A9E;stroke-width:3;stroke-miterlimit:10;" points="87.874,47.231 77.126,36.501 
			77.574,36.053 5.247,36.053 5.247,60.5 88.851,60.5 88.851,46.256 		"/>
		<polygon style="fill:#7F6A9E;" points="89.32,50.601 90.753,49.17 90.753,34.193 74.2,34.193 73.541,34.85 		"/>
	</g>
</g>
</svg>
