<?xml version="1.0" encoding="utf-8"?>
<!-- Generator: Adobe Illustrator 16.0.0, SVG Export Plug-In . SVG Version: 6.00 Build 0)  -->
<!DOCTYPE svg PUBLIC "-//W3C//DTD SVG 1.1//EN" "http://www.w3.org/Graphics/SVG/1.1/DTD/svg11.dtd">
<svg version="1.1" id="Layer_1" xmlns="http://www.w3.org/2000/svg" xmlns:xlink="http://www.w3.org/1999/xlink" x="0px" y="0px"
	 width="15px" height="15px" viewBox="0 0 15 15" enable-background="new 0 0 15 15" xml:space="preserve">
<g>
	<path fill="#2F63AF" d="M12.803,2.195c-2.929-2.928-7.679-2.928-10.605,0c-2.93,2.929-2.93,7.679,0,10.607
		c2.929,2.931,7.679,2.93,10.605,0C15.732,9.877,15.732,5.124,12.803,2.195z M7.186,13.533c-0.816,0-1.48-0.657-1.48-1.467
		c0-0.828,0.65-1.477,1.48-1.477c0.808,0,1.466,0.66,1.466,1.477C8.651,12.863,7.979,13.533,7.186,13.533z M8.214,8.394v0.812
		c0,0.396-0.152,0.552-0.55,0.552h-1.06c-0.396,0-0.55-0.155-0.55-0.552V7.389c0-0.459,0.471-0.595,0.886-0.716
		c0.101-0.032,0.206-0.061,0.311-0.096c0.533-0.194,0.866-0.435,0.866-1.034c0-0.195,0-0.787-0.96-0.787
		c-0.595,0-1.133,0.228-1.455,0.364C5.521,5.195,5.431,5.235,5.339,5.235c-0.185,0-0.359-0.15-0.398-0.341L4.573,3.944
		C4.528,3.856,4.528,3.767,4.528,3.696c0-0.71,2.214-1.103,2.948-1.103c1.85,0,3.092,1.191,3.092,2.964
		C10.568,7.485,9.112,8.082,8.214,8.394z"/>
</g>
</svg>
