<svg xmlns="http://www.w3.org/2000/svg" width="16.3" height="14"><path fill="#48843E" d="M5.9 5.5c0 .3-.2.5-.5.5h-5c-.2-.1-.4-.3-.4-.5v-5c0-.3.2-.5.5-.5h5c.3 0 .5.2.5.5v5z"/><path fill="#48843E" d="M16.3 1.8c0 .1-.1.3-.3.3h-7c-.2 0-.3-.1-.3-.3v-1c0-.1.1-.3.3-.3h7.1c.1 0 .3.1.3.3v1z"/><path fill="#48843E" d="M16.3 4.5c0 .1-.1.3-.3.3h-7c-.1 0-.3-.1-.3-.3v-1c0-.1.1-.3.3-.3h7.1c.1 0 .3.1.3.3v1z"/><path fill="#48843E" d="M5.9 13.5c0 .3-.2.5-.5.5h-5c-.2 0-.4-.2-.4-.5v-5c0-.3.2-.5.5-.5h5c.3 0 .5.2.5.5v5z"/><path fill="#48843E" d="M16.3 9.9c0 .1-.1.3-.3.3h-7c-.1 0-.3-.1-.3-.3v-1c0-.1.1-.3.3-.3h7.1c.1 0 .3.1.3.3v1z"/><path fill="#48843E" d="M16.3 12.6c0 .1-.1.3-.3.3h-7c-.1 0-.3-.1-.3-.3v-1c0-.1.1-.3.3-.3h7.1c.1 0 .3.1.3.3v1z"/></svg>