<?xml version="1.0" encoding="utf-8"?>
<!-- Generator: Adobe Illustrator 16.0.0, SVG Export Plug-In . SVG Version: 6.00 Build 0)  -->
<!DOCTYPE svg PUBLIC "-//W3C//DTD SVG 1.1//EN" "http://www.w3.org/Graphics/SVG/1.1/DTD/svg11.dtd">
<svg version="1.1" id="Layer_1" xmlns="http://www.w3.org/2000/svg" xmlns:xlink="http://www.w3.org/1999/xlink" x="0px" y="0px"
	 width="27px" height="20px" viewBox="0 0 27 20" enable-background="new 0 0 27 20" xml:space="preserve">
<path fill="#fff" d="M16.905,10.215h1.718v7.743h5.361v-7.743h2.932l-5.59-7.616l-5.639,7.616H16.905z"/>
<g>
	<path fill-rule="evenodd" clip-rule="evenodd" fill="#fff" d="M14.672,5.285c-0.131,0.273-0.263,0.547-0.395,0.822
		c-0.048,0.102-0.093,0.203-0.143,0.312C12.26,4.188,9.929,3.445,7.171,4.355c-1.908,0.631-3.142,2.01-3.818,3.928
		c3.33,0,6.628,0,9.955,0c-0.181,0.41-0.35,0.792-0.523,1.173c-0.013,0.028-0.058,0.048-0.092,0.057
		c-0.043,0.01-0.091,0.003-0.137,0.003c-3.075,0-6.153,0-9.229,0c-0.068,0-0.136,0-0.23,0c0,0.409,0,0.808,0,1.223
		c3.037,0,6.059,0,9.108,0c-0.023,0.062-0.038,0.108-0.057,0.151c-0.135,0.307-0.278,0.61-0.405,0.921
		c-0.05,0.123-0.112,0.165-0.249,0.165c-2.634-0.005-5.266-0.003-7.899-0.003c-0.069,0-0.137,0-0.244,0
		c0.67,1.896,1.885,3.266,3.771,3.914c2.777,0.952,5.088,0.134,6.992-2.031c0.002,0.03,0.009,0.071,0.009,0.112
		c0.002,0.49,0.006,0.978-0.004,1.467c-0.002,0.077-0.047,0.177-0.104,0.227c-1.212,1.053-2.613,1.671-4.216,1.81
		C9.774,17.474,9.75,17.49,9.724,17.5c-0.342,0-0.683,0-1.022,0c-0.039-0.01-0.075-0.022-0.111-0.03
		c-0.523-0.105-1.065-0.154-1.564-0.325c-2.465-0.846-4.094-2.531-4.896-5.013C2.09,12.006,2.04,11.968,1.91,11.97
		C1.273,11.977,0.636,11.974,0,11.974c0-0.012,0-0.024,0-0.035c0.122-0.262,0.273-0.513,0.356-0.787
		c0.104-0.336,0.288-0.455,0.638-0.415c0.287,0.033,0.583,0.008,0.862,0.008c0-0.418,0-0.814,0-1.228c-0.61,0-1.234,0-1.857,0
		c0-0.012,0-0.024,0-0.035c0.162-0.354,0.329-0.708,0.485-1.067c0.043-0.096,0.096-0.132,0.204-0.13
		c0.46,0.008,0.92,0.002,1.383,0.002C2.09,8.237,2.106,8.197,2.12,8.152c0.208-0.714,0.504-1.389,0.93-1.998
		c1.642-2.338,3.863-3.54,6.753-3.36c1.398,0.085,2.654,0.593,3.764,1.438c0.392,0.298,0.738,0.654,1.105,0.984
		C14.672,5.239,14.672,5.262,14.672,5.285z"/>
</g>
</svg>
