<?xml version="1.0" encoding="utf-8"?>
<!-- Generator: Adobe Illustrator 16.0.0, SVG Export Plug-In . SVG Version: 6.00 Build 0)  -->
<!DOCTYPE svg PUBLIC "-//W3C//DTD SVG 1.1//EN" "http://www.w3.org/Graphics/SVG/1.1/DTD/svg11.dtd">
<svg version="1.1" id="Capa_1" xmlns="http://www.w3.org/2000/svg" xmlns:xlink="http://www.w3.org/1999/xlink" x="0px" y="0px"
	 width="16.824px" height="13px" viewBox="0 0 16.824 13" enable-background="new 0 0 16.824 13" xml:space="preserve">
<g>
	<g>
		<path fill="#448200" d="M2.186,11.542C1.389,11.487,0.66,11.249,0,10.827l0.66-1.602c0.705,0.494,1.4,0.742,2.082,0.742
			c1.051,0,1.575-0.361,1.575-1.086c0-0.362-0.134-0.702-0.402-1.021C3.646,7.542,3.139,7.195,2.389,6.819
			c-0.748-0.376-1.26-0.688-1.529-0.935C0.588,5.636,0.382,5.34,0.236,4.997C0.094,4.653,0.021,4.27,0.021,3.849
			c0-0.623,0.196-1.173,0.587-1.649C1,1.723,1.526,1.405,2.186,1.244V0h1.575L3.754,1.174c0.844,0.083,1.471,0.289,1.883,0.619
			l-0.543,1.54C4.466,2.884,3.805,2.66,3.107,2.66c-0.412,0-0.732,0.11-0.959,0.333s-0.34,0.504-0.34,0.843
			c0,0.577,0.639,1.178,1.918,1.801C4.4,5.966,4.886,6.27,5.184,6.547s0.524,0.601,0.681,0.969C6.02,7.885,6.098,8.297,6.098,8.75
			c0,0.642-0.206,1.202-0.619,1.682c-0.412,0.479-0.985,0.807-1.718,0.985V13H2.186V11.542z"/>
	</g>
	<polygon fill="#448200" points="8.877,6.553 10.008,6.553 10.241,6.553 10.241,0 14.496,0 14.496,6.553 15.203,6.553 16.578,6.553 
		16.824,6.553 12.387,13 7.912,6.553 	"/>
</g>
</svg>
