<?xml version="1.0" encoding="utf-8"?>
<!-- Generator: Adobe Illustrator 15.1.0, SVG Export Plug-In . SVG Version: 6.00 Build 0)  -->
<!DOCTYPE svg PUBLIC "-//W3C//DTD SVG 1.1//EN" "http://www.w3.org/Graphics/SVG/1.1/DTD/svg11.dtd">
<svg version="1.1" id="Layer_1" xmlns="http://www.w3.org/2000/svg" xmlns:xlink="http://www.w3.org/1999/xlink" x="0px" y="0px"
	 width="18px" height="20px" viewBox="0 0 18 20" enable-background="new 0 0 18 20" xml:space="preserve">
<g>
	<path fill="#468100" d="M4.154,2.5C4.154,3.75,4.154,2.5,4.154,2.5V5h2.769V2.5h4.154V5h2.769V2.5c0,0,0,1.25,0,0
		c0-2.5-1.384-2.5-2.769-2.5S9.692,0,6.923,0C4.154,0,4.154,1.25,4.154,2.5z"/>
	<g>
		<path fill="#468100" d="M18,4.25c0-0.275-0.225-0.5-0.5-0.5h-17C0.225,3.75,0,3.975,0,4.25v1.5c0,0.275,0.225,0.5,0.5,0.5h0.385
			c0.275,0,0.5,0.225,0.5,0.5V19.5c0,0.275,0.225,0.5,0.5,0.5h14.23c0.275,0,0.5-0.225,0.5-0.5V6.75c0-0.275,0.225-0.5,0.5-0.5H17.5
			c0.275,0,0.5-0.225,0.5-0.5V4.25z M5.538,17c0,0.275-0.225,0.5-0.5,0.5H4.654c-0.275,0-0.5-0.225-0.5-0.5V7.482
			c0-0.275,0.225-0.5,0.5-0.5h0.384c0.275,0,0.5,0.225,0.5,0.5V17z M9.692,17c0,0.275-0.225,0.5-0.5,0.5H8.808
			c-0.275,0-0.5-0.225-0.5-0.5V7.482c0-0.275,0.225-0.5,0.5-0.5h0.385c0.275,0,0.5,0.225,0.5,0.5V17z M13.846,17
			c0,0.275-0.225,0.5-0.5,0.5h-0.384c-0.275,0-0.5-0.225-0.5-0.5V7.482c0-0.275,0.225-0.5,0.5-0.5h0.384c0.275,0,0.5,0.225,0.5,0.5
			V17z"/>
	</g>
</g>
</svg>
