<?xml version="1.0" encoding="utf-8"?>
<!-- Generator: Adobe Illustrator 16.0.0, SVG Export Plug-In . SVG Version: 6.00 Build 0)  -->
<!DOCTYPE svg PUBLIC "-//W3C//DTD SVG 1.1//EN" "http://www.w3.org/Graphics/SVG/1.1/DTD/svg11.dtd">
<svg version="1.1" id="Icons" xmlns="http://www.w3.org/2000/svg" xmlns:xlink="http://www.w3.org/1999/xlink" x="0px" y="0px"
	 width="65px" height="40px" viewBox="0 0 65 40" enable-background="new 0 0 65 40" xml:space="preserve">
<g id="New_Symbol_11">
	<g>
		<path opacity="0.5" d="M65,38.008C65,39.108,64.104,40,63,40H2c-1.104,0-2-0.892-2-1.992V1.992C0,0.892,0.896,0,2,0h61
			c1.104,0,2,0.892,2,1.992V38.008z"/>
		<g>
			<path fill="#FFFFFF" d="M44.279,28.067l-4.613-4.615c0.861-1.523,1.358-3.279,1.358-5.151c0-5.794-4.714-10.507-10.507-10.507
				c-5.795,0-10.508,4.713-10.508,10.507c0,5.793,4.713,10.509,10.508,10.509c2.167,0,4.184-0.661,5.855-1.79l4.479,4.478
				c0.474,0.473,1.094,0.709,1.714,0.709c0.621,0,1.241-0.236,1.714-0.709C45.228,30.55,45.228,29.015,44.279,28.067z
				 M23.242,18.301c0-4.011,3.266-7.274,7.275-7.274c4.013,0,7.274,3.264,7.274,7.274s-3.262,7.275-7.274,7.275
				C26.508,25.576,23.242,22.312,23.242,18.301z"/>
			<polygon fill="#FFFFFF" points="35.727,16.684 32.494,16.684 32.494,13.451 29.26,13.451 29.26,16.684 26.027,16.684 
				26.027,19.917 29.26,19.917 29.26,23.15 32.494,23.15 32.494,19.917 35.727,19.917 			"/>
		</g>
	</g>
</g>
</svg>
